<svg width="100" height="100" viewBox="0 0 100 100" fill="none" xmlns="http://www.w3.org/2000/svg">
<g clip-path="url(#clip0_306_50)">
<path d="M77.7381 17.6761C67.9333 0.789097 46.4133 -4.9311 29.5263 4.60134C12.6369 14.4086 6.91671 35.9286 16.4516 52.8144C26.2576 69.7038 47.7764 75.4228 64.6622 65.6155C81.5528 56.3555 87.5454 34.5655 77.7381 17.6761ZM21.627 50.0917C13.4553 35.9299 18.3583 17.9497 32.5226 9.7804C46.6869 1.60627 64.6671 6.51172 72.8363 20.676C81.008 34.8379 76.105 52.8168 61.9395 60.9861C47.7752 69.159 29.7987 64.256 21.627 50.0917ZM85.4636 84.0882L70.369 92.8095L58.6489 72.525L73.7435 63.8036L85.4636 84.0882ZM83.7295 98.8495C79.6449 101.299 74.1971 99.6655 71.7456 95.5796L86.9994 86.8632C89.4521 91.2214 87.8178 96.3956 83.7295 98.8495Z" fill="white"/>
<path d="M64.2316 26H57.4194L55.5139 34.7177C54.974 37.1692 54.6967 39.6232 54.1568 42.3434C53.6072 39.8919 53.0636 37.444 52.5176 34.9889L50.3385 26H44.8919L42.438 34.9889C42.168 37.168 41.3508 39.8919 41.0784 42.3434C40.806 39.8919 40.2588 37.444 39.7165 34.9889L38.0797 26H31L37.2625 48.0636H43.7999L45.979 40.4379C46.5238 38.2588 47.0686 36.3496 47.341 33.6245C47.8858 36.3508 48.1581 38.2588 48.7029 40.4379L50.882 48.0636H57.4194L64.2316 26Z" fill="#EE2C2F"/>
</g>
<defs>
<clipPath id="clip0_306_50">
<rect width="100" height="100" fill="white"/>
</clipPath>
</defs>
</svg>
