<svg width="100" height="100" viewBox="0 0 100 100" fill="none" xmlns="http://www.w3.org/2000/svg">
<g clip-path="url(#clip0_307_342)">
<path d="M35.0009 39.999C38.9294 39.999 42.1259 36.8025 42.1259 32.874C42.1259 28.9455 38.9294 25.749 35.0009 25.749C31.0725 25.749 27.876 28.9455 27.876 32.874C27.876 36.8025 31.0725 39.999 35.0009 39.999ZM35.0009 28.749C37.2764 28.749 39.1259 30.5985 39.1259 32.874C39.1259 35.1495 37.2764 36.999 35.0009 36.999C32.7255 36.999 30.876 35.1495 30.876 32.874C30.876 30.5985 32.7255 28.749 35.0009 28.749Z" fill="#EE2C2F"/>
<path d="M77.0561 74.2499C80.9831 74.2499 84.1811 71.0534 84.1811 67.125C84.1811 63.1965 80.9831 60 77.0561 60C73.1276 60 69.9312 63.1965 69.9312 67.125C69.9312 71.0534 73.1261 74.2499 77.0561 74.2499ZM77.0561 63C79.3316 63 81.1811 64.848 81.1811 67.125C81.1811 69.402 79.3316 71.2499 77.0561 71.2499C74.7791 71.2499 72.9311 69.402 72.9311 67.125C72.9311 64.848 74.7806 63 77.0561 63Z" fill="#EE2C2F"/>
<path d="M1.50302 54.9988C1.76402 54.9988 2.02952 54.9313 2.26951 54.7873L23.2079 42.3194C25.9829 45.7753 30.2354 47.9983 35.0009 47.9983C39.1573 47.9983 42.9238 46.3123 45.6598 43.5913L64.4307 58.8163C62.8527 61.2043 61.9302 64.0572 61.9302 67.1247C61.9302 75.4662 68.7132 82.2492 77.0561 82.2492C85.3976 82.2492 92.1821 75.4662 92.1821 67.1247C92.1821 62.8468 90.3911 58.9888 87.5261 56.2348L99.8185 33.5894C100.215 32.8619 99.9445 31.9514 99.217 31.5554C98.4865 31.1624 97.579 31.4294 97.1845 32.1584L85.1351 54.3568C82.7921 52.8718 80.0291 51.9988 77.0576 51.9988C72.8607 51.9988 69.0642 53.7178 66.3207 56.4838L47.5708 41.2769C49.1833 38.8709 50.1268 35.9819 50.1268 32.8754C50.1268 24.5354 43.3423 17.751 35.0024 17.751C26.6624 17.751 19.8779 24.5354 19.8779 32.8754C19.8779 35.3729 20.4959 37.7249 21.5744 39.8039L0.733523 52.2103C0.0210262 52.6348 -0.211473 53.5543 0.211525 54.2668C0.493524 54.7378 0.991521 54.9988 1.50302 54.9988ZM77.0561 54.9988C83.7431 54.9988 89.1821 60.4378 89.1821 67.1232C89.1821 73.8087 83.7431 79.2477 77.0561 79.2477C70.3692 79.2477 64.9302 73.8087 64.9302 67.1232C64.9302 60.4378 70.3692 54.9988 77.0561 54.9988ZM35.0009 20.7495C41.6863 20.7495 47.1253 26.1884 47.1253 32.8739C47.1253 39.5594 41.6863 44.9983 35.0009 44.9983C28.3154 44.9983 22.8764 39.5594 22.8764 32.8739C22.8764 26.1884 28.3154 20.7495 35.0009 20.7495Z" fill="white"/>
</g>
<defs>
<clipPath id="clip0_307_342">
<rect width="100" height="100" fill="white"/>
</clipPath>
</defs>
</svg>
