<svg width="100" height="100" viewBox="0 0 100 100" fill="none" xmlns="http://www.w3.org/2000/svg">
<g clip-path="url(#clip0_309_2)">
<path d="M41.9902 22.5361V8.51415H93.438V45.5099H47.0985C40.0626 49.8784 40.5433 49.6025 39.9473 49.8858H95.626C96.8342 49.8858 97.814 48.9063 97.814 47.6979V6.32617C97.814 5.11774 96.8342 4.13818 95.626 4.13818H39.8022C38.5938 4.13818 37.6143 5.11774 37.6143 6.32617V17.2302C37.6143 17.2302 41.5377 19.3088 41.9902 22.5361Z" fill="white"/>
<path d="M66.1487 28.6034L62.5787 31.4183L64.0222 34.8976C64.2567 35.463 64.7175 35.9045 65.2927 36.1146C65.8675 36.3244 66.5044 36.2841 67.0483 36.0025L76.5245 31.1006L86.056 38.5301C86.4555 38.8415 86.9292 38.9924 87.3997 38.9924C88.051 38.9924 88.6954 38.703 89.1268 38.1494C89.8699 37.1963 89.6994 35.8216 88.7464 35.0786L78.1095 26.7874C77.4356 26.2623 76.5184 26.1774 75.7591 26.5697L67.1523 31.022L66.1487 28.6034Z" fill="#EE2C2F"/>
<path d="M61.5 17.3981C61.104 16.4435 60.0947 15.8959 59.0782 16.0856L51.6228 17.4756L48.4209 12.3981C47.7764 11.3759 46.4251 11.07 45.4033 11.7144C44.381 12.359 44.0752 13.7101 44.7195 14.7321L48.7133 21.0658C49.1915 21.8242 50.0832 22.2143 50.9651 22.0498L57.6706 20.7996L61.6195 17.6858L61.5 17.3981Z" fill="#EE2C2F"/>
<path d="M57.2757 29.8917C57.4536 30.1781 57.6085 30.4722 57.7457 30.7708L67.3977 23.1601C68.3467 22.4121 68.5094 21.036 67.7611 20.0873C67.0129 19.1386 65.6373 18.9754 64.6883 19.7239L54.891 27.449C55.8266 28.0606 56.6475 28.8795 57.2757 29.8917Z" fill="white"/>
<path d="M19.4481 57.8625C19.4481 57.2974 19.9063 56.8392 20.4714 56.8392C21.0366 56.8392 21.4947 57.2974 21.4947 57.8625V78.7015C23.509 77.5371 25.8387 76.8636 28.3201 76.8518C27.1588 74.9393 26.4895 72.6964 26.4895 70.3001C26.4895 66.4331 28.2339 62.9675 30.975 60.6435C30.975 60.6435 30.8919 58.0124 30.8893 28.3438C30.8893 27.8911 31.2533 27.5224 31.7063 27.517C32.159 27.5115 32.532 27.8714 32.5427 28.3239C32.5427 28.3241 32.5427 28.3241 32.5427 28.3241C32.562 32.1367 32.6033 40.4092 32.6154 42.7707C32.6226 44.201 33.4024 45.5158 34.6541 46.2078C35.9057 46.8999 37.434 46.8614 38.6492 46.1067L52.6479 37.4152C54.5013 36.2645 55.0709 33.8291 53.92 31.9756C52.7693 30.1224 50.3339 29.5522 48.4804 30.7033L40.4801 35.6707C40.4669 33.0613 40.4567 31.0061 40.4431 28.2845C40.4173 23.1605 36.222 18.9834 31.0949 18.9834H27.1305L24.1623 26.8838L22.1395 32.1297L23.325 26.5462C23.407 26.1598 23.3475 25.7565 23.1572 25.4104L21.5512 22.4894L22.937 19.8439C23.0359 19.6641 23.0324 19.4453 22.9281 19.2685C22.8235 19.0917 22.6336 18.9834 22.4281 18.9834H18.5129C18.3077 18.9834 18.1176 19.0917 18.013 19.2685C17.9084 19.4453 17.9051 19.6641 18.004 19.8439L19.4711 22.4949L17.862 25.4211C17.6752 25.7607 17.6143 26.1554 17.6898 26.5357L18.7164 32.1297L16.8566 26.8838L13.8105 18.9836H9.84613C4.71749 18.9836 0.524006 23.1561 0.498187 28.2847L0.352468 57.305C0.341528 59.4867 2.1011 61.264 4.28274 61.2751C4.28952 61.2751 4.29631 61.2751 4.30309 61.2751C6.47532 61.2751 8.2419 59.5195 8.25284 57.3449L8.39877 28.3243C8.40096 27.8922 8.75257 27.5434 9.18448 27.5445C9.61639 27.5456 9.96603 27.8961 9.96603 28.3283L9.96778 94.7281C9.96778 97.2784 11.9816 99.3572 14.5059 99.4631L14.5503 90.6169C14.5713 86.4275 16.4735 82.6719 19.4481 80.1447V57.8625V57.8625Z" fill="white"/>
<path d="M20.4706 16.3736C24.992 16.3736 28.6574 12.7082 28.6574 8.18678C28.6574 3.66534 24.992 0 20.4706 0C15.9492 0 12.2838 3.66534 12.2838 8.18678C12.2838 12.7082 15.9492 16.3736 20.4706 16.3736Z" fill="white"/>
<path d="M79.444 78.6755C84.0196 78.6755 87.729 74.9662 87.729 70.3905C87.729 65.8148 84.0196 62.1055 79.444 62.1055C74.8683 62.1055 71.1589 65.8148 71.1589 70.3905C71.1589 74.9662 74.8683 78.6755 79.444 78.6755Z" fill="white"/>
<path d="M99.6011 90.7294C99.575 85.5392 95.3312 81.3167 90.1409 81.3167C87.9157 81.3167 70.9096 81.3167 68.6798 81.3167C63.7895 81.3167 59.741 85.0655 59.2673 89.8399C58.8317 84.9756 54.7177 81.2261 49.8474 81.2261C47.6222 81.2261 30.6161 81.2261 28.3864 81.2261C23.196 81.2261 18.9522 85.4487 18.9262 90.6388L18.8792 100H26.8745L26.9213 90.6788C26.9235 90.253 27.2696 89.9095 27.6952 89.9106C28.1208 89.9117 28.4649 90.2572 28.4649 90.6825V100H49.6393V90.66C49.6393 90.1979 50.0139 89.8233 50.476 89.8233C50.9381 89.8233 51.3127 90.1979 51.3127 90.66C51.3127 90.6661 51.3127 90.6725 51.3125 90.6788L51.3593 100C57.2047 100 61.5691 100 67.1684 100L67.2148 90.7694C67.2169 90.3436 67.5631 90.0001 67.9886 90.0012C68.4142 90.0023 68.7584 90.3476 68.7584 90.7731V99.9998H89.9328V90.8495C89.9328 90.4023 90.284 90.0336 90.7308 90.0119C91.1775 89.9903 91.5633 90.323 91.6059 90.7683C91.6059 90.7685 91.6059 90.7687 91.6059 90.769L91.6523 99.9996H99.6477L99.6011 90.7294Z" fill="white"/>
<path d="M39.1504 62.0146C34.7073 62.0146 31.0975 65.5056 30.8761 69.8734C30.7418 72.5237 31.8681 75.1351 34.08 76.8498C35.4816 77.9364 37.2399 78.5849 39.1504 78.5849C43.8568 78.5849 47.6669 74.65 47.4247 69.8734C47.2031 65.4994 43.587 62.0146 39.1504 62.0146Z" fill="white"/>
</g>
<defs>
<clipPath id="clip0_309_2">
<rect width="100" height="100" fill="white"/>
</clipPath>
</defs>
</svg>
