<svg width="80" height="80" viewBox="0 0 80 80" fill="none" xmlns="http://www.w3.org/2000/svg">
<path d="M53.8936 67.1286C53.4791 66.8764 53.1179 66.5382 52.8308 66.1284C52.6982 65.9394 52.5862 65.7396 52.4934 65.5331H5.38793V19.1034H69.3268V49.4203C70.6918 49.5436 71.8371 50.4401 72.318 51.6678C72.7438 51.4344 73.2183 51.2902 73.7171 51.2462C74.0544 51.2168 74.3896 51.2378 74.7146 51.302V7.5367C74.7146 5.06087 72.7007 3.04663 70.2251 3.04663H4.48988C2.01424 3.04663 0 5.06087 0 7.5367V66.4313C0 68.9072 2.01424 70.9212 4.48988 70.9212H53.4844C53.1021 70.147 53.0114 69.2729 53.2364 68.432C53.3661 67.9483 53.5905 67.5071 53.8936 67.1286ZM64.3963 10.5863C64.3963 9.67077 65.1385 8.92836 66.0541 8.92836H67.7119C68.6277 8.92836 69.3697 9.67058 69.3697 10.5863V12.4653C69.3697 13.3809 68.6275 14.1231 67.7119 14.1231H66.0541C65.1383 14.1231 64.3963 13.3809 64.3963 12.4653V10.5863ZM56.6874 10.5863C56.6874 9.67077 57.4296 8.92836 58.3452 8.92836H60.0032C60.919 8.92836 61.661 9.67058 61.661 10.5863V12.4653C61.661 13.3809 60.9188 14.1231 60.0032 14.1231H58.3452C57.4296 14.1231 56.6874 13.3809 56.6874 12.4653V10.5863ZM48.9783 10.5863C48.9783 9.67077 49.7207 8.92836 50.6361 8.92836H52.2939C53.2097 8.92836 53.9519 9.67058 53.9519 10.5863V12.4653C53.9519 13.3809 53.2097 14.1231 52.2939 14.1231H50.6361C49.7207 14.1231 48.9783 13.3809 48.9783 12.4653V10.5863Z" fill="white"/>
<path d="M79.9895 63.9668L79.4913 61.1415C79.424 60.7611 79.0615 60.507 78.6807 60.574L76.1683 61.0168C75.8667 60.309 75.4815 59.6461 75.0243 59.0393L76.6653 57.0832C76.7846 56.9414 76.8427 56.7576 76.8267 56.5726C76.8103 56.3876 76.7211 56.2169 76.579 56.0975L74.3817 54.2534C74.2396 54.1341 74.0554 54.0762 73.8706 54.0924C73.6856 54.1086 73.5149 54.1975 73.3956 54.3397L71.7561 56.2943C71.0831 55.9514 70.3631 55.6869 69.6089 55.5124V52.9612C69.6089 52.5748 69.2955 52.2612 68.9092 52.2612H66.0401C65.654 52.2612 65.3404 52.5748 65.3404 52.9612V55.5124C64.5858 55.6867 63.8666 55.9514 63.1932 56.2943L61.5533 54.3399C61.3049 54.0438 60.8637 54.0053 60.5674 54.2536L58.3699 56.0975C58.2278 56.2169 58.1388 56.3876 58.1225 56.5726C58.1065 56.7576 58.1644 56.9416 58.2836 57.0837L59.9248 59.0395C59.4684 59.6461 59.0824 60.3094 58.7808 61.017L56.2684 60.574C55.8886 60.5072 55.5253 60.7611 55.4578 61.1415L54.9598 63.9668C54.9276 64.1495 54.9694 64.3373 55.0755 64.4895C55.1823 64.6417 55.3441 64.7452 55.527 64.7774L58.0413 65.2205C58.0823 65.9995 58.2179 66.7531 58.4362 67.4708L56.2263 68.7462C56.0655 68.8386 55.9484 68.9918 55.9002 69.1709C55.8522 69.3501 55.8775 69.541 55.9701 69.7018L57.4044 72.1862C57.4968 72.347 57.65 72.4642 57.8291 72.5122C57.8887 72.5282 57.9495 72.536 58.0102 72.536C58.132 72.536 58.2526 72.5044 58.36 72.4423L60.5716 71.1653C61.0917 71.7225 61.6788 72.2163 62.3205 72.6339L61.4472 75.033C61.3839 75.2075 61.3921 75.3999 61.4706 75.5681C61.5491 75.7363 61.691 75.8664 61.8654 75.9297L64.5607 76.9106C64.638 76.9388 64.7192 76.9533 64.8001 76.9533C64.9011 76.9533 65.0026 76.9314 65.0962 76.8876C65.2644 76.8093 65.3941 76.6671 65.4576 76.4926L66.3307 74.0936C66.705 74.1389 67.086 74.1624 67.4726 74.1624C67.8591 74.1624 68.2401 74.1385 68.6145 74.0936L69.4877 76.4926C69.551 76.6671 69.6813 76.8093 69.8491 76.8876C69.9425 76.9312 70.0436 76.9533 70.1452 76.9533C70.226 76.9533 70.3071 76.9392 70.3845 76.9106L73.0801 75.9297C73.2541 75.8664 73.3962 75.7359 73.4745 75.5681C73.553 75.3999 73.5614 75.2075 73.4979 75.033L72.6246 72.6343C73.2657 72.2167 73.8528 71.7225 74.3735 71.1657L76.5851 72.4426C76.6924 72.5044 76.8131 72.5364 76.9349 72.5364C76.9955 72.5364 77.0568 72.5282 77.116 72.5126C77.2953 72.4645 77.4481 72.347 77.5407 72.1866L78.975 69.7018C79.0676 69.5414 79.0929 69.3501 79.0449 69.1709C78.9967 68.9922 78.8796 68.839 78.7188 68.7462L76.5093 67.4712C76.7276 66.7533 76.8629 65.9997 76.9038 65.2209L79.4181 64.7776C79.601 64.7454 79.7633 64.6419 79.8696 64.4897C79.9799 64.3373 80.0217 64.1495 79.9895 63.9668ZM67.4748 68.4563C65.3497 68.4563 63.6266 66.7331 63.6266 64.6078C63.6266 62.4825 65.3499 60.7596 67.4748 60.7596C69.6001 60.7596 71.3233 62.4825 71.3233 64.6078C71.3233 66.7331 69.6001 68.4563 67.4748 68.4563Z" fill="white"/>
<path d="M31.3757 44.8403C31.3757 43.935 30.8451 43.1035 30.0238 42.7221L22.5073 39.2297L30.024 35.7369C30.8451 35.3551 31.3757 34.5238 31.3757 33.6189V33.5581C31.3757 32.756 30.972 32.0197 30.2964 31.5894C29.9227 31.3507 29.4873 31.2244 29.0379 31.2244C28.6992 31.2244 28.3592 31.2989 28.0549 31.4402L16.0381 37.0284C15.2172 37.4101 14.687 38.2415 14.687 39.1462V39.3133C14.687 40.2169 15.217 41.0477 16.0383 41.4314L28.0563 47.0201C28.367 47.1639 28.6979 47.2369 29.0397 47.2369C29.4851 47.2369 29.919 47.1104 30.2964 46.8704C30.9724 46.4383 31.3758 45.7026 31.3758 44.9015L31.3757 44.8403Z" fill="#EE2C2F"/>
<path d="M43.2322 25.5303C42.7938 24.9302 42.0888 24.572 41.346 24.572H41.2861C40.2662 24.572 39.3719 25.2245 39.0612 26.1944L31.1437 50.7264C30.9183 51.4347 31.0452 52.2148 31.483 52.8148C31.9214 53.4145 32.6264 53.7728 33.3692 53.7728H33.4292C34.4488 53.7728 35.3425 53.1201 35.6528 52.1505L43.5694 27.6203C43.7968 26.9126 43.6707 26.1313 43.2322 25.5303Z" fill="#EE2C2F"/>
<path d="M58.6765 37.0282L46.6595 31.4401C46.3562 31.2991 46.0167 31.2246 45.678 31.2246C45.2288 31.2246 44.7933 31.3505 44.4197 31.5889C43.743 32.02 43.3394 32.7561 43.3394 33.5581V33.6189C43.3394 34.5231 43.8695 35.3546 44.6914 35.7379L52.2077 39.2299L44.6912 42.7221C43.8699 43.1035 43.3394 43.9351 43.3394 44.8404V44.9015C43.3394 45.7026 43.743 46.4382 44.4193 46.8706C44.7954 47.1103 45.2298 47.237 45.6757 47.237C46.0171 47.237 46.3477 47.164 46.6605 47.0196L58.6781 41.4309C59.4986 41.0481 60.0284 40.2171 60.0284 39.3136V39.1465C60.0278 38.2416 59.4976 37.4102 58.6765 37.0282Z" fill="#EE2C2F"/>
</svg>
