<svg width="100" height="100" viewBox="0 0 100 100" fill="none" xmlns="http://www.w3.org/2000/svg">
<g clip-path="url(#clip0_307_189)">
<path d="M99.0209 47.0283L94.6525 41.1184L96.4275 33.9867C96.9576 31.8551 96.0341 29.6268 94.1525 28.4951L87.8542 24.7068L86.7642 17.4385C86.4392 15.2668 84.7326 13.5602 82.5609 13.2352L75.2925 12.1451L71.5042 5.84688C70.5859 4.31855 68.9458 3.42363 67.2208 3.42363C66.8191 3.42363 66.4142 3.47188 66.0125 3.57188L58.8808 5.34687L52.9709 0.97832C52.0875 0.326758 51.0441 0 49.9992 0C48.9542 0 47.9109 0.326758 47.0275 0.97832L41.1175 5.34668L33.9859 3.57168C33.5841 3.47168 33.1792 3.42344 32.7775 3.42344C31.0525 3.42344 29.4125 4.32012 28.4941 5.84668L24.7058 12.1449L17.4375 13.235C15.2658 13.56 13.5607 15.2666 13.2357 17.4383L12.1457 24.7066L5.84741 28.4949C3.96577 29.6266 3.04233 31.8549 3.57241 33.9865L5.34741 41.1182L0.979053 47.0283C-0.326025 48.7949 -0.326025 51.2066 0.979053 52.9732L5.34741 58.8832L3.57241 66.0148C3.04233 68.1465 3.96401 70.3748 5.84741 71.5064L12.1457 75.2947L13.2357 82.5631C13.5607 84.7348 15.2658 86.4414 17.439 86.7664L24.7074 87.8564L28.4957 94.1547C29.414 95.683 31.0556 96.5779 32.7791 96.5779C33.1808 96.5779 33.5841 96.5297 33.9875 96.4297L41.1191 94.6547L47.0291 99.023C47.9107 99.673 48.9541 99.9998 49.999 99.9998C51.0439 99.9998 52.0873 99.6732 52.9707 99.0215L58.8806 94.6531L66.0123 96.4281C66.414 96.5281 66.8189 96.5764 67.2207 96.5764C68.9457 96.5764 70.5857 95.6797 71.5041 94.1531L75.2923 87.8549L82.5607 86.7648C84.7324 86.4398 86.439 84.7348 86.764 82.5615L87.8541 75.2932L94.1523 71.5049C96.0339 70.3732 96.9574 68.1449 96.4273 66.0133L94.6523 58.8816L99.0207 52.9717C100.326 51.2066 100.326 48.7934 99.0209 47.0283ZM89.2308 57.8033L91.5742 67.2199L83.2591 72.2217L81.8191 81.8184L72.2224 83.2566L67.2207 91.5732L57.8041 89.2299L49.9992 95L42.1959 89.2316L32.7792 91.575L27.7775 83.2584L18.1808 81.8201L16.7425 72.2234L8.42573 67.2217L10.7691 57.8051L4.99917 50L10.7675 42.1967L8.42417 32.7801L16.7408 27.7783L18.1791 18.1816L27.7757 16.7434L32.7775 8.42676L42.1941 10.7701L49.9992 5L57.8025 10.7684L67.2191 8.425L72.2208 16.7416L81.8175 18.1799L83.2576 27.7766L91.5726 32.7783L89.2292 42.1949L94.9992 50L89.2308 57.8033Z" fill="white"/>
<path d="M74.9993 25H24.9993C22.2375 25 19.9993 27.2383 19.9993 30V70C19.9993 72.7617 22.2375 75 24.9993 75H74.9993C77.761 75 79.9993 72.7617 79.9993 70V30C79.9993 27.2383 77.7608 25 74.9993 25ZM74.9993 70H24.9993V40H74.9993V70ZM74.9993 35H67.4993H57.4993H47.4993H24.9993V30H47.4993H57.4993H67.4993H74.9993V35Z" fill="white"/>
<path d="M67.4993 35C68.88 35 69.9993 33.8807 69.9993 32.5C69.9993 31.1193 68.88 30 67.4993 30C66.1186 30 64.9993 31.1193 64.9993 32.5C64.9993 33.8807 66.1186 35 67.4993 35Z" fill="white"/>
<path d="M57.4993 35C58.88 35 59.9993 33.8807 59.9993 32.5C59.9993 31.1193 58.88 30 57.4993 30C56.1186 30 54.9993 31.1193 54.9993 32.5C54.9993 33.8807 56.1186 35 57.4993 35Z" fill="white"/>
<path d="M47.4993 35C48.88 35 49.9993 33.8807 49.9993 32.5C49.9993 31.1193 48.88 30 47.4993 30C46.1186 30 44.9993 31.1193 44.9993 32.5C44.9993 33.8807 46.1186 35 47.4993 35Z" fill="white"/>
<path d="M61.3857 45.4198C60.2474 44.6632 58.6908 44.9632 57.9191 46.1132L49.3841 58.9132L41.4974 52.9999C40.3992 52.1766 38.8308 52.3899 37.9956 53.4999C37.1706 54.6032 37.3956 56.1716 38.499 56.9981L48.499 64.4999C48.9339 64.8264 49.4622 64.9999 49.999 64.9999C50.1406 64.9999 50.2824 64.9882 50.4189 64.9632C51.0972 64.8481 51.699 64.4581 52.0788 63.8864L62.0788 48.8864C62.8458 47.7366 62.5324 46.1866 61.3857 45.4198Z" fill="#EE2C2F"/>
</g>
<defs>
<clipPath id="clip0_307_189">
<rect width="100" height="100" fill="white"/>
</clipPath>
</defs>
</svg>
