<svg width="2500" height="337" viewBox="0 0 2500 337" fill="none" xmlns="http://www.w3.org/2000/svg">
<g clip-path="url(#clip0_350_1323)">
<path d="M164.05 6.8296C145.651 3.09825 131.626 0.267578 112.326 0.267578C56.8708 0.267578 34.7401 26.6443 34.7401 73.6078V107.833H0V163.289H34.7401V332.1H102.419V163.289H151.827L156.459 107.833H102.419V81.0705C102.419 66.0164 103.834 56.6237 125.45 56.6237C133.428 56.6237 146.166 58.0391 155.558 59.9691L164.05 6.8296V6.8296ZM367.988 332.1V185.934C367.988 122.501 350.618 98.4405 271.23 98.4405C244.853 98.4405 210.499 103.201 188.883 109.763L197.89 160.587C219.506 156.341 239.707 153.896 259.907 153.896C296.063 153.896 300.309 162.002 300.309 185.419V202.789H250.901C203.937 202.789 182.836 221.189 182.836 267.252C182.836 306.238 200.206 336.732 242.537 336.732C257.977 336.732 281.523 332.1 307.771 317.432L312.532 332.1H367.988ZM300.309 276.13C290.015 280.89 280.108 284.107 265.955 284.107C252.831 284.107 247.684 278.96 247.684 266.222C247.684 253.613 253.345 249.882 267.885 249.882H300.309V276.13ZM477.998 190.566C477.998 167.149 487.777 156.341 515.054 156.341C528.307 156.341 547.993 158.657 562.146 162.002L570.51 105.517C547.478 100.371 531.009 98.4405 515.054 98.4405C440.813 98.4405 410.319 126.233 410.319 191.595V243.706C410.319 309.068 440.813 336.732 515.054 336.732C531.009 336.732 547.478 334.93 570.51 329.655L562.146 273.299C545.677 277.03 532.424 278.96 515.054 278.96C487.777 278.96 477.998 268.152 477.998 244.606V190.566ZM791.945 241.39V193.397C791.945 143.603 775.476 98.4405 699.305 98.4405C623.134 98.4405 601.132 140.772 601.132 190.18V243.706C601.132 300.062 629.31 336.732 703.551 336.732C735.461 336.732 768.914 329.655 789.501 322.192L779.722 271.498C759.521 277.545 731.215 281.276 710.113 281.276C679.104 281.276 668.811 274.2 668.811 247.952V241.39H791.945ZM727.998 190.566H668.811V180.787C668.811 164.704 676.274 151.58 699.82 151.58C723.237 151.58 727.998 164.704 727.998 180.787V190.566ZM1044.26 240.36V181.173C1044.26 129.964 1024.58 98.4405 973.752 98.4405C948.919 98.4405 927.303 104.102 908.904 111.179V0.267578L841.225 9.66027V329.269C872.748 334.416 909.804 336.732 934.251 336.732C1028.82 336.732 1044.26 294.915 1044.26 240.36V240.36ZM908.904 169.979C921.642 163.289 937.597 157.241 952.136 157.241C970.021 157.241 976.583 166.634 976.583 181.688V240.875C976.583 262.491 970.535 278.06 936.696 278.06C927.303 278.06 918.811 278.06 908.904 277.03V169.979ZM1185.28 336.732C1266.6 336.732 1288.6 291.184 1288.6 244.22V191.081C1288.6 144.117 1266.6 98.4405 1185.28 98.4405C1103.96 98.4405 1081.83 144.117 1081.83 191.081V244.22C1081.83 291.184 1103.96 336.732 1185.28 336.732ZM1185.28 279.861C1160.83 279.861 1149.51 267.638 1149.51 246.022V189.151C1149.51 167.535 1160.83 155.311 1185.28 155.311C1209.73 155.311 1220.92 167.535 1220.92 189.151V246.022C1220.92 267.638 1209.73 279.861 1185.28 279.861V279.861ZM1429.62 336.732C1510.94 336.732 1533.07 291.184 1533.07 244.22V191.081C1533.07 144.117 1510.94 98.4405 1429.62 98.4405C1348.3 98.4405 1326.3 144.117 1326.3 191.081V244.22C1326.3 291.184 1348.3 336.732 1429.62 336.732V336.732ZM1429.62 279.861C1405.17 279.861 1393.98 267.638 1393.98 246.022V189.151C1393.98 167.535 1405.17 155.311 1429.62 155.311C1454.07 155.311 1465.39 167.535 1465.39 189.151V246.022C1465.39 267.638 1454.07 279.861 1429.62 279.861V279.861ZM1650.03 332.1V0.267578L1582.35 9.66027V332.1H1650.03ZM1659.03 216.943L1720.02 332.1H1792.46L1729.54 216.943L1789.63 103.201H1717.32L1659.03 216.943Z" fill="#3A589E"/>
<path d="M2086.34 332.486H2110.78L2012.74 50.8335H1975.94L1877.77 332.486H1902.34L1928.59 258.502H2059.7L2086.34 332.486ZM1994.08 65.2442L2052.11 236.886H1936.18L1994.08 65.2442ZM2154.01 279.603C2154.01 316.917 2172.16 336.732 2212.3 336.732C2235.2 336.732 2260.94 328.754 2281.78 313.057L2282.94 332.486H2305.46V38.9961L2280.88 42.3414V129.063C2257.21 124.431 2239.06 122.372 2217.45 122.372C2170.87 122.372 2154.01 148.106 2154.01 185.805V279.603ZM2280.88 288.481C2261.45 304.179 2239.45 314.729 2214.1 314.729C2186.18 314.729 2178.46 303.407 2178.46 279.603V185.805C2178.46 157.884 2189.53 144.374 2216.55 144.374C2236.49 144.374 2258.49 146.819 2280.88 151.451V288.481ZM2500 280.504C2500 242.033 2496.65 232.254 2436.05 217.071C2398.1 207.293 2396.29 204.333 2396.29 176.026C2396.29 153.638 2401.44 144.374 2437.34 144.374C2454.32 144.374 2478.38 146.819 2494.85 150.293L2497.43 129.449C2481.34 124.817 2458.05 122.372 2439.01 122.372C2388.32 122.372 2371.85 140.9 2371.85 175.126C2371.85 212.825 2376.09 225.563 2427.69 237.787C2474.65 248.723 2475.42 251.811 2475.42 281.405C2475.42 307.524 2467.83 314.729 2429.75 314.729C2414.57 314.729 2392.95 311.77 2375.19 306.366L2370.95 326.181C2386.26 332.486 2410.71 336.732 2431.42 336.732C2486.49 336.732 2500 317.689 2500 280.504V280.504Z" fill="white"/>
</g>
<defs>
<clipPath id="clip0_350_1323">
<rect width="2500" height="337" fill="white"/>
</clipPath>
</defs>
</svg>
