<svg width="960" height="540" viewBox="0 0 960 540" fill="none" xmlns="http://www.w3.org/2000/svg">
<g clip-path="url(#clip0_322_362)">
<path d="M960 0H0V540H960V0Z" fill="#010101"/>
<path d="M960 540C874.271 537.467 788.541 534.933 727.691 498.933C666.841 462.8 630.721 393.333 575.267 342.267C519.813 291.2 445.024 258.533 404.707 204.667C364.391 150.667 358.695 75.3333 353 0H960V540Z" fill="#1D0702"/>
<path d="M960 360C902.897 358.267 845.794 356.667 805.177 332.533C764.561 308.533 740.431 262.267 703.561 228.133C666.542 194.133 616.633 172.4 589.805 136.4C562.977 100.4 559.08 50.2667 555.333 0H960V360Z" fill="#3D0904"/>
<path d="M960 180C931.374 179.2 902.897 178.267 882.514 166.267C862.281 154.267 850.29 131.067 831.706 114.133C813.271 97.0667 788.391 86.1333 774.903 68.2667C761.414 50.2667 759.615 25.0667 757.667 0H960V180Z" fill="#4E0405"/>
</g>
<defs>
<clipPath id="clip0_322_362">
<rect width="960" height="540" fill="white"/>
</clipPath>
</defs>
</svg>
