<svg width="683" height="467" viewBox="0 0 683 467" fill="none" xmlns="http://www.w3.org/2000/svg">
<g clip-path="url(#clip0_319_28)">
<path d="M411.63 384.31H451.46C454.16 384.31 456.34 386.5 456.34 389.19V437.44C456.34 440.14 454.15 442.32 451.46 442.32H411.63C404.29 442.32 398.32 436.36 398.32 429.01V397.6C398.32 390.26 404.28 384.29 411.63 384.29V384.31Z" fill="#E0E0E0"/>
<path d="M441.88 384.31H391.96C389.723 384.31 387.91 386.123 387.91 388.36V438.28C387.91 440.517 389.723 442.33 391.96 442.33H441.88C444.117 442.33 445.93 440.517 445.93 438.28V388.36C445.93 386.123 444.117 384.31 441.88 384.31Z" fill="#EBEBEB"/>
<path d="M419.43 428.03L401.85 416.27L405.95 410.14L417.74 418.02L432.4 398.61L438.29 403.06L419.43 428.03Z" fill="#E0E0E0"/>
<path d="M237.16 397.88C237.52 420.3 219.65 438.84 197.33 439.2C175.01 439.56 156.56 421.61 156.2 399.18C155.84 376.75 173.71 358.22 196.03 357.86C218.35 357.5 236.8 375.45 237.16 397.88V397.88ZM177.32 398.85C177.49 409.57 186.31 418.16 196.99 417.98C207.66 417.81 216.21 408.94 216.04 398.22C215.87 387.5 207.05 378.91 196.37 379.09C185.7 379.26 177.15 388.13 177.33 398.85H177.32Z" fill="#EBEBEB"/>
<path d="M237.16 397.881C237.52 420.301 219.65 438.841 197.33 439.201L196.99 417.981C207.66 417.811 216.21 408.941 216.04 398.221C215.87 387.501 207.05 378.921 196.37 379.091L196.03 357.871C218.35 357.511 236.8 375.461 237.16 397.891V397.881Z" fill="#E0E0E0"/>
<path d="M200.96 442.47C174.85 442.89 154.01 422.62 153.59 396.39L178.31 395.99C178.51 408.53 188.06 416.43 200.54 416.23L200.96 442.47V442.47Z" fill="#F5F5F5"/>
<path d="M669.65 46.1299C669.93 63.6399 655.98 78.1099 638.55 78.3999C621.12 78.6799 606.71 64.6599 606.43 47.1599C606.15 29.6499 620.1 15.1799 637.53 14.8899C654.96 14.6099 669.37 28.6299 669.65 46.1299V46.1299ZM622.93 46.8799C623.06 55.2499 629.95 61.9499 638.29 61.8199C646.62 61.6899 653.29 54.7599 653.16 46.3899C653.03 38.0199 646.14 31.3199 637.8 31.4499C629.47 31.5799 622.8 38.5099 622.93 46.8799Z" fill="#EBEBEB"/>
<path d="M669.65 46.1301C669.93 63.6401 655.98 78.1101 638.55 78.3901L638.28 61.8201C646.61 61.6901 653.28 54.7601 653.15 46.3901C653.02 38.0201 646.13 31.3201 637.79 31.4501L637.53 14.8801C654.96 14.6001 669.37 28.6101 669.65 46.1201V46.1301Z" fill="#E0E0E0"/>
<path d="M641.39 80.9502C621 81.2802 604.73 65.4502 604.41 44.9702L623.71 44.6602C623.87 54.4502 631.32 60.6202 641.07 60.4602L641.4 80.9502H641.39Z" fill="#F5F5F5"/>
<path d="M26.85 197.45H34.25V178.92H39.41L39.96 172.71H34.25V169.18C34.25 167.72 34.54 167.14 35.96 167.14H39.97V160.7H34.85C29.34 160.7 26.86 163.13 26.86 167.77V172.72H23.01V179H26.86V197.46L26.85 197.45Z" fill="#EBEBEB"/>
<path d="M178.65 35.9001L208.43 31.3501C210.93 47.6901 199.54 63.1801 183.2 65.6801C166.86 68.1801 151.37 56.7901 148.87 40.4501C146.37 24.1101 157.76 8.62014 174.1 6.12014C176.7 5.72014 179.34 5.67014 181.96 5.96014L178.65 35.9001V35.9001Z" fill="#F5F5F5"/>
<path d="M188.31 6.06029L184.69 29.1403L207.35 24.8803C207.35 24.8803 204.02 11.9403 188.31 6.05029V6.06029Z" fill="#E0E0E0"/>
<path d="M83.5999 254H17.8099C8.14995 254 0.319946 261.83 0.319946 271.49V311.24C0.319946 320.9 8.14995 328.73 17.8099 328.73H41.9399L50.7099 341.36L59.4799 328.73H83.6099C93.2699 328.73 101.1 320.9 101.1 311.24V271.49C101.1 261.83 93.2699 254 83.6099 254H83.5999Z" fill="white"/>
<path d="M83.6 254C83.6 254 84.38 253.95 85.87 254.11C87.35 254.25 89.58 254.73 92.13 256.1C93.39 256.81 94.72 257.74 96 258.97C97.25 260.22 98.45 261.77 99.38 263.63C100.32 265.49 100.99 267.66 101.19 270.04C101.34 272.42 101.25 274.9 101.29 277.54C101.3 282.81 101.32 288.62 101.33 294.9C101.33 298.04 101.34 301.31 101.35 304.68C101.35 306.37 101.35 308.08 101.35 309.83C101.39 311.56 101.3 313.39 100.91 315.17C100.11 318.72 98.16 322.16 95.22 324.68C92.31 327.2 88.47 328.86 84.4 329C76.41 329.09 68.1 329.04 59.46 329.06L59.74 328.92C56.97 332.91 54 337.19 50.98 341.55L50.7 341.96L50.42 341.55C47.64 337.55 44.66 333.27 41.65 328.92L41.94 329.07C36.35 329.07 30.43 329.07 24.43 329.07C22.99 329.07 21.55 329.07 20.12 329.07C18.69 329.07 17.26 329.09 15.8 328.95C12.92 328.6 10.14 327.57 7.77 325.96C5.42 324.32 3.47 322.16 2.12 319.68C0.800001 317.19 0.0800014 314.41 0.0200014 311.64C0.0200014 300.76 0.0200014 290.27 0.0200014 280.27C0.0200014 277.77 0.0200014 275.3 0.0200014 272.87C-0.0299986 270.45 0.190001 267.94 1.02 265.68C2.59 261.11 6.03 257.44 10.1 255.5C12.13 254.52 14.32 253.95 16.49 253.79C18.67 253.66 20.75 253.76 22.82 253.73C26.95 253.73 30.9 253.75 34.68 253.75C49.78 253.8 62 253.84 70.48 253.86C74.69 253.89 77.96 253.91 80.21 253.93C81.31 253.94 82.15 253.96 82.74 253.96C83.31 253.97 83.6 254 83.6 254C83.6 254 83.31 254.02 82.74 254.04C82.14 254.04 81.3 254.06 80.21 254.07C77.96 254.09 74.68 254.11 70.48 254.14C62 254.17 49.78 254.2 34.68 254.25C30.9 254.25 26.94 254.26 22.82 254.27C20.77 254.3 18.63 254.21 16.53 254.35C14.43 254.51 12.32 255.07 10.35 256.02C6.42 257.91 3.11 261.47 1.6 265.88C0.810001 268.09 0.600001 270.44 0.650001 272.87C0.650001 275.3 0.650001 277.77 0.650001 280.27C0.660001 290.26 0.680001 300.75 0.690001 311.63C0.760001 314.29 1.45 316.96 2.72 319.36C4.02 321.74 5.9 323.82 8.16 325.39C10.44 326.94 13.11 327.92 15.88 328.26C17.26 328.39 18.68 328.39 20.12 328.38C21.55 328.38 22.99 328.38 24.43 328.38C30.43 328.38 36.35 328.38 41.94 328.38H42.12L42.22 328.53C45.23 332.87 48.21 337.16 50.98 341.16H50.42C53.45 336.8 56.42 332.52 59.2 328.54L59.3 328.4H59.48C68.1 328.39 76.45 328.45 84.39 328.38C88.31 328.26 92.02 326.66 94.84 324.23C97.69 321.81 99.58 318.49 100.37 315.05C100.75 313.32 100.85 311.59 100.81 309.84C100.81 308.1 100.81 306.38 100.81 304.69C100.81 301.31 100.82 298.05 100.83 294.91C100.84 288.63 100.86 282.82 100.87 277.55C100.85 274.92 100.96 272.4 100.82 270.08C100.64 267.75 100 265.62 99.09 263.79C98.18 261.96 97.02 260.43 95.8 259.18C94.55 257.96 93.25 257.03 92.02 256.31C89.52 254.92 87.32 254.41 85.85 254.23C85.12 254.09 84.54 254.12 84.17 254.07C83.79 254.04 83.6 254.01 83.6 254.01V254Z" fill="#E0E0E0"/>
<path d="M37.15 292.38C37.15 295.51 34.62 298.04 31.49 298.04C28.36 298.04 25.83 295.51 25.83 292.38C25.83 289.25 28.36 286.72 31.49 286.72C34.62 286.72 37.15 289.25 37.15 292.38Z" fill="#E0E0E0"/>
<path d="M55.77 292.38C55.77 295.51 53.24 298.04 50.11 298.04C46.98 298.04 44.45 295.51 44.45 292.38C44.45 289.25 46.98 286.72 50.11 286.72C53.24 286.72 55.77 289.25 55.77 292.38V292.38Z" fill="#E0E0E0"/>
<path d="M74.3899 292.38C74.3899 295.51 71.86 298.04 68.7299 298.04C65.5999 298.04 63.0699 295.51 63.0699 292.38C63.0699 289.25 65.5999 286.72 68.7299 286.72C71.86 286.72 74.3899 289.25 74.3899 292.38Z" fill="#E0E0E0"/>
<path d="M596.5 97.4399H544.36C536.71 97.4399 530.5 103.64 530.5 111.3V142.81C530.5 150.46 536.7 156.67 544.36 156.67H563.48L570.43 166.68L577.38 156.67H596.5C604.15 156.67 610.36 150.47 610.36 142.81V111.3C610.36 103.65 604.16 97.4399 596.5 97.4399V97.4399Z" fill="white"/>
<path d="M596.5 97.44C596.5 97.44 597.12 97.4 598.3 97.52C599.48 97.63 601.24 98.01 603.26 99.1C604.26 99.66 605.31 100.4 606.32 101.37C607.31 102.36 608.26 103.59 609 105.06C609.74 106.53 610.28 108.26 610.44 110.14C610.56 112.03 610.48 113.99 610.52 116.09C610.52 120.27 610.54 124.87 610.55 129.85C610.55 132.34 610.55 134.93 610.56 137.6C610.56 138.94 610.56 140.3 610.56 141.68C610.59 143.05 610.52 144.5 610.21 145.91C609.57 148.73 608.03 151.45 605.7 153.45C603.39 155.45 600.35 156.77 597.13 156.87C590.79 156.94 584.21 156.9 577.37 156.92L577.59 156.81C575.4 159.97 573.04 163.37 570.65 166.82L570.43 167.14L570.21 166.82C568.01 163.65 565.65 160.25 563.26 156.81L563.49 156.93C559.06 156.93 554.37 156.93 549.61 156.93C548.47 156.93 547.33 156.93 546.19 156.93C545.06 156.93 543.92 156.94 542.77 156.83C540.48 156.56 538.28 155.74 536.4 154.46C534.54 153.16 532.99 151.45 531.92 149.48C530.87 147.5 530.3 145.3 530.25 143.11C530.25 134.49 530.25 126.17 530.25 118.25C530.25 116.27 530.25 114.31 530.25 112.38C530.21 110.46 530.39 108.47 531.04 106.68C532.29 103.06 535.01 100.15 538.24 98.61C539.85 97.83 541.58 97.38 543.3 97.26C545.03 97.16 546.68 97.24 548.32 97.22C551.59 97.22 554.73 97.23 557.72 97.24C569.69 97.28 579.38 97.31 586.09 97.33C589.42 97.35 592.02 97.37 593.8 97.38C594.67 97.39 595.33 97.4 595.81 97.41C596.26 97.41 596.49 97.44 596.49 97.44C596.49 97.44 596.26 97.46 595.81 97.47C595.34 97.47 594.67 97.49 593.8 97.5C592.02 97.51 589.42 97.53 586.09 97.55C579.37 97.57 569.68 97.6 557.72 97.64C554.72 97.64 551.59 97.65 548.32 97.66C546.69 97.69 545 97.61 543.34 97.72C541.67 97.85 540 98.29 538.44 99.04C535.32 100.54 532.7 103.36 531.5 106.86C530.87 108.61 530.71 110.47 530.75 112.4C530.75 114.33 530.75 116.29 530.75 118.27C530.76 126.19 530.77 134.5 530.78 143.12C530.83 145.23 531.38 147.35 532.39 149.25C533.42 151.14 534.91 152.78 536.7 154.03C538.51 155.26 540.62 156.04 542.82 156.3C543.91 156.41 545.04 156.4 546.18 156.39C547.32 156.39 548.46 156.39 549.6 156.39C554.35 156.39 559.05 156.39 563.48 156.39H563.62L563.7 156.51C566.09 159.95 568.44 163.35 570.65 166.52H570.2C572.6 163.07 574.96 159.67 577.15 156.51L577.23 156.4H577.37C584.2 156.4 590.82 156.44 597.11 156.38C600.22 156.28 603.16 155.02 605.39 153.09C607.65 151.17 609.15 148.54 609.77 145.82C610.07 144.45 610.15 143.08 610.12 141.69C610.12 140.31 610.12 138.95 610.12 137.61C610.12 134.93 610.12 132.35 610.13 129.86C610.14 124.88 610.15 120.28 610.16 116.1C610.14 114.02 610.23 112.02 610.12 110.18C609.98 108.34 609.47 106.64 608.75 105.19C608.03 103.74 607.11 102.53 606.14 101.54C605.15 100.57 604.12 99.83 603.14 99.27C601.16 98.17 599.42 97.77 598.25 97.62C597.67 97.51 597.21 97.53 596.92 97.49C596.62 97.47 596.47 97.44 596.47 97.44H596.5Z" fill="#E0E0E0"/>
<path d="M559.69 127.86C559.69 130.34 557.68 132.35 555.2 132.35C552.72 132.35 550.71 130.34 550.71 127.86C550.71 125.38 552.72 123.37 555.2 123.37C557.68 123.37 559.69 125.38 559.69 127.86Z" fill="#E0E0E0"/>
<path d="M574.45 127.86C574.45 130.34 572.44 132.35 569.96 132.35C567.48 132.35 565.47 130.34 565.47 127.86C565.47 125.38 567.48 123.37 569.96 123.37C572.44 123.37 574.45 125.38 574.45 127.86Z" fill="#E0E0E0"/>
<path d="M589.2 127.86C589.2 130.34 587.19 132.35 584.71 132.35C582.23 132.35 580.22 130.34 580.22 127.86C580.22 125.38 582.23 123.37 584.71 123.37C587.19 123.37 589.2 125.38 589.2 127.86Z" fill="#E0E0E0"/>
<path d="M647.15 146.69C650.06 148.55 653.51 149.64 657.22 149.64C669.42 149.64 676.31 139.34 675.9 130.1C677.18 129.17 678.3 128.02 679.18 126.7C678 127.22 676.73 127.58 675.41 127.73C676.77 126.92 677.81 125.63 678.3 124.1C677.03 124.85 675.62 125.4 674.13 125.69C672.93 124.41 671.22 123.62 669.33 123.62C665.09 123.62 661.97 127.58 662.93 131.69C657.47 131.42 652.63 128.8 649.39 124.82C647.67 127.77 648.5 131.64 651.42 133.59C650.34 133.56 649.33 133.26 648.44 132.77C648.37 135.81 650.55 138.66 653.71 139.3C652.79 139.55 651.77 139.61 650.74 139.41C651.57 142.02 654 143.92 656.88 143.97C654.12 146.14 650.64 147.1 647.15 146.69V146.69Z" fill="#EBEBEB"/>
<path d="M682.37 442.98C682.37 442.98 681.8 442.99 680.68 442.98C679.56 442.98 677.9 442.96 675.73 442.95C671.37 442.91 664.95 442.85 656.69 442.77C640.15 442.64 616.23 442.45 586.67 442.22C557.11 442.02 521.91 441.92 482.82 441.84C443.73 441.86 400.76 441.88 355.66 441.91C265.42 442.23 183.74 442.52 124.61 442.73C95.05 442.83 71.13 442.91 54.59 442.97C46.33 442.98 39.91 443 35.55 443C33.38 443 31.72 443 30.6 443C29.48 443 28.91 442.98 28.91 442.98C28.91 442.98 29.48 442.96 30.6 442.95C31.72 442.94 33.38 442.92 35.55 442.9C39.91 442.87 46.32 442.83 54.59 442.77C71.13 442.67 95.05 442.54 124.6 442.37C183.72 442.05 265.41 441.6 355.65 441.4C400.75 441.31 443.73 441.3 482.81 441.37C521.9 441.48 557.1 441.61 586.66 441.86C601.44 441.99 614.81 442.11 626.55 442.22C638.29 442.36 648.4 442.48 656.67 442.58C664.93 442.7 671.35 442.79 675.71 442.86C677.88 442.9 679.54 442.93 680.66 442.95C681.78 442.97 682.35 443 682.35 443L682.37 442.98Z" fill="#263238"/>
<path d="M83.2499 105.77L80.8499 97.74C83.4699 93.49 84.9799 88.49 84.9799 83.13C84.9799 67.72 72.4899 55.23 57.0799 55.23C41.6699 55.23 29.1799 67.72 29.1799 83.13C29.1799 98.54 41.6699 111.03 57.0799 111.03C63.5099 111.03 69.4299 108.85 74.1499 105.19L83.2499 105.77V105.77Z" fill="#FAFAFA"/>
<path d="M83.2499 105.77C83.2499 105.77 83.0699 105.77 82.6899 105.75C82.2799 105.73 81.7099 105.7 80.9699 105.67C79.3999 105.59 77.1099 105.47 74.1499 105.32C74.0799 105.32 74.0299 105.26 74.0399 105.19C74.0399 105.16 74.0499 105.14 74.0699 105.12L74.2399 105.28C71.4099 107.5 67.1899 109.91 61.6599 110.84C58.9099 111.33 55.8599 111.35 52.6899 110.86C49.5199 110.37 46.2299 109.3 43.1199 107.53C40.0099 105.76 37.0899 103.28 34.7199 100.18C32.3499 97.08 30.5399 93.36 29.6099 89.27C27.6899 81.14 29.7599 71.5201 35.8799 64.6101C38.9599 61.1101 42.8099 58.3901 47.0199 56.8401C51.2099 55.2501 55.6499 54.7001 59.8699 55.1101C64.0899 55.5301 68.0599 56.9301 71.4499 58.9601C74.8399 60.9901 77.6599 63.6501 79.7799 66.5701C84.0499 72.4501 85.4799 79.2101 85.1099 84.7601C84.7699 90.3701 82.8299 94.81 80.9499 97.81V97.7201C81.7099 100.33 82.2899 102.35 82.6899 103.75C82.8699 104.4 83.0199 104.91 83.1199 105.28C83.2099 105.62 83.2599 105.79 83.2499 105.78C83.2499 105.78 83.1799 105.59 83.0699 105.24C82.9499 104.87 82.7899 104.36 82.5799 103.7C82.1499 102.33 81.5399 100.35 80.7399 97.7901C80.7399 97.7601 80.7399 97.72 80.7499 97.7C82.5699 94.7 84.4499 90.2901 84.7499 84.7501C85.0799 79.2701 83.63 72.6301 79.41 66.8601C77.31 64.0001 74.5399 61.3901 71.1999 59.4101C67.8699 57.4301 63.9699 56.0601 59.8299 55.6601C55.6899 55.2701 51.3299 55.8101 47.2299 57.3801C43.1099 58.9001 39.3299 61.5801 36.3199 65.0001C30.3199 71.7701 28.2899 81.2 30.1499 89.17C31.0499 93.17 32.8199 96.84 35.1399 99.88C37.4599 102.93 40.3199 105.38 43.3699 107.13C46.4199 108.89 49.6499 109.96 52.7699 110.45C55.8899 110.95 58.8999 110.94 61.6099 110.48C67.0699 109.6 71.2599 107.26 74.0999 105.1C74.1499 105.06 74.2299 105.07 74.2699 105.12C74.2999 105.16 74.2999 105.23 74.2699 105.27L74.1799 105.09C77.0999 105.3 79.36 105.47 80.91 105.58C81.66 105.64 82.24 105.68 82.66 105.72C83.06 105.75 83.2699 105.78 83.2699 105.78L83.2499 105.77Z" fill="#263238"/>
<path d="M49.2199 83.12C49.2199 84.69 47.9499 85.95 46.3899 85.95C44.8299 85.95 43.5599 84.68 43.5599 83.12C43.5599 81.56 44.8299 80.29 46.3899 80.29C47.9499 80.29 49.2199 81.56 49.2199 83.12Z" fill="#263238"/>
<path d="M60.5699 83.12C60.5699 84.69 59.2999 85.95 57.7399 85.95C56.1799 85.95 54.9099 84.68 54.9099 83.12C54.9099 81.56 56.1799 80.29 57.7399 80.29C59.2999 80.29 60.5699 81.56 60.5699 83.12Z" fill="#263238"/>
<path d="M71.8799 81.7098C72.6599 83.0698 72.1999 84.7998 70.8399 85.5798C69.4799 86.3598 67.7499 85.8998 66.9699 84.5398C66.1899 83.1798 66.6499 81.4498 68.0099 80.6698C69.3699 79.8898 71.0999 80.3498 71.8799 81.7098Z" fill="#263238"/>
<path d="M338.08 370.33C338.08 370.33 338.03 371.83 338.01 374.46C336.22 372.83 334.11 371.58 331.81 370.78H331.84C331.84 370.78 319.34 363.04 313.64 353.18C309.5 346.02 308.11 337.35 308.11 337.35C308.11 336.92 308.07 333.12 308.03 330.01C308 327.46 305.96 325.41 303.41 325.32C298.05 325.13 283.78 325.63 282.77 335.53C281.27 350.3 292.25 363.34 293.14 367.58C293.31 368.38 293.45 369.03 293.56 369.56C289.34 369.56 286.08 369.61 286.08 369.68L258.36 369.64C258.36 369.64 249.06 369.02 248.14 378.62C247.22 388.22 258.02 388.84 258.02 388.84C258.02 388.84 253.22 389.73 253.8 398.13C254.38 406.53 263.68 407.15 263.68 407.15C263.68 407.15 258.28 408.04 258.56 415.54C258.84 422.84 268.5 425.04 269.02 425.15C267.67 425.17 266.83 425.2 266.83 425.24C266.83 425.27 267.47 425.3 268.53 425.33C264.6 426.79 265.13 431.75 265.13 431.75C264.81 442.25 272.91 442.56 272.91 442.56L323.52 442.65C328.61 442.65 333.56 441.29 337.87 438.77C337.88 440.92 337.9 442.13 337.92 442.13L373.27 442.2C373.35 442.2 373.44 426.12 373.47 406.29C373.51 386.45 373.47 370.38 373.4 370.37L338.05 370.31L338.08 370.33Z" fill="#EE2C2F"/>
<g opacity="0.3">
<path d="M338.08 370.33C338.08 370.33 338.03 371.83 338.01 374.46C336.22 372.83 334.11 371.58 331.81 370.78H331.84C331.84 370.78 319.34 363.04 313.64 353.18C309.5 346.02 308.11 337.35 308.11 337.35C308.11 336.92 308.07 333.12 308.03 330.01C308 327.46 305.96 325.41 303.41 325.32C298.05 325.13 283.78 325.63 282.77 335.53C281.27 350.3 292.25 363.34 293.14 367.58C293.31 368.38 293.45 369.03 293.56 369.56C289.34 369.56 286.08 369.61 286.08 369.68L258.36 369.64C258.36 369.64 249.06 369.02 248.14 378.62C247.22 388.22 258.02 388.84 258.02 388.84C258.02 388.84 253.22 389.73 253.8 398.13C254.38 406.53 263.68 407.15 263.68 407.15C263.68 407.15 258.28 408.04 258.56 415.54C258.84 422.84 268.5 425.04 269.02 425.15C267.67 425.17 266.83 425.2 266.83 425.24C266.83 425.27 267.47 425.3 268.53 425.33C264.6 426.79 265.13 431.75 265.13 431.75C264.81 442.25 272.91 442.56 272.91 442.56L323.52 442.65C328.61 442.65 333.56 441.29 337.87 438.77C337.88 440.92 337.9 442.13 337.92 442.13L373.27 442.2C373.35 442.2 373.44 426.12 373.47 406.29C373.51 386.45 373.47 370.38 373.4 370.37L338.05 370.31L338.08 370.33Z" fill="black"/>
</g>
<path d="M333.81 381.39L335.47 385.6L335.38 433.99C330.01 439.68 322.52 442.89 314.7 442.88L264.09 442.79C264.09 442.79 255.99 442.48 256.31 431.98C256.31 431.98 255.72 426.58 260.22 425.39C260.22 425.39 250.02 423.27 249.74 415.77C249.45 408.27 254.86 407.38 254.86 407.38C254.86 407.38 245.56 406.76 244.98 398.36C244.4 389.96 249.2 389.07 249.2 389.07C249.2 389.07 238.4 388.45 239.32 378.85C240.24 369.25 249.54 369.87 249.54 369.87L285.54 369.93L317.1 369.99C324.49 370 331.12 374.53 333.83 381.4L333.81 381.39Z" fill="#EE2C2F"/>
<path d="M322.99 370.99C322.99 370.99 310.49 363.25 304.79 353.39C300.65 346.23 299.26 337.56 299.26 337.56C299.26 337.13 299.22 333.33 299.18 330.22C299.15 327.67 297.11 325.62 294.56 325.53C289.2 325.34 280.68 329.95 279.67 339.85C278.17 354.62 283.39 363.54 284.29 367.79L285.19 372.04L322.99 370.98V370.99Z" fill="#EE2C2F"/>
<path d="M329.142 442.341L364.492 442.409L364.63 370.579L329.28 370.511L329.142 442.341Z" fill="#EE2C2F"/>
<path d="M329.1 442.37C329.02 442.37 328.99 426.29 329.03 406.46C329.07 386.62 329.16 370.55 329.23 370.55C329.31 370.55 329.34 386.63 329.3 406.46C329.26 426.29 329.17 442.37 329.1 442.37Z" fill="#263238"/>
<path d="M364.46 442.43C364.38 442.43 364.35 426.35 364.39 406.52C364.43 386.68 364.52 370.61 364.59 370.61C364.66 370.61 364.7 386.69 364.66 406.53C364.62 426.36 364.53 442.44 364.46 442.44V442.43Z" fill="#263238"/>
<path d="M341.69 387C341.69 390.65 344.64 393.62 348.29 393.63C351.94 393.64 354.91 390.68 354.92 387.03C354.92 383.38 351.97 380.41 348.32 380.4C344.67 380.4 341.7 383.35 341.69 387Z" fill="white"/>
<path d="M277.23 369.9C277.23 369.82 281.08 369.77 285.84 369.78C290.6 369.78 294.45 369.86 294.45 369.93C294.45 370.01 290.6 370.06 285.84 370.05C281.09 370.05 277.23 369.97 277.23 369.9Z" fill="#263238"/>
<path d="M254.13 407.71C254.13 407.63 256.59 407.58 259.63 407.58C262.67 407.58 265.13 407.65 265.13 407.73C265.13 407.81 262.67 407.86 259.63 407.86C256.59 407.86 254.13 407.79 254.13 407.71Z" fill="#263238"/>
<path d="M248.49 388.88C248.49 388.8 251.99 388.75 256.3 388.76C260.61 388.76 264.11 388.84 264.11 388.91C264.11 388.99 260.61 389.04 256.3 389.03C251.99 389.03 248.49 388.95 248.49 388.88Z" fill="#263238"/>
<path d="M258 425.47C258 425.39 261.5 425.34 265.81 425.35C270.12 425.35 273.62 425.43 273.62 425.5C273.62 425.58 270.12 425.63 265.81 425.62C261.5 425.62 258 425.54 258 425.47Z" fill="#263238"/>
<g opacity="0.3">
<path d="M295.06 328.97C296.33 329.7 296.83 331.32 296.75 332.79C296.67 334.25 296.13 335.65 295.81 337.08C295.1 340.24 295.46 343.63 296.83 346.57C297.25 347.47 297.76 348.5 297.33 349.39C296.72 350.65 294.85 350.46 293.58 349.88C288.75 347.67 285.47 342.44 285.56 337.13C285.6 334.89 286.23 332.6 287.68 330.9C289.13 329.19 291.55 327.39 295.05 328.98" fill="white"/>
</g>
<g opacity="0.3">
<path d="M246.65 371.78C247.77 371.28 249.05 371.3 250.28 371.32C257.43 371.47 264.59 371.62 271.74 371.77C274.08 371.82 278.34 371.36 278.91 373.6C279.64 374.73 279.03 376.34 277.93 377.12C276.84 377.9 275.43 378.07 274.09 378.16C271.28 378.35 268.46 378.34 265.64 378.32C259.98 378.28 254.29 378.21 248.71 377.27C247.88 377.13 247.04 376.97 246.3 376.56C245.56 376.16 244.93 375.47 244.8 374.64C244.6 373.43 245.53 372.25 246.65 371.76V371.78Z" fill="white"/>
</g>
<path d="M337.57 372.59C337.57 372.51 342.51 372.46 348.6 372.47C354.69 372.48 359.63 372.55 359.63 372.63C359.63 372.71 354.69 372.76 348.6 372.75C342.51 372.74 337.57 372.67 337.57 372.59Z" fill="white"/>
<path d="M248.88 401.26C248.88 401.26 248.78 401.14 248.66 400.89C248.53 400.65 248.37 400.28 248.23 399.8C248.08 399.33 247.96 398.75 247.9 398.09C247.85 397.44 247.86 396.71 247.97 395.96C248.09 395.21 248.3 394.52 248.55 393.91C248.81 393.31 249.09 392.79 249.38 392.38C249.66 391.97 249.92 391.67 250.12 391.48C250.32 391.29 250.43 391.19 250.44 391.2C250.48 391.24 250.05 391.67 249.54 392.49C249.28 392.9 249.02 393.41 248.78 394.01C248.55 394.61 248.36 395.28 248.24 396.01C248.13 396.74 248.11 397.44 248.15 398.08C248.2 398.72 248.29 399.29 248.42 399.75C248.66 400.69 248.94 401.23 248.89 401.25L248.88 401.26Z" fill="white"/>
<path d="M243.68 383.06C243.68 383.06 243.29 382.85 242.84 382.3C242.39 381.76 241.92 380.87 241.74 379.8C241.57 378.73 241.74 377.74 241.98 377.08C242.23 376.42 242.51 376.08 242.54 376.1C242.58 376.13 242.36 376.5 242.17 377.15C241.97 377.8 241.85 378.74 242.01 379.76C242.18 380.78 242.6 381.63 242.99 382.19C243.38 382.74 243.71 383.03 243.67 383.06H243.68Z" fill="white"/>
<path d="M255.08 420.73C255.08 420.73 254.58 420.59 253.97 420.05C253.36 419.52 252.66 418.56 252.45 417.31C252.24 416.06 252.59 414.92 252.99 414.22C253.39 413.51 253.8 413.19 253.81 413.21C253.85 413.24 253.5 413.6 253.16 414.31C252.82 415 252.53 416.09 252.72 417.26C252.92 418.43 253.55 419.36 254.1 419.9C254.65 420.45 255.1 420.68 255.07 420.72L255.08 420.73Z" fill="white"/>
<path d="M262.24 437.8C262.24 437.8 261.85 437.56 261.41 436.99C260.97 436.42 260.49 435.51 260.29 434.42C260.09 433.33 260.2 432.31 260.41 431.62C260.62 430.93 260.87 430.55 260.89 430.56C260.93 430.58 260.75 430.98 260.6 431.67C260.45 432.35 260.37 433.33 260.56 434.38C260.76 435.43 261.18 436.31 261.57 436.89C261.96 437.47 262.27 437.78 262.24 437.82V437.8Z" fill="white"/>
<path d="M283.03 356.03C283.03 356.03 282.88 355.78 282.65 355.3C282.53 355.06 282.4 354.77 282.26 354.42C282.12 354.07 281.95 353.68 281.81 353.22C281.49 352.33 281.19 351.23 280.94 350C280.7 348.77 280.52 347.4 280.47 345.95C280.42 344.5 280.5 343.12 280.65 341.87C280.81 340.63 281.03 339.51 281.28 338.6C281.39 338.14 281.53 337.73 281.64 337.37C281.75 337.01 281.86 336.71 281.96 336.46C282.15 335.97 282.27 335.7 282.29 335.7C282.31 335.7 282.23 335.99 282.07 336.49C281.99 336.74 281.89 337.05 281.79 337.41C281.69 337.77 281.56 338.18 281.47 338.64C281.24 339.55 281.05 340.66 280.9 341.89C280.77 343.13 280.7 344.49 280.74 345.93C280.8 347.36 280.97 348.72 281.19 349.94C281.43 351.16 281.7 352.25 282 353.14C282.13 353.59 282.29 353.99 282.41 354.34C282.53 354.69 282.65 354.99 282.75 355.24C282.95 355.73 283.05 356 283.03 356.01V356.03Z" fill="white"/>
<path d="M194.66 47.7104H477.68C486.52 47.7104 493.69 54.8805 493.69 63.7205V294C493.69 302.84 486.52 310.01 477.68 310.01H194.66C185.82 310.01 178.65 302.84 178.65 294V63.7205C178.65 54.8805 185.82 47.7104 194.66 47.7104V47.7104Z" fill="white"/>
<path d="M477.68 310.51H194.66C185.56 310.51 178.15 303.1 178.15 294V63.7302C178.15 54.6302 185.56 47.2202 194.66 47.2202H477.68C486.78 47.2202 494.19 54.6302 494.19 63.7302V294.01C494.19 303.11 486.78 310.52 477.68 310.52V310.51ZM194.66 48.2102C186.11 48.2102 179.15 55.1702 179.15 63.7202V294C179.15 302.55 186.11 309.51 194.66 309.51H477.68C486.23 309.51 493.19 302.55 493.19 294V63.7302C493.19 55.1802 486.23 48.2202 477.68 48.2202H194.66V48.2102Z" fill="#263238"/>
<path d="M235.17 242.66H228.51V288.79H235.17V242.66Z" fill="#EE2C2F"/>
<path d="M222.55 277.26H215.89V288.79H222.55V277.26Z" fill="#EE2C2F"/>
<path d="M246.69 265.72H240.03V288.79H246.69V265.72Z" fill="#EE2C2F"/>
<path d="M258.02 252.29H251.36V288.79H258.02V252.29Z" fill="#EE2C2F"/>
<path d="M271.08 279.03H264.42V288.79H271.08V279.03Z" fill="#EE2C2F"/>
<path d="M473.29 278.05C473.04 277.77 472.92 277.39 472.92 276.93C472.92 276.47 473.04 276.1 473.29 275.81C473.54 275.53 473.86 275.38 474.26 275.38C474.66 275.38 474.99 275.52 475.24 275.8C475.49 276.08 475.61 276.46 475.61 276.92C475.61 277.38 475.49 277.76 475.24 278.04C474.99 278.32 474.66 278.46 474.26 278.46C473.86 278.46 473.53 278.32 473.29 278.03V278.05ZM474.77 277.66C474.89 277.49 474.95 277.25 474.95 276.94C474.95 276.63 474.89 276.39 474.77 276.22C474.65 276.05 474.48 275.96 474.26 275.96C474.05 275.96 473.88 276.05 473.76 276.22C473.63 276.39 473.57 276.63 473.57 276.94C473.57 277.25 473.63 277.49 473.76 277.66C473.89 277.83 474.05 277.92 474.26 277.92C474.48 277.92 474.65 277.83 474.77 277.66ZM477.64 275.45H478.43L474.58 281.09H473.79L477.64 275.45ZM476.98 280.72C476.73 280.44 476.61 280.06 476.61 279.6C476.61 279.14 476.73 278.77 476.98 278.48C477.23 278.2 477.55 278.05 477.95 278.05C478.35 278.05 478.68 278.19 478.93 278.48C479.18 278.76 479.31 279.14 479.31 279.6C479.31 280.06 479.19 280.44 478.93 280.72C478.68 281 478.36 281.15 477.95 281.15C477.54 281.15 477.22 281.01 476.98 280.72ZM478.46 280.32C478.58 280.15 478.65 279.91 478.65 279.6C478.65 279.29 478.59 279.05 478.46 278.88C478.34 278.71 478.17 278.62 477.95 278.62C477.73 278.62 477.57 278.71 477.44 278.88C477.32 279.05 477.26 279.29 477.26 279.6C477.26 279.91 477.32 280.15 477.44 280.32C477.56 280.49 477.73 280.58 477.95 280.58C478.17 280.58 478.33 280.49 478.46 280.32Z" fill="#EE2C2F"/>
<path d="M440.49 249.84H462.47C463.38 249.84 463.84 248.75 463.2 248.1L452.21 236.88C451.81 236.47 451.15 236.47 450.75 236.88L439.76 248.1C439.13 248.75 439.58 249.84 440.49 249.84V249.84Z" fill="#EBEBEB"/>
<path d="M458.82 247.75H444.73V270.1H458.82V247.75Z" fill="#EBEBEB"/>
<path d="M454.13 288.84V293.4H440.16V289.79L446.46 283.96C447.01 283.45 447.37 283.01 447.55 282.64C447.73 282.28 447.82 281.92 447.82 281.57C447.82 281.14 447.67 280.8 447.38 280.56C447.09 280.32 446.67 280.2 446.12 280.2C445.57 280.2 445.09 280.34 444.63 280.62C444.17 280.9 443.81 281.3 443.56 281.82L439.13 279.6C439.79 278.35 440.76 277.37 442.04 276.65C443.32 275.93 444.86 275.57 446.67 275.57C448.05 275.57 449.27 275.79 450.33 276.24C451.39 276.69 452.22 277.33 452.82 278.16C453.42 278.99 453.72 279.94 453.72 281.02C453.72 281.98 453.52 282.88 453.11 283.72C452.7 284.56 451.91 285.51 450.73 286.57L448.24 288.84H454.12H454.13Z" fill="#EE2C2F"/>
<path d="M459.12 292.71C457.93 291.99 457 290.94 456.33 289.57C455.66 288.2 455.32 286.57 455.32 284.68C455.32 282.79 455.66 281.16 456.33 279.79C457 278.42 457.93 277.37 459.12 276.65C460.31 275.93 461.67 275.57 463.22 275.57C464.77 275.57 466.13 275.93 467.32 276.65C468.51 277.37 469.44 278.42 470.11 279.79C470.78 281.16 471.12 282.79 471.12 284.68C471.12 286.57 470.78 288.2 470.11 289.57C469.44 290.94 468.51 291.99 467.32 292.71C466.13 293.43 464.77 293.79 463.22 293.79C461.67 293.79 460.31 293.43 459.12 292.71ZM465.21 284.68C465.21 281.74 464.55 280.27 463.22 280.27C461.89 280.27 461.23 281.74 461.23 284.68C461.23 287.62 461.89 289.09 463.22 289.09C464.55 289.09 465.21 287.62 465.21 284.68Z" fill="#EE2C2F"/>
<path d="M243.46 152.26C243.21 151.98 243.09 151.6 243.09 151.14C243.09 150.68 243.21 150.31 243.46 150.02C243.71 149.74 244.03 149.59 244.43 149.59C244.83 149.59 245.16 149.73 245.41 150.01C245.66 150.29 245.78 150.67 245.78 151.13C245.78 151.59 245.66 151.97 245.41 152.25C245.16 152.53 244.83 152.67 244.43 152.67C244.03 152.67 243.7 152.53 243.46 152.24V152.26ZM244.94 151.87C245.06 151.7 245.12 151.46 245.12 151.15C245.12 150.84 245.06 150.6 244.94 150.43C244.82 150.26 244.65 150.17 244.43 150.17C244.22 150.17 244.05 150.26 243.93 150.43C243.8 150.6 243.74 150.84 243.74 151.15C243.74 151.46 243.8 151.7 243.93 151.87C244.06 152.04 244.22 152.13 244.43 152.13C244.65 152.13 244.82 152.04 244.94 151.87ZM247.81 149.66H248.6L244.75 155.3H243.96L247.81 149.66ZM247.15 154.93C246.9 154.65 246.78 154.27 246.78 153.81C246.78 153.35 246.9 152.98 247.15 152.69C247.4 152.41 247.72 152.26 248.12 152.26C248.52 152.26 248.85 152.4 249.1 152.69C249.35 152.97 249.48 153.35 249.48 153.81C249.48 154.27 249.36 154.65 249.1 154.93C248.85 155.21 248.53 155.36 248.12 155.36C247.71 155.36 247.39 155.22 247.15 154.93ZM248.63 154.53C248.75 154.36 248.82 154.12 248.82 153.81C248.82 153.5 248.76 153.26 248.63 153.09C248.51 152.92 248.34 152.83 248.12 152.83C247.9 152.83 247.74 152.92 247.61 153.09C247.49 153.26 247.43 153.5 247.43 153.81C247.43 154.12 247.49 154.36 247.61 154.53C247.73 154.7 247.9 154.79 248.12 154.79C248.34 154.79 248.5 154.7 248.63 154.53Z" fill="#EE2C2F"/>
<path d="M189.41 150.91H209.52C210.35 150.91 210.77 149.91 210.19 149.32L200.13 139.05C199.76 138.68 199.16 138.68 198.79 139.05L188.73 149.32C188.15 149.91 188.57 150.91 189.4 150.91H189.41Z" fill="#EBEBEB"/>
<path d="M206.2 149H193.3V169.45H206.2V149Z" fill="#EBEBEB"/>
<path d="M223.66 150.39V167.82H217.78V154.82H214.79V150.39H223.65H223.66Z" fill="#EE2C2F"/>
<path d="M229.6 167.14C228.41 166.42 227.48 165.37 226.81 164C226.14 162.63 225.8 161 225.8 159.11C225.8 157.22 226.14 155.59 226.81 154.22C227.48 152.85 228.41 151.81 229.6 151.08C230.79 150.36 232.15 150 233.7 150C235.25 150 236.61 150.36 237.8 151.08C238.99 151.8 239.92 152.85 240.59 154.22C241.26 155.59 241.6 157.22 241.6 159.11C241.6 161 241.26 162.63 240.59 164C239.92 165.37 238.99 166.42 237.8 167.14C236.61 167.86 235.25 168.22 233.7 168.22C232.15 168.22 230.79 167.86 229.6 167.14ZM235.69 159.11C235.69 156.17 235.03 154.7 233.7 154.7C232.37 154.7 231.71 156.17 231.71 159.11C231.71 162.05 232.37 163.52 233.7 163.52C235.03 163.52 235.69 162.05 235.69 159.11Z" fill="#EE2C2F"/>
<path d="M274.8 289.01C274.8 289.15 261.24 289.27 244.52 289.27C227.8 289.27 214.23 289.15 214.23 289.01C214.23 288.87 227.79 288.75 244.52 288.75C261.25 288.75 274.8 288.87 274.8 289.01Z" fill="#263238"/>
<path d="M521.32 0.259766H387.12C382.624 0.259766 378.98 3.90417 378.98 8.39977V79.7798C378.98 84.2754 382.624 87.9198 387.12 87.9198H521.32C525.816 87.9198 529.46 84.2754 529.46 79.7798V8.39977C529.46 3.90417 525.816 0.259766 521.32 0.259766Z" fill="white"/>
<path d="M521.32 87.92C521.32 87.92 521.73 87.92 522.5 87.8C523.27 87.68 524.44 87.39 525.73 86.56C526.99 85.72 528.4 84.28 529.03 82.12C529.37 81.05 529.39 79.84 529.36 78.54C529.36 77.24 529.36 75.86 529.35 74.4C529.33 62.69 529.3 45.77 529.27 24.86C529.27 19.63 529.26 14.15 529.25 8.45C529.28 5.66 527.7 2.84 525.14 1.46C523.86 0.77 522.41 0.43 520.92 0.48C519.41 0.48 517.89 0.48 516.35 0.48C504.05 0.48 490.91 0.5 477.09 0.5C449.44 0.5 419.03 0.51 387.12 0.52C385.18 0.52 383.27 1.25 381.85 2.55C380.42 3.83 379.48 5.64 379.28 7.54C379.18 11.42 379.25 15.38 379.23 19.25C379.23 27.02 379.23 34.68 379.23 42.2C379.23 49.72 379.23 57.12 379.23 64.36C379.23 67.98 379.23 71.56 379.23 75.1C379.24 76.86 379.2 78.65 379.26 80.36C379.37 82.06 380.06 83.69 381.16 84.95C382.25 86.23 383.76 87.11 385.37 87.48C386.18 87.66 387 87.7 387.85 87.68C388.7 87.68 389.54 87.68 390.38 87.68C393.75 87.68 397.07 87.68 400.35 87.68C406.9 87.68 413.26 87.68 419.41 87.69C431.71 87.7 443.16 87.71 453.62 87.72C474.53 87.76 491.45 87.78 503.16 87.8C509 87.82 513.54 87.84 516.63 87.85C518.16 87.86 519.33 87.87 520.13 87.88C520.92 87.88 521.32 87.91 521.32 87.91C521.32 87.91 520.92 87.93 520.13 87.94C519.33 87.94 518.16 87.95 516.63 87.97C513.54 87.98 509 88 503.16 88.02C491.45 88.04 474.53 88.07 453.62 88.1C443.16 88.1 431.71 88.12 419.41 88.13C413.26 88.13 406.9 88.13 400.35 88.14C397.07 88.14 393.75 88.14 390.38 88.14C389.54 88.14 388.69 88.14 387.85 88.14C387.01 88.16 386.11 88.12 385.26 87.93C383.55 87.54 381.95 86.6 380.79 85.25C379.62 83.91 378.88 82.18 378.77 80.38C378.71 78.6 378.75 76.86 378.74 75.08C378.74 71.54 378.74 67.96 378.74 64.34C378.74 57.1 378.74 49.71 378.74 42.18C378.74 34.66 378.74 27 378.74 19.23C378.76 15.33 378.69 11.46 378.79 7.46C379 5.43 380 3.5 381.53 2.14C383.02 0.78 385.06 0 387.13 0C419.04 0 449.44 0.01 477.1 0.02C490.93 0.02 504.07 0.04 516.36 0.04C517.9 0.04 519.42 0.04 520.93 0.04C522.46 -0.01 524.02 0.35 525.35 1.08C528.05 2.54 529.7 5.51 529.66 8.44C529.66 14.15 529.65 19.63 529.64 24.85C529.61 45.76 529.58 62.68 529.56 74.39C529.56 75.85 529.56 77.23 529.55 78.53C529.57 79.82 529.55 81.07 529.19 82.15C528.52 84.35 527.08 85.8 525.79 86.63C524.47 87.46 523.29 87.74 522.51 87.84C522.12 87.91 521.82 87.9 521.62 87.91C521.42 87.91 521.32 87.91 521.32 87.91V87.92Z" fill="#263238"/>
<path d="M402.56 55.7202H398.24V71.3902H402.56V55.7202Z" fill="#EE2C2F"/>
<path d="M417.94 43.04H413.62V71.39H417.94V43.04Z" fill="#EE2C2F"/>
<path d="M410.75 24.4502H405.42V71.3902H410.75V24.4502Z" fill="#455A64"/>
<path d="M433.32 60.6602H429V71.3802H433.32V60.6602Z" fill="#EE2C2F"/>
<path d="M425.63 60.6602H421.31V71.3802H425.63V60.6602Z" fill="#455A64"/>
<path d="M448.69 53.8203H444.37V71.3803H448.69V53.8203Z" fill="#EE2C2F"/>
<path d="M441 38.5801H436.68V71.3901H441V38.5801Z" fill="#455A64"/>
<path d="M471.76 38.5801H467.44V71.3901H471.76V38.5801Z" fill="#455A64"/>
<path d="M456.38 21.9702H452.06V71.3902H456.38V21.9702Z" fill="#455A64"/>
<path d="M464.07 59.1504H459.75V71.3904H464.07V59.1504Z" fill="#EE2C2F"/>
<path d="M502.51 62.4004H498.19V71.3904H502.51V62.4004Z" fill="#455A64"/>
<path d="M487.12 22.9004H482.81V71.3804H487.12V22.9004Z" fill="#455A64"/>
<path d="M494.81 32.8203H490.5V71.3903H494.81V32.8203Z" fill="#EE2C2F"/>
<path d="M479.44 31.4204H475.13V71.3904H479.44V31.4204Z" fill="#EE2C2F"/>
<path d="M510.2 38.5801H505.88V71.3901H510.2V38.5801Z" fill="#EE2C2F"/>
<path d="M407.89 76.0303H398.97C398.633 76.0303 398.36 76.3034 398.36 76.6403V77.2003C398.36 77.5372 398.633 77.8103 398.97 77.8103H407.89C408.227 77.8103 408.5 77.5372 408.5 77.2003V76.6403C408.5 76.3034 408.227 76.0303 407.89 76.0303Z" fill="#E0E0E0"/>
<path d="M437.28 76.0303H428.36C428.023 76.0303 427.75 76.3034 427.75 76.6403V77.2003C427.75 77.5372 428.023 77.8103 428.36 77.8103H437.28C437.617 77.8103 437.89 77.5372 437.89 77.2003V76.6403C437.89 76.3034 437.617 76.0303 437.28 76.0303Z" fill="#E0E0E0"/>
<path d="M463.22 76.0303H454.3C453.963 76.0303 453.69 76.3034 453.69 76.6403V77.2003C453.69 77.5372 453.963 77.8103 454.3 77.8103H463.22C463.557 77.8103 463.83 77.5372 463.83 77.2003V76.6403C463.83 76.3034 463.557 76.0303 463.22 76.0303Z" fill="#E0E0E0"/>
<path d="M489.94 76.0303H481.02C480.683 76.0303 480.41 76.3034 480.41 76.6403V77.2003C480.41 77.5372 480.683 77.8103 481.02 77.8103H489.94C490.277 77.8103 490.55 77.5372 490.55 77.2003V76.6403C490.55 76.3034 490.277 76.0303 489.94 76.0303Z" fill="#E0E0E0"/>
<path d="M512.58 76.0303H503.66C503.323 76.0303 503.05 76.3034 503.05 76.6403V77.2003C503.05 77.5372 503.323 77.8103 503.66 77.8103H512.58C512.917 77.8103 513.19 77.5372 513.19 77.2003V76.6403C513.19 76.3034 512.917 76.0303 512.58 76.0303Z" fill="#E0E0E0"/>
<path d="M515.72 71.3904C515.72 71.5304 487.95 71.6504 453.69 71.6504C419.43 71.6504 391.66 71.5304 391.66 71.3904C391.66 71.2504 419.43 71.1304 453.69 71.1304C487.95 71.1304 515.72 71.2504 515.72 71.3904Z" fill="#263238"/>
<path d="M393.35 15.03C394.659 15.03 395.72 13.969 395.72 12.66C395.72 11.3511 394.659 10.29 393.35 10.29C392.041 10.29 390.98 11.3511 390.98 12.66C390.98 13.969 392.041 15.03 393.35 15.03Z" fill="#E0E0E0"/>
<path d="M402.16 12.66C402.16 13.97 401.1 15.03 399.79 15.03C398.48 15.03 397.42 13.97 397.42 12.66C397.42 11.35 398.48 10.29 399.79 10.29C401.1 10.29 402.16 11.35 402.16 12.66Z" fill="#E0E0E0"/>
<path d="M406.16 15.03C407.469 15.03 408.53 13.969 408.53 12.66C408.53 11.3511 407.469 10.29 406.16 10.29C404.851 10.29 403.79 11.3511 403.79 12.66C403.79 13.969 404.851 15.03 406.16 15.03Z" fill="#E0E0E0"/>
<path d="M278.43 203.72L293.16 234.44L300.87 232.44L350.11 274.66L364.64 247.22C364.64 247.22 335.32 233.73 330.05 222.94C324.79 212.15 329.73 212.47 329.73 212.47L317.55 193.57L278.43 203.73V203.72Z" fill="#263238"/>
<path d="M297.47 162.77C297.47 162.77 312.92 158.23 337.63 140.73C355.7 127.93 369.83 112.69 376.11 105.42C379.13 101.93 384.37 101.39 387.89 104.36C393.32 108.94 400.82 120.44 408.98 149.67C423.37 201.21 413.05 211.01 408.72 210.23C404.39 209.45 375.89 200.03 357.14 199.23C338.39 198.43 309.81 204.01 309.81 204.01L297.47 162.77Z" fill="#E0E0E0"/>
<path d="M297.47 162.77C297.47 162.77 297.51 162.99 297.64 163.45C297.78 163.96 297.97 164.64 298.22 165.51C298.76 167.39 299.54 170.09 300.55 173.58C302.64 180.72 305.68 191.07 309.49 204.1L309.57 204.39L309.87 204.34C318 202.86 327.3 201.42 337.57 200.43C342.71 199.95 348.1 199.58 353.69 199.6C359.28 199.61 365.05 200.33 370.96 201.39C382.81 203.48 395.05 207.06 407.99 210.59L408.62 210.73L409.36 210.75C409.86 210.77 410.29 210.54 410.76 210.43C411.15 210.19 411.57 209.96 411.94 209.69L412.92 208.74C414.01 207.32 414.87 205.72 415.34 204.02C416.37 200.65 416.8 197.11 416.82 193.58C416.97 186.49 416.02 179.35 414.77 172.21C414.47 170.63 414.17 169.05 413.87 167.47C413.55 165.9 413.17 164.35 412.82 162.8C412.15 159.69 411.36 156.63 410.54 153.61C408.99 147.54 407.2 141.62 405.27 135.87C403.32 130.12 401.21 124.53 398.67 119.26C396.13 114.01 393.26 108.94 389.25 104.94C388.24 103.99 387.09 103 385.72 102.53C384.37 102.02 382.92 101.83 381.52 102.02C380.12 102.2 378.76 102.68 377.6 103.47C376.41 104.24 375.53 105.35 374.69 106.31C371.24 110.25 367.75 113.95 364.27 117.43C357.33 124.39 350.44 130.44 343.88 135.59C330.64 145.76 318.96 152.66 310.67 156.89C306.52 159.01 303.2 160.46 300.94 161.39C299.81 161.86 298.93 162.19 298.34 162.41C297.76 162.63 297.43 162.75 297.45 162.76C297.47 162.76 297.76 162.71 298.37 162.52C298.97 162.33 299.86 162.04 301.01 161.6C303.31 160.73 306.66 159.33 310.85 157.27C319.22 153.14 330.98 146.33 344.33 136.2C350.95 131.06 357.89 125.03 364.88 118.07C368.38 114.59 371.89 110.89 375.38 106.94C376.27 105.93 377.06 104.94 378.11 104.27C379.15 103.56 380.37 103.14 381.63 102.98C384.19 102.64 386.74 103.68 388.59 105.66C392.44 109.51 395.28 114.51 397.78 119.71C400.28 124.93 402.38 130.49 404.31 136.21C406.22 141.94 408 147.84 409.54 153.89C410.35 156.91 411.14 159.95 411.81 163.05C412.15 164.6 412.53 166.14 412.85 167.7C413.15 169.26 413.44 170.83 413.74 172.41C414.99 179.5 415.92 186.6 415.78 193.56C415.76 197.04 415.33 200.49 414.36 203.7C413.92 205.33 413.11 206.8 412.15 208.06L411.31 208.88C411 209.1 410.67 209.27 410.35 209.48C409.62 209.7 409.05 209.86 408.21 209.58C395.38 206.1 383.01 202.5 371.12 200.44C365.18 199.39 359.34 198.69 353.69 198.69C348.05 198.69 342.64 199.09 337.49 199.59C327.18 200.63 317.89 202.12 309.74 203.67L310.12 203.9C306.18 191 303.04 180.75 300.88 173.68C299.8 170.18 298.96 167.47 298.37 165.58C298.09 164.69 297.87 163.99 297.71 163.48C297.56 163.01 297.47 162.76 297.46 162.75L297.47 162.77Z" fill="#263238"/>
<path d="M257.14 206.41L267.18 204.88L261.41 191.56L252.97 196.06L257.14 206.41Z" fill="#EE2C2F"/>
<path d="M260.07 190.21L264.56 200.58L267.01 206.24C270.37 214 279.15 217.75 286.98 214.76L327.72 203.6L311.17 151.97L269.93 167.21C262.02 170.77 256.65 180.16 260.06 190.21H260.07Z" fill="#EE2C2F"/>
<g opacity="0.3">
<path d="M405.61 152.44C413.09 179.92 414.25 203.56 408.19 205.25C402.14 206.94 391.17 186.03 383.69 158.55C376.21 131.07 375.06 107.43 381.11 105.74C387.16 104.05 398.13 124.96 405.61 152.44Z" fill="black"/>
</g>
<path d="M379.87 142.41C379.87 142.41 394.42 136.19 398.87 155.48C403.32 174.77 388.9 175.54 388.9 175.54C384.58 165.67 381.53 154.66 379.86 142.41H379.87Z" fill="white"/>
<path d="M303.03 172.06C303.12 172.33 296.12 174.91 287.41 177.84C278.69 180.76 271.56 182.92 271.47 182.65C271.38 182.38 278.37 179.8 287.09 176.87C295.8 173.95 302.94 171.79 303.02 172.06H303.03Z" fill="#263238"/>
<path d="M304.83 177.75C304.92 178.02 297.92 180.6 289.21 183.53C280.49 186.45 273.36 188.61 273.27 188.34C273.18 188.07 280.17 185.49 288.89 182.56C297.6 179.64 304.74 177.48 304.82 177.75H304.83Z" fill="#263238"/>
<path d="M306.63 183.43C306.72 183.7 299.72 186.28 291.01 189.21C282.29 192.13 275.16 194.29 275.07 194.02C274.98 193.75 281.97 191.17 290.69 188.24C299.4 185.32 306.54 183.16 306.62 183.43H306.63Z" fill="#263238"/>
<path d="M308.43 189.12C308.52 189.39 301.52 191.97 292.81 194.9C284.1 197.82 276.96 199.98 276.87 199.71C276.78 199.44 283.78 196.86 292.49 193.93C301.2 191.01 308.34 188.85 308.42 189.12H308.43Z" fill="#263238"/>
<path d="M431.52 167.09C431.46 167.26 439.87 170.36 450.29 174.01C460.72 177.66 469.22 180.48 469.28 180.3C469.34 180.13 460.94 177.03 450.51 173.38C440.08 169.73 431.58 166.92 431.52 167.09Z" fill="#263238"/>
<path d="M428.13 147.37C428.16 147.55 441.57 145.68 458.09 143.19C474.61 140.7 487.98 138.53 487.95 138.35C487.92 138.17 474.51 140.04 457.99 142.53C441.47 145.02 428.1 147.19 428.13 147.37Z" fill="#263238"/>
<path d="M425.14 127.13C425.26 127.27 429.96 123.07 435.64 117.76C441.31 112.45 445.81 108.03 445.69 107.9C445.57 107.76 440.87 111.96 435.19 117.27C429.52 122.58 425.02 126.99 425.14 127.13Z" fill="#263238"/>
<path d="M378.23 108.73C378.23 108.73 378.15 109.07 378.09 109.73C378.03 110.51 377.96 111.46 377.88 112.6C377.79 113.85 377.71 115.37 377.7 117.15C377.69 118.92 377.61 120.95 377.71 123.18C377.79 127.65 378.18 132.97 378.91 138.84C379.71 144.7 380.88 151.1 382.59 157.71C384.34 164.31 386.44 170.47 388.61 175.96C390.84 181.43 393.09 186.25 395.21 190.18C396.21 192.17 397.26 193.89 398.14 195.43C399.01 196.97 399.82 198.26 400.51 199.3C401.14 200.25 401.66 201.04 402.09 201.69C402.46 202.23 402.67 202.5 402.7 202.48C402.73 202.46 402.58 202.15 402.27 201.57C401.89 200.89 401.42 200.07 400.86 199.08C400.23 198.01 399.47 196.7 398.65 195.13C397.82 193.57 396.82 191.83 395.87 189.83C393.85 185.88 391.68 181.05 389.51 175.6C387.41 170.12 385.35 164 383.61 157.44C381.92 150.87 380.72 144.52 379.88 138.71C379.1 132.89 378.63 127.61 378.46 123.16C378.31 120.94 378.33 118.93 378.29 117.16C378.24 115.39 378.26 113.87 378.29 112.62C378.29 111.48 378.29 110.53 378.3 109.75C378.3 109.09 378.27 108.75 378.23 108.74V108.73Z" fill="#263238"/>
<path d="M513.12 236.59C493.59 236.59 477.76 220.76 477.76 201.23C477.76 181.7 493.59 165.86 513.12 165.86C532.65 165.86 548.49 181.69 548.49 201.22C548.49 220.75 532.66 236.59 513.12 236.59V236.59Z" fill="#EE2C2F"/>
<path d="M529.89 193.94C529.81 192.14 529.52 190.92 529.11 189.85C528.68 188.74 528.1 187.8 527.16 186.86C526.22 185.92 525.28 185.35 524.17 184.91C523.1 184.49 521.87 184.21 520.08 184.13C518.28 184.05 517.71 184.03 513.13 184.03C508.55 184.03 507.97 184.05 506.18 184.13C504.38 184.21 503.16 184.5 502.09 184.91C500.98 185.34 500.04 185.92 499.1 186.86C498.16 187.8 497.59 188.74 497.16 189.85C496.74 190.92 496.46 192.15 496.38 193.94C496.3 195.74 496.28 196.31 496.28 200.89C496.28 205.47 496.3 206.05 496.38 207.84C496.46 209.64 496.75 210.86 497.16 211.93C497.59 213.04 498.17 213.98 499.1 214.92C500.04 215.86 500.98 216.43 502.09 216.87C503.16 217.29 504.39 217.57 506.18 217.65C507.98 217.73 508.55 217.75 513.13 217.75C517.71 217.75 518.28 217.73 520.08 217.65C521.88 217.57 523.1 217.28 524.17 216.87C525.28 216.44 526.22 215.86 527.16 214.92C528.1 213.98 528.67 213.04 529.11 211.93C529.53 210.86 529.81 209.63 529.89 207.84C529.97 206.04 529.99 205.47 529.99 200.89C529.99 196.31 529.97 195.74 529.89 193.94ZM526.85 207.71C526.77 209.35 526.5 210.25 526.27 210.84C525.96 211.63 525.6 212.19 525.01 212.78C524.42 213.37 523.86 213.74 523.07 214.04C522.48 214.27 521.58 214.55 519.94 214.62C518.16 214.7 517.63 214.72 513.12 214.72C508.61 214.72 508.08 214.7 506.3 214.62C504.66 214.54 503.76 214.27 503.17 214.04C502.38 213.73 501.82 213.37 501.23 212.78C500.64 212.19 500.27 211.63 499.97 210.84C499.74 210.25 499.46 209.35 499.39 207.71C499.31 205.93 499.29 205.4 499.29 200.89C499.29 196.38 499.31 195.85 499.39 194.07C499.46 192.43 499.74 191.53 499.97 190.94C500.28 190.15 500.64 189.59 501.23 189C501.82 188.41 502.38 188.04 503.17 187.74C503.76 187.51 504.66 187.23 506.3 187.16C508.08 187.08 508.61 187.06 513.12 187.06L519.94 187.16C521.58 187.24 522.48 187.51 523.07 187.74C523.86 188.05 524.42 188.41 525.01 189C525.6 189.59 525.97 190.15 526.27 190.94C526.5 191.53 526.78 192.43 526.85 194.07C526.93 195.85 526.95 196.38 526.95 200.89C526.95 205.4 526.93 205.93 526.85 207.71Z" fill="white"/>
<path d="M513.12 192.23C508.34 192.23 504.46 196.11 504.46 200.89C504.46 205.67 508.34 209.55 513.12 209.55C517.9 209.55 521.78 205.67 521.78 200.89C521.78 196.11 517.9 192.23 513.12 192.23ZM513.12 206.51C510.01 206.51 507.5 203.99 507.5 200.89C507.5 197.79 510.02 195.27 513.12 195.27C516.22 195.27 518.74 197.79 518.74 200.89C518.74 203.99 516.22 206.51 513.12 206.51Z" fill="white"/>
<path d="M522.13 189.87C521.01 189.87 520.11 190.78 520.11 191.89C520.11 193 521.02 193.91 522.13 193.91C523.24 193.91 524.15 193 524.15 191.89C524.15 190.78 523.24 189.87 522.13 189.87Z" fill="white"/>
<path d="M435.071 201.403L435.057 202.403L481.982 203.066L481.996 202.066L435.071 201.403Z" fill="#EE2C2F"/>
<path d="M437.02 199.28C438.47 200.37 438.76 202.43 437.67 203.87C436.58 205.32 434.52 205.61 433.08 204.52C431.63 203.43 431.34 201.37 432.43 199.93C433.52 198.48 435.58 198.19 437.02 199.28Z" fill="#EE2C2F"/>
<path d="M398 334.88C378.47 334.88 362.64 319.05 362.64 299.52C362.64 279.99 378.47 264.15 398 264.15C417.53 264.15 433.37 279.98 433.37 299.51C433.37 319.04 417.54 334.88 398 334.88Z" fill="#EE2C2F"/>
<path d="M381.98 311.88C384.89 313.74 388.34 314.83 392.05 314.83C404.25 314.83 411.14 304.53 410.73 295.29C412.01 294.36 413.13 293.21 414.01 291.89C412.83 292.41 411.56 292.77 410.24 292.92C411.6 292.11 412.64 290.82 413.13 289.29C411.86 290.04 410.45 290.59 408.96 290.88C407.76 289.6 406.05 288.81 404.16 288.81C399.92 288.81 396.8 292.77 397.76 296.88C392.3 296.61 387.46 293.99 384.22 290.01C382.5 292.96 383.33 296.83 386.25 298.78C385.17 298.75 384.16 298.45 383.27 297.96C383.2 301 385.38 303.85 388.54 304.49C387.62 304.74 386.6 304.8 385.57 304.6C386.4 307.21 388.83 309.11 391.71 309.16C388.95 311.33 385.47 312.29 381.98 311.88V311.88Z" fill="white"/>
<path d="M385.75 238.258L384.791 238.541L394.128 270.224L395.087 269.941L385.75 238.258Z" fill="#EE2C2F"/>
<path d="M388.54 237.72C388.54 239.53 387.07 241 385.26 241C383.45 241 381.98 239.53 381.98 237.72C381.98 235.91 383.45 234.44 385.26 234.44C387.07 234.44 388.54 235.91 388.54 237.72Z" fill="#EE2C2F"/>
<path d="M310.8 82.6001C290.79 82.6001 274.57 66.3801 274.57 46.3701C274.57 26.3601 290.79 10.1401 310.8 10.1401C330.81 10.1401 347.03 26.3601 347.03 46.3701C347.03 66.3801 330.81 82.6001 310.8 82.6001Z" fill="#EE2C2F"/>
<path d="M306.17 62.5601H313.57V44.0301H318.73L319.28 37.8201H313.57V34.2901C313.57 32.8301 313.86 32.2501 315.28 32.2501H319.29V25.8101H314.17C308.66 25.8101 306.18 28.2401 306.18 32.8801V37.8301H302.33V44.1101H306.18V62.5701L306.17 62.5601Z" fill="white"/>
<path d="M312.11 76.0601H311.11V118.5H312.11V76.0601Z" fill="#EE2C2F"/>
<path d="M308.26 119.3C308.71 117.55 310.5 116.49 312.25 116.94C314 117.39 315.06 119.18 314.61 120.93C314.16 122.68 312.37 123.74 310.62 123.29C308.87 122.84 307.81 121.05 308.26 119.3Z" fill="#EE2C2F"/>
<path d="M226.02 140.78C206.49 140.78 190.66 124.95 190.66 105.42C190.66 85.8898 206.49 70.0498 226.02 70.0498C245.55 70.0498 261.39 85.8798 261.39 105.41C261.39 124.94 245.56 140.78 226.02 140.78V140.78Z" fill="#EE2C2F"/>
<path fill-rule="evenodd" clip-rule="evenodd" d="M245.26 103.98C245 93.7596 236.58 85.5596 226.22 85.5596C215.86 85.5596 207.64 93.5796 207.19 103.63C207.19 103.91 207.17 104.18 207.17 104.46C207.17 108.04 208.17 111.37 209.9 114.22L207.77 120.52C207.23 122.11 208.73 123.64 210.33 123.13L217.02 121C219.75 122.5 222.89 123.35 226.22 123.35C236.74 123.35 245.27 114.89 245.27 104.45C245.27 104.29 245.27 104.13 245.27 103.97L245.26 103.98ZM226.22 120.35C222.97 120.35 219.94 119.39 217.41 117.72L211.26 119.68L213.26 113.78C211.34 111.16 210.21 107.94 210.21 104.46C210.21 103.94 210.24 103.43 210.29 102.92C211.07 94.8796 217.92 88.5696 226.22 88.5696C234.52 88.5696 241.54 95.0296 242.18 103.22C242.22 103.63 242.23 104.04 242.23 104.46C242.23 113.23 235.04 120.35 226.22 120.35V120.35Z" fill="white"/>
<path fill-rule="evenodd" clip-rule="evenodd" d="M234.95 108.27C234.48 108.04 232.19 106.91 231.76 106.76C231.33 106.6 231.02 106.53 230.71 106.99C230.4 107.45 229.5 108.5 229.23 108.8C228.95 109.11 228.69 109.15 228.21 108.92C227.75 108.69 226.24 108.21 224.46 106.62C223.08 105.4 222.13 103.88 221.87 103.42C221.6 102.96 221.84 102.71 222.08 102.47C222.29 102.26 222.54 101.93 222.78 101.66C222.84 101.58 222.9 101.51 222.95 101.44C223.06 101.27 223.14 101.11 223.24 100.89C223.4 100.58 223.32 100.31 223.2 100.08C223.08 99.8496 222.15 97.5696 221.76 96.6396C221.38 95.7096 220.98 95.8696 220.71 95.8696C220.44 95.8696 220.13 95.8296 219.82 95.8296C219.51 95.8296 219 95.9496 218.57 96.4096C218.14 96.8696 216.94 97.9996 216.94 100.28C216.94 100.81 217.04 101.35 217.18 101.86C217.65 103.49 218.67 104.84 218.85 105.07C219.08 105.37 222.08 110.21 226.82 112.07C231.57 113.92 231.57 113.3 232.43 113.22C233.29 113.15 235.19 112.11 235.58 111.02C235.97 109.94 235.97 109.01 235.86 108.82C235.74 108.63 235.43 108.52 234.97 108.28L234.95 108.27Z" fill="white"/>
<path d="M241.554 123.67L240.798 124.325L262.426 149.302L263.182 148.647L241.554 123.67Z" fill="#EE2C2F"/>
<path d="M260.09 150.95C259.34 149.3 260.07 147.36 261.72 146.61C263.37 145.86 265.31 146.59 266.06 148.24C266.81 149.89 266.08 151.83 264.43 152.58C262.78 153.33 260.84 152.6 260.09 150.95Z" fill="#EE2C2F"/>
<path d="M563.05 357.86H628.08C630.78 357.86 632.96 360.05 632.96 362.74V436.19C632.96 438.89 630.77 441.07 628.08 441.07H563.05C555.71 441.07 549.74 435.11 549.74 427.76V371.16C549.74 363.82 555.7 357.85 563.05 357.85V357.86Z" fill="#455A64"/>
<g opacity="0.3">
<path d="M563.05 357.86H628.08C630.78 357.86 632.96 360.05 632.96 362.74V436.19C632.96 438.89 630.77 441.07 628.08 441.07H563.05C555.71 441.07 549.74 435.11 549.74 427.76V371.16C549.74 363.82 555.7 357.85 563.05 357.85V357.86Z" fill="black"/>
</g>
<path d="M609.6 357.86H538.85C536.613 357.86 534.8 359.673 534.8 361.91V437.03C534.8 439.267 536.613 441.08 538.85 441.08H609.6C611.837 441.08 613.65 439.267 613.65 437.03V361.91C613.65 359.673 611.837 357.86 609.6 357.86Z" fill="#455A64"/>
<path d="M525 257.53C525 257.53 516.22 249.88 513.87 248.57C511.52 247.25 507.5 248.04 503.94 247.5C500.38 246.96 495.33 244.56 494.05 245.25C492.53 246.07 494.12 249.52 499.56 251.66L497.97 251.52L494.1 251.83C494.1 251.83 492.67 249.72 491.45 249.74C489.7 249.76 489.76 251.2 489.76 251.2C489.76 251.2 487.11 248.08 486.24 251.45C486.24 251.45 483.13 250.27 482.91 252.63C482.91 252.63 482.22 254.52 488.88 255.03C488.88 255.03 494.54 260.35 495.93 260.89C497.32 261.43 502.13 260.69 502.13 260.69C502.13 260.69 503.54 262.71 505.01 262.8C507.82 262.96 515.04 262.47 515.04 262.47L517.88 265.86L524.99 257.53H525Z" fill="#FFBF9D"/>
<path d="M502.3 260.74C502.3 260.74 502.07 260.33 501.62 259.62C501.19 258.91 500.49 257.86 500.29 256.41C500.08 254.96 500.74 253.21 501.98 251.71C502.29 251.33 502.62 250.95 502.97 250.56C503.33 250.18 503.67 249.76 504.07 249.48C504.46 249.18 504.93 249.15 505.28 249.48C505.64 249.79 505.77 250.3 505.75 250.83C505.68 252.31 504.89 253.68 503.81 254.48L503.57 254.66L503.8 254.85C504.54 255.47 505.15 256.17 505.65 256.89L505.78 257.07L505.96 256.95C508.24 255.41 510.5 254.7 512.09 254.38C513.69 254.06 514.65 254.05 514.65 253.98C514.65 253.96 514.41 253.94 513.97 253.94C513.52 253.94 512.87 253.98 512.05 254.11C510.42 254.36 508.09 255.02 505.72 256.57L506.03 256.63C505.53 255.87 504.89 255.13 504.12 254.47V254.85C505.31 253.96 506.18 252.48 506.26 250.83C506.29 250.23 506.13 249.52 505.62 249.08C505.38 248.86 505.03 248.72 504.69 248.73C504.34 248.74 504.04 248.89 503.8 249.06C503.31 249.42 502.99 249.84 502.63 250.22C502.28 250.61 501.94 251 501.63 251.4C500.36 252.97 499.67 254.87 499.95 256.44C500.22 258 500.99 259.03 501.47 259.71C501.98 260.39 502.29 260.74 502.31 260.72L502.3 260.74Z" fill="#FF9A6C"/>
<path d="M493.6 251.35C493.49 251.44 494.68 253.02 496.25 254.88C496.65 255.34 497 255.79 497.41 256.18C497.83 256.57 498.33 256.78 498.76 256.83C499.2 256.88 499.53 256.78 499.75 256.71C499.97 256.64 500.08 256.58 500.07 256.55C500.07 256.52 499.93 256.51 499.71 256.52C499.49 256.52 499.17 256.57 498.82 256.48C498.47 256.39 498.06 256.19 497.73 255.84C497.39 255.49 497.03 255.01 496.64 254.55C495.07 252.69 493.72 251.25 493.61 251.34L493.6 251.35Z" fill="#FF9A6C"/>
<path d="M496.22 260.16C496.33 260.06 494.58 258.18 492.75 255.61C490.91 253.05 489.7 250.79 489.57 250.86C489.45 250.91 490.48 253.31 492.35 255.9C494.2 258.51 496.14 260.25 496.22 260.16V260.16Z" fill="#FF9A6C"/>
<path d="M490.69 256.69C490.77 256.6 489.69 255.42 488.43 253.88C487.15 252.36 486.12 251.12 486.01 251.2C485.9 251.28 486.76 252.67 488.05 254.2C489.32 255.75 490.59 256.81 490.7 256.69H490.69Z" fill="#FF9A6C"/>
<path d="M501.14 251.9C501.16 251.76 500.35 251.6 499.34 251.53C498.33 251.46 497.5 251.52 497.5 251.66C497.5 251.8 498.3 251.96 499.3 252.03C500.3 252.1 501.12 252.03 501.14 251.9Z" fill="#FF9A6C"/>
<path d="M575.4 234.03C575.4 234.03 566.04 233.33 560.61 244.24C557.02 251.45 546.09 270.9 546.09 270.9L524.6 252.85L512 266.47C512 266.47 533.51 292.09 541.86 294.03C550.21 295.97 560.06 290.3 563.15 285.93C566.23 281.56 576.5 270.89 576.5 270.89L575.4 234.02V234.03Z" fill="#EE2C2F"/>
<path d="M578 257.13L579.49 232.98C579.53 214.23 577.6 192.54 579.9 186.41C584.14 175.09 599.34 172.66 599.34 172.66C619.86 170.57 624.01 186.26 626.52 200.59C626.95 203.02 628.11 207.33 629.59 212.3C632.95 222.65 637.1 233.26 644.92 240.13C647.9 242.75 649.97 246.5 650.75 250.4C651.53 254.3 649.59 259.08 645.69 259.85C647.75 261.69 648.89 264.51 648.7 267.27C648.51 270.03 646.98 272.66 644.69 274.2C641.46 276.37 637.25 276.25 633.37 275.92C629.52 275.59 625.47 275.06 622.38 272.74C619.28 270.42 617.61 266.68 616.32 263.02C614.77 258.62 613.57 254.1 612.72 249.51L578 257.14V257.13Z" fill="#263238"/>
<path d="M598.61 177.95L600.07 176.93L612.96 184.59C614.93 185.01 616.26 186.86 616.01 188.86L607.52 233.3C607.07 236.34 607.5 239.21 605.29 241.35L590.18 255.54C584.88 260.67 587.26 247.94 584.77 241C584.6 240.51 585.91 239.01 585.88 238.68C585.87 238.27 585.8 237.99 585.83 237.65C585.98 233.98 586.44 230.86 586.44 230.86C586.81 226.87 586.98 225.23 586.97 225.27C586.97 225.27 578.7 223 578.09 211.84C577.79 206.29 579.14 198.93 580.59 191.7C582.59 181.7 590.51 176.69 598.61 177.95Z" fill="#FFBF9D"/>
<path d="M595.42 201.14C595.32 201.88 595.86 202.58 596.63 202.7C597.4 202.82 598.11 202.32 598.21 201.58C598.31 200.84 597.77 200.14 597 200.02C596.23 199.9 595.52 200.4 595.42 201.14Z" fill="#263238"/>
<path d="M581.67 198.97C581.57 199.71 582.11 200.41 582.88 200.53C583.65 200.65 584.36 200.15 584.46 199.41C584.56 198.67 584.02 197.97 583.25 197.85C582.48 197.73 581.77 198.23 581.67 198.97Z" fill="#263238"/>
<path d="M581.53 195.32C581.69 195.52 582.83 194.84 584.35 195C585.87 195.14 586.9 196.03 587.08 195.87C587.17 195.8 587.03 195.45 586.58 195.04C586.14 194.64 585.36 194.21 584.42 194.12C583.48 194.03 582.65 194.29 582.15 194.6C581.65 194.91 581.45 195.22 581.53 195.32V195.32Z" fill="#263238"/>
<path d="M596.17 197.32C596.35 197.5 597.42 196.71 598.94 196.72C600.46 196.7 601.58 197.49 601.74 197.3C601.82 197.22 601.64 196.88 601.16 196.53C600.68 196.18 599.86 195.83 598.92 195.84C597.97 195.84 597.17 196.19 596.71 196.55C596.24 196.91 596.08 197.24 596.17 197.33V197.32Z" fill="#263238"/>
<path d="M589.87 207.45C589.89 207.36 588.96 207.1 587.46 206.75C587.08 206.67 586.72 206.56 586.68 206.28C586.62 205.99 586.82 205.59 587.06 205.16C587.52 204.26 588 203.32 588.51 202.33C590.53 198.3 592.04 194.97 591.88 194.89C591.72 194.81 589.94 198.01 587.92 202.04C587.43 203.03 586.96 203.98 586.52 204.89C586.33 205.31 586.02 205.79 586.16 206.39C586.23 206.69 586.5 206.93 586.74 207.02C586.98 207.12 587.2 207.15 587.39 207.18C588.92 207.42 589.87 207.53 589.88 207.44L589.87 207.45Z" fill="#263238"/>
<path d="M586.97 225.27C586.97 225.27 594.31 226.51 602.08 222.87C602.08 222.87 597.6 230.09 586.71 227.92L586.97 225.27Z" fill="#FF9A6C"/>
<path d="M596.34 191.12C596.48 191.54 598 191.39 599.78 191.65C601.57 191.88 602.99 192.45 603.24 192.08C603.35 191.91 603.11 191.51 602.54 191.09C601.97 190.67 601.06 190.27 600 190.12C598.93 189.97 597.94 190.12 597.29 190.36C596.63 190.61 596.29 190.92 596.35 191.12H596.34Z" fill="#263238"/>
<path d="M582.5 189.24C582.72 189.65 582.99 189.53 584.44 189.88C585.91 190.18 588.1 190.85 588.47 190.57C588.64 190.43 588.53 190.05 588.07 189.59C587.62 189.14 586.8 188.66 585.79 188.44C584.79 188.22 583.84 188.31 583.25 188.52C582.65 188.74 582.4 189.04 582.49 189.24H582.5Z" fill="#263238"/>
<path d="M612.78 207.95C612.78 207.95 606.02 209.18 599.79 190.46C597.69 184.14 597.59 176.55 597.59 176.55L600.15 176.19C600.15 176.19 614.67 182.81 614.9 183.04C615.13 183.27 617.52 191.49 617.52 191.49L612.79 207.94L612.78 207.95Z" fill="#263238"/>
<path d="M610.99 206.95C611.08 206.13 612.22 204.3 613.04 204.26C615.23 204.15 619.1 204.72 618.57 210.2C617.84 217.69 610.47 215.42 610.48 215.2C610.48 215.03 610.69 209.77 610.99 206.95V206.95Z" fill="#FFBF9D"/>
<path d="M613.05 212.58C613.05 212.58 613.17 212.68 613.38 212.81C613.59 212.93 613.95 213.03 614.35 212.92C615.17 212.71 615.96 211.51 616.12 210.17C616.21 209.49 616.12 208.83 615.94 208.27C615.76 207.7 615.45 207.28 615.06 207.17C614.67 207.04 614.37 207.25 614.26 207.45C614.14 207.65 614.17 207.8 614.13 207.81C614.11 207.83 613.98 207.67 614.07 207.37C614.12 207.22 614.22 207.06 614.41 206.93C614.6 206.8 614.88 206.75 615.15 206.81C615.72 206.91 616.19 207.49 616.4 208.1C616.64 208.72 616.75 209.47 616.65 210.23C616.46 211.73 615.55 213.07 614.43 213.28C613.89 213.37 613.47 213.16 613.26 212.97C613.05 212.76 613.02 212.59 613.05 212.58V212.58Z" fill="#FF9A6C"/>
<path d="M614.35 216.01C614.36 217.08 613.51 217.95 612.44 217.96C611.37 217.97 610.5 217.12 610.49 216.05C610.48 214.98 611.33 214.11 612.4 214.1C613.47 214.09 614.34 214.94 614.35 216.01Z" fill="#455A64"/>
<path d="M637.78 181.08C635.71 178.52 632.11 177.35 628.9 178.06C625.72 178.76 622.99 181.24 621.98 184.34L621.07 203.19C622.32 203.74 623.88 203.45 624.85 202.49C625.82 201.53 626.13 199.97 625.6 198.72C626.49 200.18 628.33 201.04 630.01 200.7C631.69 200.35 633.06 198.77 633.06 197.05C633.06 195.66 632.13 194.33 630.86 193.81C633.76 194.3 636.93 192.87 638.48 190.33C640.19 187.52 639.84 183.65 637.78 181.08V181.08Z" fill="#263238"/>
<path d="M624.27 198.95C624.27 198.95 624.16 199.04 623.93 199.16C623.69 199.27 623.36 199.49 622.89 199.66C621.97 200.06 620.56 200.49 618.76 200.67C616.97 200.86 614.78 200.71 612.48 200.06C610.18 199.4 607.78 198.2 605.69 196.39C603.62 194.56 602.06 192.39 600.99 190.26C599.91 188.13 599.28 186.06 598.92 184.3C598.56 182.54 598.44 181.08 598.42 180.08C598.4 179.58 598.42 179.19 598.42 178.93C598.43 178.67 598.44 178.53 598.46 178.53C598.5 178.53 598.52 179.08 598.59 180.08C598.66 181.07 598.83 182.51 599.22 184.24C599.61 185.97 600.27 188 601.35 190.08C602.42 192.16 603.96 194.27 605.98 196.06C608.02 197.82 610.35 199.01 612.59 199.67C614.83 200.33 616.96 200.51 618.72 200.37C622.28 200.1 624.23 198.84 624.26 198.97L624.27 198.95Z" fill="#455A64"/>
<path d="M624.58 201.34C624.58 201.34 624.43 201.83 623.92 202.45C623.42 203.07 622.59 203.84 621.5 204.42C620.41 204.99 619.31 205.25 618.51 205.31C617.71 205.37 617.22 205.28 617.22 205.23C617.21 205.09 619.2 205.14 621.28 204.02C623.38 202.93 624.46 201.26 624.57 201.35L624.58 201.34Z" fill="#455A64"/>
<path d="M626.4 200.78C626.33 200.78 626.16 199.81 625.86 198.23C625.56 196.65 625.11 194.49 624.5 192.12C623.88 189.75 623.22 187.64 622.71 186.12C622.2 184.6 621.87 183.66 621.94 183.64C621.99 183.62 622.43 184.51 623.02 186.02C623.61 187.52 624.33 189.63 624.95 192.01C625.57 194.39 625.97 196.59 626.19 198.18C626.41 199.78 626.46 200.77 626.41 200.78H626.4Z" fill="#455A64"/>
<path d="M594.04 212.34C594.04 211.78 593.8 211.25 593.46 210.86C592.77 210.08 591.64 209.86 590.72 210.32C589.8 210.78 589.16 211.9 589.17 213.02C589.55 213.73 590.21 214.26 590.99 214.44C591.11 214.47 591.24 214.49 591.36 214.5C591.96 214.57 592.61 214.45 593.13 214.07C593.65 213.69 594.03 213.03 594.04 212.33V212.34Z" fill="#FF9A6C"/>
<path d="M593.54 209.51C593.3 209.48 593.17 211.07 591.71 212.08C590.26 213.1 588.58 212.78 588.55 213C588.52 213.1 588.9 213.34 589.62 213.42C590.32 213.5 591.36 213.36 592.25 212.74C593.14 212.12 593.57 211.22 593.68 210.57C593.8 209.91 593.65 209.5 593.54 209.5V209.51Z" fill="#263238"/>
<path d="M574.31 234.03C574.31 234.03 562.76 249.62 561.81 255.02C560.86 260.42 563.54 295.35 564.92 301.39L555.98 321.5L571.27 325.08L622.07 324.21L619.93 290.78L625.07 268.56L625.6 239.33L607.53 233.32C602.79 242.89 587.19 239.75 586.35 232.09L574.31 234.03V234.03Z" fill="#EE2C2F"/>
<path d="M625.59 239.32C625.59 239.32 631.81 241.56 635.38 248.73C638.26 254.51 646.15 279.54 648.11 285.88C650.27 292.87 650.96 298.8 647.02 303.6C645.88 304.98 645.69 306.65 637.38 310.12C629.15 313.55 607.33 320.16 607.33 320.16L602.78 308.87L629.59 292.42L621.85 271.55L625.59 239.32V239.32Z" fill="#EE2C2F"/>
<path d="M627.6 260.74C627.74 260.77 626.12 267.47 623.98 275.69C621.85 283.91 620.01 290.55 619.87 290.52C619.73 290.49 621.35 283.79 623.49 275.57C625.62 267.35 627.46 260.71 627.6 260.74Z" fill="#263238"/>
<path d="M579.77 311.97L581.95 310.94L581.14 311.93C581.14 311.93 580.08 313.05 580.41 314.29C580.74 315.53 583 315.79 583 315.79C583 315.79 582.8 317.09 583.65 318.22C584.44 319.28 587.47 318.5 587.47 318.5L587.05 319.4C586.54 320.36 587.77 321.56 588.34 321.71C588.91 321.86 591.13 321.23 592.14 320.57C593.14 319.91 596.82 320.21 596.82 320.21C596.82 320.21 601.43 321.68 603.39 320.98C605.35 320.28 605.92 318.85 605.92 318.85C605.92 318.85 605.59 310.22 602.77 308.85C601.33 308.15 592.95 304.94 590.45 303.87C589.61 303.51 588.66 303.49 587.8 303.81C585.09 304.83 580.17 306.88 578.94 307.82C578.94 307.82 576.79 309.17 577.22 310.46C577.47 311.2 578.16 312.27 579.76 311.95L579.77 311.97Z" fill="#FFBF9D"/>
<path d="M586.12 308.04C586.12 308.04 585.18 308.85 583.94 309.74C582.7 310.63 581.67 311.32 581.63 311.27C581.6 311.22 582.57 310.46 583.81 309.57C585.05 308.68 586.08 307.99 586.12 308.04Z" fill="#FF9A6C"/>
<path d="M588.35 312.81C588.38 312.87 587.12 313.42 585.65 314.26C584.19 315.1 583.04 315.86 583 315.8C582.98 315.78 583.25 315.56 583.71 315.24C584.16 314.92 584.81 314.49 585.54 314.07C586.28 313.65 586.97 313.32 587.49 313.1C588 312.88 588.33 312.78 588.34 312.8L588.35 312.81Z" fill="#FF9A6C"/>
<path d="M591.45 316.28C591.48 316.33 590.55 316.9 589.38 317.56C588.21 318.21 587.23 318.7 587.2 318.65C587.17 318.6 588.1 318.03 589.27 317.37C590.44 316.72 591.42 316.23 591.45 316.28Z" fill="#FF9A6C"/>
<path d="M564.12 246.01C564.12 246.01 564.13 246.18 564.1 246.51C564.06 246.89 564 247.36 563.94 247.92C563.78 249.14 563.58 250.92 563.37 253.11C562.93 257.49 562.54 263.57 562.6 270.29C562.67 277.01 563.18 283.08 563.7 287.45C563.96 289.64 564.19 291.41 564.37 292.63C564.44 293.19 564.5 293.66 564.55 294.04C564.59 294.36 564.6 294.53 564.58 294.54C564.56 294.54 564.52 294.38 564.45 294.06C564.37 293.68 564.28 293.22 564.17 292.67C563.93 291.46 563.64 289.7 563.34 287.51C562.73 283.14 562.16 277.05 562.09 270.3C562.03 263.56 562.49 257.46 563.02 253.08C563.28 250.89 563.54 249.12 563.76 247.9C563.86 247.34 563.95 246.88 564.02 246.5C564.08 246.18 564.13 246.02 564.14 246.02L564.12 246.01Z" fill="#263238"/>
<path d="M539.84 428.46L551.09 445.62C551.09 445.62 538.01 462.79 539.79 466.16L572.73 445.6L556.26 418.15L539.84 428.47V428.46Z" fill="#455A64"/>
<path d="M560.38 437.78C561.13 437.56 562.02 438.03 562.27 438.79C562.53 439.55 562.09 440.47 561.34 440.7C560.6 440.93 559.51 440.41 559.34 439.62C559.17 438.84 559.74 437.79 560.52 437.74" fill="#E0E0E0"/>
<path d="M572.73 445.59L570.97 442.89L540.04 463.62C540.04 463.62 538.97 465.19 539.79 466.16L572.73 445.6V445.59Z" fill="#263238"/>
<path d="M550.45 445.77C550.56 445.93 551.41 445.51 552.52 445.55C553.64 445.56 554.48 446.03 554.59 445.87C554.72 445.75 553.88 444.9 552.52 444.88C551.17 444.84 550.32 445.65 550.44 445.78L550.45 445.77Z" fill="white"/>
<path d="M547.89 449.41C547.95 449.59 548.82 449.44 549.79 449.8C550.77 450.13 551.37 450.81 551.53 450.7C551.7 450.63 551.22 449.59 550 449.16C548.79 448.72 547.8 449.24 547.89 449.4V449.41Z" fill="white"/>
<path d="M548.52 454.9C548.69 454.84 548.41 453.87 547.44 453.22C546.48 452.56 545.5 452.67 545.52 452.86C545.52 453.05 546.3 453.24 547.08 453.79C547.88 454.32 548.35 454.99 548.52 454.91V454.9Z" fill="white"/>
<path d="M548.3 441.58C548.46 441.69 549.06 441 550.01 440.5C550.95 439.98 551.85 439.85 551.84 439.65C551.86 439.47 550.8 439.29 549.69 439.9C548.58 440.5 548.14 441.5 548.3 441.58V441.58Z" fill="white"/>
<path d="M573.71 324.2C573.71 324.2 519.59 342.24 510.7 349.43C503.54 355.22 504.48 371.81 508.64 378.44C510.33 381.14 547.71 443.84 547.71 443.84L566.27 433.7L541.27 372.47C541.27 372.47 602.32 360.62 613.62 355.53C627.6 349.23 623.13 334.71 623.13 334.71L620.68 324.2H573.72H573.71Z" fill="#263238"/>
<path d="M553.63 411.44L564.88 428.6C564.88 428.6 551.8 445.77 553.58 449.14L586.52 428.58L570.06 401.13L553.64 411.45L553.63 411.44Z" fill="#455A64"/>
<path d="M574.17 420.76C574.92 420.54 575.81 421.01 576.06 421.77C576.32 422.53 575.88 423.45 575.13 423.68C574.39 423.91 573.3 423.39 573.13 422.6C572.96 421.82 573.53 420.77 574.31 420.72" fill="#E0E0E0"/>
<path d="M586.52 428.57L584.76 425.87L553.83 446.6C553.83 446.6 552.76 448.17 553.58 449.14L586.52 428.58V428.57Z" fill="#263238"/>
<path d="M564.87 428.75C564.98 428.91 565.83 428.49 566.94 428.53C568.06 428.54 568.9 429.01 569.01 428.85C569.14 428.73 568.3 427.88 566.94 427.86C565.59 427.82 564.74 428.63 564.86 428.76L564.87 428.75Z" fill="white"/>
<path d="M562.27 432.48C562.33 432.66 563.2 432.51 564.17 432.87C565.15 433.2 565.75 433.88 565.91 433.77C566.08 433.7 565.6 432.66 564.38 432.23C563.17 431.79 562.18 432.31 562.27 432.47V432.48Z" fill="white"/>
<path d="M562.9 438.06C563.07 438 562.79 437.03 561.82 436.38C560.86 435.72 559.88 435.83 559.9 436.02C559.9 436.21 560.68 436.4 561.46 436.95C562.26 437.48 562.73 438.15 562.9 438.07V438.06Z" fill="white"/>
<path d="M563.1 425.62C563.26 425.73 563.86 425.04 564.81 424.54C565.75 424.02 566.65 423.89 566.64 423.69C566.66 423.51 565.6 423.33 564.49 423.94C563.38 424.54 562.94 425.54 563.1 425.62V425.62Z" fill="white"/>
<path d="M515.43 325.76C512.32 328.63 507.57 338.02 512.63 349.06C515.84 356.06 560.12 424.52 560.12 424.52L578.09 412.69C578.09 412.69 562.7 380.42 557.56 365.3C553.65 353.81 544.97 336.09 544.41 334.93L572.32 324.68C572.32 324.68 542.49 315.21 531.64 317.53C520.78 319.85 515.44 325.76 515.44 325.76H515.43Z" fill="#263238"/>
<path d="M515.43 325.76C515.43 325.76 515.66 325.48 516.18 324.99C516.7 324.51 517.5 323.81 518.63 323.01C520.87 321.41 524.46 319.32 529.5 317.93C530.13 317.77 530.78 317.61 531.45 317.45C532.13 317.32 532.84 317.25 533.55 317.14C534.99 317.05 536.52 317 538.1 317.12C541.26 317.29 544.67 317.75 548.28 318.43C555.51 319.77 563.6 321.81 572.37 324.49L572.93 324.66L572.38 324.86C563.95 327.96 554.53 331.44 544.48 335.14L544.61 334.83C546.77 339.25 548.92 343.85 551.05 348.62C553.17 353.39 555.29 358.31 557.16 363.46C558.93 368.64 560.97 373.82 563.19 379.06C565.39 384.29 567.73 389.58 570.13 394.92C572.85 400.94 575.58 406.85 578.3 412.59L578.39 412.79L578.21 412.91C572.03 416.98 566.02 420.93 560.24 424.74L560.03 424.88L559.9 424.67C550.97 410.83 542.68 397.9 535.3 386.26C527.92 374.62 521.41 364.3 516.18 355.62C514.88 353.44 513.64 351.38 512.6 349.34C511.66 347.26 511 345.21 510.64 343.24C510.31 341.27 510.23 339.4 510.35 337.7C510.51 336 510.78 334.47 511.19 333.14C511.99 330.47 513.11 328.59 513.95 327.42C514.81 326.25 515.41 325.78 515.41 325.78C515.41 325.78 515.29 325.92 515.04 326.19C514.78 326.45 514.44 326.88 514.02 327.47C513.2 328.65 512.12 330.52 511.35 333.18C510.96 334.51 510.69 336.03 510.55 337.71C510.45 339.4 510.54 341.24 510.87 343.19C511.23 345.14 511.9 347.17 512.84 349.22C513.87 351.23 515.13 353.28 516.43 355.45C521.7 364.11 528.23 374.41 535.64 386.03C543.05 397.65 551.36 410.57 560.3 424.4L559.96 424.33C565.73 420.52 571.74 416.57 577.92 412.49L577.83 412.81C575.1 407.07 572.37 401.16 569.65 395.14C567.24 389.8 564.91 384.51 562.7 379.27C560.49 374.04 558.44 368.82 556.67 363.64C554.81 358.51 552.7 353.59 550.59 348.82C548.47 344.06 546.32 339.46 544.17 335.04L544.06 334.81L544.3 334.72C554.36 331.04 563.78 327.59 572.22 324.5V324.88C563.49 322.18 555.4 320.12 548.2 318.76C544.6 318.07 541.21 317.6 538.07 317.41C536.5 317.29 534.99 317.32 533.56 317.41C532.85 317.51 532.16 317.58 531.48 317.7C530.81 317.86 530.17 318.02 529.54 318.17C524.51 319.52 520.93 321.56 518.67 323.13C517.54 323.92 516.73 324.59 516.19 325.06C515.73 325.48 515.52 325.67 515.4 325.79L515.43 325.76Z" fill="#455A64"/>
<path d="M537.87 328.3C537.94 328.19 539.81 329.36 541.68 331.32C543.55 333.27 544.63 335.2 544.52 335.27C544.4 335.35 543.15 333.59 541.32 331.67C539.5 329.75 537.79 328.42 537.88 328.3H537.87Z" fill="#455A64"/>
<path d="M553.63 411.44C553.63 411.44 553.71 411.38 553.89 411.25C554.1 411.11 554.37 410.94 554.71 410.71C555.47 410.22 556.55 409.53 557.92 408.64C560.78 406.82 564.87 404.21 569.96 400.96L570.12 400.86L570.22 401.02C574.62 408.32 580.33 417.8 586.75 428.43L586.88 428.64L586.67 428.77C582.4 431.44 577.86 434.27 573.2 437.19C566.35 441.46 559.78 445.56 553.72 449.33L553.48 449.48L553.37 449.24C553.08 448.61 553.17 447.98 553.29 447.43C553.4 446.86 553.59 446.33 553.78 445.81C554.19 444.77 554.67 443.79 555.17 442.84C556.18 440.95 557.28 439.19 558.36 437.51C560.55 434.16 562.71 431.15 564.74 428.48V428.7C561.29 423.38 558.5 419.06 556.56 416.04C555.62 414.58 554.89 413.43 554.37 412.62C554.14 412.25 553.95 411.96 553.81 411.74C553.69 411.54 553.63 411.44 553.64 411.44C553.64 411.44 553.72 411.55 553.86 411.75C554.01 411.97 554.21 412.27 554.47 412.64C555.01 413.45 555.78 414.59 556.76 416.04C558.73 419.01 561.56 423.25 565.04 428.49L565.11 428.6L565.03 428.71C563.03 431.39 560.89 434.41 558.73 437.76C557.66 439.44 556.58 441.2 555.58 443.07C555.08 444.01 554.61 444.98 554.22 445.99C554.03 446.5 553.85 447.01 553.75 447.54C553.64 448.06 553.6 448.62 553.79 449.03L553.44 448.94C559.49 445.16 566.05 441.05 572.9 436.77C577.57 433.86 582.1 431.03 586.38 428.36L586.3 428.7C579.94 418.04 574.26 408.54 569.9 401.22L570.15 401.28C565.06 404.43 560.96 406.96 558.1 408.73C556.69 409.59 555.59 410.27 554.81 410.75C554.45 410.97 554.16 411.14 553.94 411.27C553.74 411.39 553.64 411.45 553.63 411.44V411.44Z" fill="#263238"/>
<g opacity="0.3">
<path d="M517.15 324.2L558.26 326.12L622.11 330.38L620.67 324.2H622.06L621.93 322.12H520.09L517.15 324.2Z" fill="black"/>
</g>
<path d="M624.88 279.74C624.88 279.74 625.05 280.05 625.3 280.65C625.57 281.33 625.92 282.19 626.33 283.24C627.22 285.56 628.41 288.69 629.81 292.34L629.88 292.52L629.71 292.63C627.56 293.95 625.22 295.4 622.76 296.92C617.65 300.05 613.01 302.86 609.64 304.88C608.01 305.84 606.66 306.64 605.63 307.24C604.68 307.79 604.14 308.08 604.12 308.05C604.1 308.02 604.6 307.67 605.52 307.07C606.52 306.43 607.84 305.59 609.44 304.57C612.76 302.48 617.37 299.62 622.48 296.48C624.95 294.97 627.3 293.54 629.45 292.23L629.35 292.52C628.03 288.84 626.89 285.69 626.05 283.36C625.68 282.29 625.38 281.41 625.14 280.72C624.94 280.1 624.84 279.77 624.87 279.76L624.88 279.74Z" fill="#263238"/>
<path d="M509.63 274.19L564.14 276.9C565.91 276.97 567.56 277.89 567.76 279.65L572.07 319.64L600.16 320.81C601.06 320.85 601.77 321.61 601.73 322.52C601.69 323.42 600.93 324.13 600.02 324.09L572.42 322.94L567.18 322.72L510.31 320.36L505.92 278.16C505.68 275.98 507.44 274.1 509.63 274.19V274.19Z" fill="#E0E0E0"/>
<path d="M509.63 274.19C509.63 274.19 509.33 274.14 508.77 274.23C508.22 274.33 507.35 274.64 506.63 275.52C506.27 275.95 505.99 276.54 505.88 277.23C505.76 277.93 505.93 278.68 505.99 279.48C506.15 281.1 506.34 282.96 506.55 285.05C507.4 293.43 508.64 305.51 510.15 320.36V320.5H510.31C533.52 321.48 564.02 322.77 597.33 324.17C598.11 324.2 598.89 324.23 599.67 324.27C600.03 324.3 600.53 324.3 600.92 324.09C601.32 323.89 601.63 323.55 601.8 323.14C602.16 322.32 601.81 321.29 601.05 320.84C600.69 320.6 600.19 320.56 599.83 320.56L598.68 320.51C595.61 320.38 592.57 320.26 589.57 320.13C583.57 319.88 577.72 319.64 572.08 319.41L572.28 319.6C570.73 305.28 569.28 291.92 567.97 279.93C567.94 279.17 567.63 278.34 567.05 277.81C566.48 277.26 565.74 276.95 565 276.8C564.25 276.65 563.52 276.69 562.8 276.63C562.08 276.6 561.37 276.56 560.66 276.53C557.83 276.39 555.09 276.26 552.45 276.13C547.17 275.88 542.3 275.64 537.86 275.43C529.01 275.02 521.95 274.69 517.09 274.46C514.68 274.36 512.81 274.27 511.53 274.22L510.1 274.17C509.78 274.17 509.61 274.17 509.61 274.17C509.61 274.17 509.77 274.19 510.1 274.21C510.43 274.23 510.91 274.26 511.53 274.3C512.81 274.37 514.67 274.48 517.08 274.61C521.94 274.87 528.99 275.24 537.84 275.7C542.27 275.93 547.15 276.18 552.42 276.45C555.06 276.58 557.8 276.72 560.63 276.87C561.34 276.91 562.05 276.94 562.77 276.98C563.49 277.03 564.23 277.01 564.91 277.15C565.6 277.29 566.27 277.58 566.78 278.07C567.3 278.56 567.55 279.22 567.59 279.97C568.87 291.96 570.3 305.32 571.84 319.64L571.86 319.82H572.04C577.67 320.06 583.52 320.31 589.53 320.56C592.53 320.69 595.57 320.81 598.64 320.94L599.79 320.99C600.2 320.99 600.5 321.02 600.8 321.21C601.38 321.55 601.65 322.34 601.37 322.97C601.24 323.28 601 323.54 600.7 323.69C600.39 323.85 600.08 323.86 599.67 323.83C598.89 323.8 598.11 323.77 597.33 323.73C564.02 322.37 533.51 321.12 510.3 320.17L510.46 320.32C508.88 305.48 507.6 293.4 506.71 285.02C506.48 282.93 506.28 281.07 506.11 279.46C506.05 278.65 505.87 277.91 505.98 277.24C506.08 276.57 506.34 276 506.68 275.57C507.36 274.69 508.21 274.38 508.75 274.26C509.31 274.15 509.6 274.19 509.6 274.17L509.63 274.19Z" fill="#263238"/>
<path d="M539.28 297.98C539.2 299.87 537.61 301.33 535.72 301.25C533.83 301.17 532.37 299.58 532.45 297.69C532.53 295.8 534.12 294.34 536.01 294.42C537.9 294.5 539.36 296.09 539.28 297.98Z" fill="white"/>
<path d="M569.74 322.45C569.66 322.45 568.35 312.27 566.8 299.69C565.25 287.11 564.06 276.9 564.14 276.89C564.22 276.89 565.53 287.07 567.08 299.65C568.62 312.23 569.81 322.44 569.74 322.45Z" fill="#263238"/>
<path d="M134.72 411.75L133.95 431.92C133.95 431.92 154.2 439.47 154.42 443.22L115.26 443.14L115.17 411.66L134.73 411.75H134.72Z" fill="#263238"/>
<path d="M121.85 430.2C121.09 430.41 120.57 431.26 120.74 432.02C120.91 432.79 121.78 433.33 122.54 433.14C123.3 432.95 123.96 431.95 123.7 431.2C123.44 430.46 122.4 429.88 121.7 430.25" fill="#E0E0E0"/>
<path d="M115.26 443.14L115.37 439.97L152.88 441.24C152.88 441.24 154.62 442 154.42 443.23L115.26 443.15V443.14Z" fill="#455A64"/>
<path d="M134.59 431.72C134.59 431.91 133.63 432 132.68 432.61C131.72 433.2 131.23 434.03 131.06 433.95C130.88 433.91 131.17 432.77 132.33 432.05C133.48 431.32 134.63 431.55 134.59 431.72Z" fill="white"/>
<path d="M138.7 433.43C138.74 433.62 137.91 433.94 137.26 434.75C136.59 435.54 136.42 436.41 136.23 436.4C136.05 436.43 135.92 435.31 136.75 434.32C137.57 433.32 138.7 433.25 138.7 433.43Z" fill="white"/>
<path d="M141.02 438.35C140.85 438.39 140.58 437.43 141.08 436.39C141.57 435.34 142.47 434.93 142.55 435.09C142.66 435.25 142.08 435.81 141.68 436.67C141.27 437.53 141.21 438.33 141.02 438.35Z" fill="white"/>
<path d="M134.26 427.11C134.18 427.28 133.3 427.02 132.22 427.09C131.14 427.14 130.3 427.5 130.2 427.34C130.09 427.2 130.91 426.5 132.19 426.43C133.46 426.35 134.36 426.96 134.27 427.11H134.26Z" fill="white"/>
<path d="M86.7799 409.01L84.6599 433.34L88.5299 453.07C88.8099 454.49 87.8299 455.85 86.3899 456.03C85.5799 456.13 84.7899 455.84 84.2399 455.25C80.7499 451.44 67.9799 437.38 68.2299 435.61C68.5299 433.56 68.7599 409.8 68.7599 409.8L86.7799 409.02V409.01Z" fill="#263238"/>
<path d="M86.39 456.03L68.34 433.96L68.27 434.99C68.21 435.88 68.47 436.77 69 437.48C70.43 439.4 74.5 444.61 84.16 455.23C84.72 455.85 85.56 456.15 86.39 456.02V456.03Z" fill="#455A64"/>
<g opacity="0.6">
<path d="M73.8499 426.42C74.4299 426.88 74.5699 427.82 74.1399 428.42C73.6999 429.02 72.7499 429.17 72.1599 428.72C71.5699 428.27 71.3699 427.15 71.8699 426.6C72.3699 426.05 73.4999 425.93 73.9599 426.51" fill="white"/>
</g>
<path d="M81.4999 445.02C81.6299 445.1 82.2599 443.85 83.7599 443.26C85.2399 442.62 86.5599 443.05 86.5999 442.9C86.6299 442.84 86.3299 442.63 85.7599 442.52C85.1999 442.4 84.3699 442.43 83.5499 442.77C82.7299 443.11 82.1299 443.68 81.8199 444.16C81.4999 444.64 81.4399 445 81.4999 445.02V445.02Z" fill="white"/>
<path d="M83.0299 448.4C83.1399 448.51 83.9699 447.77 85.2599 447.49C86.5399 447.18 87.6099 447.49 87.6599 447.34C87.7399 447.22 86.5999 446.63 85.1399 446.97C83.6799 447.3 82.9099 448.33 83.0299 448.4V448.4Z" fill="white"/>
<path d="M78.54 440.63C78.65 440.75 79.92 439.6 81.88 438.99C83.83 438.35 85.53 438.54 85.55 438.38C85.6 438.25 83.81 437.8 81.72 438.48C79.62 439.14 78.43 440.55 78.54 440.63Z" fill="white"/>
<path d="M78.5699 433.18C78.6299 433.33 80.0099 432.85 81.7599 432.9C83.5199 432.92 84.8799 433.46 84.9399 433.31C85.0099 433.19 83.6599 432.39 81.7699 432.36C79.8799 432.31 78.4899 433.05 78.5599 433.17L78.5699 433.18Z" fill="white"/>
<path d="M79.0099 426.02C79.0799 426.17 80.4799 425.44 82.3299 425.64C84.1799 425.8 85.4199 426.79 85.5099 426.66C85.5499 426.61 85.3099 426.29 84.7699 425.93C84.2299 425.57 83.3799 425.21 82.3899 425.11C81.3899 425.01 80.4899 425.2 79.8899 425.45C79.2899 425.7 78.9799 425.97 79.0199 426.02H79.0099Z" fill="white"/>
<path d="M82.3699 424.28C82.3699 424.28 82.4799 423.96 82.4599 423.36C82.4399 422.77 82.3299 421.89 81.8799 420.9C81.6499 420.43 81.4099 419.83 80.7499 419.47C80.4199 419.29 79.9099 419.32 79.5999 419.62C79.2899 419.92 79.1799 420.31 79.1399 420.7C79.0699 422.25 80.2999 423.83 82.0199 424.16C83.7499 424.46 85.3999 423.57 86.1799 422.28C86.3499 421.94 86.4899 421.53 86.3199 421.1C86.1599 420.67 85.6799 420.48 85.3199 420.51C84.5899 420.57 84.1099 420.96 83.6599 421.24C82.7799 421.86 82.2099 422.54 81.8799 423.03C81.5399 423.52 81.4199 423.83 81.4499 423.85C81.5299 423.92 82.1399 422.69 83.8699 421.56C84.2999 421.3 84.8099 420.97 85.3299 420.96C85.5899 420.96 85.7999 421.07 85.8699 421.28C85.9499 421.48 85.8799 421.79 85.7299 422.05C85.0799 423.11 83.5699 423.92 82.1099 423.64C80.6499 423.37 79.5699 421.98 79.6199 420.73C79.6399 420.43 79.7299 420.13 79.9099 419.97C80.0799 419.81 80.3199 419.77 80.5399 419.88C80.9999 420.1 81.2899 420.63 81.5199 421.08C82.4299 422.94 82.2399 424.31 82.3499 424.3L82.3699 424.28Z" fill="white"/>
<path d="M153.59 241.71C153.59 241.71 156.56 253.21 155.48 267.21C155.06 272.63 136.77 422.57 136.77 422.57H112.08L119.02 281.65L117 282.09C117 282.09 103.52 342.19 102.42 351.92C101.43 360.67 90.06 424.21 90.06 424.21L67.48 424.47L74.69 340.42L83.08 259.77L86.24 236.29L153.58 241.7L153.59 241.71Z" fill="#263238"/>
<path d="M119.68 272.27C119.68 272.27 119.72 272.34 119.84 272.44C119.96 272.53 120.16 272.65 120.44 272.72C121 272.88 121.93 272.8 122.78 272.17C123.67 271.55 124.2 270.31 124.38 268.98C124.56 267.64 124.58 266.2 124.68 264.67C124.85 261.62 124.97 258.86 125.03 256.86C125.1 254.86 125.1 253.62 125.03 253.62C124.96 253.62 124.84 254.85 124.68 256.84C124.53 258.84 124.35 261.6 124.18 264.65C124.08 266.17 124.06 267.64 123.92 268.93C123.77 270.21 123.31 271.33 122.55 271.91C121.81 272.51 120.97 272.64 120.45 272.55C119.92 272.47 119.68 272.24 119.65 272.28L119.68 272.27Z" fill="#455A64"/>
<path d="M83.35 257.78C83.35 257.78 83.59 257.91 84.04 258.03C84.5 258.15 85.17 258.29 86.01 258.36C87.69 258.52 90.1 258.36 92.52 257.39C94.94 256.42 96.79 254.87 97.89 253.59C98.45 252.95 98.84 252.39 99.09 251.99C99.33 251.59 99.44 251.35 99.42 251.33C99.35 251.28 98.8 252.17 97.65 253.36C96.51 254.55 94.69 256.01 92.35 256.95C90.01 257.89 87.69 258.1 86.04 258.03C84.38 257.97 83.37 257.71 83.35 257.79V257.78Z" fill="#455A64"/>
<path d="M145.3 251.5C145.25 251.5 145.3 252.47 145.67 253.98C146.05 255.48 146.84 257.52 148.15 259.5C149.47 261.48 151.04 263 152.28 263.93C153.52 264.87 154.4 265.28 154.42 265.24C154.53 265.11 151.12 263.17 148.55 259.24C145.92 255.35 145.45 251.45 145.29 251.5H145.3Z" fill="#455A64"/>
<path d="M141.38 91.54C143.61 91.68 145.8 89.94 146.17 87.73C146.53 85.52 145.02 83.17 142.86 82.58C144.17 81.1 144.4 78.76 143.4 77.05C142.4 75.34 140.26 74.39 138.32 74.8C138.14 72.86 136.88 71.05 135.12 70.2C133.36 69.36 131.16 69.51 129.53 70.59C127.28 68.85 123.8 68.96 121.67 70.83C119.76 70.58 117.74 71.69 116.94 73.44C116.14 75.19 116.61 77.45 118.06 78.73" fill="#263238"/>
<path d="M120.92 75.3696L121.92 75.3196C132 74.8196 140.77 82.1396 142.08 92.1396C143.3 101.44 144.52 111.74 144.71 116.75C145.1 127.13 134.8 129.26 134.8 129.26L136.3 141.68L111.08 142.15L106.61 97.0496C105.15 86.3196 110.17 76.5296 120.93 75.3596L120.92 75.3696Z" fill="#AE7461"/>
<path d="M134.88 129.25C134.88 129.25 128.27 129.98 121.09 125.95C121.09 125.95 124.82 133.45 135.13 132L134.89 129.25H134.88Z" fill="#6F4439"/>
<path d="M139.89 102.06C139.96 102.84 139.35 103.54 138.54 103.63C137.73 103.71 137.01 103.15 136.95 102.37C136.88 101.59 137.49 100.89 138.3 100.8C139.11 100.72 139.83 101.28 139.9 102.06H139.89Z" fill="#263238"/>
<path d="M140.1 97.3296C139.93 97.5296 138.76 96.7596 137.17 96.8396C135.58 96.8996 134.45 97.7796 134.26 97.5896C134.17 97.5096 134.34 97.1496 134.83 96.7496C135.31 96.3596 136.15 95.9496 137.14 95.9096C138.13 95.8696 138.99 96.1896 139.49 96.5396C140 96.8896 140.18 97.2296 140.1 97.3196V97.3296Z" fill="#263238"/>
<path d="M125.79 102.68C125.86 103.46 125.25 104.16 124.44 104.25C123.63 104.33 122.91 103.77 122.85 102.99C122.78 102.21 123.39 101.51 124.2 101.42C125.01 101.34 125.73 101.9 125.8 102.68H125.79Z" fill="#263238"/>
<path d="M125.18 98.4097C125.01 98.6097 123.84 97.8397 122.25 97.9197C120.66 97.9797 119.53 98.8597 119.34 98.6697C119.25 98.5897 119.42 98.2297 119.91 97.8297C120.39 97.4397 121.23 97.0297 122.22 96.9897C123.21 96.9497 124.07 97.2697 124.57 97.6197C125.08 97.9697 125.26 98.3097 125.18 98.3997V98.4097Z" fill="#263238"/>
<path d="M130.82 109.95C130.81 109.86 131.79 109.64 133.39 109.35C133.8 109.29 134.18 109.19 134.23 108.91C134.31 108.61 134.12 108.18 133.9 107.72C133.47 106.75 133.02 105.74 132.54 104.68C130.65 100.35 129.26 96.7798 129.43 96.6998C129.61 96.6298 131.28 100.08 133.17 104.41C133.63 105.48 134.06 106.5 134.48 107.47C134.66 107.93 134.95 108.44 134.77 109.06C134.68 109.37 134.39 109.61 134.13 109.69C133.87 109.78 133.64 109.8 133.44 109.82C131.83 109.99 130.83 110.04 130.82 109.95V109.95Z" fill="#263238"/>
<path d="M125.52 92.2097C125.33 92.6197 123.94 92.2497 122.26 92.2797C120.57 92.2797 119.17 92.6597 119 92.2497C118.92 92.0497 119.2 91.6797 119.79 91.3197C120.38 90.9697 121.28 90.6697 122.29 90.6597C123.3 90.6597 124.19 90.9397 124.76 91.2897C125.34 91.6397 125.6 92.0097 125.52 92.2097V92.2097Z" fill="#263238"/>
<path d="M139.85 90.7497C139.53 91.1297 138.2 90.8197 136.61 90.8797C135.03 90.8897 133.7 91.2697 133.37 90.9097C133.23 90.7297 133.42 90.3597 133.99 89.9897C134.55 89.6197 135.5 89.2897 136.59 89.2697C137.68 89.2397 138.64 89.5297 139.21 89.8697C139.79 90.2097 139.99 90.5797 139.85 90.7597V90.7497Z" fill="#263238"/>
<path d="M140.84 87.4397C140.84 87.4397 137.78 81.0797 134.57 79.7197C130.69 78.0697 129.26 82.3197 125.59 81.4897C121.92 80.6597 118.22 79.0797 114.66 82.0597C110.77 85.3197 112.77 87.3697 112.75 91.9897C112.66 110.71 109.52 116.16 108.11 107.41C107.96 106.45 105.24 105.82 104.65 101.77C103.87 96.5197 103.35 90.1197 104.34 86.3197C105.18 83.1097 106.87 80.8397 109.98 78.2797C114.89 74.2297 121.88 73.7997 126.66 74.0397C131.44 74.2797 140.87 79.2997 140.84 87.4497V87.4397Z" fill="#263238"/>
<path d="M108.77 107.08C108.62 105.48 107.18 104.29 105.59 104.52C103.66 104.8 101.57 106.01 101.89 110C102.47 117.08 109.46 115.04 109.46 114.84C109.46 114.7 109.04 110.05 108.77 107.09V107.08Z" fill="#AE7461"/>
<path d="M107.7 112.29C107.7 112.29 107.58 112.39 107.38 112.5C107.18 112.61 106.84 112.7 106.46 112.59C105.69 112.38 104.96 111.24 104.82 109.97C104.75 109.33 104.83 108.7 105.02 108.18C105.19 107.64 105.5 107.25 105.87 107.16C106.24 107.04 106.52 107.25 106.63 107.44C106.74 107.63 106.71 107.78 106.75 107.78C106.77 107.8 106.89 107.65 106.81 107.36C106.77 107.22 106.67 107.06 106.49 106.94C106.31 106.82 106.05 106.77 105.79 106.82C105.25 106.9 104.8 107.45 104.59 108.02C104.35 108.6 104.24 109.31 104.32 110.03C104.48 111.45 105.32 112.73 106.37 112.94C106.88 113.03 107.28 112.84 107.48 112.66C107.68 112.47 107.71 112.31 107.68 112.29H107.7Z" fill="#6F4439"/>
<path d="M108.22 93.3298C109.17 93.9098 110.18 94.5098 111.29 94.5698C112.41 94.6198 113.64 93.9198 113.78 92.8098C113.84 92.3098 113.69 91.7498 114 91.3498C114.36 90.8798 115.09 90.9798 115.68 91.0198C117.75 91.1398 120.05 88.7398 120.48 86.7098C121.04 87.4698 122.21 87.6498 122.98 87.0998C123.75 86.5498 124.03 86.2398 124.61 85.4998C125.2 84.7598 126.04 84.0698 126.98 84.1598C127.51 84.2098 128.01 84.4998 128.54 84.4198C129.47 84.2898 129.87 83.1798 129.96 82.2498C130.06 81.3198 130.11 80.2298 130.87 79.6898C131.58 79.1898 132.54 79.4098 133.4 79.4898C134.26 79.5698 135.36 79.3198 135.54 78.4698C135.63 78.0198 135.42 77.5698 135.16 77.1998C133.97 75.5198 131.52 74.8598 129.65 75.7298C128.84 73.4198 126.56 71.6998 124.11 71.5698C121.67 71.4298 119.21 72.8898 118.15 75.0898C116.58 73.7998 114.38 73.3398 112.42 73.8898C110.47 74.4398 108.83 75.9798 108.16 77.8998C106.41 77.5298 104.48 78.2998 103.45 79.7598C102.43 81.2198 102.37 83.2998 103.32 84.8198C102.08 85.6098 101.05 86.9298 101.1 88.3998C101.15 89.8698 102.65 91.2598 104.05 90.7998C103.53 91.9698 104.08 93.4998 105.22 94.0798C106.36 94.6598 107.92 94.2098 108.57 93.1098" fill="#263238"/>
<path d="M130.3 77.7799C130.3 77.7799 130.3 77.8199 130.3 77.9099C130.3 77.9999 130.3 78.1199 130.27 78.2899C130.22 78.6199 130.11 79.1099 129.82 79.6799C129.53 80.2399 129.06 80.8999 128.33 81.4399C127.61 81.9799 126.62 82.4199 125.47 82.4099L125.58 82.2499C125.83 82.8499 125.81 83.5799 125.53 84.2199C125.28 84.8699 124.85 85.4499 124.4 86.0199C124.17 86.2999 123.97 86.6199 123.65 86.8699C123.33 87.1199 122.95 87.2699 122.55 87.3399C121.76 87.4799 120.84 87.2799 120.23 86.6399L120.49 86.5499C120.38 87.9699 119.65 89.4199 118.42 90.3399C117.77 90.8599 116.95 91.1999 116.13 91.2199C115.31 91.2499 114.53 91.0499 113.81 90.8299L114 90.7399C113.66 91.6399 113.11 92.4199 112.43 93.0099C111.76 93.5999 110.84 93.9699 109.99 93.8099C108.3 93.5399 107.12 92.1999 106.83 90.8999L106.99 90.9699C106.18 91.4599 105.29 91.5499 104.57 91.4499C103.84 91.3499 103.25 91.0699 102.83 90.7799C102.41 90.4799 102.15 90.1699 101.99 89.9499C101.85 89.7199 101.78 89.5999 101.79 89.5899C101.82 89.5599 102.05 90.1199 102.89 90.6799C103.31 90.9499 103.88 91.2099 104.58 91.2799C105.27 91.3599 106.12 91.2599 106.86 90.7899L106.99 90.7099L107.03 90.8599C107.32 92.0699 108.45 93.3199 110.02 93.5499C110.79 93.6899 111.6 93.3599 112.23 92.7999C112.87 92.2399 113.39 91.4899 113.7 90.6399L113.75 90.5099L113.89 90.5499C114.6 90.7599 115.35 90.9499 116.11 90.9199C116.87 90.8999 117.61 90.5999 118.23 90.0999C119.39 89.2299 120.08 87.8699 120.19 86.5199L120.22 86.1799L120.45 86.4299C120.97 86.9799 121.79 87.1799 122.5 87.0499C122.86 86.9899 123.2 86.8499 123.48 86.6399C123.75 86.4299 123.96 86.1199 124.19 85.8399C124.64 85.2799 125.05 84.7099 125.29 84.1099C125.55 83.5099 125.57 82.8699 125.36 82.3299L125.29 82.1599H125.47C126.56 82.1799 127.52 81.7799 128.22 81.2699C128.94 80.7699 129.4 80.1399 129.7 79.6099C130.29 78.5099 130.23 77.7499 130.29 77.7699L130.3 77.7799Z" fill="#455A64"/>
<path d="M130.74 115.42C130.69 115.16 128.96 115.61 127.35 114.45C125.73 113.3 125.44 111.41 125.2 111.46C125.09 111.46 124.97 111.96 125.16 112.74C125.33 113.51 125.87 114.56 126.86 115.26C127.85 115.96 128.95 116.09 129.68 115.96C130.42 115.84 130.8 115.53 130.75 115.41L130.74 115.42Z" fill="#263238"/>
<path d="M187.01 215.64H191.4C192.49 214 193.58 213.69 195.87 212.33C201.69 208.89 209.44 206.11 211.09 207.43C212.74 208.75 210.71 210.21 210.07 210.61C209.43 211.01 203.84 213.18 204.1 215.01C204.35 216.83 222.61 220.12 223.42 221.86C224.51 224.2 222.57 225.16 214.82 223.84L212.62 223.45C212.62 223.45 213.89 225.3 212.49 226.76C211.09 228.22 209.95 227.55 209.95 227.55C209.95 227.55 210.08 229.27 208.3 230.06C206.52 230.85 205.76 230.06 205.76 230.06C205.76 230.06 206.18 234.43 202.32 233.76C198.84 233.16 196.47 233.16 193.04 232.45C191.5 232.13 190.17 231.38 190.17 231.38L185.83 229.72C185.12 226.6 186.68 216.48 187.01 215.64V215.64Z" fill="#AE7461"/>
<path d="M209.94 227.55C209.88 227.59 209.34 226.69 207.89 225.88C207.19 225.45 206.28 225.03 205.36 224.38C204.91 224.06 204.4 223.69 204.08 223.09C203.92 222.79 203.82 222.45 203.84 222.08C203.85 221.71 204.02 221.34 204.28 221.08C204.79 220.54 205.55 220.38 206.18 220.43C206.82 220.47 207.38 220.63 207.93 220.77C209.01 221.07 209.94 221.48 210.68 221.9C211.42 222.32 211.95 222.76 212.29 223.09C212.63 223.42 212.78 223.63 212.76 223.65C212.7 223.72 211.98 222.96 210.51 222.21C209.78 221.84 208.87 221.48 207.82 221.21C207.29 221.08 206.73 220.94 206.17 220.91C205.61 220.88 205.04 221.02 204.66 221.42C204.27 221.8 204.28 222.39 204.53 222.86C204.78 223.33 205.22 223.68 205.65 224.01C206.51 224.65 207.4 225.11 208.1 225.58C208.81 226.04 209.32 226.53 209.61 226.9C209.9 227.28 209.99 227.53 209.97 227.55H209.94Z" fill="#6F4439"/>
<path d="M202.64 216.21C202.7 216.22 202.62 216.88 202.26 217.87C201.91 218.86 201.22 220.18 200.16 221.42C199.1 222.65 197.89 223.52 196.96 224.02C196.03 224.52 195.39 224.69 195.37 224.64C195.29 224.5 197.74 223.5 199.77 221.09C201.85 218.72 202.47 216.15 202.62 216.21H202.64Z" fill="#6F4439"/>
<path d="M205.75 230.06C205.72 230.12 205.16 229.89 204.34 229.37C203.93 229.11 203.46 228.78 202.97 228.35C202.49 227.94 201.96 227.35 201.73 226.59C201.49 225.84 201.54 225.01 201.92 224.4C202.3 223.78 202.94 223.5 203.44 223.44C204.51 223.33 205 223.92 204.94 223.93C204.91 224.01 204.38 223.6 203.5 223.79C203.08 223.88 202.58 224.14 202.32 224.63C202.04 225.12 202.01 225.79 202.21 226.43C202.41 227.08 202.83 227.58 203.28 228C203.73 228.42 204.17 228.77 204.54 229.07C205.29 229.65 205.78 229.99 205.74 230.05L205.75 230.06Z" fill="#6F4439"/>
<path d="M203.13 233.16C203.09 233.21 202.64 232.96 201.96 232.49C201.3 232.04 200.23 231.38 199.74 230.07C199.51 229.42 199.52 228.73 199.75 228.17C199.98 227.6 200.47 227.23 200.9 227.1C201.33 226.96 201.72 227.02 201.94 227.12C202.17 227.22 202.26 227.33 202.24 227.36C202.21 227.43 201.73 227.13 201.02 227.44C200.68 227.59 200.34 227.89 200.18 228.35C200.01 228.8 200.01 229.38 200.21 229.91C200.62 231.01 201.57 231.7 202.19 232.22C202.81 232.75 203.18 233.11 203.14 233.16H203.13Z" fill="#6F4439"/>
<path d="M171.14 208.83L169.24 207.55L162.51 160.34C161.92 156.21 155.65 145.38 143.31 141.22L145.8 167.94L156.09 225.07C156.09 225.07 159.65 226.9 166.23 229.22C172.81 231.54 185.96 234.04 185.96 234.04L190.2 214.45L171.15 208.83H171.14Z" fill="#E0E0E0"/>
<path d="M88.91 144.18L107.11 136.63L109.27 128.34L131.72 138.95L135.48 132.95L138.39 139.61L143.31 141.22L154.81 161.44L154.77 204.53L157.1 241.7L154.61 247.57L134.01 250.61C131.76 250.94 129.47 250.94 127.22 250.61L85.41 243.78L84.33 231.5L88.8 197.65L88.92 144.19L88.91 144.18Z" fill="#E0E0E0"/>
<path d="M130.35 183.78C129.99 174.31 131.48 150.14 131.48 150.14L134.6 149.64C134.6 149.64 140.43 173.13 142.61 201.92C143.49 213.57 143.49 227.06 143.49 227.06L137.22 240.52L130.29 227.15C130.29 227.15 130.78 195.29 130.35 183.78V183.78Z" fill="#EE2C2F"/>
<path d="M130.67 142.05L133.28 141.03L135.78 144.35L134.92 150.4L131.8 150.91L128.72 147.09L130.67 142.05Z" fill="#EE2C2F"/>
<path d="M89.4 144.18C89.4 144.18 77.48 147.27 74.07 159.02C73.21 161.99 68.69 205.94 68 211.63C67.31 217.33 65.24 225.74 72.19 231.55C76.49 235.15 112.48 238.89 112.48 238.89L119.78 221.53L91.33 210.45L95.69 172.53L89.4 144.17V144.18Z" fill="#E0E0E0"/>
<path d="M145.49 239.6L126.63 220.69C126.19 220.24 126.17 219.53 126.6 219.06C127.05 218.57 127.82 218.56 128.29 219.03L147.15 237.94C147.59 238.39 147.61 239.1 147.18 239.57C146.73 240.06 145.96 240.07 145.49 239.6V239.6Z" fill="#263238"/>
<path d="M118.89 221.46C119.01 221.55 127.19 221.85 129.72 222.4C132.25 222.94 138.24 224.46 140.16 225.82C142.08 227.18 145.94 232.11 144.97 232.83C144 233.55 142.81 233.42 142.18 232.83C141.65 232.34 136.95 228.75 136.95 228.75C136.95 228.75 134.13 227.81 134.04 228.53C133.95 229.26 141.04 233.1 139.91 234.82C138.78 236.54 135.73 236.09 135.73 236.09C135.73 236.09 136.6 238.85 135.64 240.24C134.68 241.63 132.29 242.35 132.29 242.35C132.29 242.35 133.07 244.7 130.74 245.64C129.05 246.32 126.51 244.61 126.51 244.61L115.61 239.08L112.47 238.89L118.89 221.45V221.46Z" fill="#AE7461"/>
<path d="M77.29 233.63C77.29 233.63 77.35 233.63 77.46 233.64C77.59 233.66 77.76 233.68 77.96 233.71C78.43 233.78 79.07 233.89 79.88 234.02C81.59 234.31 84.03 234.73 87.11 235.25C93.34 236.35 102.13 237.89 112.52 239.72L112.25 239.88C114.21 234.21 116.38 227.96 118.65 221.39L118.8 221.72C117.12 221.07 115.33 220.37 113.52 219.67C105.17 216.42 97.24 213.33 90.16 210.57L89.98 210.5L90.01 210.31C91.58 199.84 92.9 190.98 93.84 184.68C94.32 181.58 94.7 179.12 94.97 177.39C95.11 176.57 95.21 175.93 95.29 175.46C95.33 175.26 95.36 175.1 95.38 174.97C95.4 174.86 95.42 174.8 95.42 174.8C95.42 174.8 95.42 174.86 95.42 174.97L95.37 175.47C95.31 175.94 95.23 176.59 95.12 177.41C94.88 179.14 94.55 181.61 94.12 184.72C93.22 191.02 91.96 199.9 90.47 210.37L90.32 210.11C97.41 212.86 105.34 215.93 113.7 219.17C115.51 219.87 117.3 220.57 118.98 221.22L119.21 221.31L119.13 221.55C116.84 228.12 114.66 234.36 112.69 240.03L112.62 240.22L112.42 240.18C102.05 238.28 93.27 236.67 87.04 235.53C83.97 234.95 81.54 234.49 79.83 234.17C79.02 234.01 78.39 233.88 77.92 233.79L77.43 233.68C77.32 233.65 77.27 233.64 77.27 233.63H77.29Z" fill="#263238"/>
<path d="M90.13 210.39C90.16 210.55 87.47 210.75 84.64 212.3C81.79 213.81 80.15 215.95 80.02 215.83C79.9 215.78 81.42 213.42 84.39 211.84C87.34 210.23 90.15 210.26 90.13 210.39Z" fill="#263238"/>
<path d="M94.56 162.58C94.47 162.58 94.56 161.64 94.46 160.15C94.37 158.66 94.04 156.61 93.23 154.49C92.41 152.37 91.29 150.62 90.36 149.45C89.43 148.28 88.75 147.64 88.81 147.57C88.84 147.53 89.62 148.07 90.64 149.21C91.66 150.34 92.87 152.11 93.71 154.3C94.54 156.49 94.83 158.61 94.82 160.14C94.82 161.67 94.61 162.59 94.55 162.59L94.56 162.58Z" fill="#263238"/>
<path d="M155.72 164.09C155.86 164.09 155.98 179.09 155.98 197.59C155.98 216.09 155.86 231.09 155.72 231.09C155.58 231.09 155.46 216.09 155.46 197.59C155.46 179.09 155.58 164.09 155.72 164.09Z" fill="#263238"/>
<path d="M138.39 139.61C138.39 139.61 138.2 140.08 137.78 140.91C137.31 141.81 136.69 142.99 135.94 144.43L135.82 144.66L135.66 144.45C134.5 142.94 133.11 141.13 131.54 139.08L131.94 139.03C130.91 141.68 129.74 144.7 128.5 147.9L128.39 148.17L128.13 148.03C127.82 147.87 127.49 147.69 127.15 147.51C121.58 144.57 116.56 141.88 112.93 139.9C111.18 138.94 109.73 138.14 108.65 137.54C107.64 136.97 107.1 136.64 107.11 136.61C107.13 136.58 107.71 136.85 108.74 137.36C109.84 137.92 111.32 138.67 113.1 139.57C116.77 141.46 121.82 144.1 127.39 147.04C127.73 147.22 128.06 147.39 128.37 147.56L128.01 147.7C129.27 144.51 130.46 141.5 131.51 138.85L131.66 138.46L131.91 138.79C133.44 140.86 134.8 142.71 135.93 144.23L135.65 144.25C136.46 142.84 137.13 141.68 137.63 140.8C138.1 140 138.37 139.57 138.4 139.59L138.39 139.61Z" fill="#263238"/>
</g>
<defs>
<clipPath id="clip0_319_28">
<rect width="682.37" height="466.15" fill="white"/>
</clipPath>
</defs>
</svg>
