<svg width="100" height="100" viewBox="0 0 100 100" fill="none" xmlns="http://www.w3.org/2000/svg">
<g clip-path="url(#clip0_336_8)">
<path d="M99.9999 13.9048C99.9999 9.55296 98.7592 6.10906 96.3133 3.67078C86.4942 -6.11172 60.678 4.29031 37.5303 27.36C36.6892 28.1984 35.9205 29.0922 35.1813 30.0081C34.9386 29.9078 34.6594 29.8181 34.3383 29.7434C27.6717 28.1855 6.2758 31.8202 0.0472049 56.7042C-0.11309 57.342 0.143299 58.0103 0.687986 58.3781C0.952049 58.5581 1.25722 58.6466 1.56236 58.6466C1.88424 58.6466 2.20627 58.5475 2.47939 58.3491C10.9335 52.2166 17.7156 49.75 23.6361 50.658C23.2275 51.3987 22.8128 52.1212 22.3845 52.8117C22.0014 53.4297 22.0945 54.2292 22.6088 54.7419L25.0605 57.1856L20.4711 61.758C20.1766 62.0509 20.0117 62.4491 20.0117 62.8642C20.0117 63.2792 20.1766 63.6775 20.4711 63.9705L35.8291 79.278C36.1342 79.5817 36.5324 79.7342 36.9322 79.7342C37.332 79.7342 37.7303 79.5817 38.0355 79.278L42.631 74.6973L45.0895 77.148C45.3917 77.4484 45.79 77.6042 46.1928 77.6042C46.475 77.6042 46.7589 77.5278 47.0122 77.3722C47.658 76.9739 48.3283 76.587 49.018 76.2064C50.035 82.1562 47.5714 88.9816 41.3405 97.5153C40.953 98.0464 40.9392 98.7634 41.3053 99.3083C41.5999 99.7477 42.0897 99.9995 42.6024 99.9995C42.7275 99.9995 42.8541 99.9842 42.9792 99.9537C67.8863 93.7602 71.5666 72.4391 70.0316 65.7892C69.9377 65.3834 69.8149 65.0639 69.6817 64.7806C70.6747 63.9959 71.6422 63.1762 72.5463 62.2752C89.2241 45.6537 99.9999 26.6658 99.9999 13.9048ZM25.0899 47.732C18.9939 46.4472 12.2953 48.2341 4.34096 53.2984C8.2533 42.4419 15.3792 37.3133 20.97 34.8978C25.1616 33.0881 28.9763 32.5816 31.4177 32.5816C32.0724 32.5816 32.6261 32.6181 33.0641 32.6747L25.0899 47.732ZM36.9322 75.9653L23.7883 62.8642L27.2735 59.3928L38.6289 70.7089L40.4174 72.4909L36.9322 75.9653ZM64.8955 79.0202C62.4785 84.6186 57.3302 91.752 46.4003 95.663C51.4724 87.742 53.2652 81.0709 51.9789 74.9919L67.0942 67.0389C67.3658 69.0928 67.1675 73.7559 64.8955 79.0202ZM54.202 70.1014C51.4541 71.4244 48.837 72.6817 46.4353 74.0762L25.6819 53.393C26.8027 51.4739 27.8388 49.3897 28.8881 47.2369L35.2331 35.257C36.5611 33.2014 38.0324 31.2716 39.7367 29.5725C60.913 8.46656 85.8077 -2.38094 94.1069 5.88328C95.9441 7.71437 96.8749 10.4136 96.8749 13.9048C96.8749 25.6937 86.2105 44.2439 70.3399 60.0627C65.9194 64.4678 59.9624 67.3319 54.202 70.1014Z" fill="white"/>
<path d="M66.7571 20.0835C64.9765 21.855 63.9952 24.2125 63.9952 26.721C63.9952 29.2311 64.9765 31.5886 66.7571 33.3602C68.5927 35.1866 71.0037 36.1007 73.4145 36.1007C75.8254 36.1007 78.2363 35.1866 80.0704 33.3602C81.8512 31.5886 82.8307 29.2311 82.8307 26.721C82.8307 24.2125 81.8512 21.855 80.0704 20.0835C76.4023 16.4305 70.4284 16.4305 66.7571 20.0835ZM77.8671 31.1446C75.4104 33.5889 71.4171 33.5889 68.9606 31.1446C67.7749 29.9635 67.1202 28.3933 67.1202 26.721C67.1202 25.0502 67.7749 23.48 68.9606 22.2989C70.1888 21.0768 71.8016 20.4664 73.4145 20.4664C75.0274 20.4664 76.6387 21.0768 77.8671 22.2989C79.0526 23.48 79.7057 25.0502 79.7057 26.721C79.7057 28.3933 79.0526 29.9635 77.8671 31.1446Z" fill="white"/>
<path d="M25.7261 73.6678C25.1174 73.0559 24.1286 73.0559 23.5168 73.6648L7.89944 89.2303C7.28895 89.839 7.28598 90.8278 7.89631 91.4396C8.20145 91.7464 8.60129 91.899 9.00256 91.899C9.40082 91.899 9.80067 91.7464 10.1058 91.4428L25.7232 75.8773C26.3335 75.2684 26.3366 74.2796 25.7261 73.6678Z" fill="#EE2C2F"/>
<path d="M8.94466 81.2085C9.34295 81.2085 9.74263 81.0558 10.048 80.7522L20.3323 70.5014C20.9426 69.8925 20.9442 68.9038 20.3353 68.2919C19.7265 67.68 18.7378 67.6785 18.1259 68.2888L7.84138 78.5397C7.23107 79.1485 7.22951 80.1374 7.83841 80.7493C8.14357 81.0558 8.54341 81.2085 8.94466 81.2085Z" fill="#EE2C2F"/>
<path d="M28.9092 79.0373L18.6248 89.2883C18.0145 89.897 18.013 90.8859 18.6219 91.4978C18.927 91.8044 19.3267 91.957 19.7281 91.957C20.1262 91.957 20.5261 91.8044 20.8312 91.5008L31.1158 81.25C31.7261 80.6411 31.7277 79.6523 31.1187 79.0404C30.51 78.4286 29.5211 78.427 28.9092 79.0373Z" fill="#EE2C2F"/>
</g>
<defs>
<clipPath id="clip0_336_8">
<rect width="100" height="100" fill="white"/>
</clipPath>
</defs>
</svg>
