<svg width="101" height="100" viewBox="0 0 101 100" fill="none" xmlns="http://www.w3.org/2000/svg">
<path d="M95.3108 50L62.2193 81.7381L47.2798 67.3563L42 72.8369L62.2044 92.2976L100.576 55.5029L95.3108 50Z" fill="#EE2C2F"/>
<path d="M16.4937 0L0 49.496H8.02376L11.8311 38.0738H29.1949L33.0023 49.496H41.026L24.5249 0H16.4937ZM45.6886 0V19.0369V26.6517V49.496H68.5329C76.932 49.496 83.7624 42.6655 83.7624 34.2664C83.7624 27.8771 79.7959 22.4172 74.2068 20.1598C75.4155 18.1547 76.1476 15.833 76.1476 13.3258C76.1476 5.97759 70.17 0 62.8218 0H45.6886ZM53.3033 7.61476H62.8218C65.9705 7.61476 68.5329 10.1771 68.5329 13.3258C68.5329 16.4745 65.9705 19.0369 62.8218 19.0369H53.3033V7.61476ZM20.5167 12.0394L26.6591 30.4591H14.3744L20.5167 12.0394ZM53.3033 26.6517H62.8218H68.5329C72.7324 26.6517 76.1476 30.0669 76.1476 34.2664C76.1476 38.466 72.7324 41.8812 68.5329 41.8812H53.3033V26.6517Z" fill="white"/>
</svg>
