<svg width="50" height="49" viewBox="0 0 50 49" fill="none" xmlns="http://www.w3.org/2000/svg">
<path d="M0 0H50V48.9694H0V0ZM0 48.9694H50V0H0V48.9694ZM35.3749 23.6058C36.4374 23.6058 36.8124 23.6058 36.9166 23.5639C36.9166 23.4175 36.9582 23.3127 36.9582 23.2081C36.9582 22.078 36.4166 19.9854 34.2499 19.9854C32.2499 19.9854 31.3958 21.7432 31.1874 23.6058H35.3749ZM31.1458 26.4727C31.1875 29.2979 32.5208 31.2023 35.6875 31.2023C36.9167 31.2023 37.9791 31.035 39.0834 30.5536C39.2292 30.4909 39.3334 30.5118 39.3334 30.7001V33.316C39.3334 33.5252 39.2709 33.6299 39.1251 33.7345C38.0209 34.2786 36.6459 34.5298 34.9376 34.5298C29.4377 34.5298 27.3751 30.449 27.3751 25.9079C27.3751 20.9691 29.9168 16.9302 34.396 16.9302C38.9376 16.9302 40.521 20.7598 40.521 23.878C40.521 24.8825 40.4585 25.6986 40.3544 26.0963C40.3127 26.2637 40.2502 26.3265 40.0835 26.3684C39.6668 26.4311 38.4376 26.5148 36.6043 26.5148H31.1458V26.4727ZM19.9793 24.3382C19.3959 22.0153 17.9792 16.9509 17.4583 14.5025H17.4167C16.9792 16.9509 15.8333 21.0944 14.9792 24.3382H19.9793ZM14.1249 27.7284L12.4792 33.9856C12.4375 34.1529 12.375 34.2158 12.1666 34.2158H9.10412C8.89581 34.2158 8.85407 34.153 8.89581 33.9019L14.8124 13.1213C14.9166 12.7446 14.9791 12.4516 15.0207 11.4053C15.0207 11.2589 15.0832 11.1961 15.1874 11.1961H19.5624C19.7082 11.1961 19.7707 11.2379 19.8124 11.4053L26.4374 33.9438C26.479 34.1111 26.4374 34.2158 26.2707 34.2158H22.8333C22.6666 34.2158 22.5624 34.153 22.5207 34.0066L20.8124 27.7285L14.1249 27.7284Z" fill="#D8A1FF"/>
</svg>
