<svg width="80" height="80" viewBox="0 0 80 80" fill="none" xmlns="http://www.w3.org/2000/svg">
<g clip-path="url(#clip0_275_166)">
<path d="M74.6518 19.9434H72.2043V58.833H6.57227V61.2805H74.6518V19.9434Z" fill="#EE2C2F"/>
<path d="M77.5526 25.2917V64.1814H11.9209V66.6289H80.0001V25.2917H77.5526Z" fill="#EE2C2F"/>
<path d="M69.3031 13.3711H0V55.932H69.3031V13.3711ZM64.2853 15.8186L34.6515 37.1549L5.01767 15.8186H64.2853ZM66.8556 53.4844H2.4475V16.9839L34.6515 40.1707L66.8556 16.9839V53.4844Z" fill="white"/>
<path d="M30.6396 46.7981H27.9653V49.2456H30.6396V46.7981Z" fill="white"/>
<path d="M35.9882 46.7981H33.314V49.2456H35.9882V46.7981Z" fill="white"/>
<path d="M41.3368 46.7981H38.6626V49.2456H41.3368V46.7981Z" fill="white"/>
</g>
<defs>
<clipPath id="clip0_275_166">
<rect width="80" height="80" fill="white"/>
</clipPath>
</defs>
</svg>
