<svg width="37" height="16" viewBox="0 0 37 16" fill="none" xmlns="http://www.w3.org/2000/svg">
<path d="M19.5822 9.42158C20.3133 8.7793 20.9069 8.1743 21.6896 7.84456C22.1484 7.65245 22.6559 7.38006 23.0917 7.80155C23.5276 8.22304 23.2523 8.68468 23.1204 9.13771C22.8566 10.0466 22.59 10.9584 22.3491 11.8731C22.2774 12.1398 22.157 12.4466 22.4294 12.6846C22.7018 12.9225 23.043 12.7648 23.3125 12.6272C24.3103 12.1168 25.1218 11.5118 24.9956 10.1699C24.9211 9.36709 24.9956 8.51264 25.7383 7.93918C26.025 7.71266 26.3719 7.44887 26.7361 7.70119C27.1002 7.95352 26.8393 8.27465 26.7361 8.56138C26.3838 9.64271 26.2857 10.7907 26.4493 11.9161C26.4866 12.1684 26.4493 12.5326 26.6816 12.6244C26.9999 12.7448 27.1432 12.3376 27.3468 12.1713C27.5504 12.005 27.688 11.7699 27.8658 11.5749C28.336 11.0617 28.5941 10.6516 27.969 9.94916C27.2436 9.13771 27.4615 7.54923 28.1755 6.79513C28.3715 6.55931 28.6366 6.39096 28.9335 6.3138C29.2303 6.23664 29.5438 6.25456 29.8299 6.36503C30.4521 6.59155 30.6557 7.12773 30.6729 7.75567C30.6901 8.46103 30.3862 9.08036 30.1482 9.76278C30.8421 9.93769 31.2722 9.54773 31.6621 9.12624C32.6026 8.10548 33.6922 7.45747 35.1373 7.60944C36.1838 7.7184 36.7831 8.28325 36.7286 9.10617C36.708 9.28841 36.644 9.46306 36.542 9.61546C36.44 9.76786 36.3029 9.89357 36.1422 9.98204C35.9816 10.0705 35.802 10.1192 35.6187 10.1239C35.4354 10.1287 35.2536 10.0894 35.0885 10.0094C34.7617 9.83447 34.8018 9.6739 35.0885 9.50759C35.1985 9.45995 35.2867 9.37303 35.336 9.26381C35.3853 9.15459 35.3922 9.03091 35.3552 8.91693C35.31 8.78054 35.2249 8.66086 35.1109 8.57343C34.9969 8.486 34.8592 8.43485 34.7158 8.42662C34.321 8.3679 33.9184 8.45782 33.5861 8.67894C32.5366 9.34989 31.9488 11.2136 32.4391 12.3491C32.7259 13.0315 33.2592 13.1605 33.8126 12.676C34.1179 12.3834 34.3481 12.0214 34.4835 11.6208C34.5644 11.3712 34.6793 11.1338 34.8247 10.9154C35.0857 10.5685 35.4469 10.2617 35.9 10.4481C36.353 10.6344 36.1208 11.1047 36.0462 11.423C35.7795 12.5269 35.553 13.6021 36.4878 14.5311C36.5125 14.5537 36.5322 14.5811 36.5457 14.6117C36.5592 14.6423 36.5661 14.6754 36.5661 14.7089C36.5661 14.7423 36.5592 14.7754 36.5457 14.806C36.5322 14.8366 36.5125 14.8641 36.4878 14.8867C36.4312 14.9421 36.3585 14.9781 36.2802 14.9894C36.2018 15.0008 36.1219 14.9869 36.0519 14.9497C35.7278 14.836 35.4292 14.6594 35.1733 14.4302C34.9175 14.2009 34.7094 13.9234 34.5609 13.6136C34.4663 13.4071 34.4262 13.1061 34.0907 13.4014C33.8013 13.698 33.4145 13.8802 33.0015 13.9144C32.5885 13.9486 32.1771 13.8327 31.8427 13.5878C31.0284 13.0659 30.736 12.2831 30.8105 11.3455C30.8249 11.162 30.8478 10.9843 30.8707 10.7721C29.9331 10.8495 29.1704 11.0588 28.6342 11.919C28.1692 12.6298 27.5359 13.2148 26.7906 13.6222C25.8128 14.1956 25.4315 14.0179 25.1677 12.9426C25.1304 12.7935 25.0988 12.6559 25.0415 12.3692C24.4064 12.9379 23.6792 13.3946 22.891 13.7197C21.4086 14.2472 20.5484 13.5677 20.7664 11.9993C20.9008 11.1938 21.1229 10.4053 21.4287 9.64809C21.4975 9.46172 21.6638 9.23233 21.4287 9.07463C21.2567 8.96567 21.076 9.14918 20.9413 9.26387C20.0266 10.0409 19.2209 10.9011 18.9571 12.1312C18.8958 12.4939 18.7919 12.8481 18.6474 13.1863C18.5604 13.4125 18.4002 13.6031 18.1924 13.7278C17.9846 13.8525 17.741 13.9041 17.5005 13.8745C16.9844 13.7827 17.317 13.2552 17.1736 12.9312C16.6231 13.2179 16.0955 13.5046 15.5507 13.7541C15.1579 13.9347 14.6447 14.0781 14.3579 13.7397C13.8791 13.1663 13.5551 13.3641 13.0505 13.6853C12.3136 14.1555 11.4677 13.9548 10.7996 13.1777C10.4613 12.7849 10.2864 12.8107 9.9595 13.1605C9.29763 13.8434 8.51124 14.3933 7.64272 14.7806C4.2335 16.4006 0.881624 14.5827 0.692382 10.8266C0.468733 6.58581 2.27226 3.211 5.81625 0.856945C6.27411 0.538967 6.79677 0.326466 7.34662 0.234742C7.89646 0.143019 8.45981 0.174354 8.99609 0.326494C9.6252 0.490985 10.178 0.868158 10.5606 1.39396C10.9432 1.91977 11.132 2.56179 11.095 3.211C11.0532 3.83383 10.8142 4.42718 10.4126 4.90507C10.011 5.38296 9.46765 5.72057 8.86132 5.86899C8.65775 5.91486 8.39395 5.99515 8.28786 5.80304C8.12729 5.54498 8.38248 5.37008 8.55739 5.22958C9.51507 4.421 9.6785 3.3687 9.49786 2.21318C9.32583 1.13507 8.55739 0.699243 7.53376 1.09206C6.79903 1.39698 6.15095 1.87861 5.64708 2.49417C3.95373 4.36524 2.89498 6.72358 2.62208 9.23233C2.48407 10.3154 2.67699 11.4149 3.17546 12.3864C3.90376 13.777 5.13957 14.3935 6.66497 14.0322C7.87201 13.7305 8.97974 13.1198 9.87922 12.2602C10.0053 12.1284 10.1037 11.9728 10.1687 11.8024C10.2337 11.632 10.2639 11.4504 10.2577 11.2681C10.467 9.08897 12.3508 7.45461 14.4554 7.61517C14.9631 7.63096 15.4467 7.83542 15.8117 8.18863C15.9851 8.35088 16.104 8.56297 16.1517 8.79564C16.1995 9.0283 16.1738 9.27006 16.0783 9.48752C15.8747 9.9807 15.4217 10.1413 14.9085 10.1155C14.8011 10.1271 14.6926 10.112 14.5925 10.0715C14.4925 10.0309 14.404 9.96626 14.335 9.88321C14.1458 9.59648 14.507 9.57641 14.6217 9.43304C14.9429 9.03162 14.7622 8.55278 14.2117 8.44096C13.9393 8.37979 13.6555 8.39216 13.3895 8.47681C13.1235 8.56146 12.8847 8.71533 12.6978 8.92266C12.3079 9.31854 12.0174 9.80113 11.8499 10.3309C11.6825 10.8607 11.6429 11.4226 11.7344 11.9706C11.7917 12.395 11.9723 12.8107 12.4397 12.9369C12.9071 13.063 13.211 12.7132 13.4977 12.3864C13.71 12.1152 13.8633 11.8027 13.9479 11.4688C14.0165 11.1551 14.1869 10.8729 14.4325 10.666C14.7192 10.4452 15.0346 10.2646 15.373 10.4624C15.7113 10.6602 15.5049 10.9929 15.5049 11.2681C15.5049 11.7728 14.9601 12.3606 15.6339 12.7476C15.9952 12.9541 17.4518 11.8559 17.5664 11.3398C17.7471 10.5169 17.8933 9.68537 18.0568 8.85958C18.0769 8.56851 18.1871 8.29092 18.3722 8.06534C18.5114 7.90651 18.6959 7.79397 18.9008 7.74273C19.1058 7.6915 19.3214 7.70401 19.5191 7.77861C19.952 7.95925 19.737 8.35207 19.694 8.68468C19.671 8.88252 19.6366 9.08323 19.5822 9.42158V9.42158ZM29.2679 7.51195C29.1934 7.31124 29.0729 7.11626 28.8263 7.14207C28.5798 7.16788 28.5081 7.39439 28.488 7.60657C28.4564 7.92077 28.4994 8.23798 28.6135 8.53243C28.7276 8.82688 28.9096 9.09025 29.1446 9.30115C29.4154 8.74309 29.4596 8.10187 29.2679 7.51195Z" fill="white"/>
</svg>
