<svg width="80" height="80" viewBox="0 0 80 80" fill="none" xmlns="http://www.w3.org/2000/svg">
<path d="M23.4483 16.5518H1.37939V70.3449H23.4483V16.5518Z" fill="#EFF2FA"/>
<path d="M75.862 8.27588H4.13797C1.85266 8.27588 0 10.1284 0 12.4137V67.586C0 69.8713 1.85266 71.724 4.13797 71.724H75.862C78.1473 71.724 80 69.8713 80 67.586V12.4137C80 10.1284 78.1473 8.27588 75.862 8.27588ZM77.2414 67.5862C77.2414 68.3479 76.6237 68.9656 75.862 68.9656H4.13797C3.37625 68.9656 2.75859 68.3479 2.75859 67.5862V17.931C2.75859 17.1693 3.37625 16.5517 4.13797 16.5517H75.862C76.6237 16.5517 77.2414 17.1693 77.2414 17.931V67.5862V67.5862Z" fill="white"/>
<path d="M4.13792 13.7932C4.89973 13.7932 5.51729 13.1756 5.51729 12.4138C5.51729 11.652 4.89973 11.0344 4.13792 11.0344C3.37611 11.0344 2.75854 11.652 2.75854 12.4138C2.75854 13.1756 3.37611 13.7932 4.13792 13.7932Z" fill="#FF2D20"/>
<path d="M8.27586 13.7932C9.03767 13.7932 9.65523 13.1756 9.65523 12.4138C9.65523 11.652 9.03767 11.0344 8.27586 11.0344C7.51405 11.0344 6.89648 11.652 6.89648 12.4138C6.89648 13.1756 7.51405 13.7932 8.27586 13.7932Z" fill="#FF9A00"/>
<path d="M12.4138 13.7932C13.1756 13.7932 13.7932 13.1756 13.7932 12.4138C13.7932 11.652 13.1756 11.0344 12.4138 11.0344C11.652 11.0344 11.0344 11.652 11.0344 12.4138C11.0344 13.1756 11.652 13.7932 12.4138 13.7932Z" fill="#3EBF29"/>
<path d="M19.3103 13.7932H17.9309C17.1692 13.7932 16.5515 13.1755 16.5515 12.4138C16.5515 11.6521 17.1692 11.0344 17.9309 11.0344H19.3103C20.072 11.0344 20.6896 11.6521 20.6896 12.4138C20.6896 13.1755 20.072 13.7932 19.3103 13.7932Z" fill="#C8C8C8"/>
<path d="M24.8276 13.7932H23.4482C22.6865 13.7932 22.0688 13.1755 22.0688 12.4138C22.0688 11.6521 22.6865 11.0344 23.4482 11.0344H24.8276C25.5893 11.0344 26.207 11.6521 26.207 12.4138C26.2068 13.1755 25.5893 13.7932 24.8276 13.7932Z" fill="#C8C8C8"/>
<path d="M70.3447 13.7932H68.9653C68.2036 13.7932 67.5859 13.1755 67.5859 12.4138C67.5859 11.6521 68.2036 11.0344 68.9653 11.0344H70.3447C71.1064 11.0344 71.7241 11.6521 71.7241 12.4138C71.7239 13.1755 71.1064 13.7932 70.3447 13.7932Z" fill="#C8C8C8"/>
<path d="M75.862 13.7932H74.4826C73.7209 13.7932 73.1033 13.1755 73.1033 12.4138C73.1033 11.6521 73.7209 11.0344 74.4826 11.0344H75.862C76.6237 11.0344 77.2414 11.6521 77.2414 12.4138C77.2414 13.1755 76.6237 13.7932 75.862 13.7932Z" fill="#C8C8C8"/>
<path d="M63.4481 13.7932H30.3447C29.583 13.7932 28.9653 13.1755 28.9653 12.4138C28.9653 11.6521 29.583 11.0344 30.3447 11.0344H63.4481C64.2099 11.0344 64.8275 11.6521 64.8275 12.4138C64.8275 13.1755 64.2099 13.7932 63.4481 13.7932Z" fill="#C8C8C8"/>
<path d="M19.3102 23.4483H6.89646C6.13475 23.4483 5.51709 22.8307 5.51709 22.069C5.51709 21.3072 6.13475 20.6896 6.89646 20.6896H19.3102C20.0719 20.6896 20.6896 21.3072 20.6896 22.069C20.6896 22.8307 20.0719 23.4483 19.3102 23.4483Z" fill="#EE2C2F"/>
<path d="M8.27584 34.4829H6.89646C6.13475 34.4829 5.51709 33.8652 5.51709 33.1035C5.51709 32.3418 6.13475 31.7241 6.89646 31.7241H8.27584C9.03756 31.7241 9.65521 32.3418 9.65521 33.1035C9.65506 33.8652 9.03756 34.4829 8.27584 34.4829Z" fill="#C8C8C8"/>
<path d="M19.3104 34.4829H13.7932C13.0315 34.4829 12.4138 33.8652 12.4138 33.1035C12.4138 32.3418 13.0315 31.7241 13.7932 31.7241H19.3104C20.0721 31.7241 20.6898 32.3418 20.6898 33.1035C20.6898 33.8652 20.0723 34.4829 19.3104 34.4829Z" fill="#C8C8C8"/>
<path d="M8.27584 40H6.89646C6.13475 40 5.51709 39.3823 5.51709 38.6206C5.51709 37.8589 6.13475 37.2412 6.89646 37.2412H8.27584C9.03756 37.2412 9.65521 37.8589 9.65521 38.6206C9.65506 39.3823 9.03756 40 8.27584 40Z" fill="#C8C8C8"/>
<path d="M19.3104 40H13.7932C13.0315 40 12.4138 39.3823 12.4138 38.6206C12.4138 37.8589 13.0315 37.2412 13.7932 37.2412H19.3104C20.0721 37.2412 20.6898 37.8589 20.6898 38.6206C20.6898 39.3823 20.0723 40 19.3104 40Z" fill="#C8C8C8"/>
<path d="M8.27584 45.5173H6.89646C6.13475 45.5173 5.51709 44.8996 5.51709 44.1379C5.51709 43.3762 6.13475 42.7585 6.89646 42.7585H8.27584C9.03756 42.7585 9.65521 43.3762 9.65521 44.1379C9.65506 44.8998 9.03756 45.5173 8.27584 45.5173Z" fill="#C8C8C8"/>
<path d="M19.3101 45.5173H13.7929C13.0312 45.5173 12.4136 44.8996 12.4136 44.1379C12.4136 43.3762 13.0312 42.7585 13.7929 42.7585H19.3101C20.0719 42.7585 20.6895 43.3762 20.6895 44.1379C20.6895 44.8998 20.072 45.5173 19.3101 45.5173Z" fill="#C8C8C8"/>
<path d="M15.1722 51.0346H6.89646C6.13475 51.0346 5.51709 50.417 5.51709 49.6553C5.51709 48.8935 6.13475 48.2759 6.89646 48.2759H15.1724C15.9341 48.2759 16.5518 48.8935 16.5518 49.6553C16.5516 50.417 15.934 51.0346 15.1722 51.0346Z" fill="#C8C8C8"/>
<path d="M15.1722 56.5517H6.89646C6.13475 56.5517 5.51709 55.9341 5.51709 55.1723C5.51709 54.4106 6.13475 53.793 6.89646 53.793H15.1724C15.9341 53.793 16.5518 54.4106 16.5518 55.1723C16.5516 55.9341 15.934 56.5517 15.1722 56.5517Z" fill="#C8C8C8"/>
<path d="M15.1722 28.9654H6.89646C6.13475 28.9654 5.51709 28.3478 5.51709 27.586C5.51709 26.8243 6.13475 26.2067 6.89646 26.2067H15.1724C15.9341 26.2067 16.5518 26.8243 16.5518 27.586C16.5516 28.3479 15.934 28.9654 15.1722 28.9654Z" fill="#EE2C2F"/>
<path d="M28.8828 43.0368C28.8828 38.4673 31.4756 35.6365 35.5494 35.6365C38.2025 35.6365 40.35 36.9558 41.273 39.0512C41.6328 39.8679 41.0347 40.7918 40.1423 40.7918H40.1069C39.6187 40.7918 39.1714 40.5032 38.9888 40.0504C38.435 38.6763 37.1373 37.8118 35.5492 37.8118C33.0844 37.8118 31.5056 39.8382 31.5056 43.0366C31.5056 46.2562 33.0755 48.2719 35.5584 48.2719C37.1812 48.2719 38.4108 47.5243 38.9822 46.2279C39.1734 45.794 39.6109 45.521 40.0852 45.521C40.9873 45.521 41.5925 46.4683 41.2053 47.2832C40.2533 49.2862 38.2272 50.4473 35.5494 50.4473C31.4559 50.4477 28.8828 47.6363 28.8828 43.0368Z" fill="#EE2C2F"/>
<path d="M51.6168 44.4272C53.3253 43.8125 54.3181 42.2322 54.3181 40.3354C54.3181 37.5935 52.4604 35.8743 49.3615 35.8743H45.0387C44.2436 35.8743 43.5989 36.519 43.5989 37.3141V48.8546C43.5989 49.549 44.1187 50.1711 44.812 50.2074C45.5514 50.2461 46.1631 49.658 46.1631 48.9271V44.8157H49.0029L51.4548 49.5196C51.6758 49.9433 52.1139 50.2093 52.592 50.2093C53.5643 50.2093 54.1837 49.1702 53.7208 48.3147L51.6168 44.4272ZM49.1234 42.8485H46.1631V37.9505H49.0633C50.6918 37.9505 51.6862 38.8846 51.6862 40.3941C51.6862 41.9446 50.752 42.8485 49.1234 42.8485Z" fill="#EE2C2F"/>
<path d="M70.5715 50.2095C69.935 50.2095 69.4189 49.6934 69.4189 49.0569V40.037H69.3495L65.5395 49.2825C65.3379 49.7712 64.8615 50.0904 64.3328 50.0904C63.804 50.0904 63.3275 49.7715 63.1261 49.2825L59.3159 40.037H59.2465V49.0515C59.2465 49.6911 58.7281 50.2094 58.0887 50.2094C57.4492 50.2094 56.9309 49.6909 56.9309 49.0515V37.6498C56.9309 36.6694 57.7258 35.8745 58.7062 35.8745C59.429 35.8745 60.0795 36.3126 60.3514 36.9823L64.2918 46.6933H64.3717L68.3153 36.9783C68.5862 36.3111 69.2343 35.8745 69.9547 35.8745C70.9317 35.8745 71.7237 36.6665 71.7237 37.6436V49.0569C71.724 49.6934 71.2081 50.2095 70.5715 50.2095Z" fill="#EE2C2F"/>
</svg>
