<svg width="101" height="100" viewBox="0 0 101 100" fill="none" xmlns="http://www.w3.org/2000/svg">
<g clip-path="url(#clip0_276_565)">
<path d="M75.9739 65.3749L61.5859 59.6378L58.2162 56.7994C57.326 56.0471 56.0118 56.1024 55.187 56.9237L50.5028 61.5815L45.8051 56.9214C44.979 56.1024 43.6667 56.0494 42.7773 56.7994L39.4082 59.6378L25.0192 65.3759C20.3862 67.2208 20.39 83.6286 19.9922 85.1346H81.008C80.6111 83.6321 80.609 67.2181 75.9739 65.3749Z" fill="white"/>
<path d="M34.0238 42.0126L36.7259 42.0057C38.395 50.7264 44.3183 55.6876 50.5003 55.6876C56.6824 55.6876 60.2741 52.7497 62.6563 47.3331C60.8374 48.7596 58.1949 50.0644 54.4976 50.3337C54.1579 50.8399 53.5805 51.1731 52.9257 51.1731H51.1981C50.1529 51.1731 49.3053 50.3258 49.3053 49.2802C49.3053 48.2348 50.1529 47.3874 51.1981 47.3874H52.9257C53.5381 47.3874 54.0806 47.6793 54.4268 48.1303C60.3702 47.6532 63.1652 44.0486 64.2798 42.0135L66.9774 42.0126C68.6291 42.0126 69.9677 40.6729 69.9677 39.0217V32.2425C69.9677 31.184 69.4156 30.2556 68.5862 29.7239C67.5868 21.3795 59.858 14.8652 50.5007 14.8652C41.1435 14.8652 33.4146 21.3795 32.4154 29.7239C31.5852 30.2556 31.0337 31.1838 31.0337 32.2425V39.0214C31.0329 40.6729 32.372 42.0126 34.0238 42.0126ZM50.5001 18.2552C57.8648 18.2552 63.99 23.1121 65.1194 29.4484C64.7667 29.5825 64.4463 29.7803 64.1722 30.0294C62.4084 24.4611 57.3124 21.1509 50.5005 21.1509C43.6884 21.1509 38.5893 24.4588 36.8236 30.025C36.5504 29.778 36.232 29.5815 35.8814 29.4484C37.0102 23.1121 43.1354 18.2552 50.5001 18.2552Z" fill="white"/>
<path d="M97.2581 67.3278L87.9927 63.6336L85.8228 61.8059C85.25 61.3216 84.4037 61.3574 83.8722 61.8857L80.856 64.8848L77.8312 61.8844C77.2993 61.3574 76.454 61.3229 75.8816 61.8059L74.8481 62.6766L76.7473 63.4337C80.8397 65.0609 82.0507 72.5311 82.6729 80.0518H100.5C100.244 79.0848 100.243 68.515 97.2581 67.3278Z" fill="#EE2C2F"/>
<path d="M68.3193 45.9931V50.3585C68.3193 51.422 69.1815 52.2846 70.2455 52.2846L71.9851 52.2802C73.0601 57.8955 76.874 61.0904 80.8548 61.0904C84.8359 61.0904 87.1484 59.1983 88.6824 55.711C87.5117 56.6293 85.8093 57.4696 83.4291 57.643C83.2104 57.9693 82.8388 58.1836 82.4166 58.1836H81.3045C80.6314 58.1836 80.0858 57.6382 80.0858 56.9648C80.0858 56.2915 80.6314 55.7461 81.3045 55.7461H82.4166C82.811 55.7461 83.1605 55.9339 83.3832 56.2243C87.2098 55.9169 89.0102 53.5958 89.7278 52.2855L91.4642 52.2848C92.528 52.2848 93.3902 51.4223 93.3902 50.3587V45.9935C93.3902 45.3119 93.0352 44.7142 92.5002 44.3718C91.857 38.9984 86.8803 34.8037 80.8545 34.8037C74.8292 34.8037 69.8523 38.9984 69.2089 44.3718C68.6745 44.7138 68.3193 45.3117 68.3193 45.9931ZM80.8548 36.9864C85.597 36.9864 89.5414 40.114 90.2686 44.194C90.0415 44.2805 89.8354 44.4079 89.6586 44.5684C88.5226 40.9826 85.241 38.8511 80.8545 38.8511C76.4681 38.8511 73.1846 40.9812 72.0482 44.5654C71.8716 44.4064 71.6671 44.2798 71.4415 44.1942C72.1681 40.1138 76.1123 36.9864 80.8548 36.9864Z" fill="white"/>
<path d="M24.2461 63.4344L26.147 62.6765L25.1135 61.806C24.5407 61.3217 23.6944 61.3572 23.1629 61.8858L20.1467 64.8849L17.1217 61.8847C16.5898 61.3574 15.7446 61.3232 15.1721 61.8062L13.0024 63.6339L3.73705 67.3289C0.753825 68.5168 0.755914 79.0824 0.5 80.0517H18.3258C18.9463 72.5331 20.1544 65.0637 24.2461 63.4344Z" fill="#EE2C2F"/>
<path d="M9.53531 52.2847L11.2751 52.2803C12.3502 57.896 16.1642 61.0909 20.145 61.0909C24.1258 61.0909 26.4386 59.1988 27.9724 55.711C26.8013 56.6294 25.0993 57.4696 22.719 57.6434C22.5002 57.9696 22.1286 58.1837 21.7066 58.1837H20.5944C19.9213 58.1837 19.3758 57.6384 19.3758 56.9649C19.3758 56.292 19.9213 55.7461 20.5944 55.7461H21.7066C22.1008 55.7461 22.4503 55.9342 22.673 56.2247C26.5002 55.9174 28.3002 53.5962 29.0178 52.286L30.7547 52.2853C31.8182 52.2853 32.6804 51.4227 32.6804 50.3594V45.994C32.6804 45.3124 32.3253 44.7147 31.7907 44.3723C31.1472 38.9989 26.1704 34.8042 20.145 34.8042C14.1194 34.8042 9.14256 38.9989 8.49933 44.3723C7.96452 44.7147 7.60938 45.3124 7.60938 45.994V50.3592C7.60937 51.4223 8.47155 52.2847 9.53531 52.2847ZM20.145 36.9867C24.8872 36.9867 28.8315 40.1143 29.5587 44.1943C29.3314 44.2808 29.1254 44.4082 28.9487 44.5686C27.8128 40.9829 24.5315 38.8514 20.145 38.8514C15.7583 38.8514 12.4751 40.9814 11.338 44.5657C11.1621 44.4067 10.9572 44.2801 10.7315 44.1945C11.4583 40.1141 15.4027 36.9867 20.145 36.9867Z" fill="white"/>
</g>
<defs>
<clipPath id="clip0_276_565">
<rect width="100" height="100" fill="white" transform="translate(0.5)"/>
</clipPath>
</defs>
</svg>
