<svg width="76" height="50" viewBox="0 0 76 50" fill="none" xmlns="http://www.w3.org/2000/svg">
<g clip-path="url(#clip0_224_404)">
<path d="M4.63963 17.3996C3.36439 17.6557 2.33026 18.3293 1.64169 19.3635C1.21412 19.9998 0.935713 20.7506 0.76419 21.6902C0.624983 22.4857 0.65978 23.5969 0.868591 24.6658C1.19672 26.3537 2.11898 28.1559 3.42156 29.6598C4.34381 30.7213 5.93474 31.7753 7.26716 32.2053C8.60703 32.6404 10.111 32.613 11.4459 32.1382C12.2637 31.8474 13.3823 31.1936 14.1231 30.5821C14.5233 30.2515 15.3586 29.4013 15.3959 29.2845C15.4058 29.2521 15.4804 29.1502 15.5575 29.0508C16.4971 27.8874 17.2528 26.3313 17.571 24.9119C17.8047 23.8728 17.9165 22.7865 17.837 22.3838C17.8096 22.262 17.7549 21.9487 17.7152 21.6902C17.3771 19.4977 16.1416 18.0112 14.1952 17.4717C13.8944 17.3922 13.7279 17.3773 12.9498 17.3773C12.1195 17.3723 12.0151 17.3822 11.5702 17.4941C10.8418 17.6781 10.0637 17.9987 9.41742 18.384L9.26081 18.4785L8.74375 18.21C8.08749 17.862 7.63756 17.6855 6.99621 17.5165C6.53384 17.3996 6.3996 17.3822 5.67125 17.3698C5.22877 17.3599 4.76641 17.3773 4.63963 17.3996ZM6.45678 18.9434C6.80729 19.0154 7.22491 19.1571 7.65247 19.3411L7.90851 19.4579L7.42874 19.9551C7.16276 20.2285 6.91666 20.5045 6.87689 20.5691C6.83712 20.6337 6.67057 20.8649 6.50401 21.0886C5.9099 21.894 5.40278 22.8238 5.06968 23.7286C4.98764 23.9474 4.90312 24.1537 4.88075 24.181C4.82358 24.2606 4.72414 24.6235 4.58742 25.2499C4.47556 25.7919 4.46562 25.9087 4.46562 26.9503C4.46065 27.8327 4.47804 28.1261 4.53273 28.3473C4.5725 28.5039 4.59488 28.6282 4.57748 28.6282C4.53771 28.6232 4.01568 27.9794 3.76461 27.6165C2.61863 25.9733 2.02451 23.8256 2.25072 22.1252C2.33275 21.5212 2.5888 20.7158 2.82993 20.318C3.14812 19.7761 3.80935 19.2342 4.39352 19.0304C4.94538 18.8315 5.74086 18.8017 6.45678 18.9434ZM13.8745 18.9657C15.6171 19.4306 16.5518 21.3372 16.2336 23.7584C16.0571 25.0958 15.5947 26.3089 14.8192 27.4822C14.5358 27.9073 13.9615 28.6357 13.9342 28.6108C13.9243 28.6009 13.9466 28.4194 13.9839 28.1982C14.1356 27.2635 14.1107 26.2617 13.8994 25.2052C13.7925 24.6732 13.5812 23.93 13.5216 23.8852C13.5091 23.8728 13.4271 23.6938 13.3426 23.4825C13.258 23.2712 13.1139 22.9456 13.0144 22.7542C12.8354 22.3912 12.7211 22.3017 12.5471 22.3688C12.4924 22.3862 11.7566 22.8337 10.9064 23.3632C10.0563 23.8902 9.2807 24.365 9.1763 24.4147C9.07686 24.4644 8.96997 24.539 8.93765 24.5763C8.84319 24.6881 8.90534 24.974 9.06443 25.1928C9.14149 25.2997 9.27076 25.4886 9.35776 25.6129C9.50691 25.8316 9.59143 25.8987 9.71323 25.8987C9.76295 25.8987 10.7921 25.2624 11.5925 24.7304C11.7989 24.5962 11.9928 24.4669 12.0251 24.452C12.0922 24.4122 12.2264 24.8273 12.3805 25.5607C12.7186 27.1889 12.4526 28.8221 11.6845 29.8338C11.4111 30.1968 11.0282 30.5 10.5932 30.7064C10.1135 30.9351 9.69335 31.0096 9.09675 30.9848C8.23416 30.94 7.69971 30.7064 7.09316 30.1023C6.77497 29.7841 6.67055 29.6424 6.5214 29.3367C5.90491 28.0565 5.82537 26.7961 6.24299 25.1033C6.89428 22.4459 9.02465 19.97 11.3887 19.1248C11.6845 19.0229 12.2239 18.8961 12.5794 18.8514C12.8678 18.8191 13.5389 18.8762 13.8745 18.9657ZM25.4685 20.4647C24.9888 20.5144 24.5736 20.5865 24.4568 20.6387C24.3847 20.671 24.1411 20.768 23.9273 20.8574C23.3034 21.1035 22.8982 21.382 22.3463 21.9313C21.9337 22.3465 21.8168 22.4956 21.6403 22.8312C21.2302 23.6242 21.0785 24.3575 21.1233 25.3146C21.163 26.1324 21.3619 26.8185 21.7572 27.4748C21.9585 27.8104 22.5302 28.402 22.9131 28.6655C23.3754 28.9887 24.0914 29.3193 24.5438 29.4212C24.9838 29.5206 25.9582 29.5156 26.4305 29.4112C27.0694 29.272 27.9096 28.8196 28.3596 28.3771L28.5709 28.1658V28.6083C28.5709 28.9663 28.5883 29.0732 28.6603 29.19L28.7498 29.3367H29.3663C29.7069 29.3367 30.0102 29.3193 30.035 29.3019C30.1792 29.2074 30.1867 29.0657 30.1867 27.2834C30.1867 25.7173 30.1767 25.4836 30.1146 25.4264C30.0574 25.3643 29.8262 25.3543 28.2999 25.3543H26.5524L26.4629 25.4712C26.3808 25.5731 26.3684 25.6551 26.3684 26.0976C26.3684 26.5948 26.3734 26.6072 26.4902 26.7191C26.612 26.826 26.6394 26.8309 27.1862 26.8309C27.5044 26.8309 27.7605 26.8483 27.7605 26.8707C27.7605 26.9552 27.3279 27.2858 27.0247 27.44C26.5971 27.6463 26.0626 27.7432 25.5456 27.7084C24.3549 27.6289 23.4997 26.9353 23.1915 25.7968C23.1368 25.5955 23.1144 25.3444 23.1144 24.9516C23.1144 24.4594 23.1318 24.3476 23.2412 24.0344C23.5296 23.2016 24.0864 22.6299 24.867 22.3514C25.2349 22.2222 25.9632 22.1899 26.4131 22.2843C27.1142 22.431 27.7431 22.871 28.0712 23.4427C28.2701 23.7883 28.3223 23.8106 28.6653 23.6938C29.2768 23.4825 29.8933 23.219 29.9331 23.1519C29.9928 23.0624 29.8486 22.7169 29.5776 22.2968C29.1277 21.6082 28.5535 21.1458 27.7406 20.8326C27.5417 20.7555 27.3503 20.676 27.3056 20.6536C27.1042 20.5492 25.8961 20.4249 25.4685 20.4647ZM37.9002 20.666L37.7834 20.7555V24.9392C37.7834 28.7152 37.7934 29.1328 37.8555 29.2298L37.9276 29.3416L39.9138 29.3367C41.9621 29.3367 42.0292 29.3317 42.7054 29.1477C44.1173 28.7724 45.0197 28.0614 45.5591 26.9105C45.8699 26.2492 45.937 25.8987 45.942 24.9541C45.942 23.9747 45.8748 23.6466 45.5193 22.9182C44.9625 21.7872 44.0129 21.0886 42.5488 20.7381C41.9099 20.5915 41.6489 20.5716 39.8019 20.5716C38.0668 20.5741 38.0171 20.5766 37.9002 20.666ZM42.156 22.426C42.7725 22.5951 43.2175 22.9232 43.5978 23.4775C43.7146 23.6515 43.8538 23.915 43.8986 24.0692C44.0154 24.4371 44.0502 24.9964 43.9881 25.3991C43.9383 25.7297 43.7892 26.2095 43.7271 26.2542C43.7047 26.2666 43.6102 26.3984 43.5158 26.5401C43.1752 27.0447 42.7253 27.3579 42.1138 27.5121C41.8179 27.5891 41.6141 27.6015 40.7167 27.6015H39.6702V24.9939C39.6702 23.5571 39.6826 22.3664 39.705 22.349C39.7224 22.3266 40.222 22.3216 40.8161 22.3365C41.6166 22.344 41.9621 22.3713 42.156 22.426ZM58.4109 20.6039C58.2394 20.671 58.2369 20.7332 58.232 22.3142V23.8529L58.0082 23.6416C57.2724 22.953 55.9052 22.8983 54.886 23.5173C54.7369 23.6068 54.4957 23.8032 54.3416 23.9548C53.397 24.8895 53.1608 26.5227 53.7848 27.7979C54.3118 28.8818 55.4926 29.5877 56.6435 29.5082C57.2401 29.4684 57.5832 29.3118 58.0455 28.8768L58.2345 28.6978V28.9091C58.2345 29.0309 58.2668 29.1676 58.3066 29.2323C58.3786 29.3441 58.3836 29.3441 59.112 29.3441C59.7185 29.3441 59.8577 29.3317 59.9174 29.272C59.9795 29.2099 59.9894 28.7624 59.9894 24.9864C59.9894 20.8077 59.9894 20.7704 59.9 20.6735C59.8105 20.579 59.7707 20.5741 59.1443 20.579C58.7739 20.5765 58.4457 20.5915 58.4109 20.6039ZM57.3769 24.8547C57.6503 24.979 57.9958 25.3295 58.1375 25.6278C58.2369 25.8391 58.2543 25.936 58.2543 26.299C58.2543 26.6917 58.2419 26.7514 58.1052 27.0248C57.8491 27.5444 57.3992 27.8203 56.815 27.8203C55.9251 27.8203 55.3061 27.1218 55.3633 26.1871C55.3906 25.762 55.5472 25.4264 55.858 25.1306C56.1911 24.8075 56.4148 24.7279 56.8821 24.7503C57.0537 24.7602 57.26 24.8 57.3769 24.8547ZM65.4434 20.6834L65.3316 20.7903V22.3166C65.3316 23.1544 65.3216 23.838 65.3092 23.838C65.2992 23.838 65.2023 23.7485 65.0879 23.6416C64.8816 23.4402 64.5435 23.2613 64.203 23.1618C63.9072 23.0773 63.1167 23.0848 62.7736 23.1792C62.1671 23.3458 61.5506 23.7485 61.21 24.2133C61.0981 24.36 60.9937 24.4942 60.9714 24.5092C60.9142 24.5489 60.7874 24.8224 60.678 25.158C60.5164 25.6452 60.4568 26.1995 60.5115 26.6669C60.5662 27.0696 60.7452 27.6861 60.8719 27.88C61.2448 28.4343 61.6624 28.842 62.1695 29.1328C62.6021 29.3789 62.9029 29.4734 63.3777 29.5082C64.0613 29.5579 64.5808 29.369 65.0805 28.8917C65.1849 28.7923 65.2794 28.7177 65.2968 28.7177C65.3142 28.7177 65.3291 28.7972 65.3291 28.9016C65.3291 29.0856 65.3912 29.2497 65.4807 29.3093C65.5478 29.3541 66.9101 29.3541 66.9772 29.3093C67.1164 29.2198 67.1263 29.0011 67.1263 24.9566C67.1263 20.6337 67.1313 20.6834 66.925 20.6039C66.8852 20.5915 66.5571 20.5765 66.2016 20.5765C65.5702 20.5741 65.5453 20.5766 65.4434 20.6834ZM64.4416 24.8497C64.725 24.9939 65.0034 25.2649 65.1327 25.5259C65.2048 25.67 65.2843 25.7993 65.3092 25.8167C65.3365 25.8341 65.3539 26.0355 65.3539 26.2642C65.3539 26.6346 65.3415 26.7066 65.2247 26.9403C64.9313 27.5121 64.556 27.7805 63.9842 27.8128C63.3652 27.8452 62.8979 27.5767 62.627 27.0248C62.4927 26.7514 62.4778 26.6942 62.4778 26.299C62.4828 25.9286 62.4952 25.8416 62.6046 25.6278C62.7338 25.3693 62.7935 25.2922 63.0495 25.0511C63.3802 24.7478 64.0464 24.6484 64.4416 24.8497ZM74.5739 21.9015C74.5565 21.9139 74.5416 22.0681 74.5416 22.2371C74.5416 22.4782 74.554 22.5404 74.6087 22.5404C74.6584 22.5404 74.6758 22.4906 74.6758 22.349V22.16L74.7653 22.3042C74.815 22.3838 74.8697 22.4509 74.8921 22.4509C74.9145 22.4509 74.9642 22.3838 75.004 22.3042L75.0761 22.16V22.349C75.081 22.5105 75.0935 22.5404 75.1705 22.5404C75.255 22.5404 75.265 22.518 75.2525 22.2147C75.2401 21.9288 75.2302 21.8916 75.1482 21.8916C75.0935 21.8916 75.0264 21.9537 74.9642 22.0656L74.8648 22.2346L74.815 22.078C74.7827 21.9935 74.7305 21.909 74.6932 21.894C74.6112 21.8667 74.6112 21.8667 74.5739 21.9015ZM33.3561 23.1419C32.1977 23.3706 31.2755 24.1363 30.925 25.1604C30.8578 25.3568 30.7857 25.5408 30.7634 25.5731C30.6515 25.7173 30.6465 26.9329 30.7634 27.077C30.7857 27.1094 30.8305 27.2113 30.8628 27.3107C30.9697 27.6587 31.2407 28.1037 31.5315 28.4169C31.8099 28.7177 32.4214 29.1676 32.5482 29.1676C32.5805 29.1676 32.6302 29.195 32.6551 29.2298C32.6824 29.2621 32.8614 29.3367 33.0553 29.3963C33.5127 29.5355 34.3132 29.543 34.8178 29.4187C35.213 29.3193 35.8594 28.9762 36.2074 28.6854C37.2539 27.8004 37.5746 26.3537 37.0252 25.0063C36.7468 24.3252 36.1626 23.7261 35.4616 23.4079C34.8675 23.132 33.9676 23.0201 33.3561 23.1419ZM34.4673 24.8497C34.5568 24.882 34.6885 24.9516 34.7556 25.0113C35.3522 25.5085 35.4666 25.7148 35.4691 26.299C35.4691 26.6395 35.4517 26.7141 35.3249 26.9701C35.1235 27.3828 34.7283 27.6687 34.2336 27.7706C33.6171 27.8949 32.9658 27.5643 32.6551 26.9602C32.5035 26.6644 32.4836 26.0976 32.6203 25.7397C32.7272 25.4538 33.105 25.0287 33.3834 24.8895C33.6793 24.7329 34.0944 24.7205 34.4673 24.8497ZM49.0393 23.1047C48.5769 23.1991 48.4278 23.2389 48.1618 23.3458C47.3763 23.6689 46.8145 24.268 46.5385 25.0809C46.3645 25.5855 46.2999 26.0156 46.3322 26.5003C46.3645 27.0149 46.454 27.3505 46.6778 27.7979C46.9736 28.402 47.5279 28.9613 48.0176 29.1453C48.122 29.185 48.2066 29.2348 48.2066 29.2571C48.2066 29.374 49.1363 29.543 49.5738 29.5082C50.158 29.4585 50.4911 29.3068 50.941 28.8768L51.1299 28.6978V28.9091C51.1299 29.0309 51.1622 29.1676 51.202 29.2323C51.2741 29.3441 51.2791 29.3441 52.0298 29.3441C52.6985 29.3441 52.7904 29.3342 52.8526 29.2646C52.9197 29.1875 52.9297 28.919 52.9297 26.294C52.9297 23.5546 52.9247 23.403 52.8476 23.3358C52.7755 23.2737 52.6488 23.2588 52.0472 23.2588C51.1796 23.2588 51.1299 23.2762 51.1299 23.6267V23.8554L50.9087 23.6491C50.6352 23.393 50.3071 23.2289 49.9193 23.1444C49.6434 23.0823 49.2432 23.0649 49.0393 23.1047ZM50.2052 24.8373C50.317 24.8696 50.4836 24.9889 50.6825 25.1828C50.9559 25.4463 50.9982 25.5085 51.0877 25.8043C51.3313 26.5923 51.0205 27.3604 50.327 27.6836C49.9665 27.8501 49.4644 27.8452 49.099 27.6736C48.7991 27.5243 48.5582 27.2782 48.4154 26.9751C48.3383 26.8061 48.3209 26.6843 48.3209 26.299C48.3209 25.8863 48.3333 25.8018 48.4328 25.6104C48.6068 25.2624 49.0045 24.8994 49.2854 24.8224C49.6508 24.7329 49.8497 24.7329 50.2052 24.8373ZM67.6185 23.301C67.4694 23.3856 67.4843 23.5471 67.708 24.273C68.931 28.2106 69.2219 29.1154 69.294 29.2173C69.3785 29.3416 69.3884 29.3416 69.8558 29.3416C70.2162 29.3416 70.3231 29.3541 70.3057 29.3963C70.2958 29.4286 70.251 29.5654 70.2162 29.7046C70.0646 30.2291 69.821 30.4304 69.3313 30.4329C69.0578 30.4329 68.9808 30.4155 68.7023 30.2664C68.3344 30.075 68.1729 30.0601 68.0411 30.1993C67.8422 30.413 67.4893 31.0096 67.4893 31.129C67.4893 31.2955 67.6657 31.4546 68.0461 31.6435C68.8316 32.0288 70.0099 32.0239 70.7333 31.6336C71.0515 31.4596 71.4517 31.042 71.6357 30.689C71.8121 30.3534 71.8643 30.1868 72.0906 29.3814C72.1751 29.0732 72.4361 28.1683 72.6697 27.3679C73.3384 25.0908 73.7809 23.5422 73.7809 23.4626C73.7809 23.4278 73.7486 23.3607 73.7088 23.3234C73.6517 23.2662 73.51 23.2513 72.8786 23.2513C72.1999 23.2513 72.1105 23.2613 72.0384 23.3309C71.9489 23.4204 71.8991 23.5819 71.489 25.153C71.0539 26.826 70.793 27.7706 70.7706 27.7706C70.7532 27.7706 70.4076 26.5848 69.7961 24.4147C69.7116 24.1064 69.6221 23.833 69.6022 23.8106C69.5848 23.7833 69.5401 23.6814 69.5078 23.5745C69.4183 23.2662 69.3785 23.2513 68.4786 23.2513C68.0461 23.2563 67.6583 23.2787 67.6185 23.301Z" fill="white"/>
</g>
<defs>
<clipPath id="clip0_224_404">
<rect width="74.64" height="50" fill="white" transform="translate(0.625)"/>
</clipPath>
</defs>
</svg>
