<svg width="101" height="100" viewBox="0 0 101 100" fill="none" xmlns="http://www.w3.org/2000/svg">
<g clip-path="url(#clip0_277_684)">
<path d="M85.116 0H15.8845C12.7029 0 10.1152 2.58764 10.1152 5.76929V94.2313C10.1152 97.4124 12.7029 100.001 15.8845 100.001H85.116C88.297 100.001 90.8853 97.413 90.8853 94.2313V5.76929C90.8847 2.58764 88.297 0 85.116 0ZM82.7418 4.09951C84.2666 4.09951 85.4991 5.33504 85.4991 6.86233C85.4991 8.38962 84.2666 9.6233 82.7418 9.6233C81.2163 9.6233 79.9777 8.38962 79.9777 6.86233C79.9777 5.33504 81.2163 4.09951 82.7418 4.09951ZM73.4565 4.09951C74.982 4.09951 76.2206 5.33504 76.2206 6.86233C76.2206 8.38962 74.985 9.6233 73.4565 9.6233C71.9317 9.6233 70.6956 8.38962 70.6956 6.86233C70.6956 5.33504 71.9323 4.09951 73.4565 4.09951ZM64.1725 4.09951C65.6973 4.09951 66.9365 5.33504 66.9365 6.86233C66.9365 8.38962 65.7004 9.6233 64.1725 9.6233C62.647 9.6233 61.4152 8.38962 61.4152 6.86233C61.4152 5.33504 62.647 4.09951 64.1725 4.09951ZM87.0387 94.2313C87.0387 95.2904 86.1751 96.154 85.116 96.154H15.8845C14.8273 96.154 13.9612 95.2904 13.9612 94.2313V11.7995H87.0387V94.2313Z" fill="white"/>
<path d="M40.7885 37.2146C40.7885 31.8586 45.1421 27.4994 50.5 27.4994C55.8566 27.4994 60.2207 31.8586 60.2207 37.2146V42.4541H65.945V37.2146C65.945 28.6998 59.0111 21.7739 50.4963 21.7739C41.9814 21.7739 35.042 28.6998 35.042 37.2146V42.4541H40.7811V37.2146H40.7885Z" fill="#EE2C2F"/>
<path d="M69.1076 43.8887H31.911C30.3338 43.8887 29.0415 45.1772 29.0415 46.7452V75.3567C29.0415 76.9383 30.3338 78.2225 31.911 78.2225H69.107C70.6849 78.2225 71.9574 76.9383 71.9574 75.3567V46.7452C71.958 45.1772 70.6849 43.8887 69.1076 43.8887Z" fill="white"/>
</g>
<defs>
<clipPath id="clip0_277_684">
<rect width="100" height="100" fill="white" transform="translate(0.5)"/>
</clipPath>
</defs>
</svg>
