<svg width="81" height="80" viewBox="0 0 81 80" fill="none" xmlns="http://www.w3.org/2000/svg">
<g clip-path="url(#clip0_210_7)">
<path d="M22.7867 43.7499H19.2205C17.4974 43.7499 16.1249 42.3449 16.1249 40.6218V39.3193C16.1249 37.5962 17.4974 36.25 19.2205 36.25H22.7823C23.2073 34.375 23.9617 32.5 24.9886 30.625H6.14433C3.04248 30.625 0.5 33.1381 0.5 36.24V43.7011C0.5 46.803 3.04248 49.3749 6.14433 49.3749H24.9998C23.9704 47.4999 23.2142 45.6249 22.7867 43.7499ZM9.21118 43.6818C7.16432 43.6818 5.49996 42.0174 5.49996 39.9706C5.49996 37.9243 7.16432 36.2593 9.21118 36.2593C11.258 36.2593 12.9224 37.9243 12.9224 39.9706C12.9218 42.0174 11.2574 43.6818 9.21118 43.6818Z" fill="white"/>
<path d="M74.7839 30.625H56.0153C57.4084 33.125 58.2996 35.5637 58.5452 38.3849C59.0102 37.8149 59.7084 37.4406 60.4996 37.4406C61.8958 37.4406 63.0321 38.5756 63.0321 39.9718C63.0321 41.3687 61.8965 42.5037 60.4996 42.5037C59.7077 42.5037 59.0084 42.1549 58.544 41.5843C58.2959 44.4068 57.4015 46.8749 56.0046 49.3749H74.7845C77.8863 49.3749 80.5001 46.803 80.5001 43.7011V36.24C80.4995 33.1381 77.8857 30.625 74.7839 30.625ZM66.7502 42.503C65.3539 42.503 64.2177 41.3674 64.2177 39.9706C64.2177 38.5737 65.3533 37.4381 66.7502 37.4381C68.147 37.4381 69.2833 38.5743 69.2833 39.9706C69.2833 41.3668 68.1464 42.503 66.7502 42.503ZM73.0083 42.503C71.612 42.503 70.4758 41.3674 70.4758 39.9706C70.4758 38.5737 71.6114 37.4381 73.0083 37.4381C74.4051 37.4381 75.5414 38.5743 75.5414 39.9706C75.5414 41.3668 74.4045 42.503 73.0083 42.503Z" fill="white"/>
<path d="M74.7838 8.12524H6.14433C3.04248 8.12524 0.5 10.6583 0.5 13.7602V21.2214C0.5 24.3232 3.04248 26.8751 6.14433 26.8751H28.0242C31.276 23.7501 35.6691 21.8751 40.5022 21.8751C45.3353 21.8751 49.7284 23.7501 52.9802 26.8751H74.7844C77.8863 26.8751 80.5 24.3232 80.5 21.2214V13.7602C80.4994 10.6583 77.8856 8.12524 74.7838 8.12524ZM9.21118 21.2014C7.16432 21.2014 5.49996 19.537 5.49996 17.4908C5.49996 15.4446 7.16432 13.7796 9.21118 13.7796C11.258 13.7796 12.9224 15.4446 12.9224 17.4908C12.9224 19.537 11.2574 21.2014 9.21118 21.2014ZM56.1246 18.1252C56.1246 19.8508 54.7258 21.2501 52.9996 21.2501H19.2499C17.5236 21.2501 16.1249 19.8508 16.1249 18.1252V16.8752C16.1249 15.1496 17.5236 13.7502 19.2499 13.7502H52.9996C54.7258 13.7502 56.1246 15.1496 56.1246 16.8752V18.1252ZM60.4995 20.0233C59.1033 20.0233 57.967 18.887 57.967 17.4908C57.967 16.0946 59.1027 14.9583 60.4995 14.9583C61.8964 14.9583 63.032 16.0939 63.032 17.4908C63.032 18.8877 61.8958 20.0233 60.4995 20.0233ZM66.7501 20.0233C65.3539 20.0233 64.2176 18.887 64.2176 17.4908C64.2176 16.0946 65.3532 14.9583 66.7501 14.9583C68.147 14.9583 69.2832 16.0939 69.2832 17.4908C69.2832 18.8877 68.1463 20.0233 66.7501 20.0233ZM73.0082 20.0233C71.6119 20.0233 70.4757 18.887 70.4757 17.4908C70.4757 16.0946 71.6113 14.9583 73.0082 14.9583C74.405 14.9583 75.5413 16.0939 75.5413 17.4908C75.5413 18.8877 74.4044 20.0233 73.0082 20.0233Z" fill="white"/>
<path d="M74.7838 53.125H52.9802C49.7284 56.25 45.3353 58.1256 40.5022 58.1256C35.6691 58.1256 31.276 56.25 28.0242 53.125H6.14433C3.04248 53.125 0.5 55.5994 0.5 58.7012V66.1624C0.5 69.2636 3.04248 71.8749 6.14433 71.8749H74.7838C77.8856 71.8749 80.4994 69.2642 80.4994 66.1624V58.7012C80.4994 55.5994 77.8856 53.125 74.7838 53.125ZM9.21118 66.143C7.16495 66.143 5.49996 64.478 5.49996 62.4318C5.49996 60.3856 7.16432 58.7206 9.21118 58.7206C11.258 58.7206 12.9224 60.3856 12.9224 62.4318C12.9218 64.4787 11.2574 66.143 9.21118 66.143ZM56.1246 63.1249C56.1246 64.8505 54.7258 66.2499 52.9996 66.2499H19.2499C17.5236 66.2499 16.1249 64.8505 16.1249 63.1249V61.8749C16.1249 60.1493 17.5236 58.75 19.2499 58.75H52.9996C54.7258 58.75 56.1246 60.1493 56.1246 61.8749V63.1249ZM60.4995 64.9643C59.1033 64.9643 57.967 63.8287 57.967 62.4318C57.967 61.0349 59.1027 59.8993 60.4995 59.8993C61.8964 59.8993 63.032 61.0356 63.032 62.4318C63.032 63.828 61.8958 64.9643 60.4995 64.9643ZM66.7501 64.9643C65.3539 64.9643 64.2176 63.8287 64.2176 62.4318C64.2176 61.0349 65.3532 59.8993 66.7501 59.8993C68.147 59.8993 69.2832 61.0356 69.2832 62.4318C69.2832 63.828 68.1463 64.9643 66.7501 64.9643ZM73.0082 64.9643C71.6119 64.9643 70.4757 63.8287 70.4757 62.4318C70.4757 61.0349 71.6113 59.8993 73.0082 59.8993C74.405 59.8993 75.5413 61.0356 75.5413 62.4318C75.5413 63.828 74.4044 64.9643 73.0082 64.9643Z" fill="white"/>
<path d="M40.4972 25.5957C32.5629 25.5957 26.1311 32.0275 26.1311 39.9612C26.1311 47.8949 32.5629 54.3267 40.4972 54.3267C48.4316 54.3267 54.8634 47.8949 54.8634 39.9612C54.8634 32.0275 48.4316 25.5957 40.4972 25.5957ZM49.3472 38.1556L40.5666 46.9355C40.2129 47.2905 39.7416 47.4843 39.241 47.4843C38.7404 47.4843 38.2698 47.2899 37.9154 46.9355L32.7642 41.7843C32.0336 41.0537 32.0336 39.8637 32.7642 39.1331C33.4729 38.4244 34.7067 38.4244 35.4154 39.1331L39.241 42.9587L46.6959 35.5044C47.4047 34.7956 48.6384 34.7956 49.3472 35.5044C49.7015 35.8581 49.8965 36.3294 49.8965 36.83C49.8965 37.3312 49.7015 37.8025 49.3472 38.1556Z" fill="#EE2C2F"/>
</g>
<defs>
<clipPath id="clip0_210_7">
<rect width="80" height="80" fill="white" transform="translate(0.5)"/>
</clipPath>
</defs>
</svg>
