<svg width="51" height="50" viewBox="0 0 51 50" fill="none" xmlns="http://www.w3.org/2000/svg">
<g clip-path="url(#clip0_224_305)">
<path d="M0.879883 0H50.8799V50H0.879883V0Z" fill="#F0DB4F"/>
<path d="M46.7876 38.0751C46.4217 35.7937 44.934 33.8783 40.5281 32.0913C38.9977 31.3878 37.2914 30.8841 36.7829 29.7243C36.6023 29.0494 36.5785 28.6692 36.6926 28.2605C37.0205 26.9344 38.6032 26.5209 39.858 26.9011C40.666 27.1721 41.4312 27.7947 41.8922 28.788C44.05 27.3907 44.0452 27.4002 45.5519 26.4402C45.0006 25.5847 44.7059 25.1901 44.3447 24.8242C43.0471 23.3746 41.2791 22.6284 38.4511 22.6854C37.9616 22.7472 37.4673 22.8137 36.9778 22.8755C35.5662 23.232 34.2211 23.9734 33.4321 24.9668C31.0652 27.6521 31.7401 32.3527 34.6203 34.2871C37.4578 36.4164 41.626 36.9012 42.1584 38.8926C42.6764 41.3309 40.3666 42.1198 38.0709 41.8394C36.3789 41.4877 35.4379 40.6274 34.4207 39.0637C32.5481 40.1474 32.5481 40.1474 30.6232 41.2548C31.0795 42.2529 31.5595 42.7044 32.3248 43.5694C35.9464 47.2434 45.0101 47.0628 46.6356 41.502C46.7021 41.3118 47.1394 40.038 46.7876 38.0751ZM28.0614 22.98H23.3846C23.3846 27.02 23.3656 31.0314 23.3656 35.0713C23.3656 37.6426 23.4987 40 23.0805 40.7224C22.3961 42.1435 20.6232 41.9677 19.8153 41.692C18.993 41.288 18.5748 40.7129 18.09 39.9002C17.9569 39.6673 17.8571 39.4867 17.8238 39.4724C16.5548 40.2472 15.2905 41.0266 14.0215 41.8013C14.6537 43.0989 15.5852 44.2253 16.7781 44.9572C18.5605 46.0266 20.9559 46.3545 23.4607 45.7794C25.0909 45.3041 26.4977 44.3203 27.2344 42.8232C28.299 40.8603 28.0709 38.4838 28.0614 35.8555C28.0852 31.5684 28.0614 27.2814 28.0614 22.98Z" fill="#323330"/>
</g>
<defs>
<clipPath id="clip0_224_305">
<rect x="0.879883" width="50" height="50" rx="25" fill="white"/>
</clipPath>
</defs>
</svg>
