<svg width="50" height="50" viewBox="0 0 50 50" fill="none" xmlns="http://www.w3.org/2000/svg">
<g clip-path="url(#clip0_224_294)">
<path d="M49.2268 11.4078C49.2447 11.474 49.2538 11.5423 49.254 11.611V22.278C49.254 22.4149 49.2178 22.5494 49.1492 22.6679C49.0806 22.7864 48.9819 22.8846 48.8632 22.9527L39.9101 28.1074V38.3243C39.9101 38.6024 39.7623 38.859 39.5212 38.999L20.8325 49.7575C20.7897 49.7818 20.743 49.7973 20.6964 49.8139C20.6789 49.8197 20.6623 49.8304 20.6439 49.8353C20.5132 49.8697 20.3759 49.8697 20.2452 49.8353C20.2239 49.8294 20.2044 49.8178 20.184 49.81C20.1412 49.7944 20.0965 49.7808 20.0557 49.7575L1.37081 38.999C1.25211 38.9308 1.15348 38.8326 1.08487 38.7141C1.01625 38.5957 0.980075 38.4612 0.97998 38.3243V6.32312C0.97998 6.25312 0.989703 6.18507 1.0072 6.11896C1.01304 6.0966 1.02665 6.07618 1.03442 6.05382C1.04901 6.01299 1.06262 5.97118 1.08401 5.93327C1.09859 5.90799 1.11998 5.88757 1.13748 5.86424C1.15984 5.83313 1.18026 5.80105 1.2065 5.77382C1.22887 5.75146 1.25803 5.73494 1.28331 5.71549C1.3115 5.69216 1.33678 5.66688 1.36886 5.64841H1.36984L10.7128 0.269184C10.8311 0.201111 10.9651 0.165283 11.1016 0.165283C11.2381 0.165283 11.3722 0.201111 11.4905 0.269184L20.8334 5.64841H20.8354C20.8665 5.66785 20.8927 5.69216 20.9209 5.71452C20.9462 5.73396 20.9744 5.75146 20.9968 5.77285C21.024 5.80105 21.0434 5.83313 21.0668 5.86424C21.0833 5.88757 21.1057 5.90799 21.1193 5.93327C21.1416 5.97216 21.1543 6.01299 21.1698 6.05382C21.1776 6.07618 21.1912 6.0966 21.197 6.11993C21.2149 6.18618 21.2241 6.25449 21.2243 6.32312V26.3107L29.0097 21.8279V11.61C29.0097 11.5419 29.0194 11.4729 29.0369 11.4078C29.0437 11.3844 29.0564 11.364 29.0641 11.3417C29.0797 11.3008 29.0933 11.259 29.1147 11.2211C29.1293 11.1958 29.1507 11.1754 29.1672 11.1521C29.1905 11.121 29.21 11.0889 29.2372 11.0617C29.2596 11.0393 29.2878 11.0228 29.313 11.0033C29.3422 10.98 29.3675 10.9547 29.3986 10.9362H29.3996L38.7434 5.55702C38.8617 5.48885 38.9958 5.45297 39.1323 5.45297C39.2688 5.45297 39.4029 5.48885 39.5212 5.55702L48.8641 10.9362C48.8972 10.9557 48.9225 10.98 48.9516 11.0024C48.9759 11.0218 49.0041 11.0393 49.0265 11.0607C49.0537 11.0889 49.0732 11.121 49.0965 11.1521C49.114 11.1754 49.1354 11.1958 49.149 11.2211C49.1713 11.259 49.184 11.3008 49.1995 11.3417C49.2083 11.364 49.2209 11.3844 49.2268 11.4078ZM47.6965 21.8279V12.9575L44.427 14.8397L39.9101 17.4403V26.3107L47.6975 21.8279H47.6965ZM38.3536 37.8742V28.9979L33.9106 31.5354L21.2233 38.7764V47.7363L38.3536 37.8742ZM2.53746 7.66963V37.8742L19.6658 47.7353V38.7774L10.7176 33.7131L10.7147 33.7112L10.7108 33.7092C10.6807 33.6917 10.6554 33.6665 10.6272 33.6451C10.6029 33.6256 10.5747 33.6101 10.5533 33.5887L10.5514 33.5858C10.5261 33.5615 10.5086 33.5313 10.4872 33.5041C10.4678 33.4779 10.4444 33.4555 10.4289 33.4283L10.4279 33.4254C10.4104 33.3962 10.3997 33.3612 10.3871 33.3281C10.3744 33.299 10.3579 33.2717 10.3501 33.2406V33.2397C10.3404 33.2027 10.3385 33.1638 10.3346 33.1259C10.3307 33.0968 10.3229 33.0676 10.3229 33.0384V12.1525L5.80699 9.55085L2.53746 7.6706V7.66963ZM11.1026 1.84222L3.31814 6.32312L11.1007 10.804L18.8842 6.32215L11.1007 1.84222H11.1026ZM15.1509 29.8068L19.6668 27.2071V7.66963L16.3972 9.55182L11.8804 12.1525V31.69L15.1509 29.8068ZM39.1323 7.13005L31.3488 11.611L39.1323 16.0919L46.9148 11.61L39.1323 7.13005ZM38.3536 17.4403L33.8367 14.8397L30.5672 12.9575V21.8279L35.0831 24.4276L38.3536 26.3107V17.4403ZM20.4436 37.4299L31.8602 30.9122L37.5671 27.6553L29.7894 23.1773L20.8344 28.3329L12.6727 33.0316L20.4436 37.4299Z" fill="#FF2D20"/>
</g>
<defs>
<clipPath id="clip0_224_294">
<rect width="48.36" height="50" fill="white" transform="translate(0.97998)"/>
</clipPath>
</defs>
</svg>
