<svg width="52" height="50" viewBox="0 0 52 50" fill="none" xmlns="http://www.w3.org/2000/svg">
<g clip-path="url(#clip0_224_280)">
<path d="M47.5872 38.5331C44.8257 38.4643 42.6855 38.7405 40.8905 39.4998C40.3727 39.7067 39.5441 39.7069 39.4751 40.3628C39.7513 40.639 39.7858 41.0878 40.0274 41.4674C40.4421 42.1576 41.1665 43.0898 41.8224 43.5733C42.5472 44.1255 43.2724 44.6776 44.0315 45.1609C45.3779 45.9895 46.8969 46.4726 48.2086 47.3012C48.9683 47.7841 49.7272 48.4059 50.4867 48.9235C50.8665 49.1993 51.1079 49.6485 51.5914 49.8209V49.7176C51.3496 49.4067 51.2805 48.9581 51.0391 48.6128C50.6942 48.2676 50.3486 47.9569 50.0034 47.6117C49.0024 46.2657 47.7598 45.0919 46.4136 44.1255C45.3091 43.3659 42.8925 42.3305 42.4439 41.0531C42.4439 41.0531 42.4091 41.0188 42.3748 40.9843C43.1341 40.9152 44.0315 40.639 44.7567 40.4319C45.9303 40.121 47.0003 40.1902 48.2086 39.8795C48.7608 39.7414 49.3131 39.5688 49.8653 39.3962V39.0857C49.2443 38.4643 48.7955 37.6359 48.1395 37.049C46.3791 35.5298 44.4458 34.0457 42.4439 32.8031C41.3736 32.1127 39.9927 31.6639 38.8537 31.0772C38.4398 30.8698 37.7491 30.7665 37.5077 30.4212C36.8861 29.6619 36.5408 28.661 36.0922 27.7634C35.0915 25.8646 34.1246 23.7591 33.2616 21.7572C32.6405 20.4108 32.2608 19.0644 31.5013 17.822C27.9458 11.9536 24.0796 8.39818 18.1425 4.91157C16.8651 4.18678 15.3463 3.87608 13.724 3.49652C12.8613 3.4618 11.998 3.39295 11.1351 3.35823C10.5828 3.11657 10.0304 2.46083 9.54707 2.15013C7.57986 0.907302 2.50519 -1.78489 1.05543 1.77057C0.123306 4.01417 2.43634 6.22324 3.22997 7.36269C3.81726 8.15652 4.57637 9.05392 4.99064 9.95152C5.2323 10.538 5.30115 11.1598 5.54281 11.781C6.09538 13.2994 6.61282 14.9913 7.338 16.4067C7.71776 17.1315 8.13183 17.8908 8.61515 18.5467C8.89134 18.9263 9.37446 19.0991 9.47823 19.7203C8.9951 20.4108 8.96038 21.4465 8.684 22.3093C7.44137 26.21 7.92489 31.0426 9.68517 33.9077C10.2373 34.7703 11.5492 36.6695 13.3097 35.9443C14.8632 35.3231 14.518 33.3555 14.9664 31.6295C15.0703 31.2149 15.0013 30.9391 15.2082 30.6629V30.7321C15.6916 31.6984 16.1747 32.6307 16.6235 33.5971C17.6937 35.2884 19.5575 37.049 21.1109 38.2228C21.9396 38.8438 22.5954 39.914 23.631 40.2938V40.19H23.5618C23.3547 39.8793 23.044 39.7414 22.768 39.4996C22.1468 38.8786 21.4561 38.1191 20.973 37.4286C19.5234 35.4953 18.2459 33.3553 17.1068 31.146C16.5546 30.0762 16.0711 28.9024 15.6225 27.8324C15.4152 27.4177 15.4152 26.7967 15.0701 26.5898C14.5523 27.3491 13.793 28.005 13.4132 28.9369C12.7577 30.4212 12.6885 32.2508 12.4468 34.1491C12.3087 34.184 12.3776 34.1491 12.3085 34.2186C11.2042 33.942 10.8244 32.8031 10.4099 31.8365C9.37426 29.3857 9.20165 25.4505 10.0994 22.62C10.3411 21.8951 11.3768 19.6169 10.9625 18.9265C10.7554 18.2706 10.0647 17.8908 9.68517 17.3732C9.23657 16.7172 8.75305 15.8891 8.44254 15.1639C7.61399 13.2308 7.19971 11.0906 6.30232 9.15749C5.88804 8.25989 5.16346 7.32817 4.57637 6.49962C3.92063 5.5677 3.19565 4.91157 2.6778 3.80703C2.50539 3.42748 2.26353 2.80606 2.53971 2.39179C2.60876 2.11561 2.74665 2.01223 3.02303 1.94319C3.47183 1.56324 4.74918 2.04656 5.19758 2.2537C6.47493 2.77114 7.54494 3.25486 8.61515 3.97964C9.09828 4.32487 9.61612 4.98081 10.2373 5.15342H10.9623C12.067 5.39489 13.3095 5.22247 14.3452 5.53298C16.1749 6.11967 17.8316 6.98274 19.3161 7.91486C23.8382 10.7799 27.5659 14.8532 30.086 19.7203C30.5003 20.5139 30.6727 21.2393 31.0525 22.0675C31.7777 23.7591 32.6751 25.4851 33.3996 27.142C34.1246 28.7641 34.8149 30.4212 35.8506 31.7676C36.3684 32.4922 38.4394 32.8722 39.3715 33.2519C40.062 33.5624 41.1322 33.8388 41.7534 34.2184C42.927 34.9429 44.1006 35.7719 45.2053 36.5655C45.7577 36.9798 47.4834 37.8429 47.5872 38.5331Z" fill="white"/>
<path d="M12.3772 8.53589C11.7905 8.53589 11.3764 8.60533 10.9622 8.7087V8.77775H11.0312C11.3076 9.33011 11.7905 9.70987 12.1355 10.193C12.4119 10.7452 12.6534 11.2977 12.9298 11.8501C12.9641 11.8154 12.9986 11.781 12.9986 11.781C13.4821 11.4356 13.7236 10.8834 13.7236 10.0549C13.5165 9.81344 13.4819 9.57178 13.3093 9.33012C13.1024 8.98469 12.6534 8.81227 12.3772 8.53589Z" fill="white"/>
</g>
<defs>
<clipPath id="clip0_224_280">
<rect width="50.7924" height="50" fill="white" transform="translate(0.832764)"/>
</clipPath>
</defs>
</svg>
