<svg width="101" height="100" viewBox="0 0 101 100" fill="none" xmlns="http://www.w3.org/2000/svg">
<path d="M27.5867 29.9666C29.7899 29.9666 31.769 29.0311 33.1667 27.5417C30.1107 23.9205 27.4559 19.242 26.7762 14.6958C22.9293 15.101 19.9302 18.3551 19.9302 22.3093C19.9294 26.5379 23.3581 29.9666 27.5867 29.9666Z" fill="white"/>
<path d="M32.6794 31.8302C32.5511 31.7506 32.4163 31.6953 32.2823 31.6377C31.4296 31.0692 30.4721 30.6502 29.4944 30.4106L27.5867 32.3304L25.7368 30.3887C25.7303 30.3903 25.7238 30.3903 25.7181 30.3927C24.3026 30.7306 22.9269 31.4477 21.8516 32.4563C15.9485 36.4267 13.435 41.6875 11.7466 53.1974C11.5087 54.8208 12.6318 56.3297 14.256 56.5693C14.4022 56.5896 14.5476 56.6009 14.6913 56.6009C16.1426 56.6009 17.4127 55.5363 17.6295 54.0582C18.237 49.9173 18.9394 46.8931 19.7491 44.6062V53.9657C19.7491 54.7664 19.9042 55.5119 20.1763 56.1973C20.1552 56.3524 20.1414 56.5092 20.1414 56.6683L20.1438 85.135C20.1438 87.0768 21.7168 88.6482 23.657 88.6482C25.5971 88.6482 27.1701 87.0743 27.1701 85.135L27.1685 60.7053C27.3082 60.7118 27.447 60.7224 27.5875 60.7224C27.6143 60.7224 27.6419 60.7191 27.6696 60.7191L27.6687 85.1334C27.6687 87.0735 29.2418 88.6457 31.1811 88.6457C33.1212 88.6457 34.6943 87.0719 34.6943 85.1334L34.6951 56.8405C35.1555 55.987 35.4227 55.023 35.4227 53.9648V43.7291C36.2178 45.7131 36.9145 48.3224 37.5236 51.8656V35.8022C36.1902 34.2868 34.6017 33.0093 32.6794 31.8302ZM27.6046 47.4851H27.5689L25.7221 44.9586L27.1531 35.3977C27.296 35.0128 27.3569 34.6043 27.3333 34.1926L27.5697 32.6163H27.6054L29.4513 44.9594L27.6046 47.4851Z" fill="#EE2C2F"/>
<path d="M73.0842 29.9669C77.3137 29.9669 80.7408 26.5382 80.7408 22.3087C80.7408 18.4683 77.9098 15.2962 74.2212 14.7456C73.5211 19.3624 70.7957 24.1002 67.6797 27.7328C69.0643 29.1125 70.9752 29.9669 73.0842 29.9669Z" fill="white"/>
<path d="M89.2552 53.1977C87.4783 41.0738 84.7854 35.8813 78.1773 31.8297C78.049 31.7501 77.9142 31.6949 77.7802 31.638C76.9275 31.0687 75.97 30.6497 74.9922 30.4101L73.0838 32.3299L71.2354 30.3882C71.2281 30.3898 71.2216 30.3898 71.2168 30.3922C69.8013 30.7301 68.4248 31.4472 67.3503 32.4558C65.6482 33.6001 64.2294 34.8523 63.0308 36.3303V54.4606C63.0689 54.329 63.1071 54.1974 63.1274 54.0594C63.7349 49.9177 64.4373 46.8934 65.247 44.6065V53.9668C65.247 54.7659 65.4013 55.5114 65.6733 56.1985C65.6539 56.3519 65.6384 56.5095 65.6384 56.6679L65.64 85.1353C65.64 87.0763 67.2139 88.6477 69.1532 88.6477C71.0941 88.6477 72.6664 87.0738 72.6664 85.1353L72.6647 60.7056C72.8036 60.7121 72.9425 60.7227 73.083 60.7227C73.1106 60.7227 73.1374 60.7194 73.1658 60.7194L73.165 85.1345C73.165 87.0746 74.738 88.6477 76.6774 88.6477C78.6191 88.6477 80.1913 87.0738 80.1913 85.1345L80.1921 56.8425C80.6526 55.9889 80.9206 55.0242 80.9206 53.9652V43.7294C81.8716 46.104 82.6829 49.3654 83.3715 54.061C83.5892 55.5382 84.8577 56.6021 86.3089 56.6021C86.4526 56.6021 86.5972 56.5923 86.7442 56.5704C88.3692 56.3316 89.4932 54.8219 89.2552 53.1977ZM73.1025 47.4854H73.0667L71.2208 44.9589L72.6509 35.3981C72.7947 35.0131 72.8548 34.6046 72.832 34.1929L73.0676 32.6166H73.1025L74.9476 44.9598L73.1025 47.4854Z" fill="#EE2C2F"/>
<path d="M50.277 20.6956C55.992 20.6956 60.6249 16.0628 60.6249 10.3478C60.6249 4.63288 55.992 0 50.277 0C44.5621 0 39.9292 4.63288 39.9292 10.3478C39.9292 16.0628 44.5621 20.6956 50.277 20.6956Z" fill="white"/>
<path d="M72.1299 9.35888C71.8075 7.16377 69.7651 5.64432 67.5708 5.96835C65.3757 6.28994 63.8579 8.33238 64.1803 10.5267C64.7244 14.2266 58.848 21.4657 56.2647 22.7294C55.2041 22.0764 54.0412 21.5859 52.8555 21.2944L50.2779 23.8898L47.7782 21.2668C47.7701 21.2684 47.7612 21.2692 47.7522 21.2708C46.6234 21.5404 45.5141 21.9928 44.4933 22.5937C41.8052 21.0296 36.2934 14.117 36.8213 10.5267C37.1437 8.33238 35.6259 6.29075 33.4308 5.96835C31.2332 5.64513 29.1948 7.16377 28.8716 9.35888C27.8346 16.4209 34.5149 25.5928 39.7847 29.0979C39.727 29.4869 39.6864 29.8815 39.6864 30.2909V53.1321C39.6864 54.213 39.8959 55.2216 40.2638 56.1482C40.2354 56.3578 40.2159 56.5689 40.2159 56.7849L40.2183 95.2535C40.2183 97.8749 42.3444 100 44.9667 100C47.589 100 49.7143 97.8749 49.7143 95.2518L49.7126 62.2382C49.901 62.2471 50.0886 62.2617 50.2779 62.2617C50.3144 62.2617 50.3518 62.2561 50.3891 62.2561L50.3883 95.251C50.3883 97.8733 52.5136 99.9994 55.1367 99.9994C57.759 99.9994 59.8842 97.8733 59.8842 95.251L59.8859 57.0188C60.5079 55.8656 60.8701 54.5622 60.8701 53.1313V30.29C60.8701 29.9701 60.8474 29.659 60.8117 29.3512C60.9327 29.2757 61.0504 29.2083 61.1739 29.1271C66.4501 25.6456 73.1703 16.4412 72.1299 9.35888ZM50.3014 44.3703H50.2527L47.7579 40.9554L49.6907 28.0348C49.884 27.5143 49.9668 26.9637 49.9343 26.4066L50.2527 24.274H50.3014L52.797 40.9554L50.3014 44.3703Z" fill="white"/>
</svg>
