<svg width="80" height="80" viewBox="0 0 80 80" fill="none" xmlns="http://www.w3.org/2000/svg">
<g clip-path="url(#clip0_210_70)">
<path d="M24.8582 55.9459C26.0387 55.9459 26.9957 54.9889 26.9957 53.8084C26.9957 52.6279 26.0387 51.6709 24.8582 51.6709C23.6777 51.6709 22.7207 52.6279 22.7207 53.8084C22.7207 54.9889 23.6777 55.9459 24.8582 55.9459Z" fill="white"/>
<path d="M73.2954 34.7749H38.0674V16.2766C38.0674 12.5796 35.0598 9.57202 31.3628 9.57202H6.70462C3.00762 9.57202 0 12.5796 0 16.2766V66.1375C0 69.8345 3.00762 72.8421 6.70462 72.8421H23.4345H29.2245H73.2956C76.9926 72.8421 80.0003 69.8342 80.0003 66.1375V41.4796C80 37.7826 76.9924 34.7749 73.2954 34.7749ZM32.4001 39.3827H35.7609C35.7617 39.3827 35.7625 39.3827 35.7635 39.3827C35.7645 39.3827 35.765 39.3827 35.7661 39.3827H66.8716V68.2345H32.4001V39.3827ZM23.4343 34.7749C19.7373 34.7749 16.7297 37.7828 16.7297 41.4796V57.172H4.60781V22.7004H33.4596V34.7747H23.4343V34.7749ZM6.70462 14.1798H31.3628C32.5191 14.1798 33.4596 15.1203 33.4596 16.2766V18.0926H4.60781V16.2766C4.60781 15.1203 5.54831 14.1798 6.70462 14.1798ZM4.60781 66.1375V61.7798H16.7297V66.1375C16.7297 66.8699 16.8495 67.5741 17.0673 68.2343H6.70462C5.54831 68.2345 4.60781 67.2938 4.60781 66.1375ZM21.3375 66.1375V41.4796C21.3375 40.3233 22.2782 39.3827 23.4343 39.3827H27.792V68.2345H23.4343C22.2782 68.2345 21.3375 67.2938 21.3375 66.1375ZM75.3922 66.1375C75.3922 67.2938 74.4517 68.2343 73.2954 68.2343H71.4794V39.3827H73.2954C74.4517 39.3827 75.3922 40.3235 75.3922 41.4796V66.1375Z" fill="white"/>
<path d="M49.5355 20.437C49.9103 20.8117 50.4018 20.9994 50.8931 20.9994C51.3843 20.9994 51.8758 20.812 52.2506 20.437C53.0004 19.6872 53.0004 18.4715 52.2506 17.7219L50.7725 16.2439C54.554 17.0848 57.5513 20.0274 58.4706 23.7792L57.0414 22.35C56.2919 21.6002 55.0762 21.6002 54.3264 22.35C53.5766 23.0998 53.5766 24.3155 54.3264 25.065L59.3277 30.0665C59.6876 30.4267 60.176 30.6289 60.6852 30.6289C61.1943 30.6289 61.6828 30.4267 62.0427 30.0665L67.0432 25.066C67.793 24.3162 67.793 23.1005 67.0432 22.351C66.2934 21.6012 65.0777 21.6012 64.3281 22.351L62.4615 24.2177C61.5773 18.0135 56.6267 13.1054 50.4028 12.284L52.2516 10.4352C53.0014 9.68541 53.0014 8.46972 52.2516 7.72018C51.5018 6.97039 50.2861 6.97039 49.5366 7.72018L44.5353 12.7217C44.1751 13.0819 43.9729 13.5701 43.9729 14.0792C43.9729 14.5884 44.1751 15.0768 44.5353 15.4367L49.5355 20.437Z" fill="#EE2C2F"/>
</g>
<defs>
<clipPath id="clip0_210_70">
<rect width="80" height="80" fill="white"/>
</clipPath>
</defs>
</svg>
