<svg width="80" height="80" viewBox="0 0 80 80" fill="none" xmlns="http://www.w3.org/2000/svg">
<path d="M0 71.7674H80V8.23242H0V71.7674ZM5 13.2324H75V66.7674H5V13.2324Z" fill="white"/>
<path d="M34.8781 43.4931L28.9826 36.68L10.7202 57.785H27.9777H47.2453H69.2802L45.8952 30.7625L34.8781 43.4931ZM27.9777 52.785H21.6577L28.9801 44.32L36.3076 52.785H27.9777ZM42.9186 52.785L38.1839 47.3135L45.8951 38.4026L58.3426 52.7851H42.9186V52.785Z" fill="#EE2C2F"/>
<path d="M34.5275 33.9976C38.0725 33.9976 40.955 31.12 40.955 27.5876C40.955 24.0501 38.0725 21.175 34.5275 21.175C30.9825 21.175 28.1001 24.05 28.1001 27.5876C28.1001 31.1225 30.9825 33.9976 34.5275 33.9976ZM34.5275 26.1726C35.315 26.1726 35.955 26.8075 35.955 27.5852C35.955 28.3626 35.315 28.9951 34.5275 28.9951C33.7399 28.9951 33.1001 28.3626 33.1001 27.5852C33.1001 26.8075 33.7401 26.1726 34.5275 26.1726Z" fill="white"/>
</svg>
