<svg width="51" height="50" viewBox="0 0 51 50" fill="none" xmlns="http://www.w3.org/2000/svg">
<g clip-path="url(#clip0_224_593)">
<path d="M11.5828 0H39.2781C40.6257 0 41.9343 0.214844 43.2039 0.664062C45.0398 1.32812 46.7 2.5 47.95 4.02344C49.2195 5.54688 50.0593 7.42188 50.3523 9.375C50.4695 10.0977 50.489 10.8203 50.489 11.543V38.5547C50.489 39.4141 50.4499 40.293 50.2742 41.1328C49.8835 43.0664 48.9656 44.8828 47.6374 46.3477C46.3289 47.8125 44.6101 48.9062 42.7546 49.4922C41.6218 49.8438 40.45 50 39.2585 50C38.7312 50 11.5046 50 11.0945 49.9805C9.1023 49.8828 7.12964 49.2383 5.46948 48.125C3.84839 47.0312 2.52027 45.5078 1.66089 43.75C0.918704 42.2461 0.54761 40.5664 0.54761 38.8867V11.1133C0.508547 9.45312 0.86011 7.8125 1.58277 6.32813C2.42261 4.57031 3.7312 3.02734 5.3523 1.93359C7.01245 0.800781 8.96558 0.136719 10.9578 0.0390625C11.1531 0 11.3679 0 11.5828 0Z" fill="url(#paint0_linear_224_593)"/>
<path d="M42.657 40.8984C42.4812 40.625 42.2859 40.3516 42.071 40.0977C41.5828 39.5117 41.0164 39.0039 40.3914 38.5742C39.6101 38.0469 38.6921 37.7148 37.7546 37.6758C37.0906 37.6367 36.4265 37.7539 35.8015 37.9883C35.1765 38.2031 34.571 38.5156 33.9851 38.8281C33.3015 39.1797 32.6179 39.5312 31.8953 39.8242C31.0359 40.1758 30.1375 40.4492 29.2195 40.6445C28.0671 40.8594 26.8953 40.9375 25.7429 40.918C23.6531 40.8789 21.5632 40.5664 19.571 39.9805C17.8132 39.4531 16.1335 38.7305 14.5515 37.8125C13.1648 37.0117 11.8757 36.0938 10.6648 35.0586C9.6687 34.1992 8.75073 33.2812 7.89136 32.3047C7.30542 31.6211 6.73901 30.8984 6.21167 30.1562C5.99683 29.8633 5.80151 29.5508 5.62573 29.2383L0.469482 23.6719V11.0742C0.469482 4.96094 5.41089 0 11.5242 0H21.3875L28.6921 7.42188C45.1765 18.6328 39.8445 30.9961 39.8445 30.9961C39.8445 30.9961 44.532 36.2695 42.657 40.8984Z" fill="url(#paint1_linear_224_593)"/>
<path d="M28.7312 7.42188C45.2156 18.6328 39.8835 30.9961 39.8835 30.9961C39.8835 30.9961 44.571 36.2891 42.6765 40.918C42.6765 40.918 40.7429 37.6758 37.5007 37.6758C34.3757 37.6758 32.5398 40.918 26.2507 40.918C12.2468 40.918 5.62573 29.2188 5.62573 29.2188C18.2429 37.5195 26.8562 31.6406 26.8562 31.6406C21.1726 28.3398 9.08276 12.5586 9.08276 12.5586C19.6101 21.5234 24.1609 23.8867 24.1609 23.8867C21.446 21.6406 13.8289 10.6641 13.8289 10.6641C19.9226 16.8359 32.032 25.4492 32.032 25.4492C35.4695 15.918 28.7312 7.42188 28.7312 7.42188Z" fill="white"/>
</g>
<defs>
<linearGradient id="paint0_linear_224_593" x1="30.2138" y1="-1.78418" x2="20.7671" y2="51.7902" gradientUnits="userSpaceOnUse">
<stop stop-color="#FAAE42"/>
<stop offset="1" stop-color="#EF3E31"/>
</linearGradient>
<linearGradient id="paint1_linear_224_593" x1="25.9796" y1="0.807813" x2="19.0658" y2="40.0182" gradientUnits="userSpaceOnUse">
<stop stop-color="#E39F3A"/>
<stop offset="1" stop-color="#D33929"/>
</linearGradient>
<clipPath id="clip0_224_593">
<rect width="50" height="50" fill="white" transform="translate(0.469482)"/>
</clipPath>
</defs>
</svg>
