<svg width="81" height="80" viewBox="0 0 81 80" fill="none" xmlns="http://www.w3.org/2000/svg">
<path d="M80.5 0H0.5V59.3548H14.4445C12.2974 63.2813 11.0174 67.7458 10.8497 72.4877C9.33742 73.0142 8.24194 74.4387 8.24194 76.129C8.24194 78.2632 9.97871 80 12.1129 80C14.2471 80 15.9839 78.2632 15.9839 76.129C15.9839 74.4684 14.9271 73.0606 13.4561 72.5123C13.6394 67.6981 15.0768 63.2116 17.4626 59.3548H26.3684C26.6252 62.2142 27.74 64.8864 29.5748 67.0968H27.5968V69.6774H30.1774V72.2581H27.5968V74.8387H30.1774V80H50.8226V74.8387H53.4032V72.2581H50.8226V69.6774H53.4032V67.0968H51.4264C53.2613 64.8864 54.3761 62.2142 54.6329 59.3548H63.5387C65.9232 63.2116 67.3619 67.6981 67.5452 72.5123C66.0729 73.0606 65.0161 74.4684 65.0161 76.129C65.0161 78.2632 66.7529 80 68.8871 80C71.0213 80 72.7581 78.2632 72.7581 76.129C72.7581 74.4387 71.6626 73.0142 70.1503 72.4877C69.9826 67.7458 68.7039 63.2813 66.5555 59.3548H80.5V0ZM12.1129 77.4194C11.4019 77.4194 10.8226 76.84 10.8226 76.129C10.8226 75.4181 11.4019 74.8387 12.1129 74.8387C12.8239 74.8387 13.4032 75.4181 13.4032 76.129C13.4032 76.84 12.8239 77.4194 12.1129 77.4194ZM68.8871 74.8387C69.5981 74.8387 70.1774 75.4181 70.1774 76.129C70.1774 76.84 69.5981 77.4194 68.8871 77.4194C68.1761 77.4194 67.5968 76.84 67.5968 76.129C67.5968 75.4181 68.1761 74.8387 68.8871 74.8387ZM19.2613 56.7742C22.0729 53.2206 25.74 50.3729 29.9697 48.5819C27.9723 50.7974 26.6574 53.6361 26.3723 56.7742H19.2613ZM48.2419 77.4194H32.7581V74.8387H48.2419V77.4194ZM48.2419 72.2581H32.7581V69.6774H48.2419V72.2581ZM48.629 66.351L48.2419 66.7303V67.0968H41.7903V63.0426C44.0097 62.4658 45.6613 60.4619 45.6613 58.0645C45.6613 55.2181 43.3465 52.9032 40.5 52.9032C37.6535 52.9032 35.3387 55.2181 35.3387 58.0645C35.3387 60.4619 36.9903 62.4658 39.2097 63.0426V67.0968H32.7581V66.7303L32.371 66.351C30.1245 64.1458 28.8871 61.2039 28.8871 58.0645C28.8871 51.6619 34.0974 46.4516 40.5 46.4516C46.9026 46.4516 52.1129 51.6619 52.1129 58.0645C52.1129 61.2039 50.8755 64.1458 48.629 66.351ZM40.5 60.6452C39.0768 60.6452 37.9194 59.4877 37.9194 58.0645C37.9194 56.6413 39.0768 55.4839 40.5 55.4839C41.9232 55.4839 43.0806 56.6413 43.0806 58.0645C43.0806 59.4877 41.9232 60.6452 40.5 60.6452ZM54.6277 56.7742C54.3426 53.6361 53.0277 50.7974 51.0303 48.5819C55.2587 50.3729 58.9271 53.2206 61.7387 56.7742H54.6277ZM77.9194 56.7742H64.9645C61.8806 52.2903 57.5968 48.6968 52.5813 46.4516H67.8342C68.3684 47.9497 69.7877 49.0323 71.4677 49.0323C73.6019 49.0323 75.3387 47.2955 75.3387 45.1613C75.3387 43.0271 73.6019 41.2903 71.4677 41.2903C69.7877 41.2903 68.3684 42.3729 67.8342 43.871H13.1658C12.6316 42.3729 11.2123 41.2903 9.53226 41.2903C7.39806 41.2903 5.66129 43.0271 5.66129 45.1613C5.66129 47.2955 7.39806 49.0323 9.53226 49.0323C11.2123 49.0323 12.6316 47.9497 13.1658 46.4516H28.4187C23.4032 48.6968 19.1194 52.2903 16.0355 56.7742H3.08065V12.9032H77.9194V56.7742ZM70.1774 45.1613C70.1774 44.4503 70.7568 43.871 71.4677 43.871C72.1787 43.871 72.7581 44.4503 72.7581 45.1613C72.7581 45.8723 72.1787 46.4516 71.4677 46.4516C70.7568 46.4516 70.1774 45.8723 70.1774 45.1613ZM10.8226 45.1613C10.8226 45.8723 10.2432 46.4516 9.53226 46.4516C8.82129 46.4516 8.24194 45.8723 8.24194 45.1613C8.24194 44.4503 8.82129 43.871 9.53226 43.871C10.2432 43.871 10.8226 44.4503 10.8226 45.1613ZM77.9194 10.3226H3.08065V2.58065H77.9194V10.3226Z" fill="white"/>
<path d="M13.4031 5.16125H5.66113V7.7419H13.4031V5.16125Z" fill="white"/>
<path d="M18.5645 5.16125H15.9839V7.7419H18.5645V5.16125Z" fill="white"/>
<path d="M26.3063 15.4839H5.66113V38.7097H26.3063V15.4839ZM23.7256 36.129H8.24178V18.0645H23.7256V36.129Z" fill="#EE2C2F"/>
<path d="M52.113 15.4839H28.8872V38.7097H52.113V15.4839ZM49.5324 36.129H31.4679V18.0645H49.5324V36.129Z" fill="#EE2C2F"/>
<path d="M75.3385 15.4839H54.6934V38.7097H75.3385V15.4839ZM72.7579 36.129H57.274V18.0645H72.7579V36.129Z" fill="#EE2C2F"/>
</svg>
