<svg width="80" height="80" viewBox="0 0 80 80" fill="none" xmlns="http://www.w3.org/2000/svg">
<path d="M16.2524 15.6225C17.3524 16.46 18.4824 17.2575 19.6549 17.97C19.0574 19.41 18.5274 20.93 18.0524 22.5H22.8699C23.1449 21.695 23.4074 20.8775 23.7199 20.1125C25.9524 21.135 28.2799 21.915 30.6674 22.5H49.3449C51.7624 21.9125 54.1249 21.115 56.3749 20.07C56.6874 20.845 56.9474 21.68 57.2324 22.5H61.9599C61.4874 20.9275 60.9599 19.4125 60.3574 17.97C61.5349 17.2575 62.6674 16.46 63.7574 15.6225C65.8574 17.6675 67.6874 19.98 69.2049 22.5H75.9249C69.4149 9.205 55.7824 0 40.0049 0C24.2224 0 10.5949 9.205 4.0874 22.5H10.8024C12.3224 19.98 14.1524 17.6625 16.2524 15.6225ZM60.2724 12.6825C59.6574 13.1225 59.0399 13.555 58.3974 13.955C57.5999 12.4875 56.7324 11.095 55.7949 9.84C57.3749 10.665 58.8599 11.6275 60.2724 12.6825ZM54.4849 16.055C52.4649 16.9825 50.3849 17.73 48.2449 18.255C47.6474 13.935 46.7849 9.765 45.5574 6.575C49.0124 8.3225 52.0724 11.6375 54.4849 16.055ZM39.5499 5.9475C39.7024 5.945 39.8499 5.9275 40.0049 5.9275C40.1599 5.9275 40.3074 5.945 40.4599 5.9475C41.5549 7.74 42.8724 12.215 43.8449 19.02C42.5724 19.17 41.2924 19.265 40.0074 19.265C38.7149 19.265 37.4374 19.17 36.1699 19.02C37.1374 12.215 38.4549 7.74 39.5499 5.9475ZM34.4274 6.645C33.2149 9.825 32.3599 13.9625 31.7649 18.2575C29.6574 17.7425 27.6124 17.0075 25.6324 16.1075C28.0349 11.73 31.0524 8.415 34.4274 6.645ZM24.2099 9.84C23.2749 11.095 22.4124 12.49 21.6049 13.955C20.9649 13.5575 20.3474 13.125 19.7324 12.685C21.1474 11.6275 22.6299 10.665 24.2099 9.84Z" fill="white"/>
<path d="M63.7577 64.38C62.6627 63.54 61.5227 62.745 60.3577 62.0275C60.9502 60.5925 61.4827 59.0725 61.9602 57.5H57.2327C56.9602 58.32 56.6927 59.15 56.3802 59.9275C54.1277 58.8825 51.7602 58.0925 49.3477 57.5H30.6727C28.2852 58.085 25.9602 58.8675 23.7277 59.8875C23.4102 59.12 23.1502 58.3 22.8727 57.5H18.0577C18.5302 59.0725 19.0602 60.59 19.6577 62.03C18.4827 62.7425 17.3552 63.54 16.2552 64.375C14.1577 62.335 12.3277 60.02 10.8127 57.5H4.09521C10.6027 70.79 24.2302 80 40.0102 80C55.7902 80 69.4202 70.79 75.9277 57.5H69.2077C67.6877 60.02 65.8577 62.335 63.7577 64.38ZM19.7327 67.32C20.3477 66.88 20.9677 66.445 21.6052 66.05C22.4127 67.515 23.2752 68.9075 24.2102 70.1625C22.6302 69.335 21.1477 68.375 19.7327 67.32ZM25.6277 63.8975C27.6077 63.0075 29.6527 62.265 31.7602 61.7525C32.3552 66.05 33.2102 70.1725 34.4227 73.365C31.0527 71.5875 28.0352 68.2675 25.6277 63.8975ZM40.4602 74.0525C40.3077 74.0575 40.1602 74.0725 40.0052 74.0725C39.8502 74.0725 39.7027 74.0575 39.5502 74.0525C38.4552 72.26 37.1352 67.7825 36.1652 60.98C37.4327 60.83 38.7127 60.7325 40.0027 60.7325C41.2952 60.7325 42.5727 60.83 43.8427 60.98C42.8652 67.7825 41.5552 72.26 40.4602 74.0525ZM45.5577 73.4225C46.7852 70.235 47.6477 66.065 48.2452 61.7425C50.3852 62.27 52.4652 63.0175 54.4852 63.945C52.0727 68.365 49.0127 71.68 45.5577 73.4225ZM55.7952 70.16C56.7327 68.9 57.6002 67.505 58.3977 66.045C59.0402 66.445 59.6577 66.88 60.2727 67.32C58.8602 68.375 57.3752 69.335 55.7952 70.16Z" fill="white"/>
<path d="M11.9876 47.9499L13.5801 42.3599C14.0026 40.8699 14.3276 39.4024 14.6201 37.4174H14.6851C15.0101 39.3674 15.3026 40.8024 15.6926 42.3599L17.1876 47.9499H21.8351L26.7101 32.0624H21.8701L20.5051 38.3649C20.1476 40.1874 19.8226 41.9724 19.5951 43.7924H19.5301C19.2051 41.9699 18.7826 40.1899 18.3601 38.3974L16.7676 32.0624H12.8676L11.1776 38.5924C10.7876 40.1499 10.3326 41.9749 10.0076 43.7924H9.9426C9.6826 41.9699 9.3576 40.2149 9.0326 38.5574L7.7651 32.0549H2.7251L7.3401 47.9474H11.9876V47.9499Z" fill="#EE2C2F"/>
<path d="M45.7849 38.36C45.4224 40.1825 45.1049 41.9676 44.8799 43.7901H44.8124C44.4899 41.9676 44.0649 40.1851 43.6449 38.3925L42.0449 32.0575H38.1449L36.4549 38.5876C36.0649 40.1475 35.6099 41.9701 35.2849 43.7901H35.2199C34.9599 41.9676 34.6349 40.21 34.3099 38.5525L33.0424 32.05H28.0049L32.6199 47.9425H37.2674L38.8599 42.355C39.2824 40.8575 39.6074 39.395 39.8999 37.41H39.9649C40.2899 39.36 40.5849 40.795 40.9749 42.355L42.4699 47.9425H47.1174L51.9849 32.05H47.1399L45.7849 38.36Z" fill="#EE2C2F"/>
<path d="M71.075 38.36C70.715 40.1825 70.3925 41.9676 70.1675 43.7901H70.105C69.7825 41.9676 69.355 40.1851 68.9325 38.3925L67.34 32.0575H63.435L61.7425 38.5876C61.355 40.1475 60.8975 41.9701 60.57 43.7901H60.51C60.25 41.9676 59.9275 40.21 59.6025 38.5525L58.3325 32.05H53.29L57.9125 47.9425H62.5525L64.1525 42.355C64.5725 40.8575 64.9 39.395 65.1925 37.41H65.2525C65.575 39.36 65.8675 40.795 66.2575 42.355L67.7525 47.9425H72.4L77.2725 32.05H72.4275L71.075 38.36Z" fill="#EE2C2F"/>
</svg>
