<svg width="100" height="100" viewBox="0 0 100 100" fill="none" xmlns="http://www.w3.org/2000/svg">
<path d="M95.3524 9.37207H55.3752C52.8117 9.37207 50.7266 11.4572 50.7266 14.0201V34.6479C50.7266 37.211 52.8121 39.2961 55.3752 39.2961H58.8853V47.4845C58.8853 48.0505 59.2157 48.5645 59.7307 48.8001C59.923 48.888 60.1282 48.9313 60.3318 48.9313C60.6729 48.9313 61.0101 48.8108 61.2776 48.5789L72.0216 39.2959H95.3517C97.9153 39.2959 100 37.2106 100 34.6477V14.0201C100.001 11.457 97.9153 9.37207 95.3524 9.37207ZM66.8947 23.4717L64.7601 25.5528L65.264 28.4914C65.3004 28.7037 65.2134 28.9176 65.039 29.0441C64.9409 29.1156 64.8243 29.152 64.707 29.152C64.6175 29.152 64.5269 29.1304 64.4443 29.0872L61.8053 27.6998L59.1667 29.0872C58.976 29.1871 58.7452 29.1704 58.5712 29.0441C58.3973 28.9178 58.3103 28.7037 58.3467 28.4914L58.8506 25.5528L56.7155 23.4717C56.562 23.3215 56.506 23.097 56.5723 22.8927C56.6386 22.6882 56.8157 22.5391 57.0287 22.5081L59.9791 22.0795L61.2985 19.406C61.394 19.213 61.5904 19.0909 61.8053 19.0909C62.0203 19.0909 62.217 19.213 62.3118 19.406L63.6316 22.0795L66.5813 22.5081C66.7946 22.5391 66.9709 22.6882 67.038 22.8927C67.1043 23.097 67.0486 23.3217 66.8947 23.4717ZM80.4534 23.4717L78.3183 25.5528L78.8227 28.4914C78.8586 28.7037 78.7716 28.9176 78.5977 29.0441C78.4996 29.1156 78.3833 29.152 78.2656 29.152C78.1757 29.152 78.086 29.1304 78.0022 29.0872L75.3636 27.6998L72.725 29.0872C72.5343 29.1871 72.3039 29.1704 72.1299 29.0441C71.9555 28.9178 71.8685 28.7037 71.9049 28.4914L72.4088 25.5528L70.2742 23.4717C70.1207 23.3215 70.0646 23.097 70.1311 22.8927C70.1972 22.6882 70.3737 22.5391 70.5874 22.5081L73.5375 22.0795L74.8571 19.406C74.9523 19.213 75.149 19.0909 75.3636 19.0909C75.5787 19.0909 75.7749 19.213 75.87 19.406L77.1898 22.0795L80.14 22.5081C80.3534 22.5391 80.5295 22.6882 80.5962 22.8927C80.6629 23.097 80.6069 23.3217 80.4534 23.4717ZM94.0114 23.4717L91.8763 25.5528L92.3798 28.4914C92.4166 28.7037 92.3301 28.9176 92.1557 29.0441C92.0572 29.1156 91.941 29.152 91.8232 29.152C91.7333 29.152 91.6436 29.1304 91.5602 29.0872L88.9212 27.6998L86.2822 29.0872C86.0923 29.1871 85.8615 29.1704 85.6875 29.0441C85.5131 28.9178 85.4265 28.7037 85.4625 28.4914L85.9669 25.5528L83.8318 23.4717C83.6783 23.3215 83.6227 23.097 83.6888 22.8927C83.7548 22.6882 83.9321 22.5391 84.145 22.5081L87.0956 22.0795L88.4152 19.406C88.5099 19.213 88.7069 19.0909 88.9212 19.0909C89.1359 19.0909 89.3333 19.213 89.4284 19.406L90.7481 22.0795L93.6982 22.5081C93.9111 22.5391 94.0873 22.6882 94.1544 22.8927C94.2209 23.097 94.1655 23.3217 94.0114 23.4717Z" fill="#EE2C2F"/>
<path d="M31.9582 23.6123C22.1808 23.6123 16.7696 28.6789 16.8685 38.4416C17.012 51.8127 22.6937 59.9242 31.9582 59.7827C31.9582 59.7827 47.0405 60.3941 47.0405 38.4416C47.0405 28.6789 41.9448 23.6123 31.9582 23.6123Z" fill="white"/>
<path d="M58.6365 69.9317L43.5661 63.9231L40.0372 60.9491C39.1052 60.1616 37.7285 60.2198 36.8635 61.079L31.9575 65.9584L27.0368 61.0777C26.1718 60.2196 24.7968 60.1642 23.8661 60.9491L20.3363 63.9231L5.26589 69.9323C0.412966 71.865 0.417148 89.0515 0 90.6287H63.9095C63.4934 89.0548 63.4913 71.8627 58.6365 69.9317Z" fill="white"/>
</svg>
