<svg width="100" height="100" viewBox="0 0 100 100" fill="none" xmlns="http://www.w3.org/2000/svg">
<g clip-path="url(#clip0_306_2)">
<path d="M11.6666 5C8 5 5 8 5 11.6666C5 15.3332 8 18.3332 11.6666 18.3332C15.3332 18.3332 18.3332 15.3332 18.3332 11.6666C18.3332 8 15.3334 5 11.6666 5ZM11.6666 15C9.8332 15 8.3332 13.5 8.3332 11.6666C8.3332 9.8332 9.8332 8.3332 11.6666 8.3332C13.5 8.3332 15 9.8334 15 11.6666C15 13.4998 13.5 15 11.6666 15Z" fill="#EE2C2F"/>
<path d="M26.6666 5C23 5 20 8 20 11.6666C20 15.3332 23 18.3332 26.6666 18.3332C30.3332 18.3332 33.3332 15.3332 33.3332 11.6666C33.3332 8 30.3334 5 26.6666 5ZM26.6666 15C24.8332 15 23.3332 13.5 23.3332 11.6666C23.3332 9.8332 24.8332 8.3332 26.6666 8.3332C28.5 8.3332 30 9.8332 30 11.6666C30 13.5 28.5 15 26.6666 15Z" fill="#EE2C2F"/>
<path d="M41.6666 5C38 5 35 8 35 11.6666C35 15.3332 38 18.3332 41.6666 18.3332C45.3332 18.3332 48.3332 15.3332 48.3332 11.6666C48.3332 8 45.3334 5 41.6666 5ZM41.6666 15C39.8332 15 38.3332 13.5 38.3332 11.6666C38.3332 9.8332 39.8332 8.3332 41.6666 8.3332C43.5 8.3332 45 9.8332 45 11.6666C45 13.5 43.5 15 41.6666 15Z" fill="#EE2C2F"/>
<path d="M95.3334 0H4.8334C2.1666 0 0 2.1666 0 4.8334V20V23.3334V50V69.6666C0 70.6979 0.275781 71.6504 0.759375 72.4563C0.847266 72.6027 0.942188 72.7445 1.04336 72.8809C1.34727 73.2902 1.70937 73.6523 2.11875 73.9563C2.3916 74.1588 2.68555 74.3355 2.99727 74.4832C3.0752 74.5201 3.1541 74.5551 3.23438 74.5883C3.47461 74.6879 3.72441 74.7707 3.98223 74.8352C4.06816 74.8566 4.15508 74.8762 4.24277 74.8936C4.59375 74.9633 4.9582 74.9996 5.3332 74.9996H30.6832C32.401 81.1279 37.2049 85.9318 43.3332 87.6496V98.333C43.3332 99.333 43.9998 99.9996 44.9998 99.9996H51.6664C52.6664 99.9996 53.333 99.333 53.333 98.333V87.6496C59.4613 85.9318 64.2652 81.1279 65.983 74.9996H94.6664C97.6664 74.9996 99.9998 72.6662 99.9998 69.6662V23.3334V20V4.8334C100 2.1666 97.8334 0 95.3334 0ZM50 88.3334V96.6668H46.6666V88.3334H50V88.3334ZM48.3334 85C41.2539 85 35.3799 80.1875 33.7719 73.6303L33.6668 73C33.5242 72.1449 33.3826 71.2898 33.3443 70.4348C33.3402 70.29 33.3334 70.1459 33.3334 70C33.3334 61.6666 40 55 48.3334 55C49.2482 55 50.1414 55.0848 51.0096 55.2389C53.7256 55.7557 56.2473 56.9666 58.3334 58.8332C61.5 61.6666 63.3334 65.8332 63.3334 69.9998C63.3334 70.1457 63.3266 70.2896 63.3225 70.4346C63.2842 71.2896 63.1426 72.1447 63 72.9998C62.9568 73.1295 62.9369 73.2592 62.9355 73.3861L62.8949 73.6303C61.2867 80.1875 55.4129 85 48.3334 85ZM66.6666 71.6666C66.6666 71.1666 66.6666 70.5 66.6666 70C66.6666 63.0443 62.8436 57.0256 57.173 53.9172C53.9551 52.0957 50.2336 51.3012 46.3332 51.6668C38.1666 52.5002 31.4998 58.6668 30.1666 66.6668C30 68.3334 29.8332 70.0002 30 71.6668H5.3334C4.1668 71.6668 3.3334 70.8334 3.3334 69.6668V50.6668L14.1668 41.0002C15.5002 39.6668 17.5002 39.6668 19.0002 40.8336L32.1668 51.3336C32.6668 51.667 33.0002 51.667 33.5002 51.667C34.0002 51.667 34.3336 51.3336 34.6668 51.0004L47.6668 33.667C47.8334 33.3336 48.1668 33.3336 48.3334 33.3336C48.5 33.3336 48.8334 33.5002 49 33.667L62 51.0004C62.3334 51.3338 62.8334 51.667 63.3334 51.667C63.8334 51.667 64.1668 51.5004 64.8334 51.0004L77.1668 37.3338C77.5002 37.0004 78.1668 36.6672 78.6668 36.6672C79.1668 36.6672 79.8334 37.0006 80.1668 37.3338L96.8334 54.0004V69.667C96.8334 70.8336 96 71.667 94.8334 71.667H66.6666V71.6666ZM96.8334 49.6666L82.1666 35C81.1666 33.8334 79.6666 33.3334 78.1666 33.3334C76.6666 33.3334 75.3332 34 74.3332 35.1668L63.3332 47.3334L51.6666 31.6668C50.8332 30.6668 49.6666 30.0002 48.3332 30.0002C46.9998 30.0002 45.8332 30.6668 44.9998 31.6668L33.1664 47.6668L21.333 38.3334C18.6664 36.1668 14.833 36.1668 12.1664 38.5L3.33301 46.3238V23.3334H96.833V49.6666H96.8334ZM3.3334 20V4.8334C3.3334 4 4 3.3334 4.8334 3.3334H95.1668C96.0002 3.3334 96.6668 4 96.6668 4.8334V20H3.3334Z" fill="white"/>
<path d="M48.3334 60C42.8334 60 38.3334 64.5 38.3334 70C38.3334 71 39 71.6666 40 71.6666C41 71.6666 41.6666 71 41.6666 70C41.6666 66.3334 44.6666 63.3334 48.3332 63.3334C49.3332 63.3334 49.9998 62.6668 49.9998 61.6668C49.9998 60.6668 49.3334 60 48.3334 60Z" fill="white"/>
</g>
<defs>
<clipPath id="clip0_306_2">
<rect width="100" height="100" fill="white"/>
</clipPath>
</defs>
</svg>
