<svg width="100" height="100" viewBox="0 0 100 100" fill="none" xmlns="http://www.w3.org/2000/svg">
<path d="M81.8183 9.09082H33.8614C32.8069 3.91133 28.2159 0 22.7274 0C16.4614 0 11.3638 5.09766 11.3638 11.3637V72.7273C11.3638 73.9842 12.3796 75 13.6364 75C14.8933 75 15.9091 73.9842 15.9091 72.7273V11.3637C15.9091 7.60449 18.9683 4.54551 22.7272 4.54551C26.4864 4.54551 29.5454 7.60469 29.5454 11.3637C29.5454 12.6205 30.5612 13.6363 31.8181 13.6363H81.8181C83.0726 13.6363 84.0907 14.6545 84.0907 15.909V84.0908C84.0907 85.3453 83.0726 86.3635 81.8181 86.3635H34.0909V20.4545C34.0909 19.1977 33.0751 18.1818 31.8183 18.1818C30.5614 18.1818 29.5456 19.1977 29.5456 20.4545V79.6045C27.6411 78.1613 25.2956 77.2727 22.7274 77.2727C16.4616 77.2727 11.3638 82.3703 11.3638 88.6363C11.3638 94.9021 16.4614 100 22.7274 100H56.8183C58.0751 100 59.0909 98.9842 59.0909 97.7273C59.0909 96.4705 58.0751 95.4547 56.8183 95.4547H22.7274C18.9683 95.4547 15.9093 92.3955 15.9093 88.6365C15.9093 84.8773 18.9685 81.8184 22.7274 81.8184C26.4866 81.8184 29.5456 84.8775 29.5456 88.6365C29.5456 89.8934 30.5614 90.9092 31.8183 90.9092H81.8183C85.5774 90.9092 88.6364 87.85 88.6364 84.091V15.9092C88.6364 12.15 85.5774 9.09082 81.8183 9.09082Z" fill="white"/>
<path d="M63.6363 56.8184H40.9091C39.6523 56.8184 38.6365 57.8342 38.6365 59.091C38.6365 60.3479 39.6523 61.3637 40.9091 61.3637H63.6365C64.8933 61.3637 65.9091 60.3479 65.9091 59.091C65.9091 57.8344 64.8931 56.8184 63.6363 56.8184Z" fill="white"/>
<path d="M77.2726 65.9092H59.0908C57.8339 65.9092 56.8181 66.925 56.8181 68.1818C56.8181 69.4387 57.8339 70.4545 59.0908 70.4545H77.2726C78.5294 70.4545 79.5453 69.4387 79.5453 68.1818C79.5455 66.925 78.5294 65.9092 77.2726 65.9092Z" fill="white"/>
<path d="M77.2728 56.8184H72.7272C71.4704 56.8184 70.4546 57.8342 70.4546 59.091C70.4546 60.3479 71.4704 61.3637 72.7272 61.3637H77.2728C78.5296 61.3637 79.5454 60.3479 79.5454 59.091C79.5456 57.8344 78.5296 56.8184 77.2728 56.8184Z" fill="white"/>
<path d="M61.3636 75H40.9091C39.6523 75 38.6365 76.0158 38.6365 77.2727C38.6365 78.5295 39.6523 79.5453 40.9091 79.5453H61.3636C62.6205 79.5453 63.6363 78.5295 63.6363 77.2727C63.6363 76.0158 62.6205 75 61.3636 75Z" fill="white"/>
<path d="M50 65.9092H40.9091C39.6523 65.9092 38.6365 66.925 38.6365 68.1818C38.6365 69.4387 39.6523 70.4545 40.9091 70.4545H50C51.2568 70.4545 52.2726 69.4387 52.2726 68.1818C52.2726 66.925 51.2568 65.9092 50 65.9092Z" fill="white"/>
<path d="M77.2727 75H70.4545C69.1977 75 68.1819 76.0158 68.1819 77.2727C68.1819 78.5295 69.1977 79.5453 70.4545 79.5453H77.2727C78.5295 79.5453 79.5454 78.5295 79.5454 77.2727C79.5456 76.0158 78.5295 75 77.2727 75Z" fill="white"/>
<path d="M63.6364 20.4546C62.3796 20.4546 61.3638 21.4704 61.3638 22.7272V47.7272C61.3638 48.9841 62.3796 49.9999 63.6364 49.9999C64.8933 49.9999 65.9091 48.9841 65.9091 47.7272V22.7272C65.9093 21.4706 64.8933 20.4546 63.6364 20.4546Z" fill="#EE2C2F"/>
<path d="M72.7272 27.2725C71.4704 27.2725 70.4546 28.2883 70.4546 29.5451V47.727C70.4546 48.9838 71.4704 49.9996 72.7272 49.9996C73.9841 49.9996 74.9999 48.9838 74.9999 47.727V29.5451C74.9999 28.2885 73.9841 27.2725 72.7272 27.2725Z" fill="#EE2C2F"/>
<path d="M54.5456 29.5454C53.2888 29.5454 52.2729 30.5612 52.2729 31.8181V47.7272C52.2729 48.9841 53.2888 49.9999 54.5456 49.9999C55.8024 49.9999 56.8183 48.9841 56.8183 47.7272V31.8181C56.8183 30.5612 55.8024 29.5454 54.5456 29.5454Z" fill="white"/>
<path d="M45.4545 36.3638C44.1977 36.3638 43.1819 37.3796 43.1819 38.6364V47.7272C43.1819 48.9841 44.1977 49.9999 45.4545 49.9999C46.7114 49.9999 47.7272 48.9841 47.7272 47.7272V38.6364C47.7274 37.3796 46.7114 36.3638 45.4545 36.3638Z" fill="#EE2C2F"/>
</svg>
