<svg width="100" height="100" viewBox="0 0 100 100" fill="none" xmlns="http://www.w3.org/2000/svg">
<g clip-path="url(#clip0_306_26)">
<path d="M11.6666 5C8 5 5 8 5 11.6666C5 15.3332 8 18.3332 11.6666 18.3332C15.3332 18.3332 18.3332 15.3332 18.3332 11.6666C18.3332 8 15.3334 5 11.6666 5ZM11.6666 15C9.8332 15 8.3332 13.5 8.3332 11.6666C8.3332 9.8332 9.8332 8.3332 11.6666 8.3332C13.5 8.3332 15 9.8334 15 11.6666C15 13.4998 13.5 15 11.6666 15Z" fill="white"/>
<path d="M26.6666 5C23 5 20 8 20 11.6666C20 15.3332 23 18.3332 26.6666 18.3332C30.3332 18.3332 33.3332 15.3332 33.3332 11.6666C33.3332 8 30.3334 5 26.6666 5ZM26.6666 15C24.8332 15 23.3332 13.5 23.3332 11.6666C23.3332 9.8332 24.8332 8.3332 26.6666 8.3332C28.5 8.3332 30 9.8332 30 11.6666C30 13.5 28.5 15 26.6666 15Z" fill="white"/>
<path d="M41.6666 5C38 5 35 8 35 11.6666C35 15.3332 38 18.3332 41.6666 18.3332C45.3332 18.3332 48.3332 15.3332 48.3332 11.6666C48.3332 8 45.3334 5 41.6666 5ZM41.6666 15C39.8332 15 38.3332 13.5 38.3332 11.6666C38.3332 9.8332 39.8332 8.3332 41.6666 8.3332C43.5 8.3332 45 9.8332 45 11.6666C45 13.5 43.5 15 41.6666 15Z" fill="white"/>
<path d="M95.3334 0H4.8334C2.1666 0 0 2.1666 0 4.8334V20V23.3334V94.6668C0 97.6666 2.3334 100 5.3334 100H94.6668C97.6668 100 100 97.6666 100 94.6666V23.3334V20V4.8334C100 2.1666 97.8334 0 95.3334 0ZM96.6666 94.6666C96.6666 95.8332 95.8332 96.6666 94.6666 96.6666H5.3334C4.1668 96.6666 3.3334 95.8332 3.3334 94.6666V23.3334H96.6668V94.6666H96.6666ZM3.3334 20V4.8334C3.3334 4 4 3.3334 4.8334 3.3334H95.1668C96.0002 3.3334 96.6668 4 96.6668 4.8334V20H3.3334Z" fill="white"/>
<path d="M16.6667 68.3333C19.3405 68.3333 21.6844 67.1282 23.2 65.2222L36.9368 72.8536C36.761 73.5364 36.6667 74.2552 36.6667 74.9999C36.6667 79.6665 40.3333 83.3333 45.0001 83.3333C49.6668 83.3333 53.3334 79.6667 53.3334 74.9999C53.3334 72.2759 52.0827 69.894 50.1143 68.3819L57.8372 51.3917C58.5251 51.5704 59.2495 51.6665 60.0001 51.6665C62.1506 51.6665 64.0878 50.8864 65.5526 49.5899C65.5895 49.6163 65.6268 49.6425 65.6668 49.6665L75.6668 56.3331C75.7092 56.3544 75.7518 56.3755 75.7942 56.3964C75.2844 57.4823 75.0001 58.7022 75.0001 59.9999C75.0001 64.6665 78.6667 68.3333 83.3334 68.3333C88.0002 68.3333 91.6669 64.6667 91.6669 59.9999C91.6669 55.3331 88.0002 51.6665 83.3334 51.6665C81.1915 51.6665 79.2618 52.4405 77.7989 53.7274C77.711 53.6438 77.612 53.5669 77.5 53.4997L67.5659 46.8769C68.0583 45.806 68.3334 44.6073 68.3334 43.3329C68.3334 38.6663 64.6668 34.9995 60.0001 34.9995C55.3333 34.9995 51.6667 38.6661 51.6667 43.3329C51.6667 46.0569 52.9174 48.4388 54.8858 49.9509L47.1629 66.9411C46.4751 66.7624 45.7506 66.6663 45.0001 66.6663C42.3262 66.6663 39.9823 67.8714 38.4667 69.7774L24.7299 62.146C24.9057 61.4632 25.0001 60.7444 25.0001 59.9997C25.0001 55.3331 21.3334 51.6663 16.6667 51.6663C12 51.6663 8.33325 55.3329 8.33325 59.9997C8.33325 64.6665 12 68.3333 16.6667 68.3333ZM83.3334 54.9999C86.1668 54.9999 88.3335 57.1665 88.3335 59.9999C88.3335 62.8333 86.1668 64.9999 83.3334 64.9999C80.5 64.9999 78.3335 62.8333 78.3335 59.9999C78.3335 57.1665 80.5 54.9999 83.3334 54.9999ZM60.0001 38.3333C62.8335 38.3333 65 40.4999 65 43.3333C65 46.1667 62.8335 48.3333 60.0001 48.3333C57.1667 48.3333 55.0001 46.1667 55.0001 43.3333C55.0001 40.4999 57.1667 38.3333 60.0001 38.3333ZM45.0001 69.9999C47.8334 69.9999 50.0001 72.1665 50.0001 74.9999C50.0001 77.8333 47.8334 79.9999 45.0001 79.9999C42.1667 79.9999 40.0001 77.8333 40.0001 74.9999C40.0001 72.1665 42.1667 69.9999 45.0001 69.9999ZM16.6667 54.9999C19.5 54.9999 21.6667 57.1665 21.6667 59.9999C21.6667 62.8333 19.5 64.9999 16.6667 64.9999C13.8333 64.9999 11.6667 62.8333 11.6667 59.9999C11.6667 57.1665 13.8334 54.9999 16.6667 54.9999Z" fill="#EE2C2F"/>
</g>
<defs>
<clipPath id="clip0_306_26">
<rect width="100" height="100" fill="white"/>
</clipPath>
</defs>
</svg>
