<svg width="25" height="19" viewBox="0 0 25 19" fill="none" xmlns="http://www.w3.org/2000/svg">
<path d="M0 18.1084V0.294304C0 0.17312 0.0519361 0.103872 0.17312 0.103872C0.467425 0.103872 0.744417 0.103872 1.14259 0.0865601C1.55808 0.0692481 1.99088 0.0692479 2.45831 0.0519359C2.92573 0.0346239 3.42778 0.0346238 3.96445 0.0173118C4.50113 -2.64762e-07 5.02049 0 5.53985 0C6.95943 0 8.13665 0.17312 9.10612 0.536672C9.97172 0.830977 10.7681 1.31571 11.4259 1.95626C11.9799 2.51024 12.4127 3.18541 12.6897 3.92983C12.9494 4.65693 13.0879 5.40135 13.0879 6.18039C13.0879 7.66922 12.7416 8.89838 12.0492 9.86785C11.3567 10.8373 10.3872 11.5644 9.26193 11.9799C8.08471 12.4127 6.78631 12.5685 5.36673 12.5685C4.95124 12.5685 4.67425 12.5685 4.50112 12.5512C4.328 12.5339 4.08564 12.5339 3.75671 12.5339V18.0911C3.77402 18.2122 3.68746 18.3161 3.56628 18.3334H0.207744C0.0692482 18.3334 0 18.2642 0 18.1084ZM3.77402 3.44509V9.26193C4.01639 9.27924 4.24144 9.29655 4.44919 9.29655H5.36673C6.04189 9.29655 6.71706 9.19268 7.35761 8.98494C7.91159 8.82913 8.39633 8.5002 8.77719 8.0674C9.14075 7.6346 9.31387 7.04599 9.31387 6.28426C9.33118 5.74759 9.19268 5.21092 8.91569 4.74349C8.62139 4.29338 8.2059 3.94714 7.70385 3.75671C7.0633 3.49703 6.37082 3.39316 5.66103 3.41047C5.21092 3.41047 4.81274 3.41047 4.48381 3.42778C4.13757 3.41047 3.8952 3.42778 3.77402 3.44509ZM23.8906 8.2059C23.3712 7.92891 22.8172 7.73847 22.2286 7.61729C21.5881 7.47879 20.9475 7.39223 20.2897 7.39223C19.9434 7.37492 19.5799 7.42686 19.251 7.51342C19.0259 7.56535 18.8355 7.68654 18.7143 7.85966C18.6277 7.99815 18.5758 8.17127 18.5758 8.32708C18.5758 8.48289 18.645 8.6387 18.7489 8.77719C18.9047 8.96763 19.1125 9.12344 19.3375 9.24462C19.7357 9.45236 20.1512 9.6428 20.5667 9.81592C21.5015 10.1275 22.4018 10.5603 23.2327 11.0797C23.804 11.4432 24.2715 11.928 24.6004 12.5166C24.8774 13.0706 25.0159 13.6765 24.9986 14.2997C25.0159 15.1134 24.7735 15.9271 24.3234 16.6022C23.8387 17.2947 23.1635 17.8314 22.3844 18.143C21.5362 18.5066 20.4974 18.697 19.251 18.697C18.4546 18.697 17.6756 18.6277 16.8965 18.4719C16.2906 18.3681 15.6847 18.1776 15.1307 17.9179C15.0095 17.8487 14.923 17.7275 14.9403 17.589V14.5767C14.9403 14.5248 14.9576 14.4555 15.0095 14.4209C15.0615 14.3863 15.1134 14.4036 15.1653 14.4382C15.8405 14.8364 16.5503 15.1134 17.312 15.2865C17.9699 15.4596 18.6624 15.5462 19.3548 15.5462C20.0127 15.5462 20.4801 15.4596 20.7917 15.3038C21.0687 15.1826 21.2592 14.8883 21.2592 14.5767C21.2592 14.3344 21.1207 14.1093 20.8437 13.8842C20.5667 13.6592 19.9954 13.3995 19.1471 13.0706C18.2642 12.759 17.4505 12.3435 16.6888 11.8241C16.1521 11.4432 15.702 10.9412 15.3731 10.3526C15.0961 9.7986 14.9576 9.19268 14.9749 8.58676C14.9749 7.84234 15.1826 7.13255 15.5635 6.49201C15.9963 5.79953 16.6368 5.24554 17.3813 4.8993C18.1949 4.48381 19.2163 4.29338 20.4455 4.29338C21.1553 4.29338 21.8824 4.34532 22.5922 4.44919C23.1115 4.51844 23.6136 4.65693 24.081 4.84737C24.1503 4.86468 24.2195 4.93393 24.2541 5.00317C24.2715 5.07242 24.2888 5.14167 24.2888 5.21092V8.03278C24.2888 8.10203 24.2541 8.17127 24.2022 8.2059C24.0464 8.24052 23.9598 8.24052 23.8906 8.2059Z" fill="#31A8FF"/>
</svg>
