<svg width="30" height="25" viewBox="0 0 30 25" fill="none" xmlns="http://www.w3.org/2000/svg">
<path d="M14.5947 19.2745H6.45609L4.79336 24.4158C4.7496 24.6127 4.57458 24.744 4.37768 24.7221H0.264626C0.0239682 24.7221 -0.0416653 24.5908 0.0239685 24.3283L7.06867 4.04742C7.1343 3.82864 7.19994 3.58798 7.28745 3.32545C7.37496 2.86601 7.41871 2.3847 7.41871 1.90338C7.39684 1.79399 7.48435 1.6846 7.59374 1.66272H13.2601C13.4352 1.66272 13.5227 1.72836 13.5445 1.83775L21.53 24.372C21.5956 24.6127 21.53 24.7221 21.3112 24.7221H16.7387C16.5856 24.744 16.4324 24.6346 16.3887 24.4814L14.5947 19.2745ZM7.72501 14.8332H13.282C13.1507 14.3738 12.9757 13.8269 12.7788 13.258C12.5819 12.6673 12.385 12.0329 12.1881 11.3765C11.9693 10.6983 11.7724 10.042 11.5536 9.36376C11.3349 8.68554 11.138 8.05109 10.9629 7.41663C10.7879 6.80404 10.6348 6.23522 10.4816 5.71014H10.4379C10.241 6.6509 10.0003 7.59165 9.69402 8.5324C9.36585 9.58254 9.03768 10.6764 8.68764 11.7703C8.38134 12.8861 8.05318 13.9144 7.72501 14.8332ZM26.4088 5.49136C25.6868 5.51324 24.9867 5.22883 24.4616 4.72564C23.9584 4.17869 23.6959 3.45672 23.7178 2.71287C23.6959 1.96902 23.9803 1.26892 24.5054 0.765728C25.0305 0.262535 25.7306 0 26.4525 0C27.3058 0 27.9621 0.262535 28.4434 0.765728C28.9247 1.2908 29.1873 1.99089 29.1654 2.71287C29.1873 3.45672 28.9247 4.17869 28.3997 4.72564C27.8965 5.25071 27.1526 5.53512 26.4088 5.49136ZM23.9584 24.4814V7.6354C23.9584 7.41663 24.046 7.32911 24.2429 7.32911H28.5747C28.7716 7.32911 28.8591 7.4385 28.8591 7.6354V24.4814C28.8591 24.7221 28.7716 24.8315 28.5747 24.8315H24.2866C24.0678 24.8315 23.9584 24.7002 23.9584 24.4814V24.4814Z" fill="#FF9A00"/>
</svg>
