<svg width="31" height="21" viewBox="0 0 31 21" fill="none" xmlns="http://www.w3.org/2000/svg">
<path d="M16.243 1.81863L10.9022 10.6309L16.599 19.9773C16.6346 20.0485 16.6524 20.1197 16.6346 20.1909C16.6168 20.2621 16.5456 20.2087 16.4388 20.2265H12.362C12.0772 20.2265 11.8813 20.2087 11.7567 20.0307C11.3829 19.283 10.9912 18.5531 10.6173 17.8054C10.2435 17.0755 9.83403 16.3278 9.40677 15.5623C8.9795 14.7967 8.55224 14.0312 8.12498 13.2479H8.08937C7.71552 14.0134 7.30606 14.7789 6.8966 15.5445C6.48714 16.31 6.07768 17.0755 5.68602 17.8232C5.27656 18.5709 4.8671 19.3364 4.45764 20.0663C4.38643 20.2443 4.24401 20.2621 4.04818 20.2621H0.131602C0.060392 20.2621 0.00698403 20.2978 0.00698403 20.2087C-0.0108186 20.1375 0.00698416 20.0663 0.0425894 20.0129L5.5792 10.9336L0.18501 1.80083C0.131602 1.72962 0.1138 1.65841 0.149405 1.62281C0.18501 1.5694 0.256221 1.55159 0.327431 1.55159H4.36863C4.45764 1.55159 4.54665 1.5694 4.61786 1.5872C4.68907 1.62281 4.74248 1.67621 4.79589 1.74742C5.13414 2.51294 5.5258 3.27845 5.93526 4.04396C6.36252 4.80947 6.77198 5.55718 7.21704 6.30489C7.64431 7.0526 8.03596 7.80031 8.40982 8.56583H8.44542C8.81928 7.78251 9.21094 7.017 9.60259 6.26929C9.99425 5.52158 10.4037 4.77387 10.8132 4.02616C11.2226 3.27845 11.6143 2.51294 12.0059 1.78303C12.0238 1.71182 12.0594 1.64061 12.1128 1.605C12.184 1.5694 12.2552 1.55159 12.3442 1.5694H16.1006C16.1896 1.55159 16.2786 1.605 16.2964 1.69402C16.3142 1.71182 16.2786 1.78303 16.243 1.81863V1.81863ZM24.4678 20.6004C23.1504 20.6182 21.833 20.3512 20.6402 19.7993C19.5187 19.283 18.5929 18.4285 17.952 17.3781C17.2933 16.2922 16.9729 14.9392 16.9729 13.3191C16.9551 12.0017 17.2933 10.7021 17.952 9.56277C18.6285 8.4056 19.6077 7.44426 20.7826 6.80337C22.0288 6.10906 23.5242 5.77081 25.2867 5.77081C25.3757 5.77081 25.5003 5.77082 25.6606 5.78862C25.8208 5.80642 25.9988 5.80642 26.2124 5.82422V0.198596C26.2124 0.0739777 26.2658 0.00276683 26.3905 0.00276683H30.0044C30.0934 -0.0150358 30.1646 0.0561748 30.1824 0.127385V17.1111C30.1824 17.4315 30.2002 17.7876 30.218 18.1792C30.2536 18.5531 30.2714 18.9091 30.2892 19.2118C30.2892 19.3364 30.2358 19.4432 30.1112 19.4966C29.1855 19.8883 28.2063 20.1731 27.2094 20.3512C26.3014 20.5114 25.3935 20.6004 24.4678 20.6004V20.6004ZM26.2124 17.0399V9.20672C26.0522 9.17111 25.892 9.13551 25.7318 9.11771C25.5359 9.0999 25.3401 9.0821 25.1443 9.0821C24.45 9.0821 23.7557 9.22452 23.1326 9.54497C22.5273 9.84761 22.011 10.2927 21.6194 10.8624C21.2277 11.432 21.0319 12.1976 21.0319 13.1233C21.0141 13.7464 21.1209 14.3695 21.3345 14.957C21.5125 15.4376 21.7796 15.8649 22.1356 16.221C22.4739 16.5414 22.8833 16.7906 23.3462 16.9331C23.8269 17.0933 24.3254 17.1645 24.8238 17.1645C25.0909 17.1645 25.3401 17.1467 25.5715 17.1289C25.803 17.1467 25.9988 17.1111 26.2124 17.0399V17.0399Z" fill="#FF61F6"/>
</svg>
