<svg width="30" height="28" viewBox="0 0 30 28" fill="none" xmlns="http://www.w3.org/2000/svg">
<g clip-path="url(#clip0_279_742)">
<path fill-rule="evenodd" clip-rule="evenodd" d="M6.09563 9.75757L14.9687 27.1248L0.0546875 9.75757H6.09563Z" fill="#EA6C00"/>
<path fill-rule="evenodd" clip-rule="evenodd" d="M23.8443 9.75757L14.9712 27.1248L29.8853 9.75757H23.8443Z" fill="#EA6C00"/>
<path fill-rule="evenodd" clip-rule="evenodd" d="M6.09521 9.75757H23.8413L14.9683 27.1248L6.09521 9.75757Z" fill="#FDAD00"/>
<path fill-rule="evenodd" clip-rule="evenodd" d="M14.9683 0.132568L6.56223 1.02114L6.09521 9.75748L14.9683 0.132568Z" fill="#FDD231"/>
<path fill-rule="evenodd" clip-rule="evenodd" d="M14.9682 0.132568L23.3743 1.02114L23.8413 9.75748L14.9682 0.132568Z" fill="#FDD231"/>
<path fill-rule="evenodd" clip-rule="evenodd" d="M29.8853 9.75758L23.3773 1.02124L23.8443 9.75758H29.8853Z" fill="#FDAD00"/>
<path fill-rule="evenodd" clip-rule="evenodd" d="M0.0546875 9.75758L6.56265 1.02124L6.09563 9.75758H0.0546875Z" fill="#FDAD00"/>
<path fill-rule="evenodd" clip-rule="evenodd" d="M14.9683 0.132568L6.09521 9.75748H23.8413L14.9683 0.132568Z" fill="#FEEEB7"/>
</g>
<defs>
<clipPath id="clip0_279_742">
<rect width="30" height="27.156" fill="white"/>
</clipPath>
</defs>
</svg>
