<svg width="63" height="50" viewBox="0 0 63 50" fill="none" xmlns="http://www.w3.org/2000/svg">
<path d="M7.626 42.7075C6.16653 42.7075 5.18445 43.8533 5.18445 45.3264C5.18445 46.7995 6.16653 47.9453 7.626 47.9453C9.08548 47.9453 10.0676 46.7995 10.0676 45.3264C10.0539 43.8533 9.07184 42.7075 7.626 42.7075ZM7.29864 41.0843C8.47168 41.0843 9.45376 41.6845 9.91752 42.3392V41.248H11.718V49.4184H10.3267C10.2183 49.4181 10.1144 49.3748 10.0377 49.2982C9.96106 49.2215 9.91785 49.1176 9.91752 49.0092V48.3272C9.45376 48.9819 8.48532 49.5821 7.29864 49.5821C5.06169 49.5821 3.35669 47.6725 3.35669 45.34C3.35669 43.0076 5.04805 41.0843 7.29864 41.0843ZM13.764 41.248H15.5645V42.3529C16.0555 41.5345 16.983 41.0843 18.047 41.0843C19.9429 41.0843 21.1705 42.4211 21.1705 44.4943V49.4184H19.7929C19.6844 49.4181 19.5805 49.3748 19.5039 49.2982C19.4272 49.2215 19.384 49.1176 19.3837 49.0092V44.7944C19.3837 43.4986 18.7289 42.7211 17.6787 42.7211C16.492 42.7211 15.5645 43.6487 15.5645 45.3946V49.4184H14.1868C14.0784 49.4181 13.9745 49.3748 13.8978 49.2982C13.8212 49.2215 13.778 49.1176 13.7776 49.0092L13.764 41.248ZM26.8447 42.7075C25.3853 42.7075 24.4032 43.8533 24.4032 45.3264C24.4032 46.7995 25.3853 47.9453 26.8447 47.9453C28.3042 47.9453 29.2863 46.7995 29.2863 45.3264C29.2863 43.8533 28.3042 42.7075 26.8447 42.7075ZM26.5174 41.0843C27.6904 41.0843 28.6725 41.6845 29.1363 42.3392V37.156H30.9367V49.4184H29.5591C29.4507 49.4181 29.3468 49.3748 29.2701 49.2982C29.1934 49.2215 29.1502 49.1176 29.1499 49.0092V48.3272C28.6861 48.9819 27.7177 49.5821 26.531 49.5821C24.2941 49.5821 22.5891 47.6725 22.5891 45.34C22.5891 43.0076 24.2804 41.0843 26.5174 41.0843ZM32.9827 41.248H34.7832V42.7075C34.9413 42.2608 35.2328 41.8734 35.6183 41.5978C36.0037 41.3221 36.4645 41.1715 36.9383 41.1662C37.1721 41.1618 37.4055 41.1847 37.634 41.2344V43.0758C37.3437 42.9785 37.0399 42.9279 36.7337 42.9257C35.7107 42.9257 34.7696 43.7987 34.7696 45.4219V49.4047H33.3919C33.2835 49.4044 33.1796 49.3612 33.1029 49.2845C33.0263 49.2079 32.9831 49.104 32.9827 48.9955V41.248ZM42.4762 47.9043C43.9084 47.9043 44.9314 46.7722 44.9314 45.3264C44.9314 43.8669 43.922 42.7484 42.4762 42.7484C41.0167 42.7484 40.0073 43.8805 40.0073 45.3264C40.021 46.7859 41.0167 47.9043 42.4762 47.9043ZM42.4762 49.5821C41.637 49.5753 40.8186 49.3203 40.1242 48.849C39.4297 48.3778 38.8904 47.7114 38.5743 46.9341C38.2581 46.1567 38.1792 45.3031 38.3475 44.4809C38.5158 43.6588 38.9238 42.9049 39.5201 42.3143C40.1164 41.7238 40.8741 41.323 41.6979 41.1626C42.5216 41.0021 43.3744 41.0892 44.1487 41.4129C44.923 41.7365 45.5841 42.2822 46.0487 42.9811C46.5133 43.68 46.7605 44.5008 46.7591 45.34C46.7619 45.9013 46.6528 46.4576 46.438 46.9762C46.2233 47.4948 45.9072 47.9654 45.5084 48.3604C45.1096 48.7554 44.636 49.0669 44.1154 49.2767C43.5947 49.4864 43.0374 49.5903 42.4762 49.5821ZM48.2186 41.248H50.0191V49.4184H48.6414C48.533 49.4181 48.4291 49.3748 48.3524 49.2982C48.2758 49.2215 48.2326 49.1176 48.2322 49.0092L48.2186 41.248ZM49.1188 39.4612C48.7978 39.4582 48.4908 39.3293 48.2638 39.1023C48.0368 38.8753 47.9079 38.5683 47.9049 38.2472C47.9113 37.9298 48.0421 37.6276 48.2692 37.4056C48.4962 37.1837 48.8013 37.0598 49.1188 37.0606C49.4372 37.0606 49.7425 37.187 49.9676 37.4121C50.1927 37.6372 50.3192 37.9425 50.3192 38.2609C50.3192 38.5792 50.1927 38.8845 49.9676 39.1096C49.7425 39.3347 49.4372 39.4612 49.1188 39.4612ZM55.7615 42.7075C54.302 42.7075 53.32 43.8533 53.32 45.3264C53.32 46.7995 54.302 47.9453 55.7615 47.9453C57.221 47.9453 58.2031 46.7995 58.2031 45.3264C58.1758 43.8533 57.221 42.7075 55.7615 42.7075ZM55.4342 41.0843C56.6072 41.0843 57.5893 41.6845 58.053 42.3392V37.156H59.8535V49.4184H58.4759C58.3674 49.4181 58.2635 49.3748 58.1869 49.2982C58.1102 49.2215 58.067 49.1176 58.0667 49.0092V48.3272C57.6029 48.9819 56.6345 49.5821 55.4478 49.5821C53.2108 49.5821 51.5058 47.6725 51.5058 45.34C51.5058 43.0076 53.1972 41.0843 55.4342 41.0843Z" fill="white"/>
<path d="M45.4497 9.73964L50.1555 1.59657C50.2817 1.37251 50.3145 1.10777 50.2469 0.859657C50.1794 0.611546 50.0168 0.400033 49.7944 0.270909C49.572 0.141785 49.3077 0.105442 49.0588 0.169747C48.8098 0.234053 48.5961 0.393832 48.4641 0.614494L43.7038 8.85304C39.9039 7.14473 35.785 6.26145 31.6187 6.26145C27.4525 6.26145 23.3336 7.14473 19.5337 8.85304L14.7734 0.614494C14.6413 0.393832 14.4277 0.234053 14.1787 0.169747C13.9297 0.105442 13.6654 0.141785 13.4431 0.270909C13.2207 0.400033 13.0581 0.611546 12.9905 0.859657C12.9229 1.10777 12.9558 1.37251 13.082 1.59657L17.7878 9.73964C9.672 14.1317 4.16145 22.3021 3.35669 31.9455H59.8262C59.0215 22.3021 53.4973 14.1317 45.4497 9.73964ZM18.6062 23.8979C18.1422 23.8979 17.6886 23.7603 17.3028 23.5026C16.917 23.2448 16.6163 22.8784 16.4387 22.4497C16.2611 22.021 16.2147 21.5493 16.3052 21.0942C16.3957 20.6391 16.6192 20.221 16.9473 19.8929C17.2754 19.5648 17.6934 19.3414 18.1485 19.2509C18.6036 19.1603 19.0753 19.2068 19.504 19.3844C19.9327 19.5619 20.2991 19.8626 20.5569 20.2485C20.8147 20.6343 20.9523 21.0879 20.9523 21.5519C20.9523 22.1741 20.7051 22.7708 20.2651 23.2108C19.8251 23.6508 19.2284 23.8979 18.6062 23.8979ZM44.604 23.8979C44.14 23.8979 43.6864 23.7603 43.3006 23.5026C42.9148 23.2448 42.6141 22.8784 42.4365 22.4497C42.2589 22.021 42.2125 21.5493 42.303 21.0942C42.3935 20.6391 42.617 20.221 42.9451 19.8929C43.2732 19.5648 43.6912 19.3414 44.1463 19.2509C44.6014 19.1603 45.0731 19.2068 45.5018 19.3844C45.9305 19.5619 46.2969 19.8626 46.5547 20.2485C46.8125 20.6343 46.9501 21.0879 46.9501 21.5519C46.9501 22.1741 46.7029 22.7708 46.2629 23.2108C45.8229 23.6508 45.2262 23.8979 44.604 23.8979Z" fill="#3DDC84"/>
</svg>
