<svg width="81" height="80" viewBox="0 0 81 80" fill="none" xmlns="http://www.w3.org/2000/svg">
<path d="M40.5 71.9716C41.1245 71.9716 41.7354 71.7184 42.1762 71.2758C42.6169 70.835 42.872 70.2241 42.872 69.5996C42.872 68.975 42.6172 68.3622 42.1762 67.9214C41.7354 67.4806 41.1245 67.2275 40.5 67.2275C39.8754 67.2275 39.2626 67.4803 38.8222 67.9214C38.3814 68.3641 38.1279 68.975 38.1279 69.5996C38.1279 70.2241 38.3811 70.835 38.8222 71.2758C39.2626 71.7184 39.8754 71.9716 40.5 71.9716Z" fill="white"/>
<path d="M59.0967 0H21.9033C17.9385 0 14.7124 3.22549 14.7124 7.19046V72.8092C14.7124 76.7741 17.9383 80 21.9033 80H59.0967C63.0621 80 66.2876 76.7741 66.2876 72.8092V7.19046C66.2876 3.22549 63.0621 0 59.0967 0ZM61.5436 72.8092C61.5436 74.1584 60.446 75.2561 59.0967 75.2561H21.9033C20.554 75.2561 19.4563 74.1584 19.4563 72.8092V64.6222H61.5435V72.8092H61.5436ZM61.5436 59.8783H19.4563V7.19046C19.4563 5.84157 20.554 4.74353 21.9033 4.74353H59.0967C60.446 4.74353 61.5436 5.84157 61.5436 7.19046V59.8783Z" fill="white"/>
<path d="M40.5 7.12402H29.0278C25.0628 7.12402 21.8369 10.3499 21.8369 14.3149V52.9306C21.8369 54.2405 22.899 55.3026 24.2089 55.3026C25.5189 55.3026 26.581 54.2405 26.581 52.9306V14.3149C26.581 12.9656 27.6786 11.8679 29.0279 11.8679H40.5C41.81 11.8679 42.8721 10.8062 42.8721 9.49592C42.8721 8.18611 41.81 7.12402 40.5 7.12402Z" fill="#EE2C2F"/>
</svg>
