<svg width="43" height="50" viewBox="0 0 43 50" fill="none" xmlns="http://www.w3.org/2000/svg">
<g clip-path="url(#clip0_224_292)">
<path d="M3.03488 47.2484C2.17906 47.2484 1.93024 46.7501 1.93024 46.0035C1.93024 45.7546 1.96149 45.4739 1.99997 45.1782C2.18745 43.8871 2.64512 43.1484 3.74975 43.1484C4.49686 43.1484 4.86113 43.4826 4.86113 44.0894V44.3852H5.60232C5.61054 44.3852 5.61054 44.1129 5.61054 44.0509C5.61054 43.1642 5.0736 42.3232 3.75091 42.3232C1.9536 42.3232 1.21454 43.2995 0.942211 45.2136C0.903235 45.4705 0.879883 45.7102 0.879883 45.9661C0.879883 47.0943 1.32374 48.1205 2.91071 48.1205C4.11648 48.1205 4.83268 47.5325 5.25253 46.809L4.54439 46.332C4.08557 47.0558 3.58727 47.2484 3.03488 47.2484ZM7.89775 43.685C6.45813 43.685 5.83617 44.4237 5.62616 45.8939C5.60151 46.0641 5.58832 46.2357 5.5867 46.4077C5.5867 47.3566 6.03023 48.1117 7.25918 48.1117C8.69881 48.1117 9.32915 47.3413 9.53916 45.8939C9.56251 45.7074 9.57814 45.5363 9.57814 45.3652C9.57847 44.4007 9.11964 43.685 7.89775 43.685ZM8.49686 45.8944C8.34112 46.9606 8.00695 47.2873 7.37627 47.2873C6.87091 47.2873 6.62209 47.0772 6.62209 46.447C6.62209 46.2913 6.63788 46.1048 6.6688 45.8944C6.82453 44.8365 7.13568 44.5097 7.77359 44.5097C8.28718 44.5097 8.54356 44.7197 8.54356 45.3577C8.54356 45.5132 8.52778 45.6923 8.49686 45.8944ZM13.1969 42.4005L12.956 43.8287C12.9405 43.9529 12.9484 43.9116 12.9955 44.0284C12.7698 43.8573 12.365 43.7442 12.0926 43.7442C10.801 43.7442 10.0777 44.3288 9.84455 45.9627C9.81732 46.1351 9.80429 46.3096 9.80558 46.4842C9.80558 47.675 10.5057 48.1188 11.4468 48.1188C11.8441 48.1188 12.2329 48.127 12.536 47.8707L12.6134 48.3546H13.3606L14.2318 42.4005H13.1969ZM12.4579 47.0614C12.1081 47.2709 11.766 47.3183 11.556 47.3183C10.988 47.3183 10.8324 47.0224 10.8324 46.5481C10.8324 46.369 10.8558 46.1595 10.8872 45.9332C11.0658 44.6964 11.4628 44.4782 11.9764 44.4782C12.3105 44.4782 12.5671 44.5329 12.8088 44.6655L12.4579 47.0614ZM16.5039 43.685C15.0798 43.685 14.4112 44.3614 14.1853 45.8939C14.1616 46.0809 14.146 46.26 14.146 46.431C14.146 47.4814 14.6831 48.1117 15.8652 48.1117C16.7833 48.1117 17.4686 47.7302 17.834 47.03L17.0481 46.7109C16.8228 47.053 16.5194 47.2865 15.9824 47.2865C15.4068 47.2865 15.1733 47.1316 15.1733 46.618C15.1733 46.5167 15.1812 46.3695 15.1968 46.3695H18.005C18.0445 45.9725 18.0906 45.692 18.0906 45.4593C18.0906 44.6817 17.7952 43.685 16.5039 43.685ZM17.0405 45.576H15.3289C15.5004 45.1791 15.7877 44.5647 16.3793 44.5647C16.8381 44.5647 17.064 44.8329 17.064 45.2919C17.0635 45.3697 17.0565 45.576 17.0405 45.576ZM21.0846 43.5913L21.1778 42.7974H18.9835L18.8906 43.5913H19.4662L18.8442 47.5607H18.2678L18.1751 48.3546H20.3689L20.4626 47.5607H19.8866L20.5087 43.5913H21.0846ZM25.5429 44.7821L25.8233 43.9883H25.0686L24.5245 44.1006C24.2209 43.9065 23.8084 43.7608 23.4198 43.7608C22.3068 43.7608 21.3581 44.2982 21.3581 45.52C21.3581 45.8627 21.4824 46.1393 21.6299 46.3263C21.3971 46.4504 21.1946 46.6585 21.1946 46.939C21.1946 47.0634 21.241 47.1906 21.3347 47.3071C20.8675 47.5876 20.5805 48.0525 20.5805 48.5967C20.5805 49.6476 21.6773 49.8717 22.5175 49.8717C23.5754 49.8717 24.8361 49.63 24.8361 48.2839C24.8361 47.8251 24.5483 47.4666 23.7158 47.311L22.2144 47.0305C22.0434 46.9991 22.0044 46.9446 22.0044 46.8668C22.0044 46.7501 22.0751 46.6882 22.1912 46.6882L22.2925 46.7037C22.4948 46.7502 22.7283 46.7739 22.9692 46.7739C24.051 46.7739 25.0155 46.3069 25.0155 45.0932C25.0155 44.9219 24.9846 44.8059 24.9068 44.6189C25.0389 44.6814 25.2104 44.7826 25.2798 44.7826H25.5429V44.7821ZM23.4039 48.0026C23.6992 48.0573 23.8002 48.166 23.8002 48.3606C23.8002 48.9909 23.1233 49.0687 22.6334 49.0687C21.8865 49.0687 21.6066 48.8901 21.6066 48.4928C21.6066 48.1425 21.7074 47.9795 21.9412 47.7302L23.4039 48.0026ZM23.0843 45.9646C22.6331 45.9646 22.3841 45.8015 22.3841 45.4121C22.3841 44.8365 22.7188 44.5018 23.3022 44.5018C23.7691 44.5018 23.9949 44.6964 23.9949 45.0771C23.9949 45.653 23.6678 45.9646 23.0843 45.9646ZM28.3069 43.685C27.8711 43.685 27.4825 43.8988 26.9998 44.2797L26.9299 43.9883H26.0738L25.4748 48.3545H26.5096L26.961 45.0434C27.2646 44.8567 27.6377 44.5857 27.9568 44.5857C28.3455 44.5857 28.486 44.7733 28.486 45.131C28.486 45.2167 28.4777 45.4705 28.4621 45.5637L28.0814 48.3545H29.1163L29.497 45.541C29.5128 45.4095 29.5283 45.1925 29.5283 45.0684C29.5288 44.3283 29.1782 43.685 28.3069 43.685ZM31.494 47.2607L31.5019 47.1538L31.9528 43.9883H30.2333L30.1249 44.7821H30.8791C30.8168 44.7821 30.778 44.8516 30.7704 44.9143L30.4591 47.0226C30.4436 47.124 30.4361 47.3352 30.4361 47.4202C30.4361 47.9647 30.7314 48.3546 31.3379 48.3546H31.8671L31.9839 47.5607H31.6496C31.5325 47.5607 31.494 47.354 31.494 47.2607ZM32.1628 42.4005H31.1514C31.0891 42.4005 31.0891 42.1714 31.0815 42.2492L30.9411 43.3678C30.933 43.4382 30.933 43.5914 30.9954 43.5914H32.0072C32.0696 43.5914 32.0696 43.3194 32.0771 43.2487L32.2176 42.3853C32.2255 42.3075 32.2255 42.4005 32.1628 42.4005ZM34.2729 47.2872C34.0165 47.2872 33.8919 47.1782 33.8919 46.9451L33.8998 46.9292L34.2265 44.7821H35.409L35.7666 43.9883H34.3352L34.5762 42.2413L33.4875 42.5894L33.2926 43.9883H32.6626L32.5539 44.7821H33.285C33.2151 45.1791 33.1449 44.9215 33.1374 44.9996L32.8571 46.8823C32.8417 46.9681 32.8417 47.0303 32.8417 47.1078C32.8417 47.847 33.3862 48.1236 34.0404 48.1236C34.6469 48.1236 35.1371 47.9465 35.5186 47.6269L35.036 47.0333C34.7942 47.1808 34.6311 47.2872 34.2729 47.2872ZM38.0696 43.685C36.646 43.685 35.977 44.3614 35.7512 45.8939C35.7278 46.0809 35.7122 46.26 35.7122 46.431C35.7122 47.4814 36.249 48.1117 37.4314 48.1117C38.3495 48.1117 39.0348 47.7302 39.3999 47.03L38.6143 46.7109C38.389 47.053 38.0853 47.2865 37.5482 47.2865C36.9729 47.2865 36.739 47.1316 36.739 46.618C36.739 46.5167 36.7474 46.3695 36.7631 46.3695H39.5714C39.6102 45.9725 39.6569 45.692 39.6569 45.4593C39.6569 44.6817 39.3614 43.685 38.0696 43.685ZM38.6067 45.576H36.8951C37.0661 45.1791 37.3536 44.5647 37.9455 44.5647C38.4043 44.5647 38.6303 44.8329 38.6303 45.2919C38.6298 45.3697 38.6222 45.576 38.6067 45.576ZM42.5202 43.6848C42.1468 43.6848 41.7966 43.8989 41.4464 44.2328L41.3842 43.9883H40.5287L39.9294 48.3545H40.9721L41.4309 44.9733C41.7034 44.8104 42.0145 44.6711 42.3102 44.6711C42.4972 44.6711 42.6758 44.6413 42.8468 44.6645L42.9799 43.7625C42.8235 43.7314 42.6679 43.6848 42.5202 43.6848ZM16.0984 39.2731C13.7434 38.2551 11.5397 35.6679 11.5345 33.0207C11.5281 30.1346 13.3571 27.6842 15.632 26.0739C15.3585 27.1071 15.2093 28.0522 15.8869 28.9765C16.5167 29.8357 17.6199 30.2533 18.6615 30.0267C21.0954 29.4938 21.2071 26.8182 19.7642 25.2593C18.3376 23.7156 16.9575 21.9719 17.5005 19.7332C17.7723 18.611 18.4614 17.5598 19.3343 16.8084C18.6633 18.5717 20.57 20.3106 21.8263 21.1768C24.0054 22.6796 26.3964 23.8153 28.4001 25.5769C30.5078 27.4283 32.0641 29.9316 31.7499 32.835C31.4093 35.982 28.9086 38.1707 26.1037 39.2757C32.0309 37.9675 38.1553 33.3672 38.2808 26.7937C38.3847 21.3856 34.6748 17.2237 30.0792 14.8409L29.8391 14.7098C29.9652 15.0159 30.0065 15.2762 30.0017 15.5092C30.0428 15.3374 30.0708 15.1608 30.0787 14.9786C30.0776 15.195 30.0493 15.4105 29.9945 15.6199L30.0017 15.5092C29.9335 15.7964 29.8185 16.0703 29.6615 16.3202L29.7289 16.2476C28.8121 17.7683 26.33 18.0986 25.1038 16.5239C23.1327 13.991 25.1451 11.2601 25.4266 8.57788C25.7791 5.21629 23.6709 1.95288 21.0571 0C22.4968 2.32882 20.6001 5.40985 19.0827 7.13233C17.6113 8.80202 15.8219 10.1961 14.1976 11.7132C12.4528 13.3426 10.7754 15.059 9.34116 16.9714C6.47277 20.7992 4.71674 25.6134 6.0072 30.3888C7.29684 35.1609 11.4305 38.1987 16.0985 39.2729L16.0984 39.2731Z" fill="#EE4323"/>
</g>
<defs>
<clipPath id="clip0_224_292">
<rect width="42.1" height="50" fill="white" transform="translate(0.879883)"/>
</clipPath>
</defs>
</svg>
