<svg width="81" height="80" viewBox="0 0 81 80" fill="none" xmlns="http://www.w3.org/2000/svg">
<g clip-path="url(#clip0_210_141)">
<path d="M79.2473 0.668213H40.5H1.75266C1.06078 0.668213 0.5 1.22899 0.5 1.92071V17.9541V78.0795C0.5 78.7712 1.06078 79.3321 1.75266 79.3321H40.5H79.2473C79.9391 79.3321 80.5 78.7713 80.5 78.0795V17.9541V1.92071C80.5 1.22899 79.9392 0.668213 79.2473 0.668213ZM77.9948 76.8268H40.5H3.00516V19.2068H40.5H77.9948V76.8268ZM77.9948 16.7015H40.5H3.00516V3.17337H40.5H77.9948V16.7015Z" fill="white"/>
<path d="M67.2225 6.01245H52.5251C51.8334 6.01245 51.2725 6.57323 51.2725 7.26511C51.2725 7.95683 51.8332 8.51776 52.5251 8.51776H67.2225C67.9142 8.51776 68.4751 7.95698 68.4751 7.26511C68.4751 6.57339 67.9142 6.01245 67.2225 6.01245Z" fill="white"/>
<path d="M73.9029 6.01245H71.2307C70.539 6.01245 69.978 6.57323 69.978 7.26511C69.978 7.95683 70.5388 8.51776 71.2307 8.51776H73.9029C74.5946 8.51776 75.1555 7.95698 75.1555 7.26511C75.1554 6.57339 74.5946 6.01245 73.9029 6.01245Z" fill="white"/>
<path d="M41.8361 4.67651C41.2369 4.67651 40.6468 4.77761 40.0827 4.97714C40.0813 4.97761 40.0802 4.97839 40.0788 4.9787C37.9832 5.72151 36.5752 7.7137 36.5752 9.93761C36.5752 12.1614 37.9832 14.1535 40.0786 14.8965C40.08 14.897 40.0811 14.8978 40.0825 14.8982C40.6468 15.0976 41.2368 15.1989 41.836 15.1989C44.7369 15.1989 47.0969 12.8387 47.0969 9.93792C47.0969 7.03714 44.7371 4.67651 41.8361 4.67651ZM41.8361 12.6932C41.5219 12.6932 41.213 12.6403 40.9174 12.5359C40.9172 12.5359 40.9171 12.5357 40.9169 12.5357C39.8185 12.147 39.0804 11.1029 39.0804 9.93745C39.0804 8.77198 39.8183 7.72808 40.9171 7.33917C40.9172 7.33917 40.9174 7.33917 40.9175 7.33901C41.213 7.23448 41.5221 7.18167 41.8363 7.18167C43.3558 7.18167 44.5921 8.41792 44.5921 9.93745C44.5921 11.457 43.3557 12.6932 41.8361 12.6932Z" fill="#EE2C2F"/>
<path d="M27.1389 4.67651C24.2379 4.67651 21.8779 7.03667 21.8779 9.93745C21.8779 12.8382 24.2381 15.1984 27.1389 15.1984C30.0396 15.1984 32.3998 12.8384 32.3998 9.93745C32.3998 7.03651 30.0396 4.67651 27.1389 4.67651ZM27.1389 12.6932C25.6193 12.6932 24.3831 11.457 24.3831 9.93745C24.3831 8.41792 25.6193 7.18167 27.1389 7.18167C28.6584 7.18167 29.8946 8.41792 29.8946 9.93745C29.8946 11.457 28.6582 12.6932 27.1389 12.6932Z" fill="#EE2C2F"/>
<path d="M12.4416 4.67651C9.54066 4.67651 7.18066 7.03667 7.18066 9.93745C7.18066 12.8382 9.54082 15.1984 12.4416 15.1984C15.3424 15.1984 17.7025 12.8384 17.7025 9.93745C17.7025 7.03651 15.3425 4.67651 12.4416 4.67651ZM12.4416 12.6932C10.9221 12.6932 9.68582 11.457 9.68582 9.93745C9.68582 8.41792 10.9221 7.18167 12.4416 7.18167C13.9611 7.18167 15.1974 8.41792 15.1974 9.93745C15.1974 11.457 13.9611 12.6932 12.4416 12.6932Z" fill="#EE2C2F"/>
<path d="M75.5709 33.5214L62.3442 20.2944C61.855 19.8052 61.0618 19.8052 60.5726 20.2944L52.1406 28.7266H40.5H11.7734C11.0817 28.7266 10.5208 29.2874 10.5208 29.9792C10.5208 30.6711 11.0815 31.2319 11.7734 31.2319H40.5H49.6353L39.6142 41.253L30.7626 50.1046H11.7734C11.0817 50.1046 10.5208 50.6653 10.5208 51.3572C10.5208 52.0491 11.0815 52.6099 11.7734 52.6099H28.2573L25.5576 55.3096C25.5562 55.311 25.555 55.3122 25.5534 55.3138L25.5512 55.316C25.5473 55.3199 25.5442 55.3239 25.5404 55.328C25.5156 55.3536 25.4914 55.3799 25.4684 55.4077C25.4598 55.4178 25.4528 55.4288 25.4445 55.4392C25.4276 55.4611 25.4108 55.483 25.3953 55.5063C25.3851 55.5214 25.3762 55.5374 25.3667 55.553C25.3551 55.5721 25.3431 55.591 25.3326 55.6108C25.322 55.6308 25.3128 55.6514 25.3033 55.6717C25.2956 55.6882 25.2873 55.7041 25.2804 55.721C25.27 55.7463 25.2611 55.7724 25.2522 55.7983C25.2478 55.8111 25.2428 55.8235 25.2387 55.8366C25.2287 55.8697 25.2204 55.9032 25.2134 55.9369C25.212 55.9435 25.21 55.9496 25.2086 55.9561L25.2078 55.96C25.2075 55.9616 25.2072 55.963 25.207 55.9646L22.1036 71.4827H11.7734C11.0817 71.4827 10.5208 72.0435 10.5208 72.7353C10.5208 73.4271 11.0815 73.988 11.7734 73.988H23.1236C23.1254 73.988 23.1272 73.9882 23.1292 73.9882C23.1297 73.9882 23.13 73.9882 23.1306 73.9882C23.1311 73.9882 23.1314 73.9882 23.132 73.9882C23.1339 73.9882 23.1358 73.988 23.1376 73.988H24.1183C24.4525 73.988 24.7553 73.8563 24.9798 73.643L30.4545 72.548C30.4553 72.5478 30.4561 72.5477 30.4568 72.5475L30.4618 72.5466L39.9017 70.6586C39.9028 70.6585 39.904 70.6581 39.9053 70.658L39.9097 70.6572C39.917 70.6557 39.9239 70.6533 39.9312 70.6517C39.964 70.6446 39.9967 70.6367 40.0289 70.6271C40.0426 70.6228 40.0556 70.6175 40.0692 70.613C40.0943 70.6042 40.1198 70.5958 40.1445 70.5856C40.162 70.5783 40.1787 70.5697 40.1957 70.5617C40.2154 70.5525 40.2353 70.5438 40.2547 70.5333C40.275 70.5224 40.2942 70.5102 40.3137 70.4985C40.3289 70.4892 40.3445 70.4807 40.3592 70.4708C40.3825 70.4553 40.4045 70.4383 40.4265 70.4214C40.4368 70.4135 40.4478 70.4063 40.4579 70.3977C40.4853 70.3752 40.5112 70.3513 40.5365 70.3266C40.5408 70.3224 40.5454 70.3191 40.5493 70.3149L40.5518 70.3124C40.5533 70.311 40.5545 70.3099 40.5558 70.3085L41.3853 69.4789L58.6206 52.2436L66.1229 44.7413L75.5706 35.2936C76.06 34.8036 76.06 34.0105 75.5709 33.5214ZM32.167 52.2427C32.1672 52.2425 32.1673 52.2424 32.1675 52.2424L41.3859 43.0239L52.0109 32.3989L54.4909 34.8791L30.6887 58.6813L28.2086 56.2011L32.167 52.2427ZM56.2622 36.6507L59.2147 39.6032L48.3465 50.4713L39.6143 59.2035L35.4126 63.4052L32.4601 60.4527L56.2622 36.6507ZM24.7273 71.138L25.317 68.1897L27.6756 70.5483L24.7273 71.138ZM30.6279 69.958L25.9075 65.2375L27.2065 58.7422L29.8031 61.3388L34.527 66.0627L37.1236 68.6591L30.6279 69.958ZM56.8495 50.4713L39.664 67.6566L37.1839 65.1766L41.3856 60.9749L50.1178 52.2427L60.9859 41.3746L63.4659 43.8546L56.8495 50.4713ZM65.2375 42.0832L61.8718 38.7175L57.1478 33.9936L53.7822 30.6278L61.4586 22.9516L72.9139 34.4069L65.2375 42.0832Z" fill="white"/>
<path d="M62.0955 26.4214C61.6064 25.9321 60.8132 25.9321 60.3241 26.4214L57.3178 29.4276C56.8286 29.9168 56.8286 30.71 57.3178 31.199C57.5624 31.4435 57.883 31.5659 58.2035 31.5659C58.5239 31.5659 58.8446 31.4437 59.0891 31.199L62.0953 28.1928C62.5847 27.7035 62.5847 26.9103 62.0955 26.4214Z" fill="white"/>
</g>
<defs>
<clipPath id="clip0_210_141">
<rect width="80" height="80" fill="white" transform="translate(0.5)"/>
</clipPath>
</defs>
</svg>
