<svg width="81" height="80" viewBox="0 0 81 80" fill="none" xmlns="http://www.w3.org/2000/svg">
<path d="M68.398 23.6344H68.0747V1.59359C68.0746 0.713438 67.361 0 66.481 0H14.5194C13.6394 0 12.9258 0.713438 12.9258 1.59359V39.4112H12.6025C7.41816 39.4112 3.2002 43.6291 3.2002 48.8136C3.2002 53.9981 7.41816 58.2159 12.6025 58.2159H12.9258V78.4062C12.9258 79.2864 13.6394 79.9998 14.5194 79.9998H66.481C67.361 79.9998 68.0746 79.2864 68.0746 78.4062V42.4391H68.3979C73.5822 42.4391 77.8002 38.2212 77.8002 33.0367C77.8002 27.8522 73.5824 23.6344 68.398 23.6344ZM12.9257 55.0289H12.6024C9.17535 55.0289 6.38723 52.2408 6.38723 48.8137C6.38723 45.3867 9.17535 42.5986 12.6024 42.5986H12.9257V55.0289ZM64.8874 23.6344H60.3174V20.7456C60.3174 19.4466 59.6457 18.2831 58.5207 17.6338C57.3955 16.9842 56.0522 16.9841 54.9269 17.6339L47.1647 22.1161C46.0396 22.7656 45.3682 23.9291 45.3682 25.228C45.3682 26.5269 46.0397 27.6903 47.1646 28.3397L54.9269 32.822H54.9271C55.4896 33.147 56.1066 33.3092 56.7239 33.3092C57.341 33.3092 57.958 33.1469 58.5207 32.822C59.6458 32.1725 60.3174 31.0091 60.3174 29.71V26.8213H64.8874V76.8127H16.113V58.2161H35.5038V61.1048C35.5038 62.4039 36.1755 63.5673 37.3005 64.2169C37.863 64.5417 38.48 64.7041 39.0972 64.7041C39.7144 64.7041 40.3316 64.5417 40.8943 64.2167L48.6564 59.7345C49.7816 59.085 50.453 57.9216 50.453 56.6227C50.453 55.3238 49.7814 54.1603 48.6566 53.5108L40.8943 49.0284H40.8941C39.7688 48.3788 38.4254 48.3788 37.3005 49.0284C36.1754 49.678 35.5038 50.8412 35.5038 52.1403V55.0291H16.1132V3.18719H64.8875V23.6344H64.8874ZM57.13 20.7456V29.7105C57.13 29.9042 57.0196 30.0087 56.9271 30.0622C56.8346 30.1156 56.6885 30.1591 56.5208 30.0622L48.7583 25.5798C48.5905 25.483 48.5555 25.335 48.5555 25.2281C48.5555 25.1213 48.5907 24.9733 48.7585 24.8762L56.5207 20.3941C56.6886 20.2972 56.8343 20.3405 56.9271 20.3941C57.0194 20.4475 57.13 20.5519 57.13 20.7456ZM38.691 61.1047V52.1398C38.691 51.9461 38.8014 51.8417 38.8939 51.7881C38.9466 51.7577 39.0163 51.7306 39.0974 51.7306C39.1593 51.7308 39.2275 51.7464 39.3 51.7883L47.0625 56.2706C47.2304 56.3675 47.2654 56.5155 47.2654 56.6223C47.2654 56.7292 47.2302 56.8772 47.0624 56.9741L39.3002 61.4563C39.1322 61.5534 38.9863 61.5098 38.8938 61.4563C38.8014 61.403 38.691 61.2984 38.691 61.1047ZM68.398 39.252H68.0747V26.8217H68.398C71.825 26.8217 74.6132 29.6098 74.6132 33.0369C74.6132 36.4639 71.8249 39.252 68.398 39.252Z" fill="white"/>
<path d="M57.3922 9.72119H56.2767C55.3967 9.72119 54.6831 10.4346 54.6831 11.3148C54.6831 12.1949 55.3967 12.9084 56.2767 12.9084H57.3922C58.2722 12.9084 58.9858 12.1949 58.9858 11.3148C58.9858 10.4346 58.2722 9.72119 57.3922 9.72119Z" fill="#EE2C2F"/>
<path d="M50.0615 9.72119H23.6073C22.7273 9.72119 22.0137 10.4346 22.0137 11.3148C22.0137 12.1949 22.7273 12.9084 23.6073 12.9084H50.0615C50.9415 12.9084 51.6551 12.1949 51.6551 11.3148C51.6551 10.4346 50.9415 9.72119 50.0615 9.72119Z" fill="#EE2C2F"/>
<path d="M45.1212 37.4502H23.6073C22.7273 37.4502 22.0137 38.1636 22.0137 39.0438C22.0137 39.9239 22.7273 40.6374 23.6073 40.6374H45.1212C46.0012 40.6374 46.7148 39.9239 46.7148 39.0438C46.7148 38.1636 46.0012 37.4502 45.1212 37.4502Z" fill="#EE2C2F"/>
<path d="M37.9499 19.2827H23.6073C22.7273 19.2827 22.0137 19.9962 22.0137 20.8763C22.0137 21.7565 22.7273 22.4699 23.6073 22.4699H37.9499C38.8299 22.4699 39.5435 21.7565 39.5435 20.8763C39.5435 19.9962 38.8299 19.2827 37.9499 19.2827Z" fill="#EE2C2F"/>
<path d="M37.9499 27.8884H23.6073C22.7273 27.8884 22.0137 28.6019 22.0137 29.482C22.0137 30.3622 22.7273 31.0756 23.6073 31.0756H37.9499C38.8299 31.0756 39.5435 30.3622 39.5435 29.482C39.5435 28.6019 38.8299 27.8884 37.9499 27.8884Z" fill="#EE2C2F"/>
</svg>
