<svg width="80" height="75" viewBox="0 0 80 75" fill="none" xmlns="http://www.w3.org/2000/svg">
<path d="M76.3209 0H3.67906C1.65041 0 0 1.65041 0 3.67906V71.3112C0 73.3398 1.65041 74.9902 3.67906 74.9902H76.3209C78.3496 74.9902 80 73.3398 80 71.3112V3.67906C80 1.65041 78.3496 0 76.3209 0ZM3.67906 2.34834H76.3209C77.0547 2.34834 77.6517 2.94528 77.6517 3.67906V10.0196H2.34834V3.67906C2.34834 2.94528 2.94528 2.34834 3.67906 2.34834ZM76.3209 72.6419H3.67906C2.94528 72.6419 2.34834 72.0449 2.34834 71.3112V12.3679H77.6517V71.3112C77.6517 72.0449 77.0547 72.6419 76.3209 72.6419Z" fill="white"/>
<path d="M6.18393 7.3581C6.49235 7.3581 6.79607 7.23286 7.01368 7.01368C7.23286 6.79607 7.3581 6.49235 7.3581 6.18393C7.3581 5.87552 7.23286 5.5718 7.01368 5.35419C6.79607 5.13501 6.49391 5.00977 6.18393 5.00977C5.87552 5.00977 5.5718 5.13501 5.35419 5.35419C5.13501 5.5718 5.00977 5.87552 5.00977 6.18393C5.00977 6.49235 5.13501 6.79607 5.35419 7.01368C5.5718 7.2327 5.87552 7.3581 6.18393 7.3581Z" fill="white"/>
<path d="M9.94126 7.3581C10.2497 7.3581 10.5534 7.23286 10.771 7.01368C10.9902 6.79607 11.1154 6.49235 11.1154 6.18393C11.1154 5.87552 10.9902 5.5718 10.771 5.35419C10.5534 5.13501 10.2512 5.00977 9.94126 5.00977C9.63284 5.00977 9.32913 5.13501 9.11151 5.35419C8.89233 5.5718 8.76709 5.87552 8.76709 6.18393C8.76709 6.49235 8.89233 6.79607 9.11151 7.01368C9.32913 7.2327 9.63284 7.3581 9.94126 7.3581Z" fill="white"/>
<path d="M13.6986 7.3581C14.007 7.3581 14.3107 7.23286 14.5283 7.01368C14.7475 6.79607 14.8728 6.49235 14.8728 6.18393C14.8728 5.87552 14.7475 5.5718 14.5283 5.35419C14.3107 5.13501 14.0086 5.00977 13.6986 5.00977C13.3902 5.00977 13.0864 5.13501 12.8688 5.35419C12.6497 5.5718 12.5244 5.87552 12.5244 6.18393C12.5244 6.49235 12.6497 6.79607 12.8688 7.01368C13.0864 7.2327 13.3902 7.3581 13.6986 7.3581Z" fill="white"/>
<path d="M33.6595 40.0001C33.6595 37.9714 32.0091 36.321 29.9804 36.321C28.3622 36.321 26.9858 37.3715 26.4945 38.8259H19.6892C19.5176 38.318 19.2385 37.8598 18.8784 37.4781L20.6085 34.8829C20.7751 34.9001 20.9427 34.912 21.1123 34.912H28.728C31.4472 34.912 33.6595 32.6997 33.6595 29.9805V21.2134C33.6595 20.5649 33.1337 20.0392 32.4853 20.0392H13.1543L12.5844 18.9201C12.1842 18.0774 11.3268 17.5343 10.3923 17.5343H8.68882C8.04036 17.5343 7.51465 18.06 7.51465 18.7085C7.51465 19.3569 8.04036 19.8826 8.68882 19.8826H10.3923C10.4227 19.8826 10.4507 19.9005 10.4634 19.928C10.4698 19.9418 10.4764 19.9554 10.4833 19.9689L16.645 32.0689C17.0267 32.8852 17.6203 33.5623 18.3402 34.0522L16.7954 36.3692C16.6026 36.3379 16.405 36.321 16.2035 36.321C14.1748 36.321 12.5244 37.9714 12.5244 40.0001C12.5244 42.0287 14.1748 43.6791 16.2035 43.6791C17.8217 43.6791 19.1981 42.6286 19.6894 41.1742H26.4947C26.986 42.6286 28.3624 43.6791 29.9806 43.6791C32.0091 43.6791 33.6595 42.0287 33.6595 40.0001V40.0001ZM14.3502 22.3875H31.3111V29.9805C31.3111 31.4048 30.1523 32.5637 28.728 32.5637H21.1125C20.1085 32.5637 19.1878 31.9745 18.7671 31.0629C18.7607 31.0493 18.7541 31.0357 18.7474 31.0222L14.3502 22.3875V22.3875ZM16.2035 41.3308C15.4697 41.3308 14.8728 40.7338 14.8728 40.0001C14.8728 39.2663 15.4697 38.6693 16.2035 38.6693C16.9373 38.6693 17.5342 39.2663 17.5342 40.0001C17.5342 40.7338 16.9373 41.3308 16.2035 41.3308ZM29.9804 41.3308C29.2466 41.3308 28.6497 40.7338 28.6497 40.0001C28.6497 39.2663 29.2466 38.6693 29.9804 38.6693C30.7142 38.6693 31.3111 39.2663 31.3111 40.0001C31.3111 40.7338 30.7142 41.3308 29.9804 41.3308Z" fill="#EE2C2F"/>
<path d="M47.5146 47.593H32.4852C31.1471 47.593 30.0586 48.6815 30.0586 50.0196V57.5343C30.0586 58.8724 31.1471 59.9609 32.4852 59.9609H47.5146C48.8526 59.9609 49.9412 58.8724 49.9412 57.5343V50.0196C49.9412 48.6815 48.8526 47.593 47.5146 47.593ZM47.5928 57.5343C47.5928 57.5775 47.5578 57.6126 47.5146 57.6126H32.4852C32.442 57.6126 32.4069 57.5775 32.4069 57.5343V50.0196C32.4069 49.9764 32.442 49.9414 32.4852 49.9414H47.5146C47.5578 49.9414 47.5928 49.9764 47.5928 50.0196V57.5343Z" fill="white"/>
<path d="M24.9706 47.593H9.94126C8.60318 47.593 7.51465 48.6815 7.51465 50.0196V57.5343C7.51465 58.8724 8.60318 59.9609 9.94126 59.9609H24.9706C26.3087 59.9609 27.3972 58.8724 27.3972 57.5343V50.0196C27.3972 48.6815 26.3087 47.593 24.9706 47.593ZM25.0489 57.5343C25.0489 57.5775 25.0138 57.6126 24.9706 57.6126H9.94126C9.89805 57.6126 9.86299 57.5775 9.86299 57.5343V50.0196C9.86299 49.9764 9.89805 49.9414 9.94126 49.9414H24.9706C25.0138 49.9414 25.0489 49.9764 25.0489 50.0196V57.5343Z" fill="white"/>
<path d="M70.0585 47.593H55.0292C53.6911 47.593 52.6025 48.6815 52.6025 50.0196V57.5343C52.6025 58.8724 53.6911 59.9609 55.0292 59.9609H70.0585C71.3966 59.9609 72.4851 58.8724 72.4851 57.5343V50.0196C72.4851 48.6815 71.3966 47.593 70.0585 47.593ZM70.1368 57.5343C70.1368 57.5775 70.1017 57.6126 70.0585 57.6126H55.0292C54.9859 57.6126 54.9509 57.5775 54.9509 57.5343V50.0196C54.9509 49.9764 54.9859 49.9414 55.0292 49.9414H70.0585C70.1017 49.9414 70.1368 49.9764 70.1368 50.0196V57.5343Z" fill="white"/>
<path d="M26.2231 62.6223H8.68882C8.04036 62.6223 7.51465 63.148 7.51465 63.7965C7.51465 64.4449 8.04036 64.9707 8.68882 64.9707H26.2231C26.8715 64.9707 27.3972 64.4449 27.3972 63.7965C27.3972 63.148 26.8715 62.6223 26.2231 62.6223Z" fill="white"/>
<path d="M48.767 62.6223H31.2328C30.5843 62.6223 30.0586 63.148 30.0586 63.7965C30.0586 64.4449 30.5843 64.9707 31.2328 64.9707H48.767C49.4155 64.9707 49.9412 64.4449 49.9412 63.7965C49.9412 63.148 49.4155 62.6223 48.767 62.6223Z" fill="white"/>
<path d="M71.311 62.6223H53.7767C53.1283 62.6223 52.6025 63.148 52.6025 63.7965C52.6025 64.4449 53.1283 64.9707 53.7767 64.9707H71.311C71.9594 64.9707 72.4851 64.4449 72.4851 63.7965C72.4851 63.148 71.9594 62.6223 71.311 62.6223Z" fill="white"/>
<path d="M62.5438 67.6321H53.7767C53.1283 67.6321 52.6025 68.1578 52.6025 68.8062C52.6025 69.4547 53.1283 69.9804 53.7767 69.9804H62.5438C63.1923 69.9804 63.718 69.4547 63.718 68.8062C63.718 68.1578 63.1923 67.6321 62.5438 67.6321Z" fill="white"/>
<path d="M39.9999 67.6321H31.2328C30.5843 67.6321 30.0586 68.1578 30.0586 68.8062C30.0586 69.4547 30.5843 69.9804 31.2328 69.9804H39.9999C40.6483 69.9804 41.1741 69.4547 41.1741 68.8062C41.1741 68.1578 40.6483 67.6321 39.9999 67.6321Z" fill="white"/>
<path d="M17.4559 67.6321H8.68882C8.04036 67.6321 7.51465 68.1578 7.51465 68.8062C7.51465 69.4547 8.04036 69.9804 8.68882 69.9804H17.4559C18.1044 69.9804 18.6301 69.4547 18.6301 68.8062C18.6301 68.1578 18.1044 67.6321 17.4559 67.6321Z" fill="white"/>
<path d="M41.2523 19.8826H52.5243C53.1728 19.8826 53.6985 19.3569 53.6985 18.7085C53.6985 18.06 53.1728 17.5343 52.5243 17.5343H41.2523C40.6038 17.5343 40.0781 18.06 40.0781 18.7085C40.0781 19.3569 40.6038 19.8826 41.2523 19.8826Z" fill="white"/>
<path d="M71.311 22.5441H41.2523C40.6038 22.5441 40.0781 23.0698 40.0781 23.7182C40.0781 24.3667 40.6038 24.8924 41.2523 24.8924H71.311C71.9595 24.8924 72.4852 24.3667 72.4852 23.7182C72.4852 23.0698 71.9595 22.5441 71.311 22.5441Z" fill="white"/>
<path d="M71.311 30.0587H47.5145C46.866 30.0587 46.3403 30.5844 46.3403 31.2329C46.3403 31.8813 46.866 32.4071 47.5145 32.4071H71.311C71.9594 32.4071 72.4851 31.8813 72.4851 31.2329C72.4851 30.5844 71.9594 30.0587 71.311 30.0587Z" fill="white"/>
<path d="M71.311 35.0685H47.5145C46.866 35.0685 46.3403 35.5942 46.3403 36.2426C46.3403 36.8911 46.866 37.4168 47.5145 37.4168H71.311C71.9594 37.4168 72.4851 36.8911 72.4851 36.2426C72.4851 35.5942 71.9594 35.0685 71.311 35.0685Z" fill="white"/>
<path d="M71.311 40.0782H47.5145C46.866 40.0782 46.3403 40.604 46.3403 41.2524C46.3403 41.9009 46.866 42.4266 47.5145 42.4266H71.311C71.9594 42.4266 72.4851 41.9009 72.4851 41.2524C72.4851 40.604 71.9594 40.0782 71.311 40.0782Z" fill="white"/>
<path d="M41.2523 32.4071H42.5047C43.1532 32.4071 43.6789 31.8813 43.6789 31.2329C43.6789 30.5844 43.1532 30.0587 42.5047 30.0587H41.2523C40.6038 30.0587 40.0781 30.5844 40.0781 31.2329C40.0781 31.8813 40.6038 32.4071 41.2523 32.4071Z" fill="white"/>
<path d="M41.2523 37.4168H42.5047C43.1532 37.4168 43.6789 36.8911 43.6789 36.2426C43.6789 35.5942 43.1532 35.0685 42.5047 35.0685H41.2523C40.6038 35.0685 40.0781 35.5942 40.0781 36.2426C40.0781 36.8911 40.6038 37.4168 41.2523 37.4168Z" fill="white"/>
<path d="M41.2523 42.4266H42.5047C43.1532 42.4266 43.6789 41.9009 43.6789 41.2524C43.6789 40.604 43.1532 40.0782 42.5047 40.0782H41.2523C40.6038 40.0782 40.0781 40.604 40.0781 41.2524C40.0781 41.9009 40.6038 42.4266 41.2523 42.4266Z" fill="white"/>
</svg>
