<svg width="21" height="32" viewBox="0 0 21 32" fill="none" xmlns="http://www.w3.org/2000/svg">
<g clip-path="url(#clip0_279_764)">
<path d="M5.20924 31.2437C8.08367 31.2437 10.4165 28.9108 10.4165 26.0364V20.8291H5.20924C2.33482 20.8291 0.00195312 23.162 0.00195312 26.0364C0.00195312 28.9108 2.33482 31.2437 5.20924 31.2437Z" fill="#0ACF83"/>
<path d="M0.00195312 15.6218C0.00195312 12.7474 2.33482 10.4146 5.20924 10.4146H10.4165V20.8291H5.20924C2.33482 20.8291 0.00195312 18.4963 0.00195312 15.6218Z" fill="#A259FF"/>
<path d="M0.00195312 5.20729C0.00195312 2.33287 2.33482 0 5.20924 0H10.4165V10.4146H5.20924C2.33482 10.4146 0.00195312 8.08172 0.00195312 5.20729Z" fill="#F24E1E"/>
<path d="M10.4165 0H15.6238C18.4982 0 20.8311 2.33287 20.8311 5.20729C20.8311 8.08172 18.4982 10.4146 15.6238 10.4146H10.4165V0Z" fill="#FF7262"/>
<path d="M20.8311 15.6218C20.8311 18.4963 18.4982 20.8291 15.6238 20.8291C12.7494 20.8291 10.4165 18.4963 10.4165 15.6218C10.4165 12.7474 12.7494 10.4146 15.6238 10.4146C18.4982 10.4146 20.8311 12.7474 20.8311 15.6218Z" fill="#1ABCFE"/>
</g>
<defs>
<clipPath id="clip0_279_764">
<rect width="20.8333" height="31.2437" fill="white"/>
</clipPath>
</defs>
</svg>
