<svg width="101" height="50" viewBox="0 0 101 50" fill="none" xmlns="http://www.w3.org/2000/svg">
<path d="M21.1659 18.1724C17.4593 18.1724 14.4539 21.1778 14.4539 24.8845C14.4539 28.5911 17.4593 31.5965 21.1659 31.5965C24.8726 31.5965 27.878 28.5911 27.878 24.8845C27.858 21.1778 24.8526 18.1724 21.1659 18.1724Z" fill="#3880FF"/>
<path d="M30.7833 18.7731C32.4763 18.7731 33.8488 17.4007 33.8488 15.7076C33.8488 14.0146 32.4763 12.6421 30.7833 12.6421C29.0903 12.6421 27.7178 14.0146 27.7178 15.7076C27.7178 17.4007 29.0903 18.7731 30.7833 18.7731Z" fill="#3880FF"/>
<path d="M34.5501 18.7733L34.4299 18.4928L34.2295 18.7332C33.7286 19.2942 33.0875 19.735 32.3862 19.9955L32.1858 20.0756L32.266 20.276C32.8871 21.7386 33.1877 23.3014 33.1877 24.8843C33.1877 31.5162 27.7979 36.926 21.146 36.926C14.494 36.926 9.12431 31.5162 9.12431 24.8843C9.12431 18.2523 14.514 12.8426 21.166 12.8426C22.9692 12.8426 24.6923 13.2433 26.3153 14.0047L26.4956 14.0848L26.5757 13.8845C26.8763 13.1832 27.3371 12.5821 27.9382 12.1012L28.1786 11.9009L27.8981 11.7606C25.7943 10.6787 23.5303 10.1177 21.146 10.1177C13.0313 10.1177 6.41943 16.7296 6.41943 24.8442C6.41943 32.9588 13.0313 39.5707 21.146 39.5707C29.2606 39.5707 35.8725 32.9588 35.8725 24.8442C35.8725 22.7604 35.4317 20.7168 34.5501 18.7733Z" fill="#3880FF"/>
<path d="M46.5719 18.4727H43.4663V31.2958H46.5719V18.4727Z" fill="#3880FF"/>
<path d="M80.0922 18.4727H76.9866V31.2958H80.0922V18.4727Z" fill="#3880FF"/>
<path d="M69.8137 18.1719C67.6297 18.1719 65.9467 19.4943 65.566 19.8549L65.3657 18.4724H62.781V31.2955H65.8866V23.5415C65.8866 22.0188 67.9503 20.7766 69.4731 20.7766C70.9557 20.7766 72.1178 22.2192 72.1178 23.9423V31.2955H75.2234V24.2428C75.2034 20.8767 73.7407 18.1719 69.8137 18.1719Z" fill="#3880FF"/>
<path d="M88.227 28.9713C85.8828 28.9713 84.34 27.1481 84.34 24.884C84.34 22.6199 85.8828 20.7966 88.227 20.7966C90.2106 20.7966 91.4328 22.7201 91.4328 22.7201L93.6768 21.2174C93.0357 20.2156 92.2743 19.6145 91.2525 18.9934C90.4911 18.5325 89.4693 18.1519 88.3272 18.1519C84.4402 18.1519 81.4749 21.0771 81.4548 24.8639C81.4749 28.6508 84.4402 31.576 88.3272 31.576C89.4693 31.576 90.4911 31.1954 91.2525 30.7345C92.2743 30.1134 93.0357 29.5123 93.6768 28.5105L91.4328 27.0078C91.4328 27.0278 90.2306 28.9713 88.227 28.9713Z" fill="#3880FF"/>
<path d="M54.6664 18.1719C50.7594 18.1719 47.9543 21.2374 47.9543 24.8239C47.9543 28.4704 50.6793 31.5961 54.7265 31.5961C58.3931 31.5961 61.3785 28.791 61.3785 24.904C61.3785 20.456 57.8922 18.1719 54.6664 18.1719ZM54.7065 20.8166C56.63 20.8166 58.4533 22.3795 58.4533 24.904C58.4533 27.3684 56.63 28.9713 54.6865 28.9713C52.5626 28.9713 50.8796 27.2482 50.8796 24.884C50.8796 22.5397 52.5426 20.8166 54.7065 20.8166Z" fill="#3880FF"/>
</svg>
