<svg width="96" height="50" viewBox="0 0 96 50" fill="none" xmlns="http://www.w3.org/2000/svg">
<g clip-path="url(#clip0_224_357)">
<path d="M48.0865 49.7084C74.4561 49.7084 95.8328 38.5808 95.8328 24.8542C95.8328 11.1276 74.4561 0 48.0865 0C21.7169 0 0.340088 11.1276 0.340088 24.8542C0.340088 38.5808 21.7169 49.7084 48.0865 49.7084Z" fill="#8993BE"/>
<path fill-rule="evenodd" clip-rule="evenodd" d="M13.7483 39.5704L18.981 13.0809H31.0806C36.3129 13.408 38.9293 16.024 38.9293 20.6028C38.9293 28.4515 32.7159 33.0299 27.1561 32.7028H21.2702L19.962 39.5704H13.7483ZM22.578 27.7976L24.2133 17.9865H28.4646C30.7538 17.9865 32.3888 18.9675 32.3888 20.9296C32.062 26.4894 29.4457 27.4705 26.5025 27.7976H22.5784H22.578ZM37.7136 32.7028L42.9459 6.21362H49.1597L47.8515 13.0809H53.7377C58.9704 13.408 60.9325 16.024 60.2786 19.2946L57.9894 32.7028H51.4489L53.7381 20.6028C54.0649 18.9675 54.0649 17.9865 51.776 17.9865H46.8705L43.9274 32.7028H37.7136ZM57.5705 39.5704L62.8028 13.0809H74.9028C80.1355 13.408 82.7519 16.024 82.7519 20.6028C82.7519 28.4515 76.5381 33.0299 70.9787 32.7028H65.0921L63.7839 39.5704H57.5705ZM66.3999 27.7976L68.0352 17.9865H72.2868C74.5761 17.9865 76.211 18.9675 76.211 20.9296C75.8842 26.4894 73.2679 27.4705 70.3248 27.7976H66.4002H66.3999Z" fill="#232531"/>
</g>
<defs>
<clipPath id="clip0_224_357">
<rect width="95.4927" height="50" fill="white" transform="translate(0.340088)"/>
</clipPath>
</defs>
</svg>
