<svg width="81" height="80" viewBox="0 0 81 80" fill="none" xmlns="http://www.w3.org/2000/svg">
<g clip-path="url(#clip0_210_317)">
<path d="M26.6776 64.3018C25.8458 63.47 24.5008 63.47 23.6689 64.3018C22.8371 65.1336 22.8371 66.4787 23.6689 67.3105L26.0759 69.7174H16.3065C9.95289 69.7174 4.80273 64.5496 4.80273 58.2136V51.0813C4.80273 49.9132 3.84703 48.9575 2.67895 48.9575C1.51088 48.9575 0.555176 49.9132 0.555176 51.0813V58.2136C0.555176 66.9034 7.61673 73.965 16.3065 73.965H26.0759L23.6689 76.3719C22.8371 77.2037 22.8371 78.5488 23.6689 79.3806C24.076 79.7877 24.6246 80 25.1733 80C25.7219 80 26.2529 79.7877 26.6776 79.3806L32.7127 73.3455C33.5445 72.5137 33.5445 71.1687 32.7127 70.3369L26.6776 64.3018Z" fill="#EE2C2F"/>
<path d="M37.7212 0.00439453H2.83813C1.67005 0.00439453 0.714355 0.960094 0.714355 2.12817V37.0112C0.714355 38.1793 1.67005 39.135 2.83813 39.135H37.7212C38.8892 39.135 39.8449 38.1793 39.8449 37.0112V2.12817C39.8449 0.960094 38.9069 0.00439453 37.7212 0.00439453ZM35.5974 34.8874H4.96191V4.25195H35.5974V34.8874Z" fill="white"/>
<path d="M64.6754 6.03949H54.906L57.313 3.63254C58.1448 2.80073 58.1448 1.45567 57.313 0.623859C56.4812 -0.207953 55.1361 -0.207953 54.3043 0.623859L48.2869 6.65892C47.4551 7.49074 47.4551 8.83579 48.2869 9.66761L54.322 15.7027C54.7291 16.1097 55.2777 16.3221 55.8264 16.3221C56.375 16.3221 56.9059 16.1097 57.3307 15.7027C58.1625 14.8709 58.1625 13.5258 57.3307 12.694L54.9237 10.287H64.6931C71.0468 10.287 76.1969 15.4549 76.1969 21.7908V28.9232C76.1969 30.0913 77.1526 31.047 78.3207 31.047C79.4888 31.047 80.4445 30.0913 80.4445 28.9232V21.7908C80.4445 13.101 73.3652 6.03949 64.6754 6.03949Z" fill="#EE2C2F"/>
<path d="M78.1614 75.7524C77.595 75.7524 77.0464 75.9825 76.657 76.3719C76.2677 76.7612 76.0376 77.3099 76.0376 77.8762C76.0376 78.4249 76.2677 78.9912 76.657 79.3806C77.0464 79.7699 77.595 80 78.1614 80C78.7277 80 79.2764 79.7699 79.6657 79.3806C80.0551 78.9912 80.2852 78.4426 80.2852 77.8762C80.2852 77.3099 80.0551 76.7612 79.6657 76.3719C79.2587 75.9825 78.71 75.7524 78.1614 75.7524Z" fill="white"/>
<path d="M69.4363 75.7524C68.2682 75.7524 67.3125 76.7081 67.3125 77.8762C67.3125 79.0443 68.2682 80 69.4363 80C70.6044 80 71.5601 79.0443 71.5601 77.8762C71.5601 76.7081 70.6044 75.7524 69.4363 75.7524Z" fill="white"/>
<path d="M51.9861 75.7524C50.818 75.7524 49.8623 76.7081 49.8623 77.8762C49.8623 79.0443 50.818 80 51.9861 80C53.1542 80 54.1099 79.0443 54.1099 77.8762C54.1099 76.7081 53.1719 75.7524 51.9861 75.7524Z" fill="white"/>
<path d="M60.7112 75.7524C59.5431 75.7524 58.5874 76.7081 58.5874 77.8762C58.5874 79.0443 59.5431 80 60.7112 80C61.8793 80 62.835 79.0443 62.835 77.8762C62.835 76.7081 61.8793 75.7524 60.7112 75.7524Z" fill="white"/>
<path d="M43.2786 75.7524C42.7122 75.7524 42.1636 75.9825 41.7742 76.3719C41.3849 76.7612 41.1548 77.3099 41.1548 77.8762C41.1548 78.4249 41.3849 78.9912 41.7742 79.3806C42.1636 79.7699 42.7122 80 43.2786 80C43.8272 80 44.3935 79.7699 44.7829 79.3806C45.1723 78.9912 45.4023 78.4426 45.4023 77.8762C45.4023 77.3099 45.1723 76.7612 44.7829 76.3719C44.3935 75.9825 43.827 75.7524 43.2786 75.7524Z" fill="white"/>
<path d="M43.2786 67.0272C42.1105 67.0272 41.1548 67.9829 41.1548 69.151C41.1548 70.3191 42.1105 71.2748 43.2786 71.2748C44.4466 71.2748 45.4023 70.3191 45.4023 69.151C45.4023 67.9829 44.4465 67.0272 43.2786 67.0272Z" fill="white"/>
<path d="M43.2786 58.3021C42.1105 58.3021 41.1548 59.2578 41.1548 60.4259C41.1548 61.594 42.1105 62.5497 43.2786 62.5497C44.4466 62.5497 45.4023 61.594 45.4023 60.4259C45.4023 59.2578 44.4465 58.3021 43.2786 58.3021Z" fill="white"/>
<path d="M43.2786 49.5769C42.1105 49.5769 41.1548 50.5326 41.1548 51.7007C41.1548 52.8688 42.1105 53.8245 43.2786 53.8245C44.4466 53.8245 45.4023 52.8688 45.4023 51.7007C45.4023 50.5326 44.4465 49.5769 43.2786 49.5769Z" fill="white"/>
<path d="M43.2786 40.8694C42.7122 40.8694 42.1636 41.0995 41.7742 41.4888C41.3849 41.8782 41.1548 42.4268 41.1548 42.9932C41.1548 43.5595 41.3849 44.1081 41.7742 44.4975C42.1636 44.8869 42.7122 45.1169 43.2786 45.1169C43.8272 45.1169 44.3935 44.8869 44.7829 44.4975C45.1723 44.1081 45.4023 43.5595 45.4023 42.9932C45.4023 42.4445 45.1723 41.8782 44.7829 41.4888C44.3757 41.0818 43.827 40.8694 43.2786 40.8694Z" fill="white"/>
<path d="M69.4363 40.8694C68.2682 40.8694 67.3125 41.8251 67.3125 42.9932C67.3125 44.1612 68.2682 45.1169 69.4363 45.1169C70.6044 45.1169 71.5601 44.1612 71.5601 42.9932C71.5601 41.8251 70.6044 40.8694 69.4363 40.8694Z" fill="white"/>
<path d="M60.7112 40.8694C59.5431 40.8694 58.5874 41.8251 58.5874 42.9932C58.5874 44.1612 59.5431 45.1169 60.7112 45.1169C61.8793 45.1169 62.835 44.1612 62.835 42.9932C62.835 41.8251 61.8793 40.8694 60.7112 40.8694Z" fill="white"/>
<path d="M51.9861 40.8694C50.818 40.8694 49.8623 41.8251 49.8623 42.9932C49.8623 44.1612 50.818 45.1169 51.9861 45.1169C53.1542 45.1169 54.1099 44.1612 54.1099 42.9932C54.1099 41.8251 53.1719 40.8694 51.9861 40.8694Z" fill="white"/>
<path d="M78.1614 40.8694C77.595 40.8694 77.0464 41.0995 76.657 41.4888C76.2677 41.8782 76.0376 42.4268 76.0376 42.9932C76.0376 43.5595 76.2677 44.1081 76.657 44.4975C77.0464 44.8869 77.595 45.1169 78.1614 45.1169C78.7277 45.1169 79.2764 44.8869 79.6657 44.4975C80.0551 44.1081 80.2852 43.5595 80.2852 42.9932C80.2852 42.4445 80.0551 41.8782 79.6657 41.4888C79.2587 41.0995 78.71 40.8694 78.1614 40.8694Z" fill="white"/>
<path d="M78.1614 49.5769C76.9933 49.5769 76.0376 50.5326 76.0376 51.7007C76.0376 52.8688 76.9933 53.8245 78.1614 53.8245C79.3295 53.8245 80.2852 52.8688 80.2852 51.7007C80.2852 50.5326 79.3295 49.5769 78.1614 49.5769Z" fill="white"/>
<path d="M78.1614 67.0272C76.9933 67.0272 76.0376 67.9829 76.0376 69.151C76.0376 70.3191 76.9933 71.2748 78.1614 71.2748C79.3295 71.2748 80.2852 70.3191 80.2852 69.151C80.2852 67.9829 79.3295 67.0272 78.1614 67.0272Z" fill="white"/>
<path d="M78.1614 58.3021C76.9933 58.3021 76.0376 59.2578 76.0376 60.4259C76.0376 61.594 76.9933 62.5497 78.1614 62.5497C79.3295 62.5497 80.2852 61.594 80.2852 60.4259C80.2852 59.2578 79.3295 58.3021 78.1614 58.3021Z" fill="white"/>
</g>
<defs>
<clipPath id="clip0_210_317">
<rect width="80" height="80" fill="white" transform="translate(0.5)"/>
</clipPath>
</defs>
</svg>
