<svg width="63" height="50" viewBox="0 0 63 50" fill="none" xmlns="http://www.w3.org/2000/svg">
<path d="M51.5702 22.8344C51.5702 20.1091 48.1573 17.5263 42.9246 15.9247C44.1321 10.5914 43.5955 6.3482 41.2306 4.98971C40.6855 4.67105 40.0483 4.5201 39.3522 4.5201V6.39013C39.738 6.39013 40.0483 6.4656 40.3082 6.60815C41.4486 7.26223 41.9435 9.75279 41.5576 12.9561C41.4655 13.7444 41.3146 14.5746 41.1301 15.4215C39.4863 15.019 37.6918 14.7087 35.8051 14.5075C34.6731 12.9561 33.499 11.5473 32.3166 10.3146C35.0503 7.77376 37.6164 6.38173 39.3607 6.38173V4.51172C37.0545 4.51172 34.0357 6.15532 30.9834 9.00645C27.9309 6.17209 24.9121 4.54526 22.6061 4.54526V6.41527C24.3419 6.41527 26.9162 7.79893 29.65 10.323C28.476 11.5557 27.3019 12.9561 26.1866 14.5075C24.2914 14.7087 22.4969 15.019 20.8534 15.4299C20.6604 14.5913 20.5179 13.7779 20.4172 12.998C20.0233 9.79472 20.5095 7.30416 21.6417 6.64169C21.8931 6.49074 22.2202 6.42367 22.6061 6.42367V4.55365C21.9016 4.55365 21.2642 4.70459 20.7109 5.02325C18.3544 6.38173 17.8262 10.6165 19.042 15.9331C13.8261 17.5431 10.4299 20.1175 10.4299 22.8344C10.4299 25.5599 13.8429 28.1427 19.0756 29.7443C17.868 35.0777 18.4047 39.3207 20.7696 40.6792C21.3147 40.9978 21.9518 41.1488 22.6563 41.1488C24.9623 41.1488 27.9813 39.5052 31.0336 36.6541C34.086 39.4885 37.1049 41.1154 39.4109 41.1154C40.1152 41.1154 40.7526 40.9644 41.3061 40.6457C43.6624 39.2871 44.1908 35.0524 42.9748 29.736C48.174 28.1343 51.5702 25.5515 51.5702 22.8344ZM40.6521 17.2412C40.3418 18.3231 39.956 19.4382 39.5199 20.5535C39.1762 19.8828 38.8156 19.2119 38.4214 18.5409C38.0357 17.8702 37.6247 17.2161 37.2139 16.5788C38.4046 16.7548 39.5535 16.9729 40.6521 17.2412ZM36.8113 26.172C36.1572 27.3042 35.4865 28.3775 34.7904 29.3754C33.5409 29.4844 32.2748 29.5431 31.0001 29.5431C29.7338 29.5431 28.4675 29.4844 27.2266 29.3837C26.5305 28.3857 25.8512 27.3208 25.1971 26.1971C24.5598 25.0986 23.9813 23.9833 23.4529 22.8597C23.9728 21.736 24.5598 20.6122 25.1889 19.5138C25.8429 18.3817 26.5136 17.3083 27.2097 16.3104C28.4593 16.2014 29.7254 16.1427 31.0001 16.1427C32.2663 16.1427 33.5326 16.2014 34.7736 16.302C35.4696 17.2999 36.149 18.3649 36.803 19.4886C37.4404 20.5871 38.0188 21.7024 38.5473 22.8262C38.0188 23.9497 37.4404 25.0735 36.8113 26.172ZM39.5199 25.0819C39.9601 26.1748 40.3463 27.2886 40.6772 28.4193C39.5786 28.6876 38.4214 28.9141 37.2223 29.0902C37.6331 28.4446 38.044 27.7821 38.4299 27.1028C38.8156 26.432 39.1762 25.7527 39.5199 25.0819ZM31.0168 34.0295C30.2369 33.2243 29.457 32.3271 28.6856 31.346C29.4403 31.3796 30.2118 31.4047 30.9916 31.4047C31.7799 31.4047 32.5598 31.388 33.323 31.346C32.6031 32.2814 31.8333 33.1772 31.0168 34.0295ZM24.7778 29.0902C23.5871 28.9141 22.4382 28.6961 21.3398 28.4277C21.6499 27.346 22.0358 26.2306 22.4718 25.1153C22.8157 25.7862 23.1763 26.4572 23.5703 27.1279C23.9644 27.7988 24.367 28.4529 24.7778 29.0902ZM30.9749 11.6396C31.7548 12.4446 32.5347 13.3419 33.3061 14.323C32.5514 14.2894 31.7799 14.2643 31.0001 14.2643C30.2118 14.2643 29.4319 14.2811 28.6689 14.323C29.3887 13.3876 30.1585 12.4918 30.9749 11.6396ZM24.7694 16.5788C24.3586 17.2245 23.9477 17.8869 23.562 18.5661C23.1763 19.237 22.8157 19.9079 22.4718 20.5786C22.0316 19.4858 21.6454 18.372 21.3147 17.2412C22.4131 16.9813 23.5703 16.7548 24.7694 16.5788ZM17.1804 27.0776C14.2119 25.8114 12.2916 24.1511 12.2916 22.8344C12.2916 21.5179 14.2119 19.8492 17.1804 18.5914C17.9016 18.281 18.6899 18.0043 19.5033 17.7444C19.9813 19.3879 20.6102 21.0986 21.39 22.8513C20.6186 24.5955 19.9979 26.2978 19.5284 27.9331C18.6983 27.673 17.91 27.388 17.1804 27.0776ZM21.6919 39.0608C20.5515 38.4068 20.0566 35.9162 20.4425 32.7128C20.5348 31.9247 20.6856 31.0943 20.8701 30.2474C22.5138 30.6499 24.3083 30.9603 26.1951 31.1615C27.3271 32.7128 28.5011 34.1215 29.6835 35.3543C26.9498 37.8952 24.3837 39.2871 22.6394 39.2871C22.2622 39.2789 21.9436 39.2033 21.6919 39.0608ZM41.5829 32.671C41.9769 35.8742 41.4906 38.3648 40.3584 39.0273C40.107 39.1782 39.78 39.2453 39.3941 39.2453C37.6583 39.2453 35.0839 37.8617 32.3502 35.3376C33.5242 34.1049 34.6982 32.7045 35.8135 31.153C37.7087 30.9518 39.5032 30.6415 41.1467 30.2307C41.3397 31.0777 41.4906 31.8911 41.5829 32.671ZM44.8113 27.0776C44.0901 27.388 43.3018 27.6647 42.4884 27.9246C42.0104 26.2811 41.3815 24.5704 40.6016 22.8177C41.3733 21.0735 41.9937 19.3712 42.4633 17.736C43.2936 17.9959 44.0817 18.281 44.8197 18.5914C47.7883 19.8575 49.7086 21.5179 49.7086 22.8344C49.7001 24.1511 47.7798 25.8198 44.8113 27.0776Z" fill="#61DAFB"/>
<path d="M30.9916 26.667C33.1083 26.667 34.824 24.9513 34.824 22.8346C34.824 20.7182 33.1083 19.0024 30.9916 19.0024C28.8752 19.0024 27.1594 20.7182 27.1594 22.8346C27.1594 24.9513 28.8752 26.667 30.9916 26.667ZM12.298 47.7474H11.033V49.9261H10.3191V44.5403H12.102C12.7086 44.5403 13.1747 44.6785 13.5002 44.9547C13.8282 45.2308 13.9922 45.6328 13.9922 46.1604C13.9922 46.4959 13.9009 46.7881 13.7185 47.0373C13.5384 47.2863 13.2869 47.4725 12.9639 47.5957L14.2289 49.8816V49.9261H13.4669L12.298 47.7474ZM11.033 47.1666H12.1242C12.4768 47.1666 12.7567 47.0753 12.9639 46.8929C13.1735 46.7104 13.2783 46.4663 13.2783 46.1604C13.2783 45.8276 13.1784 45.5724 12.9787 45.3948C12.7814 45.2173 12.4953 45.1273 12.1205 45.1248H11.033V47.1666ZM16.5445 50.0001C16.002 50.0001 15.5605 49.8226 15.2202 49.4674C14.8799 49.1098 14.7098 48.6326 14.7098 48.036V47.9101C14.7098 47.5132 14.785 47.1593 14.9354 46.8486C15.0883 46.5353 15.3004 46.2911 15.5716 46.1162C15.8454 45.9386 16.1413 45.8497 16.4594 45.8497C16.9798 45.8497 17.3842 46.0211 17.6726 46.3639C17.9612 46.7067 18.1054 47.1974 18.1054 47.8361V48.1209H15.3941C15.4039 48.5156 15.5186 48.8349 15.7381 49.0791C15.96 49.3206 16.2412 49.4415 16.5815 49.4415C16.8232 49.4415 17.0278 49.3922 17.1954 49.2936C17.3632 49.195 17.5099 49.0643 17.6357 48.9015L18.0536 49.227C17.7182 49.7423 17.2153 50.0001 16.5445 50.0001ZM16.4594 46.4121C16.1832 46.4121 15.9514 46.5132 15.764 46.7153C15.5766 46.9152 15.4607 47.1963 15.4163 47.5587H17.4212V47.507C17.4015 47.1593 17.3077 46.8904 17.1401 46.7005C16.9723 46.5083 16.7454 46.4121 16.4594 46.4121ZM21.3717 49.9261C21.3321 49.8471 21.3001 49.7067 21.2755 49.5044C20.9573 49.8348 20.5776 50.0001 20.1362 50.0001C19.7416 50.0001 19.4174 49.8891 19.1633 49.6671C18.9119 49.4427 18.7861 49.1592 18.7861 48.8164C18.7861 48.3997 18.944 48.0766 19.2595 47.8473C19.5776 47.6154 20.024 47.4995 20.5986 47.4995H21.2644V47.1852C21.2644 46.9459 21.1928 46.756 21.0499 46.6155C20.9068 46.4725 20.6959 46.401 20.4172 46.401C20.1731 46.401 19.9685 46.4625 19.8033 46.5859C19.6381 46.7091 19.5554 46.8584 19.5554 47.0335H18.8675C18.8675 46.8338 18.9378 46.6414 19.0782 46.4563C19.2213 46.269 19.4137 46.1211 19.6554 46.0125C19.8995 45.9041 20.1669 45.8497 20.4579 45.8497C20.9192 45.8497 21.2804 45.9656 21.5418 46.1976C21.8031 46.4269 21.9387 46.7438 21.9487 47.1481V48.9902C21.9487 49.3577 21.9955 49.6499 22.0893 49.8668V49.9261H21.3717ZM20.2361 49.4046C20.4506 49.4046 20.6541 49.3491 20.8465 49.2381C21.0387 49.1271 21.178 48.9829 21.2644 48.8053V47.9842H20.728C19.8896 47.9842 19.4703 48.2295 19.4703 48.7202C19.4703 48.9347 19.5419 49.1025 19.6848 49.2233C19.8279 49.344 20.0117 49.4046 20.2361 49.4046ZM24.6267 49.4415C24.8709 49.4415 25.0842 49.3675 25.2667 49.2195C25.4491 49.0716 25.5502 48.8867 25.5699 48.6647H26.2174C26.205 48.894 26.1261 49.1123 25.9806 49.3195C25.835 49.5267 25.6402 49.6919 25.3961 49.8151C25.1544 49.9385 24.898 50.0001 24.6267 50.0001C24.0818 50.0001 23.6477 49.8188 23.3246 49.4564C23.0042 49.0913 22.8438 48.5932 22.8438 47.9619V47.8473C22.8438 47.4577 22.9153 47.1111 23.0584 46.8079C23.2014 46.5045 23.406 46.269 23.6725 46.1014C23.9412 45.9336 24.2581 45.8497 24.623 45.8497C25.0719 45.8497 25.4443 45.9842 25.7402 46.2531C26.0385 46.5218 26.1975 46.8707 26.2174 47.2998H25.5699C25.5502 47.0408 25.4516 46.8287 25.274 46.6635C25.0991 46.4959 24.8819 46.4121 24.623 46.4121C24.2753 46.4121 24.0053 46.5377 23.8129 46.7894C23.6231 47.0384 23.5281 47.3997 23.5281 47.8732V48.0026C23.5281 48.4637 23.6231 48.8188 23.8129 49.0678C24.0029 49.317 24.2742 49.4415 24.6267 49.4415ZM27.9151 44.9547V45.9238H28.6624V46.4528H27.9151V48.9347C27.9151 49.095 27.9485 49.2158 28.0151 49.2972C28.0816 49.3761 28.1951 49.4157 28.3554 49.4157C28.4342 49.4157 28.5427 49.4009 28.6807 49.3712V49.9261C28.5007 49.9754 28.3258 50.0001 28.1555 50.0001C27.8499 50.0001 27.6192 49.9075 27.4638 49.7226C27.3085 49.5377 27.2309 49.275 27.2309 48.9347V46.4528H26.502V45.9238H27.2309V44.9547H27.9151ZM35.5906 49.9261H34.8765L32.1653 45.7759V49.9261H31.4514V44.5403H32.1653L34.884 48.7091V44.5403H35.5906V49.9261ZM39.2156 49.9261C39.176 49.8471 39.1439 49.7067 39.1194 49.5044C38.8012 49.8348 38.4215 50.0001 37.98 50.0001C37.5855 50.0001 37.2611 49.8891 37.0072 49.6671C36.7558 49.4427 36.63 49.1592 36.63 48.8164C36.63 48.3997 36.7877 48.0766 37.1034 47.8473C37.4214 47.6154 37.8679 47.4995 38.4425 47.4995H39.1083V47.1852C39.1083 46.9459 39.0367 46.756 38.8936 46.6155C38.7507 46.4725 38.5398 46.401 38.2611 46.401C38.017 46.401 37.8124 46.4625 37.6472 46.5859C37.482 46.7091 37.3993 46.8584 37.3993 47.0335H36.7113C36.7113 46.8338 36.7817 46.6414 36.9221 46.4563C37.0652 46.269 37.2576 46.1211 37.4993 46.0125C37.7434 45.9041 38.0108 45.8497 38.3018 45.8497C38.7629 45.8497 39.1242 45.9656 39.3856 46.1976C39.647 46.4269 39.7826 46.7438 39.7925 47.1481V48.9902C39.7925 49.3577 39.8394 49.6499 39.9332 49.8668V49.9261H39.2156ZM38.08 49.4046C38.2945 49.4046 38.498 49.3491 38.6903 49.2381C38.8825 49.1271 39.0219 48.9829 39.1083 48.8053V47.9842H38.5718C37.7335 47.9842 37.3142 48.2295 37.3142 48.7202C37.3142 48.9347 37.3858 49.1025 37.5287 49.2233C37.6718 49.344 37.8555 49.4046 38.08 49.4046ZM41.7937 44.9547V45.9238H42.5409V46.4528H41.7937V48.9347C41.7937 49.095 41.8271 49.2158 41.8936 49.2972C41.9602 49.3761 42.0736 49.4157 42.234 49.4157C42.3127 49.4157 42.4213 49.4009 42.5595 49.3712V49.9261C42.3793 49.9754 42.2043 50.0001 42.0341 50.0001C41.7284 50.0001 41.4978 49.9075 41.3423 49.7226C41.1871 49.5377 41.1094 49.275 41.1094 48.9347V46.4528H40.3808V45.9238H41.1094V44.9547H41.7937ZM44.0871 49.9261H43.4027V45.9238H44.0871V49.9261ZM43.3472 44.8621C43.3472 44.7513 43.3806 44.6575 43.4472 44.581C43.5162 44.5045 43.6172 44.4665 43.7504 44.4665C43.8837 44.4665 43.9848 44.5045 44.0538 44.581C44.1228 44.6575 44.1573 44.7513 44.1573 44.8621C44.1573 44.9731 44.1228 45.0656 44.0538 45.1396C43.9848 45.2135 43.8837 45.2506 43.7504 45.2506C43.6172 45.2506 43.5162 45.2135 43.4472 45.1396C43.3806 45.0656 43.3472 44.9731 43.3472 44.8621ZM46.5062 48.9977L47.4974 45.9238H48.1967L46.7615 49.9261H46.2398L44.7899 45.9238H45.489L46.5062 48.9977ZM50.4641 50.0001C49.9216 50.0001 49.4802 49.8226 49.1399 49.4674C48.7995 49.1098 48.6294 48.6326 48.6294 48.036V47.9101C48.6294 47.5132 48.7046 47.1593 48.855 46.8486C49.0078 46.5353 49.2199 46.2911 49.4913 46.1162C49.765 45.9386 50.0609 45.8497 50.3789 45.8497C50.8993 45.8497 51.3037 46.0211 51.5923 46.3639C51.8807 46.7067 52.0251 47.1974 52.0251 47.8361V48.1209H49.3137C49.3236 48.5156 49.4382 48.8349 49.6578 49.0791C49.8796 49.3206 50.1609 49.4415 50.501 49.4415C50.7427 49.4415 50.9475 49.3922 51.1151 49.2936C51.2828 49.195 51.4296 49.0643 51.5554 48.9015L51.9734 49.227C51.6379 49.7423 51.1348 50.0001 50.4641 50.0001ZM50.3789 46.4121C50.1029 46.4121 49.871 46.5132 49.6836 46.7153C49.4961 46.9152 49.3803 47.1963 49.336 47.5587H51.3407V47.507C51.321 47.1593 51.2273 46.8904 51.0596 46.7005C50.892 46.5083 50.6651 46.4121 50.3789 46.4121Z" fill="#61DAFB"/>
</svg>
