<svg width="44" height="50" viewBox="0 0 44 50" fill="none" xmlns="http://www.w3.org/2000/svg">
<g clip-path="url(#clip0_224_297)">
<path d="M43.88 25.0044C43.88 22.0975 40.2397 19.3427 34.6586 17.6344C35.9465 11.9459 35.3741 7.42019 32.8519 5.97124C32.2705 5.63136 31.5907 5.47037 30.8484 5.47037V7.46492C31.2598 7.46492 31.5907 7.54541 31.868 7.69746C33.0844 8.39511 33.6121 11.0515 33.2007 14.4682C33.1023 15.3089 32.9413 16.1944 32.7445 17.0978C30.9915 16.6684 29.0774 16.3375 27.065 16.1229C25.8575 14.4682 24.6054 12.9656 23.3442 11.6508C26.26 8.9407 28.9969 7.45597 30.8573 7.45597V5.46143C28.3977 5.46143 25.1778 7.21448 21.9221 10.2555C18.6664 7.23237 15.4465 5.4972 12.9869 5.4972V7.49175C14.8383 7.49175 17.5842 8.96753 20.5 11.6597C19.2478 12.9745 17.9956 14.4682 16.8061 16.1229C14.7847 16.3375 12.8706 16.6684 11.1176 17.1067C10.9119 16.2123 10.7598 15.3447 10.6525 14.5129C10.2321 11.0962 10.7509 8.43983 11.9583 7.73324C12.2267 7.57225 12.5755 7.50069 12.9869 7.50069V5.50615C12.2356 5.50615 11.5558 5.66714 10.9655 6.00702C8.45222 7.45597 7.88874 11.9728 9.18564 17.6434C3.62238 19.3606 0 22.1065 0 25.0044C0 27.9112 3.64027 30.666 9.22142 32.3744C7.93346 38.0629 8.50589 42.5886 11.0281 44.0375C11.6095 44.3774 12.2893 44.5384 13.0406 44.5384C15.5002 44.5384 18.7201 42.7854 21.9758 39.7444C25.2314 42.7675 28.4513 44.5026 30.911 44.5026C31.6623 44.5026 32.342 44.3416 32.9324 44.0018C35.4457 42.5528 36.0091 38.036 34.7122 32.3654C40.2576 30.6571 43.88 27.9023 43.88 25.0044ZM32.2347 19.0386C31.9038 20.1924 31.4924 21.382 31.0273 22.5716C30.6605 21.8561 30.2759 21.1405 29.8556 20.425C29.4441 19.7095 29.0059 19.0118 28.5676 18.3321C29.8377 18.5199 31.063 18.7524 32.2347 19.0386ZM28.1383 28.5642C27.4407 29.7716 26.7251 30.9165 25.9828 31.9808C24.6501 32.0971 23.2995 32.1597 21.94 32.1597C20.5894 32.1597 19.2389 32.0971 17.9151 31.9898C17.1728 30.9254 16.4483 29.7895 15.7506 28.591C15.0709 27.4193 14.4537 26.2297 13.8903 25.0312C14.4448 23.8327 15.0709 22.6342 15.7417 21.4625C16.4394 20.255 17.1549 19.1102 17.8972 18.0458C19.2299 17.9296 20.5805 17.867 21.94 17.867C23.2906 17.867 24.6411 17.9296 25.9649 18.0369C26.7072 19.1013 27.4317 20.2372 28.1294 21.4357C28.8091 22.6074 29.4263 23.7969 29.9897 24.9954C29.4263 26.194 28.8091 27.3925 28.1383 28.5642ZM31.0273 27.4014C31.5102 28.5999 31.9217 29.7985 32.2616 30.9612C31.0899 31.2474 29.8556 31.4889 28.5766 31.6767C29.0148 30.988 29.4531 30.2814 29.8645 29.557C30.276 28.8414 30.6605 28.117 31.0273 27.4014ZM21.9579 36.9448C21.1261 36.0862 20.2943 35.1292 19.4714 34.0827C20.2764 34.1185 21.0993 34.1453 21.9311 34.1453C22.7718 34.1453 23.6036 34.1274 24.4175 34.0827C23.6126 35.1292 22.7808 36.0862 21.9579 36.9448ZM15.3034 31.6767C14.0334 31.4889 12.808 31.2564 11.6363 30.9701C11.9673 29.8163 12.3787 28.6268 12.8438 27.4372C13.2105 28.1527 13.5951 28.8683 14.0155 29.5838C14.4359 30.2993 14.8652 30.997 15.3034 31.6767ZM21.9132 13.064C22.745 13.9226 23.5768 14.8796 24.3996 15.9261C23.5947 15.8903 22.7718 15.8635 21.94 15.8635C21.0993 15.8635 20.2674 15.8814 19.4535 15.9261C20.2585 14.8796 21.0903 13.9226 21.9132 13.064ZM15.2945 18.3321C14.8562 19.0208 14.418 19.7273 14.0065 20.4518C13.5951 21.1674 13.2105 21.8829 12.8438 22.5984C12.3608 21.3999 11.9494 20.2014 11.6095 19.0386C12.7812 18.7614 14.0155 18.5199 15.2945 18.3321ZM7.20004 29.5301C4.03381 28.1796 1.9856 26.4086 1.9856 25.0044C1.9856 23.6002 4.03381 21.8203 7.20004 20.4787C7.96924 20.1477 8.80999 19.8526 9.67757 19.5753C10.1874 21.3283 10.8582 23.153 11.69 25.0223C10.8671 26.8827 10.2053 28.6983 9.7044 30.4424C8.81893 30.1652 7.97818 29.8611 7.20004 29.5301ZM12.012 42.3113C10.7956 41.6137 10.2679 38.9573 10.6793 35.5406C10.7777 34.6998 10.9387 33.8144 11.1355 32.911C12.8885 33.3403 14.8026 33.6713 16.815 33.8859C18.0225 35.5406 19.2746 37.0432 20.5358 38.358C17.62 41.0681 14.8831 42.5528 13.0227 42.5528C12.6202 42.5439 12.2803 42.4634 12.012 42.3113ZM33.2275 35.4959C33.6479 38.9125 33.1291 41.569 31.9217 42.2755C31.6533 42.4365 31.3045 42.5081 30.8931 42.5081C29.0417 42.5081 26.2958 41.0323 23.38 38.3401C24.6322 37.0253 25.8844 35.5317 27.0739 33.877C29.0953 33.6623 31.0094 33.3314 32.7624 32.8931C32.9681 33.7965 33.1291 34.6641 33.2275 35.4959ZM36.671 29.5301C35.9018 29.8611 35.0611 30.1562 34.1935 30.4335C33.6837 28.6804 33.0129 26.8558 32.1811 24.9865C33.0039 23.1261 33.6658 21.3105 34.1667 19.5663C35.0521 19.8436 35.8929 20.1477 36.68 20.4787C39.8462 21.8292 41.8944 23.6002 41.8944 25.0044C41.8855 26.4086 39.8372 28.1885 36.671 29.5301Z" fill="#61DAFB"/>
<path d="M21.9312 29.0919C24.1887 29.0919 26.0187 27.2619 26.0187 25.0045C26.0187 22.747 24.1887 20.917 21.9312 20.917C19.6738 20.917 17.8438 22.747 17.8438 25.0045C17.8438 27.2619 19.6738 29.0919 21.9312 29.0919Z" fill="#61DAFB"/>
</g>
<defs>
<clipPath id="clip0_224_297">
<rect width="43.88" height="50" fill="white"/>
</clipPath>
</defs>
</svg>
