<svg width="80" height="80" viewBox="0 0 80 80" fill="none" xmlns="http://www.w3.org/2000/svg">
<g clip-path="url(#clip0_210_119)">
<path d="M68.5046 36.8888C68.4551 35.0808 67.567 33.4638 66.2182 32.4007C66.5745 31.6372 66.7735 30.7861 66.7735 29.8896C66.7735 26.6039 64.1004 23.9308 60.8148 23.9308H53.908L53.9435 15.5936C53.9504 13.9606 53.3196 12.4239 52.1672 11.2667C51.0149 10.1095 49.481 9.47217 47.848 9.47217C45.3979 9.47217 43.1938 10.9339 42.2332 13.1959C41.4096 15.1347 39.8363 18.0134 37.6831 21.5206C36.7706 23.007 35.1192 23.9306 33.3736 23.9306H28.4758H23.7231H11.4934V57.3434H23.7233H28.4759V57.3435H59.0815C62.3671 57.3435 65.0402 54.6702 65.0402 51.3846C65.0402 50.4988 64.8459 49.6574 64.4976 48.9012C65.8829 47.809 66.7737 46.1163 66.7737 44.2197C66.7737 43.335 66.5799 42.495 66.2327 41.7394C66.4379 41.5774 66.6338 41.4005 66.8193 41.2099C67.9506 40.0469 68.5491 38.5122 68.5046 36.8888ZM23.7231 52.5907H16.2461V28.6835H23.7231V52.5907ZM63.4132 37.8953C63.2804 38.0318 62.9916 38.2607 62.5485 38.2607H60.8152H56.0663V43.0133H60.8152C61.4802 43.0133 62.0213 43.5546 62.0213 44.2196C62.0213 44.8846 61.4804 45.4257 60.8152 45.4257H59.0818H56.0665V50.1783H59.0818C59.7468 50.1783 60.2879 50.7196 60.2879 51.3844C60.2879 52.0494 59.7469 52.5907 59.0818 52.5907H28.4758V28.6835H33.3736C36.7597 28.6835 39.9632 26.8916 41.7338 24.007C43.3197 21.4236 45.4529 17.7733 46.6079 15.0539C46.8218 14.5503 47.3088 14.2248 47.8483 14.2248C48.2082 14.2248 48.5458 14.3651 48.7999 14.6201C49.0538 14.875 49.1925 15.2136 49.1911 15.5734L49.1352 28.6835H60.8151C61.4801 28.6835 62.0212 29.2247 62.0212 29.8896C62.0212 30.5546 61.4801 31.0958 60.8151 31.0958H56.0662V35.8485H60.8151H62.474C63.1621 35.8485 63.7365 36.3735 63.7541 37.0191C63.7663 37.4641 63.5457 37.7591 63.4132 37.8953Z" fill="#EE2C2F"/>
<path d="M0 1.56494V66.8354H31.4593L40.0001 78.4352L48.5409 66.8354H80.0002V1.56494H0ZM75.2475 62.0827H46.1381L39.9999 70.4193L33.8618 62.0826H4.75267V6.31745H75.2475V62.0827Z" fill="white"/>
</g>
<defs>
<clipPath id="clip0_210_119">
<rect width="80" height="80" fill="white"/>
</clipPath>
</defs>
</svg>
