<svg width="51" height="50" viewBox="0 0 51 50" fill="none" xmlns="http://www.w3.org/2000/svg">
<g clip-path="url(#clip0_224_353)">
<path d="M4.4336 24.9995C4.4336 33.4889 9.36696 40.8247 16.5207 44.3016L6.29039 16.2713C5.06401 19.0176 4.43128 21.9918 4.4336 24.9995ZM40.3583 23.9172C40.3583 21.2667 39.4062 19.4311 38.5896 18.0024C37.5025 16.2358 36.4839 14.7398 36.4839 12.9732C36.4839 11.0017 37.9787 9.16653 40.0849 9.16653C40.18 9.16653 40.2701 9.17837 40.3632 9.18367C36.5472 5.688 31.4636 3.55371 25.8802 3.55371C18.3877 3.55371 11.7959 7.39789 7.9611 13.2205C8.46427 13.2356 8.93888 13.2458 9.34125 13.2458C11.5845 13.2458 15.0569 12.9736 15.0569 12.9736C16.213 12.9054 16.3493 14.6035 15.1948 14.7402C15.1948 14.7402 14.0326 14.8769 12.7398 14.9446L20.5498 38.175L25.2436 24.0988L21.9017 14.9442C20.7469 14.8765 19.6528 14.7398 19.6528 14.7398C18.4971 14.672 18.6326 12.905 19.7883 12.9732C19.7883 12.9732 23.3301 13.2454 25.4374 13.2454C27.6803 13.2454 31.1531 12.9732 31.1531 12.9732C32.31 12.905 32.4459 14.6031 31.2906 14.7398C31.2906 14.7398 30.1263 14.8765 28.836 14.9442L36.5863 37.9987L38.7251 30.8502C39.6527 27.8838 40.3583 25.7532 40.3583 23.9172Z" fill="white"/>
<path d="M26.2565 26.8754L19.8218 45.5731C21.789 46.1529 23.8293 46.4473 25.8802 46.4473C28.3777 46.4473 30.7728 46.0151 33.0022 45.2316C32.9424 45.138 32.8913 45.0391 32.8495 44.9361L26.2565 26.8754ZM44.6987 14.71C44.791 15.3931 44.8432 16.1268 44.8432 16.9153C44.8432 19.0916 44.4367 21.5381 43.2125 24.5971L36.6615 43.5376C43.0374 39.8195 47.326 32.9118 47.326 24.9995C47.3317 21.403 46.428 17.8634 44.6987 14.71Z" fill="white"/>
<path d="M25.8806 0C12.0958 0 0.880371 11.2146 0.880371 24.9994C0.880371 38.7858 12.0954 50.0004 25.8806 50.0004C39.6649 50.0004 50.882 38.7862 50.882 24.9994C50.8816 11.2146 39.6649 0 25.8806 0ZM25.8806 48.8541C12.7279 48.8541 2.02669 38.1528 2.02669 24.9994C2.02669 11.8472 12.7275 1.14672 25.8806 1.14672C39.0328 1.14672 49.7332 11.8472 49.7332 24.9994C49.7332 38.1528 39.0324 48.8541 25.8806 48.8541Z" fill="white"/>
</g>
<defs>
<clipPath id="clip0_224_353">
<rect width="50" height="50" fill="white" transform="translate(0.879883)"/>
</clipPath>
</defs>
</svg>
