<svg width="100" height="100" viewBox="0 0 100 100" fill="none" xmlns="http://www.w3.org/2000/svg">
<path d="M8.33301 79.1667C8.33301 86.25 13.7497 91.6667 20.833 91.6667H79.1663C86.2497 91.6667 91.6663 86.25 91.6663 79.1667V45.8334H8.33301V79.1667ZM79.1663 16.6667H70.833V12.5C70.833 10 69.1663 8.33337 66.6663 8.33337C64.1663 8.33337 62.4997 10 62.4997 12.5V16.6667H37.4997V12.5C37.4997 10 35.833 8.33337 33.333 8.33337C30.833 8.33337 29.1663 10 29.1663 12.5V16.6667H20.833C13.7497 16.6667 8.33301 22.0834 8.33301 29.1667V37.5H91.6663V29.1667C91.6663 22.0834 86.2497 16.6667 79.1663 16.6667Z" fill="#AFAFAF"/>
</svg>
