<svg width="100" height="100" viewBox="0 0 100 100" fill="none" xmlns="http://www.w3.org/2000/svg">
<g clip-path="url(#clip0_366_1395)">
<path d="M99.9955 40.3947L99.091 7.62258C98.99 3.95815 96.0406 1.00867 92.3759 0.907244L59.6034 0.00276936C57.6889 -0.0507672 55.8777 0.673671 54.528 2.02338L2.02309 54.5285C-0.670457 57.2221 -0.670457 61.6046 2.02309 64.2982L35.6999 97.9747C38.3995 100.675 42.7694 100.675 45.4697 97.9749L97.9749 45.47C99.311 44.1336 100.048 42.2836 99.9955 40.3947ZM84.9899 31.6203C80.3991 36.2109 72.969 36.2113 68.378 31.6203C63.798 27.0403 63.798 19.5881 68.378 15.0084C72.9688 10.4176 80.3988 10.4173 84.9899 15.0084C89.5696 19.5881 89.5696 27.0403 84.9899 31.6203Z" fill="#AFAFAF"/>
</g>
<defs>
<clipPath id="clip0_366_1395">
<rect width="100" height="100" fill="white"/>
</clipPath>
</defs>
</svg>
