<svg width="100" height="100" viewBox="0 0 100 100" fill="none" xmlns="http://www.w3.org/2000/svg">
<path d="M50.0003 0C29.6253 0 13.0488 16.5762 13.0488 36.9514C13.0488 56.6778 46.7355 97.4168 48.1695 99.1413C48.6218 99.6851 49.2926 100 50.0003 100C50.7076 100 51.3787 99.6854 51.8311 99.1413C53.2653 97.4165 86.9517 56.6778 86.9517 36.9514C86.9517 16.5762 70.3755 0 50.0003 0ZM50.0003 93.8406C47.0133 90.1108 40.8072 82.1641 34.666 73.0797C23.6393 56.7689 17.8107 44.2759 17.8107 36.9514C17.8107 19.2019 32.2511 4.7619 50.0003 4.7619C67.7495 4.7619 82.1898 19.2019 82.1898 36.9514C82.1898 44.2756 76.3615 56.7686 65.3345 73.0797C59.193 82.1641 52.9872 90.1108 50.0003 93.8406Z" fill="white"/>
<path d="M62.1136 67.9225C61.0241 67.1863 59.5438 67.4733 58.8079 68.5629C55.5949 73.3191 51.9955 78.3038 48.1098 83.3787C47.3104 84.4229 47.5085 85.9171 48.5527 86.7165C48.9844 87.0473 49.4933 87.2073 49.9984 87.2073C50.7139 87.2073 51.4219 86.8857 51.8904 86.2737C55.8333 81.1244 59.4882 76.0625 62.7536 71.2286C63.4898 70.139 63.2035 68.6587 62.1136 67.9225Z" fill="white"/>
<path d="M50.0004 18.254C39.235 18.254 30.4766 27.0124 30.4766 37.7778C30.4766 48.5432 39.235 57.3016 50.0004 57.3016C60.7658 57.3016 69.5242 48.5432 69.5242 37.7778C69.5242 27.0124 60.7658 18.254 50.0004 18.254ZM50.0004 52.5397C41.8607 52.5397 35.2385 45.9175 35.2385 37.7778C35.2385 29.6381 41.8607 23.0159 50.0004 23.0159C58.1404 23.0159 64.7623 29.6381 64.7623 37.7778C64.7623 45.9175 58.1404 52.5397 50.0004 52.5397Z" fill="#EE2C2F"/>
</svg>
