<svg width="100" height="100" viewBox="0 0 100 100" fill="none" xmlns="http://www.w3.org/2000/svg">
<g clip-path="url(#clip0_355_1304)">
<path d="M73.4552 63.9782C71.3301 62.7648 69.1266 62.3814 67.2532 62.9015C65.8465 63.2915 64.6998 64.1815 63.9281 65.4783C62.2263 67.5134 60.1162 69.8885 59.6078 70.2568C55.656 72.9303 52.5208 72.6136 49.1156 69.2085L29.9714 50.0642C26.5629 46.6557 26.2495 43.5172 28.9196 39.577C29.293 39.0603 31.6681 36.9518 33.7015 35.2518C34.9983 34.4784 35.8883 33.3333 36.2783 31.9249C36.7967 30.0532 36.4133 27.8514 35.19 25.7063C34.9016 25.2129 28.0413 13.589 21.7143 10.2438C18.4991 8.54543 14.6223 9.12712 12.0538 11.6973L7.82525 15.9258C-4.51036 28.2631 -2.22692 43.5872 14.4289 60.2413L38.9385 84.7526C46.5038 92.3196 53.8342 96.9632 60.7196 98.5549C62.5463 98.9766 64.3364 99.1883 66.0932 99.1883C72.2885 99.1883 78.0421 96.5665 83.254 91.3546L87.4826 87.126C90.051 84.5576 90.6361 80.6757 88.936 77.4655C85.5891 71.1402 73.9669 64.2765 73.4552 63.9782ZM85.1258 84.7676L80.8972 88.9961C69.95 99.9433 56.6244 97.7249 41.2953 82.3941L16.7857 57.8829C1.4566 42.5555 -0.765177 29.2315 10.182 18.2809L14.4106 14.0524C15.354 13.109 16.599 12.6156 17.8608 12.6156C18.6391 12.6156 19.4258 12.8023 20.1542 13.189C25.6445 16.0941 32.2481 27.2797 32.3031 27.3747C33.0515 28.6864 33.3365 30.0548 33.0648 31.0349C32.8982 31.6349 32.5265 32.0916 31.9248 32.4283L31.6748 32.6016C30.253 33.7884 26.8695 36.6585 26.1612 37.7036C25.1411 39.2103 24.4644 40.6904 24.1094 42.1454C22.9243 39.782 21.9676 37.0452 21.6526 34.01C21.5559 33.095 20.7409 32.4433 19.8209 32.5233C18.9058 32.62 18.2408 33.4383 18.3341 34.355C19.5375 45.944 28.5513 53.4877 28.933 53.8027C28.9746 53.8377 29.0246 53.8494 29.068 53.8794L46.7555 71.5669C46.8305 71.6419 46.9072 71.7069 46.9822 71.7786C47.0405 71.8653 47.0789 71.9603 47.1555 72.0369C47.4706 72.3486 54.9959 79.649 66.4882 80.8424C66.5465 80.8474 66.6049 80.8507 66.6615 80.8507C67.5049 80.8507 68.2283 80.2123 68.3183 79.3573C68.4133 78.4406 67.7466 77.6222 66.8315 77.5255C63.3064 77.1605 60.1845 76.1271 57.5827 74.9287C58.8595 74.5454 60.1579 73.9087 61.4729 73.017C62.518 72.3069 65.3881 68.9268 66.5732 67.505L66.7465 67.2534C67.0832 66.655 67.5399 66.2816 68.1399 66.1133C69.115 65.8483 70.4867 66.125 71.7818 66.8633C74.9136 68.7001 83.5707 74.4637 85.9842 79.0239C86.9992 80.934 86.6525 83.2408 85.1258 84.7676Z" fill="white"/>
<path d="M45.6052 0.811707C44.6835 0.811707 43.9385 1.55674 43.9385 2.47846C43.9385 3.40017 44.6835 4.14521 45.6052 4.14521C73.76 4.14521 96.6661 27.0514 96.6661 55.2061C96.6661 56.1278 97.4112 56.8728 98.3329 56.8728C99.2546 56.8728 99.9996 56.1278 99.9996 55.2061C99.9996 25.2129 75.5984 0.811707 45.6052 0.811707Z" fill="#EE2C2F"/>
<path d="M45.6052 15.8625C67.2996 15.8625 84.9472 33.5117 84.9472 55.2044C84.9472 56.1261 85.6922 56.8712 86.6139 56.8712C87.5357 56.8712 88.2807 56.1261 88.2807 55.2044C88.2807 31.6732 69.1364 12.529 45.6052 12.529C44.6835 12.529 43.9385 13.274 43.9385 14.1957C43.9385 15.1174 44.6835 15.8625 45.6052 15.8625Z" fill="#EE2C2F"/>
<path d="M45.6052 27.5797C60.8393 27.5797 73.2316 39.9737 73.2316 55.2061C73.2316 56.1278 73.9766 56.8728 74.8984 56.8728C75.8201 56.8728 76.5651 56.1278 76.5651 55.2061C76.5651 38.1352 62.6761 24.2462 45.6052 24.2462C44.6835 24.2462 43.9385 24.9912 43.9385 25.913C43.9385 26.8347 44.6835 27.5797 45.6052 27.5797Z" fill="#EE2C2F"/>
</g>
<defs>
<clipPath id="clip0_355_1304">
<rect width="100" height="100" fill="white"/>
</clipPath>
</defs>
</svg>
