<svg width="100" height="100" viewBox="0 0 100 100" fill="none" xmlns="http://www.w3.org/2000/svg">
<path d="M54.6902 75.3737C57.6113 75.3737 60.1194 74.4107 61.943 72.5894C64.3223 70.2052 65.2236 66.7075 64.4911 62.7281C63.7977 58.9618 61.6998 55.1713 58.5834 52.0552C54.7311 48.2028 49.7689 45.9028 45.3098 45.9028C42.3864 45.9028 39.877 46.8669 38.0528 48.6911C35.6794 51.0647 34.7762 54.5654 35.5092 58.5486C36.2026 62.315 38.3006 66.1054 41.4168 69.2216C45.2692 73.0739 50.2313 75.3737 54.6902 75.3737ZM39.3411 52.236L43.4989 56.3939C43.8106 56.7056 44.2189 56.8613 44.6275 56.8613C45.0357 56.8613 45.4443 56.7056 45.756 56.3939C46.3792 55.7707 46.3792 54.7603 45.756 54.1373L41.597 49.9784C42.6392 49.3967 43.8968 49.0945 45.31 49.0945C48.9413 49.0945 53.0598 51.045 56.3266 54.312C58.9902 56.9754 60.7749 60.1696 61.3523 63.306C61.7626 65.5341 61.514 67.5126 60.6594 69.0407L50.2694 58.6507C49.6462 58.0275 48.636 58.0273 48.0126 58.6507C47.3894 59.2739 47.3894 60.2843 48.0126 60.9073L58.4036 71.2984C57.3615 71.8801 56.1036 72.1822 54.6904 72.1822C51.0592 72.1822 46.9406 70.2318 43.6738 66.9647C41.0102 64.3013 39.2255 61.1073 38.6483 57.9707C38.2379 55.7428 38.4862 53.7641 39.3411 52.236V52.236Z" fill="#EE2C2F"/>
<path d="M84.5745 12.766H79.4373L76.5481 1.20872C76.3705 0.498298 75.7322 0 75 0H25C24.2679 0 23.6296 0.498298 23.452 1.20872L20.5628 12.766H15.4256C14.5441 12.766 13.8298 13.4804 13.8298 14.3617V22.8723C13.8298 23.7536 14.5441 24.4681 15.4256 24.4681H17.1505L19.9496 57.5926C20.02 58.4251 20.7173 59.054 21.5379 59.054C21.583 59.054 21.6286 59.0521 21.6743 59.0483C22.5524 58.974 23.2041 58.2021 23.13 57.324L21.5222 38.2979H78.4781L74.7022 82.9787H25.2979L23.6675 63.684C23.593 62.8057 22.8198 62.1517 21.943 62.2283C21.0649 62.3026 20.4132 63.0745 20.4873 63.9526L23.4098 98.5383C23.4796 99.3647 24.1707 99.9998 25 99.9998H75C75.8292 99.9998 76.5205 99.3647 76.5903 98.5383L82.8496 24.4681H84.5745C85.456 24.4681 86.1703 23.7536 86.1703 22.8723V14.3617C86.1703 13.4804 85.456 12.766 84.5745 12.766ZM26.4666 96.8085L25.5677 86.1702H74.4326L73.5337 96.8085H26.4666ZM78.7477 35.1064H21.2524L20.3535 24.4681H79.6466L78.7477 35.1064ZM82.9788 21.2766H81.3551C81.3539 21.2766 17.0213 21.2766 17.0213 21.2766V15.9574H21.7754C21.7979 15.9579 21.8213 15.9579 21.8443 15.9574H71.8086C72.69 15.9574 73.4043 15.243 73.4043 14.3617C73.4043 13.4804 72.69 12.766 71.8086 12.766H23.8522L26.2458 3.19149H73.7541L76.6432 14.7487C76.8211 15.4591 77.4594 15.9574 78.1915 15.9574H82.9788V21.2766Z" fill="#FFFDFD"/>
</svg>
