<svg width="100" height="100" viewBox="0 0 100 100" fill="none" xmlns="http://www.w3.org/2000/svg">
<path d="M34.5339 79.9795C34.9528 79.9097 35.3831 79.9696 35.7671 80.1512C40.1775 82.237 45.0089 83.3333 49.9999 83.3333C68.4094 83.3333 83.3333 68.4095 83.3333 50C83.3333 31.5905 68.4094 16.6667 49.9999 16.6667C31.5905 16.6667 16.6666 31.5905 16.6666 50C16.6666 57.1121 18.897 63.8827 22.9772 69.5207C23.4171 70.1284 23.4962 70.9257 23.1844 71.608L18.1075 82.7172L34.5339 79.9795ZM14.9258 87.4716C13.2791 87.7461 11.9945 86.0691 12.6884 84.5507L18.8996 70.9594C14.7559 64.8234 12.4999 57.5791 12.4999 50C12.4999 29.2893 29.2893 12.5 49.9999 12.5C70.7106 12.5 87.4999 29.2893 87.4999 50C87.4999 70.7107 70.7106 87.5 49.9999 87.5C44.6147 87.5 39.3869 86.3627 34.5855 84.195L14.9258 87.4716Z" fill="white"/>
</svg>
