<svg width="100" height="100" viewBox="0 0 100 100" fill="none" xmlns="http://www.w3.org/2000/svg">
<path d="M99.511 29.0203L76.2237 6.68465C75.9339 6.40996 75.5493 5.93262 75.1503 5.93262H24.8496C24.4507 5.93262 24.0662 6.40996 23.7762 6.68465L0.489013 28.8579C-0.0953618 29.4103 -0.164737 30.3979 0.328857 31.0326C0.656982 31.4551 48.491 93.1039 48.8471 93.5032C49.007 93.6829 49.2226 93.8495 49.3828 93.919C49.8146 94.1075 50.176 94.1217 50.6173 93.9292C50.7775 93.8596 50.9929 93.7184 51.1529 93.5387C51.1765 93.5123 51.2118 93.5035 51.2337 93.4754L99.6712 31.1126C100.165 30.4778 100.095 29.5726 99.511 29.0203ZM24.4178 10.0537L32.2217 27.8076H5.63464L24.4178 10.0537ZM37.6243 27.8076L50 10.2112L62.3757 27.8076H37.6243ZM63.6237 30.9326L50 85.4279L36.3764 30.9326H63.6237ZM53.009 9.05762H72.6064L65.0689 26.2054L53.009 9.05762ZM34.9312 26.2054L27.3937 9.05762H46.991L34.9312 26.2054ZM33.1549 30.9326L46.6856 85.0551L4.64917 30.9326H33.1549ZM66.8451 30.9326H95.3509L53.3145 85.0551L66.8451 30.9326ZM67.7784 27.8076L75.5823 10.0537L94.3654 27.8076H67.7784Z" fill="#FFFBFB"/>
</svg>
