<svg width="100" height="100" viewBox="0 0 100 100" fill="none" xmlns="http://www.w3.org/2000/svg">
<path d="M96.2349 67.7302C98.3143 67.7302 100 69.4159 100 71.4954C100 73.4016 98.5836 74.9769 96.7458 75.2262L96.2349 75.2606L44.7806 75.2581V67.7277L96.2349 67.7302ZM81.1773 10C86.0294 10 89.9627 13.9334 89.9627 18.7854V56.4386C89.9627 61.2907 86.0294 65.2241 81.1773 65.2241L44.7806 65.2226V57.6923L81.1773 57.6937C81.8705 57.6937 82.4324 57.1318 82.4324 56.4386V18.7854C82.4324 18.0923 81.8705 17.5304 81.1773 17.5304H18.4243C17.7312 17.5304 17.1693 18.0923 17.1693 18.7854L17.1643 20.0355H9.63892V18.7854C9.63892 13.9334 13.5723 10 18.4243 10H81.1773Z" fill="white"/>
<path d="M31.3988 25.6631C36.2508 25.6631 40.1842 29.5965 40.1842 34.4485V82.1415C40.1842 86.9935 36.2508 90.9269 31.3988 90.9269H8.78542C3.93337 90.9269 0 86.9935 0 82.1415V34.4485C0 29.5965 3.93337 25.6631 8.78542 25.6631H31.3988ZM31.3988 33.1934H8.78542C8.09227 33.1934 7.53036 33.7554 7.53036 34.4485V82.1415C7.53036 82.8346 8.09227 83.3965 8.78542 83.3965H31.3988C32.0919 83.3965 32.6538 82.8346 32.6538 82.1415V34.4485C32.6538 33.7554 32.0919 33.1934 31.3988 33.1934ZM21.3471 70.8302C23.4266 70.8302 25.1123 72.5159 25.1123 74.5953C25.1123 76.5015 23.6958 78.0768 21.8581 78.3261L21.3471 78.3605H18.837C16.7576 78.3605 15.0719 76.6748 15.0719 74.5953C15.0719 72.6892 16.4883 71.1139 18.3261 70.8645L18.837 70.8302H21.3471Z" fill="#EE2C2F"/>
</svg>
