<svg width="100" height="100" viewBox="0 0 100 100" fill="none" xmlns="http://www.w3.org/2000/svg">
<path d="M20.8914 59.0222C21.0928 61.1995 20.9387 67.1184 15.2685 75.349C14.8396 75.9701 14.9174 76.8078 15.4501 77.3403C17.7618 79.652 19.1931 81.1107 20.197 82.1315C21.517 83.4775 22.1196 84.0907 23.0017 84.8904C23.5906 85.4198 24.4817 85.429 25.0768 84.9101C34.9599 76.3103 45.9371 58.54 44.3487 36.7687C43.4179 23.985 34.0932 14.7061 22.1776 14.7061C9.94933 14.7061 0.000576019 24.6532 0.000576019 36.8817C0.000576019 48.6782 9.25947 58.3523 20.8914 59.0222ZM22.1776 17.8311C32.4103 17.8311 40.4226 25.8907 41.2328 36.9945C41.2328 36.9945 41.2328 36.9945 41.2328 36.9961C43.0196 61.4818 28.4643 77.3861 24.0667 81.5975C23.6379 81.1748 23.1481 80.6775 22.4264 79.942C21.5567 79.057 20.3664 77.8454 18.5659 76.0387C25.4492 65.4339 24.1506 57.8778 23.5815 56.7943C23.3114 56.2801 22.7575 55.9337 22.1776 55.9337C11.672 55.9337 3.12558 47.3873 3.12558 36.8817C3.12558 26.3775 11.672 17.8311 22.1776 17.8311Z" fill="white"/>
<path d="M76.3849 59.0221C76.5879 61.1933 76.4383 67.1077 70.7621 75.3489C70.3348 75.97 70.4112 76.8077 70.9437 77.3402C73.2508 79.6474 74.6805 81.1046 75.683 82.1253C77.0074 83.4742 77.6118 84.0892 78.4937 84.8903C79.0827 85.4197 79.9738 85.4274 80.5688 84.9116C90.4519 76.3117 101.431 58.5444 99.8454 36.7686V36.7671C98.9115 23.9849 89.5854 14.706 77.6698 14.706C65.4413 14.706 55.4926 24.6532 55.4926 36.8816C55.4926 48.6796 64.7516 58.3552 76.3849 59.0221ZM77.6698 17.831C87.9007 17.831 95.9177 25.8907 96.7294 36.996V36.9944C98.5116 61.4863 83.9563 77.3875 79.5588 81.5974C79.1285 81.1747 78.6371 80.6742 77.9138 79.9372C77.0457 79.0522 75.8569 77.8422 74.0594 76.0386C80.9427 65.4322 79.6441 57.8777 79.0751 56.7958C78.8049 56.2816 78.2496 55.9336 77.6698 55.9336C67.164 55.9336 58.6176 47.3872 58.6176 36.8816C58.6176 26.3774 67.164 17.831 77.6698 17.831Z" fill="white"/>
</svg>
