<svg width="100" height="100" viewBox="0 0 100 100" fill="none" xmlns="http://www.w3.org/2000/svg">
<path d="M27.4844 15.4563L30.2875 14.0781C31.0219 15.5656 31.25 16.9375 31.25 18.4813H28.125C28.125 17.2969 28.0313 16.5719 27.4844 15.4563ZM28.125 25H31.25V21.875H28.125V25ZM27.7469 10.825L26.2937 9.375H28.125V6.25H21.875V9.375L25.5375 13.0375L27.7469 10.825ZM52.2688 23.1375L55.1094 21.8344C54.675 20.8906 54.125 20 53.4656 19.1875L51.0375 21.1531C51.5281 21.7594 51.9438 22.4281 52.2688 23.1375ZM34.375 6.25H31.25V9.375H34.375V6.25ZM53.125 28.125H56.25C56.25 26.8156 56.2812 26.0969 56.0469 24.8063L52.9719 25.3688C53.1563 26.3719 53.125 27.0719 53.125 28.125ZM49.0969 19.1406L51.3062 16.9313C51.1312 16.7563 51.0094 16.6344 50.8594 16.4844C49.7656 15.3906 49.3063 14.9312 49.2469 14.8719C49.1906 14.8156 49.1563 14.7813 49.0969 14.7219L46.8875 16.9313L49.0969 19.1406ZM42.2938 8.29063C41.3031 7.57813 39.5594 6.7875 38.3813 6.49375L37.65 9.56875C38.6563 9.95938 39.9313 10.475 40.5844 10.9031L42.2938 8.29063ZM46.8844 12.5094C46.7031 12.3281 46.5719 12.1969 46.4219 12.0469C46.3844 12.0094 46.3438 11.9688 46.3094 11.9344C46.2406 11.8656 46.1344 11.7594 45.9938 11.6187C46.0781 11.7031 46.1594 11.7844 46.225 11.85C46.0281 11.6531 45.8656 11.4906 45.725 11.35C45.8156 11.4406 45.9094 11.5312 45.9938 11.6187C45.7188 11.3437 45.2969 10.9219 44.675 10.3L42.4656 12.5094L44.675 14.7188L46.8844 12.5094ZM77.5781 77.5781L75.3688 79.7875L77.5781 81.9969L79.7875 79.7875L77.5781 77.5781ZM75.3688 75.3688C75.3281 75.3281 73.1594 73.1594 73.1594 73.1594L70.95 75.3688L73.1594 77.5781L75.3688 75.3688ZM71.5844 93.5531C72.4406 93.65 73.8688 93.7344 74.9625 93.7469C74.9625 93.7469 75.0031 90.6281 75.0031 90.6219C74.0688 90.6094 72.8656 90.55 71.9375 90.4469L71.5844 93.5531ZM78.125 93.75H81.25V90.625H78.125V93.75ZM86.4156 86.4156L84.2063 88.625L86.2063 90.625H84.375V93.75H90.625V90.625L86.4156 86.4156ZM81.9969 81.9969L79.7875 84.2063L81.9969 86.4156L84.2063 84.2063L81.9969 81.9969ZM54.5187 86.3469L57.1188 88.0813L58.8531 85.4813L56.2531 83.7469L54.5187 86.3469ZM49.3188 82.8781L51.9188 84.6125L53.6531 82.0125L51.0531 80.2781L49.3188 82.8781ZM65.4844 92.2375C66.475 92.5563 67.4813 92.8281 68.5 93.0469L69.1594 89.9906C68.2469 89.7938 67.3344 89.55 66.4438 89.2625L65.4844 92.2375ZM44.1188 79.4125L46.7188 81.1469L48.4531 78.5469L45.8531 76.8125L44.1188 79.4125ZM59.7688 89.7375C60.6438 90.2313 61.575 90.6969 62.5656 91.1313L63.8188 88.2688C62.9625 87.8938 62.1156 87.4719 61.3031 87.0156L59.7688 89.7375ZM41.425 73.8594L43.2531 75.0781L41.5188 77.6781L38.9188 75.9438L39.9906 74.3375L19.7406 81.0875C19.4125 81.1969 19.0813 81.25 18.75 81.25C17.9344 81.25 17.1344 80.9313 16.5406 80.3344L13.4156 77.2094C12.3031 76.0969 12.1906 74.325 13.1563 73.0813L23.0656 60.3406L7.975 52.7937C6.91875 52.2656 6.25 51.1844 6.25 50V46.875C6.25 45.6906 6.91875 44.6094 7.97813 44.0781L27.7 34.2188C27.8375 34.15 27.9844 34.1031 28.125 34.0375V28.125H31.25V32.7688C34.1531 31.7875 37.2125 31.25 40.2781 31.25H50.4938C51.3906 31.25 52.2688 31.3656 53.125 31.5469V31.25H56.25V32.6813C57.8125 33.4938 59.2219 34.6156 60.3469 36.0563C62.0938 38.2938 63.0063 40.9906 63 43.75H68.75C73.9188 43.75 78.125 47.9563 78.125 53.125H81.25C82.975 53.125 84.375 54.525 84.375 56.25C84.375 57.975 82.975 59.375 81.25 59.375H78.125C78.125 64.5438 73.9188 68.75 68.75 68.75C68.8094 68.8125 70.95 70.95 70.95 70.95L68.7375 73.1594L66.5281 70.95L68.7281 68.75H56.7563L41.425 73.8594ZM26.0688 54.8531C29.2281 56.4312 31.25 59.6656 31.25 63.2438C31.25 63.8188 31.8156 64.225 32.3594 64.0438L52.0063 57.4938C53.0188 57.1563 53.7906 56.325 54.05 55.2875L56.5563 45.2656C57.025 43.3844 56.6125 41.4313 55.4187 39.9031C54.225 38.375 52.4313 37.5 50.4938 37.5H40.2781C36.8813 37.5 33.5313 38.2906 30.4969 39.8094L13.2375 48.4375L26.0688 54.8531ZM55.7437 62.5H68.75C70.4719 62.5 71.875 61.0969 71.875 59.375V53.125C71.875 51.4031 70.4719 50 68.75 50H58.5938L57.0813 56.0469C56.5625 58.1187 55.0219 59.7844 52.9938 60.4594L32.2375 67.3781C30.2156 68.0531 28.125 66.5469 28.125 64.4156V64.0188L20.0531 74.3938L55.7437 62.5ZM68.75 53.125H65.625V56.25H68.75V53.125Z" fill="white"/>
<rect x="65.5996" y="53.0996" width="3.2" height="3.2" fill="#EE2C2F"/>
</svg>
