<svg width="100" height="100" viewBox="0 0 100 100" fill="none" xmlns="http://www.w3.org/2000/svg">
<path d="M38.1641 60.8945V94.9953C38.1641 97.76 40.4059 100 43.1692 100C45.9325 100 48.1743 97.7598 48.1743 94.9953V65.1692H51.8236V94.9955C51.8236 97.7602 54.0655 100 56.829 100C59.5922 100 61.8341 97.76 61.8341 94.9955V60.8945C39.3499 60.8945 60.648 60.8945 38.1641 60.8945Z" fill="white"/>
<path d="M61.0236 45.8784C61.0236 42.193 64.0112 39.2052 67.6966 39.2052H67.8305V24.7313C67.8305 22.88 66.3323 21.3799 64.4809 21.3799C23.4957 21.3799 56.3964 21.3799 35.5195 21.3799C33.6694 21.3799 32.1699 22.88 32.1699 24.7313V39.2052H32.3038C35.9892 39.2052 38.9768 42.193 38.9768 45.8784C38.9768 49.5638 35.9892 52.5521 32.3038 52.5521H32.1699V54.2071C32.1699 56.0565 33.6692 57.5566 35.5195 57.5566H64.4809C66.3321 57.5566 67.8305 56.0567 67.8305 54.2071V52.5521H67.6966C64.0112 52.5521 61.0236 49.5638 61.0236 45.8784Z" fill="#EE2C2F"/>
<path d="M72.3424 42.542H67.6952C65.8551 42.542 64.3594 44.0357 64.3594 45.8785C64.3594 47.7211 65.8551 49.2149 67.6952 49.2149H72.3424C74.1838 49.2149 75.6795 47.7211 75.6795 45.8785C75.6795 44.0357 74.1838 42.542 72.3424 42.542Z" fill="white"/>
<path d="M35.639 45.8785C35.639 44.0357 34.1445 42.542 32.3031 42.542H27.6562C25.816 42.542 24.3203 44.0357 24.3203 45.8785C24.3203 47.7211 25.816 49.2149 27.6562 49.2149H32.3031C34.1445 49.2149 35.639 47.7211 35.639 45.8785Z" fill="white"/>
<path d="M50.0006 19.5032C55.1223 19.5032 59.7531 15.2918 59.7531 9.75252C59.7531 4.36448 55.386 0 50.0006 0C44.6101 0 40.248 4.36448 40.248 9.75252C40.248 15.2888 44.8716 19.5032 50.0006 19.5032Z" fill="white"/>
</svg>
