<svg width="100" height="100" viewBox="0 0 100 100" fill="none" xmlns="http://www.w3.org/2000/svg">
<g clip-path="url(#clip0_408_182)">
<path d="M39.864 43.0078C40.1183 43.1132 40.3852 43.1644 40.65 43.1644C41.1846 43.1644 41.7102 42.9555 42.1032 42.5625L65.7047 18.961C66.0901 18.5756 66.3066 18.053 66.3066 17.508C66.3066 16.963 66.0901 16.4402 65.7045 16.055C59.0105 9.36321 50.1128 5.67773 40.6504 5.67773C39.5156 5.67773 38.5957 6.59759 38.5957 7.73243V41.1095C38.5957 41.9405 39.0962 42.6897 39.864 43.0078ZM42.7051 9.85287C49.6162 10.2978 56.0961 12.9814 61.2992 17.5549L42.7051 36.1491V9.85287V9.85287Z" fill="#EE2C2F"/>
<path d="M91.3422 39.563C94.1439 37.4195 95.9555 34.0439 95.9555 30.2518C95.9555 23.7891 90.6977 18.531 84.2349 18.531C77.7721 18.531 72.5143 23.7891 72.5143 30.2518C72.5143 33.1554 73.5779 35.8136 75.3329 37.8631H67.107C65.4065 34.4758 63.1851 31.3975 60.4876 28.7C59.6854 27.8976 58.3845 27.8976 57.5818 28.7L37.4863 48.7936V20.377C37.4863 19.2421 36.5664 18.3223 35.4316 18.3223C15.8945 18.3223 0 34.2169 0 53.7538C0 73.292 15.8945 89.1876 35.4316 89.1876C54.9698 89.1876 70.8653 73.292 70.8653 53.7538C70.8653 52.6912 70.8158 51.6258 70.7211 50.5669H71.1093C71.8838 50.5669 72.514 51.1969 72.514 51.9715V89.4843C72.514 92.1522 74.6847 94.3228 77.3525 94.3228H91.1172C93.7851 94.3228 95.9557 92.1522 95.9557 89.4843V71.9463C98.3108 71.1011 100 68.8457 100 66.2031V53.6282C100 47.4918 96.4733 42.1667 91.3422 39.563ZM76.6234 30.2518C76.6234 26.0548 80.0379 22.6404 84.2347 22.6404C88.4314 22.6404 91.8459 26.0548 91.8459 30.2518C91.8459 34.4488 88.4314 37.8631 84.2347 37.8631C80.0379 37.8631 76.6234 34.4488 76.6234 30.2518ZM33.3769 22.4985V49.4046L12.6065 32.326C17.8851 26.7067 25.2091 23.0299 33.3769 22.4985ZM4.10939 53.7538C4.10939 46.9474 6.29299 40.6421 9.99468 35.4989L32.9067 54.3382L20.5716 81.3226C10.7772 76.0213 4.10939 65.6518 4.10939 53.7538ZM66.7559 53.7538C66.7559 71.026 52.7038 85.0782 35.4316 85.0782C31.5155 85.0782 27.7661 84.3536 24.3072 83.035L37.1489 54.9421L58.9875 33.1055C60.2858 34.584 61.4345 36.1747 62.429 37.8631H58.2019C54.6994 37.8631 51.8501 40.7124 51.8501 44.2149C51.8501 47.7174 54.6994 50.5669 58.2019 50.5669H66.589C66.696 51.6245 66.7559 52.6904 66.7559 53.7538ZM95.8906 66.2033C95.8906 67.3021 94.9956 68.1955 93.8963 68.1931C92.7679 68.1906 91.8461 69.1952 91.8461 70.3235V89.4845C91.8461 89.8873 91.5197 90.2136 91.117 90.2136H87.1307C86.6659 90.2136 86.2894 89.8369 86.2894 89.3723V73.034C86.2894 71.9396 85.4636 70.9841 84.3716 70.9133C83.1749 70.8359 82.18 71.7837 82.18 72.9635V89.3721C82.18 89.8369 81.8032 90.2134 81.3386 90.2134H77.3523C76.9496 90.2134 76.6232 89.887 76.6232 89.4843V51.9717C76.6232 48.9264 74.1546 46.4577 71.1093 46.4577H58.2677C57.1006 46.4577 56.0791 45.5935 55.9696 44.4316C55.844 43.0984 56.8938 41.9727 58.2019 41.9727H84.2347C90.6721 41.9727 95.8906 47.1911 95.8906 53.6286V66.2033V66.2033Z" fill="white"/>
</g>
<defs>
<clipPath id="clip0_408_182">
<rect width="100" height="100" fill="white"/>
</clipPath>
</defs>
</svg>
