<svg width="100" height="100" viewBox="0 0 100 100" fill="none" xmlns="http://www.w3.org/2000/svg">
<path d="M41.666 29.1667H58.3327M6.24935 60.4167C6.24935 60.4167 22.916 20.8333 24.9994 16.6667C27.0827 12.5 31.2494 12.5 33.3327 12.5C35.416 12.5 41.666 12.5 41.666 20.8333V66.6667H58.3327V20.8333C58.3327 12.5 64.5827 12.5 66.666 12.5C68.7493 12.5 72.916 12.5 74.9994 16.6667C77.0827 20.8333 93.7494 60.4167 93.7494 60.4167M77.0827 87.5C87.438 87.5 95.8327 79.1053 95.8327 68.75C95.8327 58.3947 87.438 50 77.0827 50C66.7273 50 58.3327 58.3947 58.3327 68.75C58.3327 79.1053 66.7273 87.5 77.0827 87.5ZM22.916 87.5C12.5607 87.5 4.16602 79.1053 4.16602 68.75C4.16602 58.3947 12.5607 50 22.916 50C33.2714 50 41.666 58.3947 41.666 68.75C41.666 79.1053 33.2714 87.5 22.916 87.5Z" stroke="white" stroke-width="5"/>
<path d="M43.4 68.8996C43.4 80.111 34.2442 89.1996 22.95 89.1996C11.6558 89.1996 2.5 80.111 2.5 68.8996C2.5 57.6882 11.6558 48.5996 22.95 48.5996C34.2442 48.5996 43.4 57.6882 43.4 68.8996ZM5.59534 68.8996C5.59534 78.414 13.3653 86.127 22.95 86.127C32.5347 86.127 40.3047 78.414 40.3047 68.8996C40.3047 59.3852 32.5347 51.6722 22.95 51.6722C13.3653 51.6722 5.59534 59.3852 5.59534 68.8996Z" fill="#EE2C2F"/>
<path d="M97.4 68.8996C97.4 80.111 88.2442 89.1996 76.95 89.1996C65.6558 89.1996 56.5 80.111 56.5 68.8996C56.5 57.6882 65.6558 48.5996 76.95 48.5996C88.2442 48.5996 97.4 57.6882 97.4 68.8996ZM59.5953 68.8996C59.5953 78.414 67.3653 86.127 76.95 86.127C86.5347 86.127 94.3047 78.414 94.3047 68.8996C94.3047 59.3852 86.5347 51.6722 76.95 51.6722C67.3653 51.6722 59.5953 59.3852 59.5953 68.8996Z" fill="#EE2C2F"/>
</svg>
