<svg width="100" height="100" viewBox="0 0 100 100" fill="none" xmlns="http://www.w3.org/2000/svg">
<path d="M49.9985 44.1471C52.2745 44.1471 54.2154 42.4017 54.9363 40.6562H45.0625C45.7816 42.4017 47.7225 44.1471 49.9985 44.1471Z" fill="white"/>
<path d="M64.6294 47.6377H34.2906H15.0911H12.6789L5.69727 61.601H57.6478L64.6294 47.6377Z" fill="#EE2C2F"/>
<path d="M58.7265 65.092H13.3457V90.7636C13.3457 93.6505 15.695 96.5095 18.5819 96.5095H30.7998V76.8002C30.7998 76.1946 31.114 75.6343 31.6272 75.3149C32.1421 74.9937 32.7844 74.9693 33.3255 75.2381L36.0361 76.5925L38.745 75.2381C39.2354 74.992 39.8132 74.992 40.3071 75.2381L43.0177 76.5925L45.7284 75.2381C46.2694 74.9693 46.9118 74.9937 47.4267 75.3149C47.9398 75.6343 48.254 76.1946 48.254 76.8002V96.5095H65.7081V52.7764L60.2869 63.872C59.9919 64.4637 59.3897 65.092 58.7265 65.092Z" fill="#EE2C2F"/>
<path d="M42.2359 80.1054L39.5253 78.751L36.8164 80.1054C36.326 80.3515 35.7465 80.3515 35.2543 80.1054L34.2891 79.6237V96.5088H44.7615V79.6237L43.7963 80.1054C43.3076 80.3515 42.7299 80.3515 42.2359 80.1054Z" fill="#EE2C2F"/>
<path d="M74.6168 63.872L69.1973 52.7764V96.5095H81.4152C84.3021 96.5095 86.6514 93.6505 86.6514 90.7636V65.092H76.1789C75.5174 65.092 74.9152 64.4637 74.6168 63.872Z" fill="#EE2C2F"/>
<path d="M41.2714 38.9106C41.2714 37.9454 42.0533 37.1652 43.0168 37.1652H56.9801C57.9436 37.1652 58.7255 37.9454 58.7255 38.9106C58.7255 40.8829 58.0431 42.4014 56.9347 44.1468H63.9618V29.6738C63.9618 26.7852 61.6125 24.9473 58.7255 24.9473H41.2714C38.3845 24.9473 36.0352 26.7852 36.0352 29.6738V44.1468H43.0622C41.9556 42.4014 41.2714 40.8829 41.2714 38.9106ZM55.2347 29.6738C56.1982 29.6738 56.9801 30.4558 56.9801 31.4193C56.9801 32.3827 56.1982 33.1647 55.2347 33.1647C54.2712 33.1647 53.4893 32.3827 53.4893 31.4193C53.4893 30.454 54.2712 29.6738 55.2347 29.6738ZM44.7622 29.6738C45.7257 29.6738 46.5076 30.4558 46.5076 31.4193C46.5076 32.3827 45.7257 33.1647 44.7622 33.1647C43.7988 33.1647 43.0168 32.3827 43.0168 31.4193C43.0168 30.454 43.7988 29.6738 44.7622 29.6738Z" fill="#EE2C2F"/>
<path d="M84.9074 47.6377H70.2773L77.259 61.601H94.3012L87.3196 47.6377H84.9074Z" fill="#EE2C2F"/>
<path d="M89.9607 44.8551C89.6657 44.2651 89.0618 44.1464 88.4003 44.1464H84.9095H67.4554V29.6735C67.4554 24.8614 63.5404 21.4561 58.7283 21.4561H41.2741C36.462 21.4561 32.5471 24.8614 32.5471 29.6735V44.1464H15.0929H11.6021C10.9406 44.1464 10.3367 44.2651 10.04 44.8551L1.31289 62.1818C1.04235 62.7229 1.07202 63.5554 1.38969 64.0703C1.70735 64.587 2.26938 65.0914 2.87503 65.0914H9.85669V90.763C9.85669 95.5733 13.7717 99.9997 18.5838 99.9997H32.5471H46.5104H67.4554H81.4187C86.2308 99.9997 90.1457 95.5733 90.1457 90.763V65.0914H97.1274C97.733 65.0914 98.2933 64.5224 98.6127 64.0075C98.9304 63.4926 98.9601 62.8503 98.6895 62.3092L89.9607 44.8551ZM36.0362 29.6735C36.0362 26.7848 38.3855 24.9469 41.2724 24.9469H58.7265C61.6135 24.9469 63.9628 26.7848 63.9628 29.6735V44.1464H56.9357C58.0441 42.401 58.7265 40.8825 58.7265 38.9102C58.7265 37.945 57.9446 37.1648 56.9811 37.1648H43.0178C42.0543 37.1648 41.2724 37.945 41.2724 38.9102C41.2724 40.8825 41.9549 42.401 43.0632 44.1464H36.0362V29.6735ZM45.0617 40.6556H54.9355C54.2146 42.401 52.2737 44.1464 49.9977 44.1464C47.7234 44.1464 45.7825 42.401 45.0617 40.6556ZM12.679 47.6373H15.0912H34.2907H64.6295L57.6479 61.6006H5.69737L12.679 47.6373ZM13.3458 90.763V65.0914H58.7265C59.388 65.0914 59.992 64.4631 60.2869 63.8714L65.7082 52.7758V96.5089H48.2541V76.7996C48.2541 76.194 47.9399 75.6337 47.4267 75.3143C46.9118 74.9931 46.2678 74.9687 45.7284 75.2375L43.0178 76.5919L40.3072 75.2375C39.815 74.9914 39.2372 74.9914 38.745 75.2375L36.0362 76.5919L33.3255 75.2375C32.7844 74.9687 32.1421 74.9931 31.6272 75.3143C31.1141 75.6337 30.7999 76.194 30.7999 76.7996V96.5089H18.582C15.6951 96.5089 13.3458 93.6499 13.3458 90.763ZM34.2907 96.5089V79.6237L35.256 80.1055C35.7464 80.3516 36.3259 80.3516 36.8181 80.1055L39.527 78.751L42.2376 80.1055C42.7298 80.3516 43.3075 80.3516 43.7998 80.1055L44.7632 79.6237V96.5089H34.2907ZM86.6532 90.763C86.6532 93.6499 84.3038 96.5089 81.4169 96.5089H69.199V52.7758L74.6185 63.8714C74.9153 64.4631 75.5192 65.0914 76.1807 65.0914H86.6532V90.763ZM77.2593 61.6006L70.2777 47.6373H84.9077H87.3199L94.3016 61.6006H77.2593Z" fill="white"/>
<path d="M44.763 33.1647C45.727 33.1647 46.5084 32.3832 46.5084 31.4192C46.5084 30.4553 45.727 29.6738 44.763 29.6738C43.799 29.6738 43.0176 30.4553 43.0176 31.4192C43.0176 32.3832 43.799 33.1647 44.763 33.1647Z" fill="white"/>
<path d="M55.2356 33.1647C56.1996 33.1647 56.9811 32.3832 56.9811 31.4192C56.9811 30.4553 56.1996 29.6738 55.2356 29.6738C54.2717 29.6738 53.4902 30.4553 53.4902 31.4192C53.4902 32.3832 54.2717 33.1647 55.2356 33.1647Z" fill="white"/>
<path d="M15.0903 40.6562H18.5811C18.5811 30.1837 10.7512 22.6924 1.12695 22.6924V26.1832C8.82597 26.1832 15.0903 31.9291 15.0903 40.6562Z" fill="white"/>
<path d="M22.0726 24.9469H25.5634C25.5634 10.9836 15.3842 1.74512 2.87305 1.74512V5.23594C13.459 5.23594 22.0726 12.729 22.0726 24.9469Z" fill="white"/>
<path d="M41.2706 17.9655H44.7615C44.7615 9.23839 37.7135 1.74707 29.0527 1.74707V5.2379C35.7918 5.23615 41.2706 10.9838 41.2706 17.9655Z" fill="white"/>
<path d="M81.416 40.6562H84.9068C84.9068 31.9291 91.1711 26.1832 98.8702 26.1832V22.6924C89.2459 22.6924 81.416 30.1837 81.416 40.6562Z" fill="white"/>
<path d="M97.124 5.23594V1.74512C84.6111 1.74512 74.4336 10.9836 74.4336 24.9469H77.9244C77.9244 12.729 86.5398 5.23594 97.124 5.23594Z" fill="white"/>
<path d="M70.9431 5.23595V1.74512C62.2824 1.74512 55.2344 9.23818 55.2344 17.9653H58.7252C58.7252 10.9836 64.2058 5.23595 70.9431 5.23595Z" fill="white"/>
<path d="M25.5631 27.9287H22.0723V31.4195H25.5631V27.9287Z" fill="white"/>
<path d="M25.5631 34.9102H22.0723V38.401H25.5631V34.9102Z" fill="white"/>
<path d="M77.9244 27.9287H74.4336V31.4195H77.9244V27.9287Z" fill="white"/>
<path d="M77.9244 34.9102H74.4336V38.401H77.9244V34.9102Z" fill="white"/>
<path d="M25.5631 1.74512H22.0723V5.23595H25.5631V1.74512Z" fill="white"/>
<path d="M77.9244 1.74512H74.4336V5.23595H77.9244V1.74512Z" fill="white"/>
<path d="M51.7447 13.9648H48.2539V17.4557H51.7447V13.9648Z" fill="white"/>
<path d="M51.7447 6.98145H48.2539V10.4723H51.7447V6.98145Z" fill="white"/>
<path d="M51.7447 0H48.2539V3.49083H51.7447V0Z" fill="white"/>
<path d="M34.2897 13.9648H30.7988V17.4557H34.2897V13.9648Z" fill="white"/>
<path d="M69.1979 13.9648H65.707V17.4557H69.1979V13.9648Z" fill="white"/>
</svg>
