<svg width="100" height="100" viewBox="0 0 100 100" fill="none" xmlns="http://www.w3.org/2000/svg">
<path d="M11.1808 69.5459C10.1141 69.5459 9.61914 70.7748 9.61914 72.3172C9.61914 73.9258 10.1632 75.0885 11.2021 75.0885C12.2241 75.0885 12.719 74.0432 12.719 72.3172C12.719 70.7534 12.2987 69.5459 11.1808 69.5459Z" fill="#EE2C2F"/>
<path d="M22.2891 75.9395C21.1947 75.9395 20.7253 77.1726 20.7253 78.7129C20.7019 80.3215 21.248 81.48 22.2891 81.48C23.3068 81.48 23.8017 80.4431 23.8017 78.7129C23.8017 77.1448 23.4028 75.9395 22.2891 75.9395Z" fill="#EE2C2F"/>
<path d="M16.709 58.8232C7.47765 58.8232 0 66.3073 0 75.5365C0 84.7657 7.47765 92.2497 16.709 92.2497C25.9382 92.2497 33.4244 84.7657 33.4244 75.5365C33.4244 66.3073 25.9382 58.8232 16.709 58.8232ZM6.94003 72.411C6.94003 69.6653 8.62117 67.5788 11.2517 67.5788C13.9035 67.5788 15.3927 69.5202 15.3927 72.1529C15.3927 75.3743 13.3552 77.0534 11.1322 77.0534C8.78971 77.0491 6.94003 75.3039 6.94003 72.411ZM13.4832 82.9117C13.336 83.1741 13.0566 83.3406 12.7515 83.3406C12.4528 83.3406 12.1776 83.1827 12.0282 82.9245C11.8789 82.6707 11.8746 82.3506 12.0197 82.0904L19.9134 67.933C20.0627 67.6641 20.3443 67.4977 20.6537 67.4977C20.9545 67.4977 21.2318 67.6578 21.3833 67.9159C21.5348 68.1762 21.5391 68.4941 21.3918 68.7607L13.4832 82.9117ZM22.2153 83.4494C19.8984 83.4494 18.0488 81.6978 18.0274 78.807C18.0274 76.0613 19.7064 73.9727 22.337 73.9727C24.9909 73.9727 26.4779 75.9141 26.4779 78.5446C26.4779 81.7661 24.4448 83.4494 22.2153 83.4494Z" fill="#EE2C2F"/>
<path d="M2.97318 16.626H97.2876C97.789 16.626 98.2391 16.3167 98.414 15.8473C98.5911 15.3758 98.4546 14.8489 98.0791 14.5182L92.8159 9.9292C91.2244 8.55101 89.1913 7.75098 87.0813 7.75098H13.0685C10.9287 7.75098 8.85929 8.57448 7.25923 9.99321L2.17101 14.5161C1.79979 14.8489 1.66752 15.3801 1.84673 15.8473C2.0238 16.3145 2.47182 16.626 2.97318 16.626Z" fill="white"/>
<path d="M76.1978 35.1701L72.1784 38.0972C68.1697 41.0455 62.7806 40.8471 58.7719 37.8987L54.8528 35.072C52.3951 33.2628 49.0862 33.3674 46.6221 35.168L42.6049 38.0694C38.5919 41.0178 33.2071 40.7895 29.2006 37.8411L25.2772 34.9568C22.8195 33.1455 19.4828 33.1391 17.0208 34.9397L9.79492 40.3287V56.9374C12.0414 56.1502 14.2708 55.7086 16.6837 55.7086C18.7553 55.7086 20.7757 56.0457 22.6509 56.6046H81.7916V70.7599C81.7916 73.1002 79.8587 75.0267 77.5183 75.0267H36.5203C36.5267 75.1398 36.5289 75.3723 36.5289 75.5515C36.5289 79.2978 35.4899 82.7945 33.6829 85.7771L81.7447 85.76C86.5491 85.76 90.4362 81.8814 90.4362 77.0769V39.3793L84.42 35.0741C81.9623 33.265 78.664 33.3674 76.1978 35.1701ZM81.7895 51.2177H18.894V48.4933C18.894 46.1551 20.7927 44.2563 23.1288 44.2563H77.5141C79.8544 44.2563 81.7873 46.1551 81.7873 48.4933L81.7895 51.2177Z" fill="white"/>
<path d="M99.4642 19.6108C99.0204 19.0753 98.3569 18.7617 97.6614 18.7617H2.87551C2.14588 18.7617 1.45465 19.1052 1.01517 19.6855C0.571414 20.2679 0.428474 21.0231 0.620483 21.7272L3.56034 32.3175C3.94009 33.6808 4.96627 34.7688 6.30392 35.2254C7.64158 35.6819 9.12004 35.4472 10.2486 34.6003L14.4813 31.4321C18.4879 28.5115 23.8599 28.5221 27.8558 31.4577L31.7749 34.3442C34.2411 36.1577 37.5607 36.1555 40.0248 34.3442L43.9887 31.4279C47.4961 28.8485 52.0872 28.5413 55.8634 30.4934C55.8975 30.5105 55.9252 30.534 55.9594 30.551C56.4138 30.79 56.8597 31.0481 57.2885 31.3553L62.093 34.8029C64.4504 36.1257 67.3689 35.9785 69.6005 34.3421L73.5644 31.4257C77.0717 28.8421 81.6565 28.5328 85.4369 30.487C85.4732 30.5062 85.4988 30.5212 85.5329 30.5382C85.9852 30.7793 86.4353 31.0182 86.862 31.3255L91.2953 34.4872C92.4815 35.3342 94.0133 35.5176 95.368 34.9757C96.7227 34.4339 97.7084 33.2413 97.9857 31.8097L99.9527 21.5458C100.091 20.8567 99.9101 20.1484 99.4642 19.6108Z" fill="white"/>
</svg>
