<svg width="100" height="100" viewBox="0 0 100 100" fill="none" xmlns="http://www.w3.org/2000/svg">
<path d="M57.0971 54.9562L35.8205 44.318C35.8115 44.3135 35.8021 44.3105 35.7934 44.3062C35.7545 44.2875 35.7146 44.2705 35.674 44.2549C35.6588 44.2492 35.6434 44.2434 35.6281 44.2381C35.5877 44.224 35.5465 44.2119 35.5045 44.2014C35.4889 44.1973 35.4736 44.1928 35.4578 44.1895C35.4145 44.1797 35.3703 44.1725 35.326 44.1662C35.3117 44.1643 35.2977 44.1613 35.2834 44.1596C35.2254 44.1531 35.1666 44.1494 35.107 44.1494H22.873C21.9918 44.1494 21.2773 44.8637 21.2773 45.7451C21.2773 46.6266 21.9918 47.3408 22.873 47.3408H33.5113V54.7877H22.873C21.9918 54.7877 21.2773 55.502 21.2773 56.3834C21.2773 57.2648 21.9918 57.9791 22.873 57.9791H33.5113V65.426H22.8732V65.4258C21.992 65.4258 21.2775 66.14 21.2775 67.0215C21.2775 67.9029 21.992 68.6172 22.8732 68.6172H35.1072C35.167 68.6172 35.2258 68.6133 35.2836 68.607C35.2979 68.6055 35.3119 68.6025 35.3262 68.6004C35.3709 68.5941 35.4148 68.5869 35.458 68.5771C35.4736 68.5736 35.4891 68.5693 35.5047 68.5652C35.5467 68.5543 35.5879 68.5424 35.6283 68.5285C35.6437 68.5232 35.6592 68.5174 35.6744 68.5117C35.715 68.4961 35.7547 68.4791 35.7934 68.4607C35.8023 68.4564 35.8117 68.4535 35.8205 68.449L57.0971 57.8107C57.6375 57.5402 57.9791 56.9879 57.9791 56.3836C57.9793 55.7791 57.6379 55.2266 57.0971 54.9562ZM44.1498 60.7162L36.7029 64.4396V48.3271L44.1498 52.0506V60.7162ZM47.3412 59.1205V53.6463L52.8154 56.3834L47.3412 59.1205Z" fill="#EE2C2F"/>
<path d="M98.4043 4.25488H1.5957C0.714453 4.25488 0 4.96914 0 5.85059V94.1484C0 95.0299 0.714453 95.7442 1.5957 95.7442H98.4043C99.2857 95.7442 100 95.0299 100 94.1484V5.85059C100 4.96914 99.2857 4.25488 98.4043 4.25488ZM96.8086 92.5527H3.19141V20.2123H96.8086V92.5527ZM96.8086 17.0209H3.19141V7.44648H96.8086V17.0209Z" fill="white"/>
<path d="M92.0211 76.5957C92.9025 76.5957 93.6168 75.8814 93.6168 75V25C93.6168 24.1186 92.9025 23.4043 92.0211 23.4043H7.97852C7.09727 23.4043 6.38281 24.1186 6.38281 25V87.766C6.38281 88.6475 7.09727 89.3617 7.97852 89.3617H92.0211C92.9025 89.3617 93.6168 88.6475 93.6168 87.766V81.383C93.6168 80.5016 92.9025 79.7873 92.0211 79.7873C91.1396 79.7873 90.4254 80.5016 90.4254 81.383V86.1703H9.57422V26.5957H90.4252V75C90.4254 75.8814 91.1396 76.5957 92.0211 76.5957Z" fill="white"/>
<path d="M62.7668 36.1699H16.4902C15.609 36.1699 14.8945 36.8842 14.8945 37.7656V74.9996C14.8945 75.8811 15.609 76.5953 16.4902 76.5953H62.7668C63.6482 76.5953 64.3625 75.8811 64.3625 74.9996V37.7656C64.3625 36.884 63.6482 36.1699 62.7668 36.1699ZM61.1709 73.4039H18.0859V39.3613H61.1711V73.4039H61.1709Z" fill="white"/>
<path d="M83.5113 36.1699H71.2773C70.3959 36.1699 69.6816 36.8842 69.6816 37.7656C69.6816 38.6471 70.3959 39.3613 71.2773 39.3613H83.5113C84.3928 39.3613 85.107 38.6471 85.107 37.7656C85.107 36.8842 84.393 36.1699 83.5113 36.1699Z" fill="#EE2C2F"/>
<path d="M83.5113 44.6807H71.2773C70.3959 44.6807 69.6816 45.3949 69.6816 46.2764C69.6816 47.1578 70.3959 47.8721 71.2773 47.8721H83.5113C84.3928 47.8721 85.107 47.1578 85.107 46.2764C85.1072 45.3949 84.393 44.6807 83.5113 44.6807Z" fill="#EE2C2F"/>
<path d="M83.5113 53.1914H71.2773C70.3959 53.1914 69.6816 53.9057 69.6816 54.7871C69.6816 55.6686 70.3959 56.3828 71.2773 56.3828H83.5113C84.3928 56.3828 85.107 55.6686 85.107 54.7871C85.1072 53.9057 84.393 53.1914 83.5113 53.1914Z" fill="#EE2C2F"/>
<path d="M84.043 13.8301C84.9243 13.8301 85.6387 13.1157 85.6387 12.2344C85.6387 11.3531 84.9243 10.6387 84.043 10.6387C83.1617 10.6387 82.4473 11.3531 82.4473 12.2344C82.4473 13.1157 83.1617 13.8301 84.043 13.8301Z" fill="white"/>
<path d="M77.6602 13.8301C78.5414 13.8301 79.2559 13.1157 79.2559 12.2344C79.2559 11.3531 78.5414 10.6387 77.6602 10.6387C76.7789 10.6387 76.0645 11.3531 76.0645 12.2344C76.0645 13.1157 76.7789 13.8301 77.6602 13.8301Z" fill="white"/>
<path d="M90.4258 13.8301C91.3071 13.8301 92.0215 13.1157 92.0215 12.2344C92.0215 11.3531 91.3071 10.6387 90.4258 10.6387C89.5445 10.6387 88.8301 11.3531 88.8301 12.2344C88.8301 13.1157 89.5445 13.8301 90.4258 13.8301Z" fill="white"/>
</svg>
