<svg width="100" height="100" viewBox="0 0 100 100" fill="none" xmlns="http://www.w3.org/2000/svg">
<path d="M83.916 55.6348L83.9355 55.6445C84.2383 53.7988 84.3848 51.9141 84.3848 50.0488C84.3848 48.3789 84.2578 46.6992 84.0234 45.0586C84.2578 46.6894 84.375 48.3398 84.375 49.9902C84.375 51.8848 84.2188 53.7793 83.916 55.6348ZM9.66797 38.877C9.61914 38.8379 9.58008 38.7988 9.53125 38.75C9.59961 38.8184 9.66797 38.8867 9.74609 38.9551L16.1426 44.4141V44.4043L9.66797 38.877ZM62.0703 17.7832H62.0801L60.5664 9.59961C60.5469 9.50195 60.5273 9.41406 60.498 9.32617C60.5078 9.375 60.5273 9.43359 60.5371 9.48242L62.0703 17.7832ZM67.3438 71.1523L70.4102 68.6328L79.4727 71.8457C81.1328 69.6094 82.5293 67.207 83.6328 64.6582L76.3379 58.418L76.9824 54.5019C77.2266 53.0273 77.3535 51.5137 77.3535 50C77.3535 48.4863 77.2266 46.9727 76.9824 45.498L76.3477 41.6016L83.6426 35.3613C82.5293 32.8223 81.1426 30.4102 79.4824 28.1738L70.4199 31.3867L67.3535 28.8672C65.0195 26.9531 62.4121 25.4492 59.6094 24.3945L55.8887 22.998L54.1406 13.5254C51.3825 13.2129 48.5979 13.2129 45.8398 13.5254L44.0918 23.0176L40.3906 24.4141C37.6074 25.4687 35.0195 26.9727 32.7051 28.877L29.6387 31.4062L20.5176 28.1641C18.8574 30.4004 17.4609 32.8027 16.3574 35.3516L23.7305 41.6504L23.0957 45.5566C22.8516 47.0117 22.7344 48.5059 22.7344 50C22.7344 51.4844 22.8613 52.9883 23.0957 54.4434L23.7305 58.3496L16.3574 64.6484C17.4707 67.1875 18.8574 69.5996 20.5176 71.8359L29.6387 68.5937L32.7051 71.123C35.0195 73.0273 37.6074 74.5312 40.3906 75.5859L44.082 77.0019L45.8301 86.4941C48.584 86.8066 51.3867 86.8066 54.1309 86.4941L55.8789 77.0215L59.5996 75.625C62.4121 74.5703 65.0098 73.0664 67.3438 71.1523V71.1523ZM50.0488 66.2402C47.0703 66.2402 44.2676 65.4785 41.8164 64.1406C36.4551 61.2305 32.8125 55.5566 32.8125 49.0234C32.8125 39.5312 40.5078 31.8359 50 31.8359C56.5332 31.8359 62.207 35.4785 65.1172 40.8398C66.4551 43.2812 67.2168 46.084 67.2168 49.0723C67.2168 58.5547 59.5312 66.2402 50.0488 66.2402V66.2402ZM20.2344 79.375C19.6973 79.5605 19.1406 79.5996 18.6133 79.4922C19.1699 79.6094 19.7559 79.5898 20.3223 79.3945L28.2715 76.5625C28.2617 76.5527 28.2422 76.543 28.2324 76.5332L20.2344 79.375V79.375ZM90.3125 38.877L83.916 44.3457C83.916 44.3652 83.9258 44.3945 83.9258 44.4141L90.3125 38.9551C91.0059 38.3594 91.3965 37.5 91.4063 36.6113C91.377 37.4707 90.9863 38.3008 90.3125 38.877Z" fill="#EE2C2F"/>
<path d="M91.3867 63.1445C91.4355 63.6035 91.3867 64.0723 91.2207 64.5215L91.1328 64.7754C89.3674 69.695 86.731 74.2566 83.3496 78.2422L83.1738 78.4473C82.7641 78.9315 82.2168 79.2796 81.6045 79.4453C80.9923 79.611 80.3441 79.5865 79.7461 79.375L71.8066 76.5527C68.894 78.9524 65.604 80.8531 62.0703 82.1777L60.5371 90.4785C60.4214 91.1031 60.1185 91.6777 59.6684 92.126C59.2184 92.5743 58.6426 92.875 58.0176 92.9883L57.7539 93.0371C55.2016 93.4985 52.6132 93.7305 50.0195 93.7305H50.0488C52.6562 93.7305 55.2637 93.4961 57.8027 93.0371L58.0664 92.9883C58.6914 92.875 59.2672 92.5743 59.7172 92.126C60.1673 91.6777 60.4703 91.1031 60.5859 90.4785L62.1191 82.1875C65.6543 80.8594 68.916 78.9746 71.8457 76.5723L79.7754 79.3945C80.3734 79.606 81.0216 79.6306 81.6338 79.4648C82.2461 79.2991 82.7934 78.951 83.2031 78.4668L83.3789 78.2617C86.7773 74.2481 89.3848 69.7266 91.1523 64.8145L91.2402 64.5605C91.3965 64.1016 91.4453 63.6133 91.3867 63.1445V63.1445Z" fill="#D9D9D9"/>
<path d="M67.1875 49.0234C67.1875 46.0645 66.4355 43.2715 65.1172 40.8398C62.207 35.4785 56.5332 31.8359 50 31.8359C40.5078 31.8359 32.8125 39.5313 32.8125 49.0234C32.8125 55.5566 36.4551 61.2305 41.8164 64.1406C44.248 65.459 47.0313 66.2109 50 66.2109C59.4922 66.2109 67.1875 58.5156 67.1875 49.0234ZM39.0625 49.0234C39.0625 46.1035 40.2051 43.3594 42.2656 41.2891C44.3359 39.2187 47.0801 38.0859 50 38.0859C52.9199 38.0859 55.6641 39.2187 57.7344 41.2891C58.7517 42.3035 59.5585 43.5091 60.1082 44.8364C60.6579 46.1638 60.9397 47.5867 60.9375 49.0234C60.9375 51.9434 59.7949 54.6875 57.7344 56.7578C56.7199 57.7752 55.5144 58.5819 54.187 59.1316C52.8596 59.6813 51.4367 59.9632 50 59.9609C47.0801 59.9609 44.3359 58.8184 42.2656 56.7578C41.2483 55.7434 40.4415 54.5378 39.8918 53.2104C39.3421 51.8831 39.0603 50.4601 39.0625 49.0234V49.0234Z" fill="white"/>
<path d="M58.0176 92.9883C58.6426 92.875 59.2184 92.5743 59.6684 92.126C60.1185 91.6777 60.4215 91.1031 60.5371 90.4785L62.0703 82.1777C65.604 80.8531 68.894 78.9524 71.8067 76.5527L79.7461 79.375C80.3441 79.5865 80.9923 79.611 81.6046 79.4453C82.2168 79.2796 82.7642 78.9315 83.1738 78.4473L83.3496 78.2422C86.7481 74.2285 89.3653 69.6973 91.1328 64.7754L91.2207 64.5215C91.3867 64.0723 91.4356 63.6035 91.3867 63.1445C91.2988 62.373 90.9278 61.6406 90.3125 61.1035L83.9356 55.6445L83.916 55.6348C84.2188 53.7793 84.375 51.8848 84.375 49.9902C84.375 48.3398 84.2578 46.6797 84.0235 45.0586C83.9942 44.8437 83.9551 44.6289 83.9258 44.4141C83.9258 44.3945 83.916 44.3652 83.916 44.3457L90.3125 38.877C90.9863 38.3008 91.377 37.4707 91.4063 36.6113C91.416 36.2207 91.3574 35.8203 91.2207 35.4395L91.1328 35.1855C89.3719 30.2639 86.735 25.7015 83.3496 21.7187L83.1738 21.5137C82.7632 21.0308 82.2158 20.6837 81.6039 20.518C80.992 20.3524 80.3443 20.3761 79.7461 20.5859L71.8067 23.4082C68.877 21.0059 65.6153 19.1113 62.0801 17.7832H62.0703L60.5371 9.48242C60.5274 9.43359 60.5176 9.375 60.4981 9.32617C60.3571 8.73574 60.0476 8.19898 59.6072 7.78116C59.1669 7.36334 58.6146 7.08246 58.0176 6.97266L57.7539 6.92383C52.666 6.00586 47.3145 6.00586 42.2266 6.92383L41.9629 6.97266C41.3379 7.08591 40.7621 7.38665 40.3121 7.83494C39.862 8.28323 39.5591 8.85783 39.4434 9.48242L37.9004 17.8223C34.3935 19.1507 31.1276 21.0442 28.2324 23.4277L20.2344 20.5859C19.6364 20.3744 18.9882 20.3499 18.3759 20.5156C17.7637 20.6813 17.2163 21.0294 16.8067 21.5137L16.6309 21.7187C13.2495 25.7043 10.6131 30.266 8.84768 35.1855L8.75979 35.4395C8.55628 36.007 8.52082 36.6212 8.65766 37.2084C8.7945 37.7956 9.09783 38.3309 9.53127 38.75C9.5801 38.7891 9.61916 38.8379 9.66799 38.877L16.1426 44.4043V44.4141C15.8399 46.25 15.6934 48.1152 15.6934 49.9805C15.6934 51.8555 15.8399 53.7305 16.1426 55.5566L9.66799 61.084C9.18552 61.497 8.84022 62.0471 8.67799 62.6611C8.51576 63.2752 8.54429 63.9241 8.75979 64.5215L8.84768 64.7754C10.6153 69.6973 13.2324 74.2383 16.6309 78.2422L16.8067 78.4473C17.2852 79.0039 17.9199 79.3652 18.6133 79.4922C19.1406 79.5898 19.6973 79.5605 20.2344 79.375L28.2324 76.5332C28.2422 76.543 28.2617 76.5527 28.2715 76.5625C31.1719 78.9355 34.4043 80.8203 37.9004 82.1387L39.4434 90.4785C39.5591 91.1031 39.862 91.6777 40.3121 92.126C40.7621 92.5743 41.3379 92.875 41.9629 92.9883L42.2266 93.0371C44.7754 93.4961 47.3828 93.7305 49.9903 93.7305H50.0196C52.6172 93.7305 55.2246 93.4961 57.7539 93.0371L58.0176 92.9883V92.9883ZM54.1309 86.4941C51.3728 86.8066 48.5882 86.8066 45.8301 86.4941L44.082 77.002L40.3906 75.5859C37.6074 74.5313 35.0196 73.0273 32.7051 71.123L29.6387 68.5938L20.5176 71.8359C18.8574 69.5996 17.4707 67.1875 16.3574 64.6484L23.7305 58.3496L23.0957 54.4434C22.8613 52.9883 22.7344 51.4844 22.7344 50C22.7344 48.5059 22.8516 47.0117 23.0957 45.5566L23.7305 41.6504L16.3574 35.3516C17.461 32.8027 18.8574 30.4004 20.5176 28.1641L29.6387 31.4062L32.7051 28.877C35.0196 26.9727 37.6074 25.4687 40.3906 24.4141L44.0918 23.0176L45.8399 13.5254C48.584 13.2129 51.3867 13.2129 54.1406 13.5254L55.8887 22.998L59.6094 24.3945C62.4121 25.4492 65.0196 26.9531 67.3535 28.8672L70.4199 31.3867L79.4824 28.1738C81.1426 30.4102 82.5293 32.8223 83.6426 35.3613L76.3477 41.6016L76.9824 45.498C77.2266 46.9727 77.3535 48.4863 77.3535 50C77.3535 51.5137 77.2266 53.0273 76.9824 54.502L76.3379 58.418L83.6328 64.6582C82.5269 67.206 81.131 69.6177 79.4727 71.8457L70.4102 68.6328L67.3438 71.1523C65.0098 73.0664 62.4121 74.5703 59.5996 75.625L55.8789 77.0215L54.1309 86.4941V86.4941Z" fill="white"/>
</svg>
