<svg width="100" height="100" viewBox="0 0 100 100" fill="none" xmlns="http://www.w3.org/2000/svg">
<g clip-path="url(#clip0_373_1445)">
<path d="M99.0531 4.81406L88.1156 0.126561C87.6344 -0.0796892 87.0797 -0.0328142 86.6406 0.257811C86.2016 0.546873 85.9375 1.0375 85.9375 1.5625V10.9375V46.875H57.8125V35.9375C57.8125 31.6297 54.1859 28.125 49.8781 28.125H40.625V23.4375H48.3156C52.6234 23.4375 56.25 19.9328 56.25 15.625V1.5625C56.25 0.699998 55.4297 -1.66706e-06 54.5656 -1.66706e-06H48.3156C47.4516 -1.66706e-06 46.875 0.699998 46.875 1.5625V14.0625H39.2344C40.0359 12.5 40.5031 11.0828 40.5031 9.375C40.5031 4.20469 36.2984 -1.66706e-06 31.1281 -1.66706e-06C25.9578 -1.66706e-06 21.7531 4.20469 21.7531 9.375C21.7531 11.3969 22.4031 13.2656 23.4953 14.7984L14.7891 23.5047C13.3141 24.9812 12.5 26.9422 12.5 29.0297C12.5 31.1156 13.3141 33.0781 14.7891 34.5531L20.525 40.2906C20.8187 40.5844 21.2141 40.7484 21.6297 40.7484C22.0453 40.7484 22.5031 40.5828 22.7953 40.2906L25 38.1469V60.9375C25 61.8 25.5766 62.5 26.4406 62.5H26.6031C25.6109 64.0625 25 65.4219 25 67.1875C25 68.9531 25.6109 70.3125 26.6031 71.875H20.3125C16.0047 71.875 12.5 75.3797 12.5 79.6875C12.5 81.4531 13.1109 82.8125 14.1031 84.375H7.8125C3.50469 84.375 0 87.8797 0 92.1875C0 96.4953 3.50469 100 7.8125 100H51.5625C52.1547 100 52.6953 99.6656 52.9594 99.1359C53.2234 98.6062 53.1672 97.9734 52.8109 97.5C50.6156 94.5719 50.5031 90.625 52.4188 87.5H64.0625C64.6547 87.5 65.1953 87.1656 65.4594 86.6359C65.7234 86.1062 65.6672 85.4734 65.3109 85C63.1156 82.0703 63.0031 78.125 64.9188 75H76.5625C77.1547 75 77.6953 74.6656 77.9594 74.1359C78.2234 73.6062 78.1672 72.9734 77.8109 72.5C75.6156 69.5719 75.5031 65.625 77.4188 62.5H89.0625C89.6547 62.5 90.1953 62.1656 90.4594 61.6359C90.7234 61.1062 90.6672 60.4734 90.3109 60C87.9656 56.8719 87.9656 52.5031 90.3109 49.375C90.6656 48.9016 90.7234 48.2672 90.4594 47.7391C90.1953 47.2094 89.6547 46.875 89.0625 46.875V11.9672L99.0531 7.68594C99.6281 7.44062 100 6.875 100 6.25C100 5.625 99.6281 5.05937 99.0531 4.81406ZM31.1281 3.125C34.575 3.125 37.3781 5.92812 37.3781 9.375C37.3781 12.8219 34.575 15.625 31.1281 15.625C27.6813 15.625 24.8781 12.8219 24.8781 9.375C24.8781 5.92969 27.6813 3.125 31.1281 3.125ZM25 30.85L23.1797 29.0297L25 27.2094V30.85ZM25.3359 22.3328L19.7437 27.925C19.45 28.2187 19.2859 28.6156 19.2859 29.0297C19.2859 29.4437 19.45 29.8406 19.7437 30.1344L24.1078 34.4984L21.6297 36.975L16.9984 32.3437C16.1125 31.4578 15.625 30.2812 15.625 29.0297C15.625 27.7781 16.1125 26.6 16.9984 25.7141L25.7047 17.0078C27.2375 18.1 29.1063 18.75 31.1281 18.75C33.0391 18.75 34.8156 18.75 36.3 17.1875H48.3156C49.1797 17.1875 50 16.4875 50 15.625V3.125H53.125V15.625C53.125 18.2094 50.9 20.3125 48.3156 20.3125H38.9406C38.0766 20.3125 37.5 21.0125 37.5 21.875V29.6875C37.5 30.55 38.0766 31.25 38.9406 31.25H49.8781C52.4625 31.25 54.6875 33.3531 54.6875 35.9375V46.875H50V37.5C50 36.6375 49.1797 35.9375 48.3156 35.9375H34.2531C33.3891 35.9375 32.8125 36.6375 32.8125 37.5V59.375H28.125V23.4375C28.125 22.8062 27.6844 22.2359 27.1 21.9937C26.5156 21.7516 25.7828 21.8859 25.3359 22.3328ZM39.1031 59.375H35.9375V39.0625H46.875V46.875H45.3125C41.0047 46.875 37.5 50.3797 37.5 54.6875C37.5 56.4531 38.1109 57.8125 39.1031 59.375ZM7.8125 96.875C5.22812 96.875 3.125 94.7719 3.125 92.1875C3.125 89.6031 5.22812 87.5 7.8125 87.5H20.3125H48.8766C48.4531 89.0625 48.1844 89.0625 48.0453 90.625H10.9375V93.75H48.0469C48.1859 95.3125 48.4531 95.3125 48.8781 96.875H7.8125ZM51.5625 84.375H20.3125C17.7281 84.375 15.625 82.2719 15.625 79.6875C15.625 77.1031 17.7281 75 20.3125 75H32.8125H61.3766C60.9531 76.5625 60.6844 76.5625 60.5453 78.125H35.9375V81.25H60.5469C60.6859 82.8125 60.9531 82.8125 61.3781 84.375H51.5625ZM73.0469 68.75C73.1859 70.3125 73.4531 70.3125 73.8766 71.875H64.0625H32.8125C30.2281 71.875 28.125 69.7719 28.125 67.1875C28.125 64.6031 30.2281 62.5 32.8125 62.5H34.2531H45.3125H73.8766C73.4531 64.0625 73.1844 64.0625 73.0469 65.625H59.375V68.75H73.0469ZM85.5469 56.25C85.6859 57.8125 85.9531 57.8125 86.3766 59.375H76.5625H45.3125C42.7281 59.375 40.625 57.2719 40.625 54.6875C40.625 52.1031 42.7281 50 45.3125 50H48.3156H56.1281H86.3766C85.9531 51.5625 85.6844 51.5625 85.5469 53.125H60.9375V56.25H85.5469ZM89.0625 8.56875V3.93281L94.4703 6.25L89.0625 8.56875Z" fill="white"/>
<path d="M9.375 10.9375H6.25V14.0625H9.375V10.9375Z" fill="#EE2C2F"/>
<path d="M15.625 10.9375H12.5V14.0625H15.625V10.9375Z" fill="#EE2C2F"/>
<path d="M3.125 10.9375H0V14.0625H3.125V10.9375Z" fill="#EE2C2F"/>
<path d="M80.0656 9.42188C76.7719 8.59844 74.2141 6.03906 73.3891 2.74531C73.2172 2.05156 72.5922 1.5625 71.875 1.5625C71.1578 1.5625 70.5328 2.05 70.3594 2.74531C69.5359 6.03906 66.9781 8.59688 63.6844 9.42188C62.9875 9.59531 62.5 10.2203 62.5 10.9375C62.5 11.6547 62.9875 12.2797 63.6844 12.4531C66.9781 13.2766 69.5359 15.8359 70.3594 19.1281C70.5328 19.825 71.1578 20.3125 71.875 20.3125C72.5922 20.3125 73.2172 19.825 73.3906 19.1297C74.2141 15.8359 76.7719 13.2781 80.0672 12.4547C80.7625 12.2797 81.25 11.6547 81.25 10.9375C81.25 10.2203 80.7625 9.59531 80.0656 9.42188ZM71.875 14.8094C70.8922 13.2437 69.5687 11.9203 68.0031 10.9375C69.5687 9.95469 70.8922 8.63281 71.875 7.06719C72.8578 8.63281 74.1813 9.95469 75.7453 10.9375C74.1813 11.9203 72.8578 13.2437 71.875 14.8094Z" fill="#EE2C2F"/>
<path d="M56.25 65.625H37.5V68.75H56.25V65.625Z" fill="white"/>
<path d="M32.8125 78.125H29.6875V81.25H32.8125V78.125Z" fill="white"/>
<path d="M26.5625 78.125H23.4375V81.25H26.5625V78.125Z" fill="white"/>
<path d="M57.8125 53.125H54.6875V56.25H57.8125V53.125Z" fill="white"/>
<path d="M51.5625 53.125H48.4375V56.25H51.5625V53.125Z" fill="white"/>
</g>
<defs>
<clipPath id="clip0_373_1445">
<rect width="100" height="100" fill="white"/>
</clipPath>
</defs>
</svg>
