<svg width="512" height="512" viewBox="0 0 512 512" fill="none" xmlns="http://www.w3.org/2000/svg">
<g clip-path="url(#clip0_390_95)">
<path d="M436.891 74.8672C337.072 -24.9518 174.683 -24.9518 74.8643 74.8672C-24.9548 174.664 -24.9548 337.096 74.8643 436.894C124.763 486.814 190.32 511.753 255.877 511.753C321.434 511.753 386.97 486.814 436.89 436.894C536.709 337.096 536.709 174.664 436.891 74.8672ZM398.96 185.629L249.627 334.963C245.467 339.123 240.006 341.214 234.544 341.214C229.083 341.214 223.621 339.123 219.461 334.963L134.128 249.63C125.787 241.289 125.787 227.806 134.128 219.465C142.469 211.124 155.952 211.124 164.293 219.465L234.544 289.716L368.795 155.465C377.136 147.124 390.619 147.124 398.96 155.465C407.301 163.805 407.301 177.288 398.96 185.629Z" fill="#EE2C2F"/>
<path d="M399.088 185.626L249.755 334.96C245.595 339.12 240.134 341.211 234.672 341.211C229.211 341.211 223.749 339.12 219.589 334.96L134.256 249.627C125.915 241.286 125.915 227.803 134.256 219.462C142.597 211.121 156.08 211.121 164.421 219.462L234.672 289.713L368.923 155.462C377.264 147.121 390.747 147.121 399.088 155.462C407.429 163.802 407.429 177.285 399.088 185.626Z" fill="white"/>
</g>
<defs>
<clipPath id="clip0_390_95">
<rect width="511.755" height="511.755" fill="white"/>
</clipPath>
</defs>
</svg>
